<?xml version="1.0" standalone="no"?>
<!DOCTYPE svg PUBLIC "-//W3C//DTD SVG 20010904//EN"
 "http://www.w3.org/TR/2001/REC-SVG-20010904/DTD/svg10.dtd">
<svg version="1.0" xmlns="http://www.w3.org/2000/svg"
 width="500.000000pt" height="500.000000pt" viewBox="0 0 500.000000 500.000000"
 preserveAspectRatio="xMidYMid meet">
<metadata>
Created by potrace 1.14, written by Peter Selinger 2001-2017
</metadata>
<g transform="translate(0.000000,500.000000) scale(0.100000,-0.100000)"
fill="#000000" stroke="none">
<path d="M2460 3907 c-54 -19 -53 -61 5 -172 27 -52 42 -92 37 -97 -9 -9 -79
38 -142 97 -19 18 -44 37 -55 42 -27 14 -76 -1 -105 -32 -21 -23 -22 -28 -11
-65 15 -51 111 -149 204 -209 37 -24 67 -49 67 -56 0 -6 -26 -22 -57 -35 -50
-20 -103 -60 -103 -76 0 -19 27 -48 56 -60 30 -13 40 -13 77 0 53 18 166 29
181 17 19 -15 103 -31 160 -31 44 0 60 -5 84 -25 38 -32 71 -99 78 -158 5 -39
2 -48 -25 -79 -33 -38 -93 -60 -127 -48 -11 4 -55 33 -98 64 -82 59 -219 145
-296 187 -25 13 -47 26 -50 29 -17 17 -455 220 -475 220 -3 0 -25 8 -48 19
-23 10 -76 30 -117 45 -41 15 -84 31 -96 36 -44 17 -48 -3 -16 -77 47 -105
101 -310 127 -473 3 -19 8 -46 10 -60 3 -14 7 -43 10 -65 14 -118 16 -139 18
-149 4 -22 -81 -7 -154 27 -79 36 -108 49 -124 52 -6 2 -31 12 -55 23 -25 11
-112 45 -195 75 -288 106 -539 172 -556 145 -13 -20 -13 -20 37 -84 40 -50
106 -146 151 -219 47 -75 112 -229 128 -303 15 -72 -61 -95 -157 -46 -42 21
-150 59 -228 79 -8 2 -69 20 -135 38 -170 49 -264 65 -275 47 -6 -9 -3 -22 8
-36 170 -217 241 -323 266 -397 16 -48 15 -132 -4 -167 -5 -10 -10 -28 -10
-39 0 -24 63 -97 91 -106 35 -11 56 -73 39 -116 -15 -36 2 -79 33 -79 13 0 28
5 33 10 14 14 44 2 44 -16 0 -15 -2 -16 -40 -20 -37 -3 -92 -14 -102 -20 -4
-3 -8 -11 -8 -19 0 -21 63 -36 215 -51 96 -9 341 -6 419 6 44 6 98 9 120 5 23
-4 52 -9 66 -11 101 -17 230 -21 450 -14 36 1 97 -3 135 -10 95 -16 173 -26
289 -36 58 -5 271 -5 336 0 30 3 90 12 134 21 51 11 97 14 135 10 84 -10 203
-6 259 9 27 7 58 11 68 9 67 -13 314 -8 444 9 82 11 160 16 180 12 104 -21
419 -20 553 1 78 12 117 26 117 40 0 21 -23 29 -118 40 -29 3 -34 8 -26 29 7
18 29 22 39 6 3 -6 17 -10 31 -10 32 0 51 43 34 78 -15 33 4 98 33 113 69 36
116 119 86 155 -7 9 -13 43 -13 82 -1 60 4 75 42 145 23 43 81 131 130 194
116 154 119 160 105 174 -16 16 -136 -8 -342 -68 -208 -60 -239 -70 -292 -99
-75 -39 -159 -25 -159 27 0 91 140 359 284 543 49 64 50 65 38 83 -8 12 -47 9
-141 -11 -88 -19 -399 -122 -539 -179 -34 -14 -72 -24 -85 -21 -160 35 -272
38 -328 9 -41 -22 -54 -38 -68 -86 -6 -20 -26 -51 -43 -68 l-32 -31 -48 47
c-52 51 -65 80 -73 161 -4 45 -1 61 20 96 30 52 32 102 5 161 -21 47 -37 183
-23 200 4 6 25 23 47 39 86 64 85 141 -4 276 -39 59 -43 94 -26 221 9 63 0 77
-56 85 -23 4 -47 -2 -77 -18 -63 -32 -83 -64 -86 -135 -4 -76 -3 -73 -16 -73
-22 0 -129 140 -129 169 0 5 -14 21 -31 35 -34 29 -80 33 -139 13z m131 -948
c12 -6 28 -17 37 -24 9 -8 44 -35 77 -61 162 -128 368 -331 433 -425 9 -13 19
-26 23 -29 21 -16 127 -194 160 -270 55 -128 77 -217 80 -325 3 -97 -1 -115
-25 -140 -20 -20 -31 -23 -67 -19 -58 7 -150 50 -257 122 -152 103 -206 122
-324 117 -181 -7 -416 -125 -616 -310 -51 -47 -62 -54 -93 -58 -62 -10 -101
40 -125 158 -9 44 -26 870 -19 911 9 49 50 61 118 35 38 -15 84 -23 129 -23
49 1 160 22 176 35 6 5 12 6 12 1 0 -5 4 -4 8 1 4 6 24 19 45 29 78 40 132
126 121 195 -10 65 51 110 107 80z m-483 -42 c39 -25 -25 -89 -100 -101 -37
-6 -62 18 -48 45 25 47 110 79 148 56z m1273 -164 c16 -19 7 -25 -76 -57 -77
-29 -95 -24 -74 21 26 52 118 75 150 36z m-1732 -100 c55 -26 103 -54 106 -63
10 -31 -66 -193 -130 -277 -24 -32 -32 -51 -29 -70 7 -38 37 -93 84 -152 35
-44 43 -62 45 -105 2 -28 -3 -66 -10 -83 -29 -70 -280 -363 -312 -363 -45 0
-140 140 -187 275 -33 94 -76 273 -91 380 -1 11 -6 43 -10 70 -16 99 -11 104
83 101 68 -3 177 13 227 33 90 36 130 136 94 234 -13 38 -7 67 14 67 8 0 60
-21 116 -47z m1830 38 c11 -7 12 -17 2 -54 -6 -25 -11 -68 -11 -95 0 -41 5
-55 35 -89 54 -63 153 -91 303 -88 60 2 74 -1 82 -15 5 -10 8 -19 5 -21 -2 -2
-7 -31 -10 -64 -6 -50 -21 -133 -51 -285 -12 -60 -77 -239 -110 -301 -37 -70
-101 -139 -130 -139 -34 0 -71 61 -73 120 -4 162 -51 360 -121 505 -16 33 -72
134 -124 225 -67 117 -92 169 -86 181 5 8 55 35 112 59 57 24 112 50 123 57
23 15 35 16 54 4z m-2234 -106 c0 -28 -61 -58 -87 -44 -17 9 -18 13 -5 32 25
38 92 47 92 12z m2592 -1 c42 -27 10 -61 -37 -41 -38 16 -53 34 -46 52 7 19
44 14 83 -11z m-2062 -359 c0 -94 -2 -110 -17 -113 -19 -4 -65 52 -71 88 -10
52 39 144 72 138 13 -3 16 -21 16 -113z m-866 79 c39 -14 75 -32 80 -38 8 -9
5 -30 -10 -70 -11 -32 -22 -80 -24 -108 -5 -49 -4 -50 56 -111 113 -114 125
-154 56 -181 -58 -22 -139 -97 -190 -176 -23 -36 -51 -66 -61 -68 -29 -6 -61
16 -84 57 -21 38 -165 369 -187 433 -18 48 -6 57 67 57 160 -2 238 64 207 176
-10 35 -6 55 11 55 5 0 40 -12 79 -26z m3274 -4 c-8 -81 -6 -108 10 -133 27
-42 72 -59 166 -65 47 -2 91 -9 98 -14 15 -12 20 3 -95 -267 -60 -140 -105
-232 -121 -247 -43 -40 -69 -29 -122 52 -54 81 -113 136 -181 167 -34 16 -48
28 -48 42 0 28 43 89 104 146 50 47 51 49 49 101 -1 29 -11 80 -22 112 -25 72
-24 74 69 110 78 30 96 29 93 -4z m-3550 -37 c12 -11 -25 -43 -50 -43 -29 0
-30 14 -1 34 24 17 41 20 51 9z m454 -198 c28 -83 28 -95 5 -95 -24 0 -70 49
-75 80 -6 32 19 93 35 88 6 -2 22 -35 35 -73z m2889 35 c14 -42 3 -84 -28
-110 -26 -22 -58 -26 -58 -7 0 14 37 135 46 149 11 17 29 2 40 -32z m-3425
-207 c7 -27 15 -54 17 -60 6 -20 -20 -15 -45 9 -23 21 -29 51 -17 82 12 30 32
16 45 -31z m3944 27 c10 -33 -4 -76 -30 -90 -14 -7 -27 -11 -30 -9 -2 3 3 31
12 62 16 58 36 73 48 37z"/>
<path d="M3595 1294 c-30 -15 -30 -16 -30 -100 l0 -84 38 0 c22 0 36 4 32 10
-3 5 -6 50 -6 100 0 49 -1 90 -2 89 -1 0 -15 -7 -32 -15z"/>
<path d="M3908 1303 c-24 -4 -27 -7 -21 -34 4 -23 2 -30 -8 -29 -48 7 -79 -16
-79 -58 0 -56 55 -93 88 -60 9 9 12 9 12 0 0 -7 9 -10 23 -8 12 3 24 5 27 5 4
1 4 93 0 184 0 4 -3 6 -7 6 -5 -1 -20 -4 -35 -6z m-18 -132 l-1 -36 -14 25
c-8 14 -14 39 -14 55 0 29 0 29 14 11 8 -11 15 -36 15 -55z"/>
<path d="M4262 1288 c-19 -12 -29 -24 -23 -27 6 -4 9 -36 8 -78 l-3 -71 78 0
c43 0 80 4 84 9 3 5 0 9 -6 9 -6 0 -11 12 -10 28 4 57 0 73 -22 81 -13 5 -27
5 -32 0 -19 -17 -26 -9 -26 31 0 45 -2 46 -48 18z m72 -120 c-1 -13 -3 -29 -3
-35 -1 -7 -5 -13 -11 -13 -5 0 -10 21 -10 46 0 38 3 44 13 35 8 -6 13 -21 11
-33z"/>
<path d="M658 1293 c8 -3 12 -34 12 -107 0 -57 -3 -105 -6 -109 -4 -3 -13 0
-21 8 -27 28 -67 9 -43 -20 22 -27 97 0 122 43 10 18 16 52 16 99 0 40 3 76 6
81 3 6 -17 10 -47 9 -28 0 -46 -2 -39 -4z"/>
<path d="M1270 1290 c0 -5 3 -11 8 -14 4 -2 7 -32 5 -65 -2 -76 18 -101 83
-101 65 0 84 22 85 98 1 34 5 65 10 68 19 12 7 24 -21 22 -32 -2 -36 -8 -19
-25 5 -5 9 -36 7 -68 -3 -65 -23 -89 -55 -69 -15 9 -18 26 -18 86 l0 75 -42 0
c-24 1 -43 -3 -43 -7z"/>
<path d="M2005 1286 c-17 -7 -36 -20 -44 -29 -16 -21 -22 -76 -10 -99 21 -40
96 -59 166 -44 29 7 31 10 26 42 -5 32 1 40 24 32 12 -5 14 -38 4 -57 -9 -16
-5 -18 35 -19 24 -1 44 2 44 8 0 5 -3 10 -8 10 -4 0 -8 14 -8 30 -2 27 1 30
25 28 21 -2 27 2 29 21 6 37 -12 46 -38 19 -13 -12 -20 -18 -16 -11 12 22 -13
23 -50 2 -26 -14 -51 -20 -81 -17 -24 2 -43 0 -43 -4 0 -5 3 -8 8 -8 4 0 7
-15 6 -32 -1 -42 -24 -43 -43 -4 -32 67 -21 121 26 131 25 4 53 -18 53 -41 0
-8 5 -14 10 -14 6 0 10 16 10 35 l0 35 -47 0 c-27 -1 -62 -7 -78 -14z"/>
<path d="M2880 1286 c14 -14 13 -149 -2 -164 -8 -8 9 -11 71 -11 68 0 86 4
102 20 25 25 24 44 -2 70 -18 18 -19 23 -7 37 21 24 11 50 -20 56 -47 10 -154
4 -142 -8z m98 -40 c-4 -34 -23 -35 -22 -1 3 48 3 50 15 38 6 -6 9 -23 7 -37z
m11 -68 c11 -30 -5 -64 -23 -49 -7 6 -12 21 -10 33 1 13 3 26 3 31 2 16 22 6
30 -15z"/>
<path d="M796 1233 c-26 -14 -36 -43 -14 -43 6 0 4 -6 -6 -13 -26 -19 -18 -61
13 -65 13 -2 27 2 32 10 6 10 11 10 21 0 16 -16 43 -15 58 3 9 10 9 15 1 15
-6 0 -11 17 -11 39 0 59 -40 82 -94 54z m34 -23 c0 -11 -6 -20 -14 -20 -9 0
-12 7 -9 20 3 11 9 20 14 20 5 0 9 -9 9 -20z m0 -45 c0 -8 -4 -15 -10 -15 -5
0 -10 7 -10 15 0 8 5 15 10 15 6 0 10 -7 10 -15z"/>
<path d="M917 1242 c-14 -3 -14 -8 6 -40 12 -20 29 -49 36 -64 8 -16 17 -28
20 -28 12 1 88 130 77 131 -35 3 -125 4 -139 1z m97 -21 c4 -5 3 -17 -1 -27
-6 -16 -7 -16 -20 2 -7 10 -13 21 -13 26 0 11 27 10 34 -1z"/>
<path d="M1102 1234 c-34 -14 -44 -44 -14 -45 13 0 11 -3 -6 -10 -30 -12 -28
-63 3 -67 30 -3 53 14 37 30 -13 13 -16 38 -4 38 4 0 12 -15 17 -32 11 -37 44
-49 65 -23 8 10 9 15 1 15 -6 0 -11 18 -11 44 0 39 -3 45 -28 54 -20 7 -37 6
-60 -4z m28 -24 c0 -11 -4 -20 -10 -20 -5 0 -10 9 -10 20 0 11 5 20 10 20 6 0
10 -9 10 -20z"/>
<path d="M1512 1237 c-42 -19 -37 -59 10 -83 16 -8 26 -19 23 -24 -11 -17 -32
-11 -38 11 -7 25 -26 17 -23 -9 2 -11 13 -18 34 -20 74 -7 101 56 39 92 -22
13 -27 20 -18 24 8 2 20 -3 28 -14 12 -17 13 -16 13 7 0 20 -5 25 -24 25 -13
0 -33 -4 -44 -9z"/>
<path d="M1643 1235 c-18 -8 -34 -20 -34 -27 -1 -7 -3 -23 -4 -35 -6 -54 70
-82 115 -43 23 20 21 23 -15 21 -15 -1 -26 9 -38 33 -16 34 -9 55 13 41 8 -5
7 -11 -1 -21 -9 -12 -6 -14 19 -14 36 0 50 16 31 35 -23 21 -52 25 -86 10z"/>
<path d="M1786 1229 c-26 -16 -29 -24 -30 -68 l-2 -50 44 1 c31 0 40 4 33 11
-6 6 -11 24 -11 40 0 23 3 27 19 22 24 -7 42 15 34 43 -5 21 -7 22 -29 8 -18
-13 -23 -13 -26 -2 -2 10 -10 9 -32 -5z"/>
<path d="M2332 1230 c-40 -25 -47 -66 -16 -97 48 -48 134 -19 134 45 0 54 -66
83 -118 52z m57 -54 c10 -40 7 -61 -9 -51 -13 8 -32 83 -24 96 9 15 21 0 33
-45z"/>
<path d="M2465 1240 c-2 -3 0 -12 4 -19 5 -7 6 -29 4 -48 -3 -19 1 -40 7 -48
14 -17 56 -20 65 -5 4 7 11 8 18 1 18 -14 69 -1 63 16 -3 8 -6 36 -6 62 0 43
-2 47 -22 45 -13 -1 -28 -3 -35 -3 -8 -1 -10 -13 -6 -36 3 -19 2 -42 -1 -52
-12 -29 -26 6 -22 53 3 38 2 39 -32 39 -18 0 -35 -2 -37 -5z"/>
<path d="M2737 1239 c-9 -6 -21 -7 -27 -4 -15 9 -72 -24 -63 -38 9 -15 10 -75
2 -109 -7 -24 -5 -26 31 -30 37 -3 38 -3 33 24 -5 26 -3 28 25 28 67 0 93 98
34 129 -11 6 -24 6 -35 0z m8 -86 c3 -18 1 -33 -3 -33 -13 0 -32 43 -30 68 3
31 25 7 33 -35z"/>
<path d="M3136 1239 c-27 -8 -45 -24 -46 -41 0 -17 28 -7 42 14 12 18 15 19
20 6 5 -11 -5 -21 -33 -34 -30 -13 -39 -23 -37 -37 4 -30 33 -45 58 -30 12 8
21 9 25 3 9 -15 41 -12 55 5 7 8 8 15 3 15 -5 0 -10 18 -11 41 -1 22 -4 44 -7
49 -8 13 -39 17 -69 9z m18 -75 c9 -24 7 -28 -9 -14 -17 14 -20 30 -6 30 5 0
12 -7 15 -16z"/>
<path d="M3329 1239 c-8 -5 -21 -6 -29 -4 -18 6 -76 -30 -62 -39 10 -6 9 -57
-2 -75 -5 -7 7 -11 39 -11 33 0 44 3 39 12 -9 14 -12 58 -6 75 9 26 22 0 22
-43 l0 -46 40 3 c43 3 63 -7 40 -21 -10 -6 -11 -12 -5 -18 16 -15 63 -23 70
-12 4 6 3 10 -2 9 -18 -3 -33 2 -33 11 0 6 16 10 35 10 19 0 35 -4 35 -10 0
-5 -4 -10 -10 -10 -5 0 -10 -5 -10 -10 0 -6 13 -4 30 5 31 16 40 47 18 62 -16
9 -20 10 -58 12 -16 0 -30 6 -30 12 0 6 7 8 16 5 13 -5 15 -2 9 11 -4 10 -10
29 -13 43 -5 22 -3 23 11 12 9 -8 17 -28 19 -45 l3 -32 23 23 c13 13 21 30 18
38 -3 8 -1 14 4 14 6 0 10 4 10 9 0 13 -69 18 -102 8 -32 -10 -42 -31 -27 -58
7 -15 6 -23 -5 -34 -22 -23 -26 -19 -26 28 0 23 -4 47 -8 53 -11 16 -37 23
-53 13z"/>
<path d="M3692 1234 c-18 -7 -32 -20 -32 -29 0 -22 31 -18 37 5 3 11 9 17 14
14 18 -11 8 -25 -25 -39 -38 -16 -48 -32 -34 -57 10 -21 39 -23 56 -6 10 10
15 10 21 -1 13 -21 65 -6 56 17 -4 9 -7 34 -8 54 0 31 -4 39 -27 46 -18 7 -36
6 -58 -4z m28 -69 c0 -8 -4 -15 -10 -15 -5 0 -10 7 -10 15 0 8 5 15 10 15 6 0
10 -7 10 -15z"/>
<path d="M4028 1242 c-32 -4 -58 -36 -58 -69 0 -53 78 -84 113 -45 23 25 21
30 -7 25 -17 -4 -27 1 -35 16 -10 18 -9 21 11 22 13 1 28 1 34 0 7 -1 14 5 18
14 7 19 -39 42 -76 37z m22 -27 c0 -8 -7 -15 -15 -15 -9 0 -12 6 -9 15 4 8 10
15 15 15 5 0 9 -7 9 -15z"/>
<path d="M4147 1238 c-24 -9 -27 -15 -26 -46 1 -21 1 -41 -1 -47 -7 -27 2 -35
38 -35 44 0 57 8 66 37 7 22 1 30 -49 67 -20 15 -20 15 3 16 12 0 22 -4 22
-10 0 -5 5 -10 10 -10 6 0 10 7 10 15 0 8 -4 15 -9 15 -5 0 -15 2 -23 4 -7 3
-26 0 -41 -6z m14 -88 c22 -13 25 -30 4 -30 -8 0 -19 9 -25 20 -12 23 -7 25
21 10z"/>
</g>
</svg>
