<?xml version="1.0" standalone="no"?>
<!DOCTYPE svg PUBLIC "-//W3C//DTD SVG 1.1//EN" "http://www.w3.org/Graphics/SVG/1.1/DTD/svg11.dtd" >
<svg xmlns="http://www.w3.org/2000/svg" xmlns:xlink="http://www.w3.org/1999/xlink" version="1.1">
<metadata>
Created by FontForge 20170924 at Wed Oct 26 09:41:30 2016
 By www-data
Copyright \(c\) 2016 by Mateusz Machalski. All rights reserved.
</metadata>
<defs>
<font id="NocturneSerif-Regular" horiz-adv-x="580" >
  <font-face 
    font-family="Nocturne Serif"
    font-weight="400"
    font-stretch="normal"
    units-per-em="1000"
    panose-1="0 0 5 0 0 0 0 0 0 0"
    ascent="800"
    descent="-200"
    x-height="480"
    cap-height="700"
    bbox="-580 -280 1270 1005"
    underline-thickness="50"
    underline-position="-100"
    stemv="90"
    unicode-range="U+0020-25CA"
  />
<missing-glyph horiz-adv-x="510" 
d="M418 780v-1020h-323v1020h323zM340 712h-169v-34h67v-38h-68v-33h170v33h-68v38h68v34zM272 580h-102v-106h170v35h-68v71zM238 545v-36h-34v36h34zM340 446h-170v-33h68v-38h-68v-34h102v72h68v33zM340 385h-34v-67h-136v-35h170v102zM340 261h-102v-57h34v23h34v-48
h-102v82h-34v-115h170v115zM340 84h-170v-115h170v115zM306 51v-48h-102v48h102zM340 -54h-170v-34h72l-72 -48v-34h170v34h-104l71 48h33v34z" />
    <glyph glyph-name="T_T" unicode="TT" horiz-adv-x="1300" 
d="M1182 700l88 20v-199l-97 129h-163v-590l80 -60h-259l79 59v591h-212l-50 -129l-47 129h-211v-590l80 -60h-259l79 59v591h-163l-97 -129v199l88 -20h444l88 20l88 -20h444z" />
    <glyph glyph-name="f_b" unicode="fb" horiz-adv-x="910" 
d="M655 490c102 0 210 -79 210 -238c0 -172 -127 -262 -259 -262c-37 0 -96 7 -135 26l-61 -26v692l-80 58c-71 -6 -130 -76 -130 -185v-75h130l-31 -60h-99v-360l80 -60h-250l80 60v360h-100l100 75v30c0 183 130 255 240 255c53 0 115 -12 150 -30v-259l-15 -85l5 -5
c29 45 89 89 165 89zM613 30c88 0 152 75 152 200c0 115 -54 185 -142 185c-43 0 -89 -17 -123 -49v-244c0 -60 56 -92 113 -92z" />
    <glyph glyph-name="f_f_b" unicode="ffb" horiz-adv-x="1210" 
d="M955 490c102 0 210 -79 210 -238c0 -172 -127 -262 -259 -262c-37 0 -96 7 -135 26l-61 -26v692l-80 58c-71 -6 -130 -76 -130 -185v-75h130l-31 -60h-99v-360l80 -60h-250l80 60v360h-210v-360l80 -60h-250l80 60v360h-100l100 75v10c0 183 126 255 256 255
c50 0 102 -11 138 -27c43 33 97 47 146 47c53 0 115 -12 150 -30v-259l-15 -85l5 -5c29 45 89 89 165 89zM410 480v45c0 47 9 87 23 120l-87 75c-91 -7 -146 -76 -146 -185v-55h210zM913 30c88 0 152 75 152 200c0 115 -54 185 -142 185c-43 0 -89 -17 -123 -49v-244
c0 -60 56 -92 113 -92z" />
    <glyph glyph-name="f_f_f" unicode="fff" horiz-adv-x="930" 
d="M906 740c-71 -6 -106 -76 -106 -185v-75h160l-31 -60h-129v-360l120 -60h-290l80 60v360h-210v-360l80 -60h-250l80 60v360h-210v-360l80 -60h-250l80 60v360h-100l100 75c0 183 156 255 286 255c42 0 86 -8 120 -20c44 28 97 40 150 40c50 0 102 -11 137 -27
c36 26 79 37 123 37c53 0 99 -12 134 -30l-65 -87zM500 480h210v45c0 52 8 95 23 130l-87 75c-91 -7 -146 -76 -146 -195v-55zM200 480h210v25c0 60 12 109 33 147l-67 58c-91 -7 -176 -76 -176 -185v-45z" />
    <glyph glyph-name="f_f_h" unicode="ffh" horiz-adv-x="1225" 
d="M1125 60l80 -60h-250l80 60v246c0 88 -41 109 -99 109c-32 0 -83 -8 -136 -49v-306l80 -60h-250l80 60v622l-80 58c-71 -6 -130 -76 -130 -185v-75h130l-31 -60h-99v-360l80 -60h-250l80 60v360h-210v-360l80 -60h-250l80 60v360h-100l100 75v10c0 183 126 255 256 255
c50 0 102 -11 138 -27c43 33 97 47 146 47c53 0 115 -12 150 -30v-259l-15 -85l5 -5c50 50 108 89 194 89c69 0 141 -32 141 -139v-291zM410 480v45c0 47 9 87 23 120l-87 75c-91 -7 -146 -76 -146 -185v-55h210z" />
    <glyph glyph-name="f_f_j" unicode="ffj" horiz-adv-x="875" 
d="M500 555v-75h300v-490c-1 -123 -46 -197 -155 -250l-5 5c53 68 70 141 70 255v420h-210v-360l80 -60h-250l80 60v360h-210v-360l80 -60h-250l80 60v360h-100l100 75v10c0 183 126 255 256 255c51 0 106 -11 141 -28c47 33 104 48 159 48c53 0 99 -12 134 -30l-65 -87
l-89 77c-81 -6 -146 -76 -146 -185zM200 480h210v45c0 47 9 86 24 119l-88 76c-91 -7 -146 -76 -146 -185v-55z" />
    <glyph glyph-name="f_f_k" unicode="ffk" horiz-adv-x="1185" 
d="M800 750v-690l80 -60h-250l80 60v622l-80 58c-71 -6 -130 -76 -130 -185v-75h130l-31 -60h-99v-360l80 -60h-250l80 60v360h-210v-360l80 -60h-250l80 60v360h-100l100 75v10c0 183 126 255 256 255c50 0 102 -11 138 -27c43 33 97 47 146 47c53 0 115 -12 150 -30z
M410 480v45c0 47 9 87 23 120l-87 75c-91 -7 -146 -76 -146 -185v-55h210zM939 275c93 -151 139 -219 246 -275v-10c-157 -20 -203 37 -340 264l176 166l-111 60h241z" />
    <glyph glyph-name="f_h" unicode="fh" horiz-adv-x="925" 
d="M825 60l80 -60h-250l80 60v246c0 88 -41 109 -99 109c-32 0 -83 -8 -136 -49v-306l80 -60h-250l80 60v622l-80 58c-71 -6 -130 -76 -130 -185v-75h130l-31 -60h-99v-360l80 -60h-250l80 60v360h-100l100 75v30c0 183 130 255 240 255c53 0 115 -12 150 -30v-259l-15 -85
l5 -5c50 50 108 89 194 89c69 0 141 -32 141 -139v-291z" />
    <glyph glyph-name="f_i" unicode="fi" horiz-adv-x="600" 
d="M500 60l80 -60h-250l80 60v360h-210v-360l80 -60h-250l80 60v360h-100l100 75v30c0 183 136 255 256 255c53 0 99 -12 134 -30l-65 -87l-89 77c-81 -6 -146 -76 -146 -185v-75h300v-420z" />
    <glyph glyph-name="f_j" unicode="fj" horiz-adv-x="575" 
d="M200 555v-75h300v-490c-1 -123 -46 -197 -155 -250l-5 5c53 68 70 141 70 255v420h-210v-360l80 -60h-250l80 60v360h-100l100 75v30c0 183 136 255 256 255c53 0 99 -12 134 -30l-65 -87l-89 77c-81 -6 -146 -76 -146 -185z" />
    <glyph glyph-name="f_k" unicode="fk" horiz-adv-x="885" 
d="M500 750v-690l80 -60h-250l80 60v622l-80 58c-71 -6 -130 -76 -130 -185v-75h130l-31 -60h-99v-360l80 -60h-250l80 60v360h-100l100 75v30c0 183 130 255 240 255c53 0 115 -12 150 -30zM639 275c93 -151 139 -219 246 -275v-10c-157 -20 -203 37 -340 264l176 166
l-111 60h241z" />
    <glyph glyph-name="f_l" unicode="fl" horiz-adv-x="600" 
d="M500 60l80 -60h-250l80 60v622l-80 58c-71 -6 -130 -76 -130 -185v-75h130l-31 -60h-99v-360l80 -60h-250l80 60v360h-100l100 75v30c0 183 130 255 240 255c53 0 115 -12 150 -30v-690z" />
    <glyph glyph-name="f_v" unicode="fv" horiz-adv-x="905" 
d="M905 480l-80 -60l-191 -450h-6l-227 450h-201v-360l120 -60h-290l80 60v360h-100l100 75v30c0 183 106 255 216 255c53 0 99 -12 134 -30l-65 -87l-89 77c-71 -6 -106 -76 -106 -185v-75h387l-80 -60l140 -285l118 285l-88 60h228z" />
    <glyph glyph-name="f_w" unicode="fw" horiz-adv-x="1180" 
d="M952 480h228l-80 -60l-171 -450h-6l-157 338l-159 -338h-6l-203 450h-198v-360l120 -60h-290l80 60v360h-100l100 75v30c0 183 106 255 216 255c53 0 99 -12 134 -30l-65 -87l-89 77c-71 -6 -106 -76 -106 -185v-75h384l-80 -60l125 -280l107 232l-50 108h159l-27 -60
l124 -270l98 270z" />
    <glyph glyph-name="f_y" unicode="fy" horiz-adv-x="900" 
d="M900 480l-80 -60l-257 -580l137 -80h-243l141 295l-194 365h-204v-360l120 -60h-290l80 60v360h-100l100 75v30c0 183 106 255 216 255c53 0 99 -12 134 -30l-65 -87l-89 77c-71 -6 -106 -76 -106 -185v-75h387l-80 -60l139 -265l114 265l-88 60h228z" />
    <glyph glyph-name=".notdef" horiz-adv-x="510" 
d="M418 780v-1020h-323v1020h323zM340 712h-169v-34h67v-38h-68v-33h170v33h-68v38h68v34zM272 580h-102v-106h170v35h-68v71zM238 545v-36h-34v36h34zM340 446h-170v-33h68v-38h-68v-34h102v72h68v33zM340 385h-34v-67h-136v-35h170v102zM340 261h-102v-57h34v23h34v-48
h-102v82h-34v-115h170v115zM340 84h-170v-115h170v115zM306 51v-48h-102v48h102zM340 -54h-170v-34h72l-72 -48v-34h170v34h-104l71 48h33v34z" />
    <glyph glyph-name="A" unicode="A" horiz-adv-x="707" 
d="M642 56l75 -56h-273l80 60l-84 205h-229l-86 -205l119 -60h-209l312 730h6zM232 315h187l-93 226z" />
    <glyph glyph-name="Aacute" unicode="&#xc1;" horiz-adv-x="707" 
d="M559 930l-245 -160l-5 5l130 155h120zM642 56l75 -56h-273l80 60l-84 205h-229l-86 -205l119 -60h-209l312 730h6zM232 315h187l-93 226z" />
    <glyph glyph-name="Abreve" unicode="&#x102;" horiz-adv-x="707" 
d="M348 770c-85 0 -150 68 -155 150l5 5c43 -62 87 -85 150 -85s107 23 150 85l5 -5c-5 -82 -70 -150 -155 -150zM642 56l75 -56h-273l80 60l-84 205h-229l-86 -205l119 -60h-209l312 730h6zM232 315h187l-93 226z" />
    <glyph glyph-name="Acircumflex" unicode="&#xc2;" horiz-adv-x="707" 
d="M348 860l-160 -90l-5 5l165 180l165 -180l-5 -5zM642 56l75 -56h-273l80 60l-84 205h-229l-86 -205l119 -60h-209l312 730h6zM232 315h187l-93 226z" />
    <glyph glyph-name="Adieresis" unicode="&#xc4;" horiz-adv-x="707" 
d="M248 786c-28 0 -52 24 -52 52c0 29 24 52 52 52c29 0 52 -23 52 -52c0 -28 -23 -52 -52 -52zM449 786c-28 0 -52 24 -52 52c0 29 24 52 52 52c29 0 52 -23 52 -52c0 -28 -23 -52 -52 -52zM642 56l75 -56h-273l80 60l-84 205h-229l-86 -205l119 -60h-209l312 730h6z
M232 315h187l-93 226z" />
    <glyph glyph-name="Agrave" unicode="&#xc0;" horiz-adv-x="707" 
d="M387 775l-5 -5l-245 160h120zM642 56l75 -56h-273l80 60l-84 205h-229l-86 -205l119 -60h-209l312 730h6zM232 315h187l-93 226z" />
    <glyph glyph-name="Amacron" unicode="&#x100;" horiz-adv-x="707" 
d="M522 871v-65h-346v65h346zM642 56l75 -56h-273l80 60l-84 205h-229l-86 -205l119 -60h-209l312 730h6zM232 315h187l-93 226z" />
    <glyph glyph-name="Aogonek" unicode="&#x104;" horiz-adv-x="727" 
d="M642 56l75 -56h-173c-60 -38 -74 -83 -74 -122c0 -48 21 -63 55 -63c23 0 42 7 65 23l5 -5c-12 -40 -44 -83 -104 -83c-61 0 -96 43 -96 103c0 53 28 126 146 190l-94 222h-236l-88 -205l119 -60h-207l312 730h6zM233 315h193l-96 225z" />
    <glyph glyph-name="Aring" unicode="&#xc5;" horiz-adv-x="707" 
d="M642 56l75 -56h-273l80 60l-84 205h-229l-86 -205l119 -60h-209l297 695c-59 8 -106 59 -106 119c0 66 56 122 122 122s122 -56 122 -122c0 -58 -45 -109 -102 -118zM266 814c0 -46 35 -82 82 -82s82 36 82 82c0 48 -35 84 -82 84s-82 -36 -82 -84zM232 315h187l-93 226z
" />
    <glyph glyph-name="Atilde" unicode="&#xc3;" horiz-adv-x="707" 
d="M276 813c-63 0 -95 56 -98 127h5c19 -45 52 -57 77 -57c55 0 97 57 160 57s95 -56 98 -127h-5c-19 45 -52 57 -77 57c-55 0 -97 -57 -160 -57zM642 56l75 -56h-273l80 60l-84 205h-229l-86 -205l119 -60h-209l312 730h6zM232 315h187l-93 226z" />
    <glyph glyph-name="AE" unicode="&#xc6;" horiz-adv-x="977" 
d="M835 50l97 129v-179h-460v265h-199l-126 -205l119 -60h-231l409 654l-92 46h550v-179l-97 129h-233v-265h179l68 90v-230l-68 90h-179v-285h263zM304 315h168v274z" />
    <glyph glyph-name="B" unicode="B" horiz-adv-x="675" 
d="M469 364c98 -21 161 -75 161 -168c0 -120 -114 -196 -293 -196h-302l80 60v580l-80 60h297c159 0 258 -67 258 -179c0 -74 -47 -129 -121 -157zM332 650h-117v-265h117c109 0 153 59 153 130c0 76 -44 135 -153 135zM337 50c129 0 183 56 183 140c0 89 -54 145 -183 145
h-122v-285h122z" />
    <glyph glyph-name="C" unicode="C" horiz-adv-x="710" 
d="M665 178l5 -5c-63 -144 -178 -183 -273 -183c-176 0 -347 135 -347 356c0 228 182 364 383 364c49 0 107 -8 160 -26l57 26v-235l-129 173c-31 9 -62 12 -90 12c-159 0 -276 -101 -276 -290c0 -176 102 -300 262 -300c76 0 168 28 248 108z" />
    <glyph glyph-name="Cacute" unicode="&#x106;" horiz-adv-x="710" 
d="M626 930l-245 -160l-5 5l130 155h120zM665 178l5 -5c-63 -144 -178 -183 -273 -183c-176 0 -347 135 -347 356c0 228 182 364 383 364c49 0 107 -8 160 -26l57 26v-235l-129 173c-31 9 -62 12 -90 12c-159 0 -276 -101 -276 -290c0 -176 102 -300 262 -300
c76 0 168 28 248 108z" />
    <glyph glyph-name="Ccaron" unicode="&#x10c;" horiz-adv-x="710" 
d="M580 930l-165 -180l-165 180l5 5l160 -90l160 90zM665 178l5 -5c-63 -144 -178 -183 -273 -183c-176 0 -347 135 -347 356c0 228 182 364 383 364c49 0 107 -8 160 -26l57 26v-235l-129 173c-31 9 -62 12 -90 12c-159 0 -276 -101 -276 -290c0 -176 102 -300 262 -300
c76 0 168 28 248 108z" />
    <glyph glyph-name="Ccedilla" unicode="&#xc7;" horiz-adv-x="710" 
d="M670 173c-56 -128 -153 -173 -240 -181l-24 -59c72 -23 98 -56 98 -98c0 -55 -46 -85 -99 -85c-65 0 -94 44 -106 83l5 5c23 -16 50 -28 78 -28c27 0 47 12 47 43c0 24 -12 44 -66 67l28 70c-174 3 -341 138 -341 356c0 228 182 364 383 364c49 0 107 -8 160 -26l57 26
v-235l-129 173c-31 9 -62 12 -90 12c-159 0 -276 -101 -276 -290c0 -176 102 -300 262 -300c76 0 168 28 248 108z" />
    <glyph glyph-name="Cdotaccent" unicode="&#x10a;" horiz-adv-x="710" 
d="M411 781c-33 0 -60 27 -60 60s27 60 60 60s60 -27 60 -60s-27 -60 -60 -60zM665 178l5 -5c-63 -144 -178 -183 -273 -183c-176 0 -347 135 -347 356c0 228 182 364 383 364c49 0 107 -8 160 -26l57 26v-235l-129 173c-31 9 -62 12 -90 12c-159 0 -276 -101 -276 -290
c0 -176 102 -300 262 -300c76 0 168 28 248 108z" />
    <glyph glyph-name="D" unicode="D" horiz-adv-x="775" 
d="M377 700c179 0 348 -98 348 -335c0 -227 -169 -365 -348 -365h-342l80 60v580l-80 60h342zM367 50c149 0 248 114 248 305c0 201 -99 295 -248 295h-152v-600h152z" />
    <glyph glyph-name="Eth" unicode="&#xd0;" horiz-adv-x="775" 
d="M377 700c179 0 348 -98 348 -335c0 -227 -169 -365 -348 -365h-342l80 60v290h-95v45h95v245l-80 60h342zM367 50c149 0 248 114 248 305c0 201 -99 295 -248 295h-152v-255h145v-45h-145v-300h152z" />
    <glyph glyph-name="Dcaron" unicode="&#x10e;" horiz-adv-x="775" 
d="M535 930l-165 -180l-165 180l5 5l160 -90l160 90zM377 700c179 0 348 -98 348 -335c0 -227 -169 -365 -348 -365h-342l80 60v580l-80 60h342zM367 50c149 0 248 114 248 305c0 201 -99 295 -248 295h-152v-600h152z" />
    <glyph glyph-name="Dcroat" unicode="&#x110;" horiz-adv-x="775" 
d="M377 700c179 0 348 -98 348 -335c0 -227 -169 -365 -348 -365h-342l80 60v290h-95v45h95v245l-80 60h342zM367 50c149 0 248 114 248 305c0 201 -99 295 -248 295h-152v-255h145v-45h-145v-300h152z" />
    <glyph glyph-name="E" unicode="E" horiz-adv-x="620" 
d="M478 50l97 129v-179h-540l80 60v580l-80 60h510v-179l-97 129h-233v-265h179l68 90v-230l-68 90h-179v-285h263z" />
    <glyph glyph-name="Eacute" unicode="&#xc9;" horiz-adv-x="620" 
d="M521 930l-245 -160l-5 5l130 155h120zM478 50l97 129v-179h-540l80 60v580l-80 60h510v-179l-97 129h-233v-265h179l68 90v-230l-68 90h-179v-285h263z" />
    <glyph glyph-name="Ecaron" unicode="&#x11a;" horiz-adv-x="620" 
d="M475 930l-165 -180l-165 180l5 5l160 -90l160 90zM478 50l97 129v-179h-540l80 60v580l-80 60h510v-179l-97 129h-233v-265h179l68 90v-230l-68 90h-179v-285h263z" />
    <glyph glyph-name="Ecircumflex" unicode="&#xca;" horiz-adv-x="620" 
d="M310 860l-160 -90l-5 5l165 180l165 -180l-5 -5zM478 50l97 129v-179h-540l80 60v580l-80 60h510v-179l-97 129h-233v-265h179l68 90v-230l-68 90h-179v-285h263z" />
    <glyph glyph-name="Edieresis" unicode="&#xcb;" horiz-adv-x="620" 
d="M210 786c-28 0 -52 24 -52 52c0 29 24 52 52 52c29 0 52 -23 52 -52c0 -28 -23 -52 -52 -52zM411 786c-28 0 -52 24 -52 52c0 29 24 52 52 52c29 0 52 -23 52 -52c0 -28 -23 -52 -52 -52zM478 50l97 129v-179h-540l80 60v580l-80 60h510v-179l-97 129h-233v-265h179
l68 90v-230l-68 90h-179v-285h263z" />
    <glyph glyph-name="Edotaccent" unicode="&#x116;" horiz-adv-x="620" 
d="M306 781c-33 0 -60 27 -60 60s27 60 60 60s60 -27 60 -60s-27 -60 -60 -60zM478 50l97 129v-179h-540l80 60v580l-80 60h510v-179l-97 129h-233v-265h179l68 90v-230l-68 90h-179v-285h263z" />
    <glyph glyph-name="Egrave" unicode="&#xc8;" horiz-adv-x="620" 
d="M349 775l-5 -5l-245 160h120zM478 50l97 129v-179h-540l80 60v580l-80 60h510v-179l-97 129h-233v-265h179l68 90v-230l-68 90h-179v-285h263z" />
    <glyph glyph-name="Emacron" unicode="&#x112;" horiz-adv-x="620" 
d="M484 871v-65h-346v65h346zM478 50l97 129v-179h-540l80 60v580l-80 60h510v-179l-97 129h-233v-265h179l68 90v-230l-68 90h-179v-285h263z" />
    <glyph glyph-name="Eogonek" unicode="&#x118;" horiz-adv-x="620" 
d="M601 -162l5 -5c-12 -40 -44 -83 -105 -83c-58 0 -95 40 -95 94c0 57 30 106 111 156h-482l80 60v580l-80 60h510v-179l-97 129h-233v-265h179l68 90v-230l-68 90h-179v-285h263l97 129v-179c-63 -41 -94 -82 -94 -129c0 -41 24 -56 56 -56c22 0 41 7 64 23z" />
    <glyph glyph-name="F" unicode="F" horiz-adv-x="565" 
d="M535 700v-179l-97 129h-223v-295h211l76 100v-250l-76 100h-211v-245l120 -60h-300l80 60v580l-80 60h500z" />
    <glyph glyph-name="G" unicode="G" horiz-adv-x="725" 
d="M404 330h266v-330l-57 28c-61 -28 -129 -38 -189 -38c-211 0 -374 127 -374 353c0 239 182 367 380 367c52 0 111 -9 166 -28l54 28v-219l-114 153c-37 12 -72 16 -105 16c-159 0 -271 -99 -271 -288c0 -187 109 -322 272 -322c35 0 90 6 148 27v165z" />
    <glyph glyph-name="Gbreve" unicode="&#x11e;" horiz-adv-x="725" 
d="M405 770c-85 0 -150 68 -155 150l5 5c43 -62 87 -85 150 -85s107 23 150 85l5 -5c-5 -82 -70 -150 -155 -150zM404 330h266v-330l-57 28c-61 -28 -129 -38 -189 -38c-211 0 -374 127 -374 353c0 239 182 367 380 367c52 0 111 -9 166 -28l54 28v-219l-114 153
c-37 12 -72 16 -105 16c-159 0 -271 -99 -271 -288c0 -187 109 -322 272 -322c35 0 90 6 148 27v165z" />
    <glyph glyph-name="Gcommaaccent" unicode="&#x122;" horiz-adv-x="725" 
d="M404 330h266v-330l-57 28c-61 -28 -129 -38 -189 -38c-211 0 -374 127 -374 353c0 239 182 367 380 367c52 0 111 -9 166 -28l54 28v-219l-114 153c-37 12 -72 16 -105 16c-159 0 -271 -99 -271 -288c0 -187 109 -322 272 -322c35 0 90 6 148 27v165zM406 -65
c27 0 50 -17 50 -64c0 -69 -58 -117 -118 -139l-2 4c41 26 58 59 58 89c0 26 -14 50 -35 65c0 22 18 45 47 45z" />
    <glyph glyph-name="Gdotaccent" unicode="&#x120;" horiz-adv-x="725" 
d="M401 811c-33 0 -60 27 -60 60s27 60 60 60s60 -27 60 -60s-27 -60 -60 -60zM404 330h266v-330l-57 28c-61 -28 -129 -38 -189 -38c-211 0 -374 127 -374 353c0 239 182 367 380 367c52 0 111 -9 166 -28l54 28v-219l-114 153c-37 12 -72 16 -105 16
c-159 0 -271 -99 -271 -288c0 -187 109 -322 272 -322c35 0 90 6 148 27v165z" />
    <glyph glyph-name="H" unicode="H" horiz-adv-x="830" 
d="M715 640v-580l80 -60h-260l80 60v285h-400v-285l80 -60h-260l80 60v580l-80 60h260l-80 -60v-245h400v245l-80 60h260z" />
    <glyph glyph-name="Hbar" unicode="&#x126;" horiz-adv-x="830" 
d="M800 505h-85v-445l80 -60h-260l80 60v285h-400v-285l80 -60h-260l80 60v445h-85v50h85v85l-80 60h260l-80 -60v-85h400v85l-80 60h260l-80 -60v-85h85v-50zM615 395v110h-400v-110h400z" />
    <glyph glyph-name="I" unicode="I" horiz-adv-x="340" 
d="M220 640v-580l80 -60h-260l80 60v580l-80 60h260z" />
    <glyph glyph-name="Iacute" unicode="&#xcd;" horiz-adv-x="340" 
d="M381 930l-245 -160l-5 5l130 155h120zM300 700l-80 -60v-580l80 -60h-260l80 60v580l-80 60h260z" />
    <glyph glyph-name="Icircumflex" unicode="&#xce;" horiz-adv-x="340" 
d="M170 955l165 -180l-5 -5l-160 90l-160 -90l-5 5zM300 700l-80 -60v-580l80 -60h-260l80 60v580l-80 60h260z" />
    <glyph glyph-name="Idieresis" unicode="&#xcf;" horiz-adv-x="340" 
d="M122 838c0 -28 -23 -52 -52 -52c-28 0 -52 24 -52 52c0 29 24 52 52 52c29 0 52 -23 52 -52zM271 890c29 0 52 -23 52 -52c0 -28 -23 -52 -52 -52c-28 0 -52 24 -52 52c0 29 24 52 52 52zM300 700l-80 -60v-580l80 -60h-260l80 60v580l-80 60h260z" />
    <glyph glyph-name="Idotaccent" unicode="&#x130;" horiz-adv-x="340" 
d="M166 781c-33 0 -60 27 -60 60s27 60 60 60s60 -27 60 -60s-27 -60 -60 -60zM220 640v-580l80 -60h-260l80 60v580l-80 60h260z" />
    <glyph glyph-name="Igrave" unicode="&#xcc;" horiz-adv-x="340" 
d="M209 775l-5 -5l-245 160h120zM220 640v-580l80 -60h-260l80 60v580l-80 60h260z" />
    <glyph glyph-name="Imacron" unicode="&#x12a;" horiz-adv-x="340" 
d="M-2 871h346v-65h-346v65zM300 700l-80 -60v-580l80 -60h-260l80 60v580l-80 60h260z" />
    <glyph glyph-name="Iogonek" unicode="&#x12e;" horiz-adv-x="340" 
d="M190 0c-63 -41 -94 -82 -94 -129c0 -41 24 -56 56 -56c22 0 41 7 64 23l5 -5c-12 -40 -44 -83 -105 -83c-58 0 -95 40 -95 94c0 57 30 106 111 156h-92l80 60v580l-80 60h260l-80 -60v-580l80 -60h-110z" />
    <glyph glyph-name="J" unicode="J" horiz-adv-x="335" 
d="M305 700l-80 -60v-640c-1 -123 -66 -197 -175 -240l-5 5c53 68 80 131 80 245v630l-80 60h260z" />
    <glyph glyph-name="K" unicode="K" horiz-adv-x="720" 
d="M215 640v-580l80 -60h-260l80 60v580l-80 60h260zM380 385c157 -225 216 -331 365 -385v-5c-210 -20 -261 57 -471 366l281 279l-106 60h247z" />
    <glyph glyph-name="Kcommaaccent" unicode="&#x136;" horiz-adv-x="720" 
d="M215 60l80 -60h-260l80 60v580l-80 60h260l-80 -60v-580zM380 385c157 -225 216 -331 365 -385v-5c-210 -20 -261 57 -471 366l281 279l-106 60h247zM364 -65c27 0 50 -17 50 -64c0 -69 -58 -117 -118 -139l-2 4c41 26 58 59 58 89c0 26 -14 50 -35 65c0 22 18 45 47 45z
" />
    <glyph glyph-name="L" unicode="L" horiz-adv-x="605" 
d="M478 50l97 129v-179h-540l80 60v580l-80 60h260l-80 -60v-590h263z" />
    <glyph glyph-name="Lacute" unicode="&#x139;" horiz-adv-x="605" 
d="M376 930l-245 -160l-5 5l130 155h120zM478 50l97 129v-179h-540l80 60v580l-80 60h260l-80 -60v-590h263z" />
    <glyph glyph-name="Lcaron" unicode="&#x13d;" horiz-adv-x="620" 
d="M406 491c44 29 63 65 63 98c0 29 -15 56 -39 71c0 25 20 50 52 50c30 0 56 -18 56 -70c0 -76 -65 -128 -131 -153zM478 50l97 129v-179h-540l80 60v580l-80 60h260l-80 -60v-590h263z" />
    <glyph glyph-name="Lcommaaccent" unicode="&#x13b;" horiz-adv-x="605" 
d="M478 50l97 129v-179h-540l80 60v580l-80 60h260l-80 -60v-590h263zM344 -75c27 0 50 -17 50 -64c0 -69 -58 -117 -118 -139l-2 4c41 26 58 59 58 89c0 26 -14 50 -35 65c0 22 18 45 47 45z" />
    <glyph glyph-name="Lslash" unicode="&#x141;" horiz-adv-x="625" 
d="M498 50l97 129v-179h-540l80 60v211l-105 -70v60l105 70v309l-80 60h260l-80 -60v-248l165 110v-60l-165 -109v-283h263z" />
    <glyph glyph-name="M" unicode="M" horiz-adv-x="930" 
d="M815 60l80 -60h-260l80 60v485l-267 -405l-268 385v-465l120 -60h-265l80 60v580l-80 60h138l296 -425l277 425h148l-79 -59v-581z" />
    <glyph glyph-name="N" unicode="N" horiz-adv-x="810" 
d="M785 700l-80 -60v-670h-6l-519 575v-485l120 -60h-265l80 60v580l-80 60h138l467 -520v460l-120 60h265z" />
    <glyph glyph-name="Nacute" unicode="&#x143;" horiz-adv-x="810" 
d="M621 930l-245 -160l-5 5l130 155h120zM785 700l-80 -60v-670h-6l-519 575v-485l120 -60h-265l80 60v580l-80 60h138l467 -520v460l-120 60h265z" />
    <glyph glyph-name="Ncaron" unicode="&#x147;" horiz-adv-x="810" 
d="M575 930l-165 -180l-165 180l5 5l160 -90l160 90zM785 700l-80 -60v-670h-6l-519 575v-485l120 -60h-265l80 60v580l-80 60h138l467 -520v460l-120 60h265z" />
    <glyph glyph-name="Ncommaaccent" unicode="&#x145;" horiz-adv-x="810" 
d="M785 700l-80 -60v-670h-6l-519 575v-485l120 -60h-265l80 60v580l-80 60h138l467 -520v460l-120 60h265zM411 -65c27 0 50 -17 50 -64c0 -69 -58 -117 -118 -139l-2 4c41 26 58 59 58 89c0 26 -14 50 -35 65c0 22 18 45 47 45z" />
    <glyph glyph-name="Eng" unicode="&#x14a;" horiz-adv-x="810" 
d="M785 700l-80 -60v-620c0 -143 -66 -217 -175 -260l-5 5c72 67 114 130 115 270l-460 510v-485l120 -60h-265l80 60v580l-80 60h138l467 -520v460l-120 60h265z" />
    <glyph glyph-name="Ntilde" unicode="&#xd1;" horiz-adv-x="810" 
d="M328 773c-63 0 -95 56 -98 127h5c19 -45 52 -57 77 -57c55 0 117 57 180 57s95 -56 98 -127h-5c-19 45 -52 57 -77 57c-55 0 -117 -57 -180 -57zM785 700l-80 -60v-670h-6l-519 575v-485l120 -60h-265l80 60v580l-80 60h138l467 -520v460l-120 60h265z" />
    <glyph glyph-name="O" unicode="O" horiz-adv-x="800" 
d="M402 710c179 0 348 -130 348 -357s-169 -363 -352 -363c-179 0 -348 130 -348 357s169 363 352 363zM420 40c137 0 220 111 220 287c0 207 -115 333 -260 333c-137 0 -220 -111 -220 -287c0 -207 115 -333 260 -333z" />
    <glyph glyph-name="Oacute" unicode="&#xd3;" horiz-adv-x="800" 
d="M366 770l-5 5l130 155h120zM402 710c179 0 348 -130 348 -357s-169 -363 -352 -363c-179 0 -348 130 -348 357s169 363 352 363zM420 40c137 0 220 111 220 287c0 207 -115 333 -260 333c-137 0 -220 -111 -220 -287c0 -207 115 -333 260 -333z" />
    <glyph glyph-name="Ocircumflex" unicode="&#xd4;" horiz-adv-x="800" 
d="M400 860l-160 -90l-5 5l165 180l165 -180l-5 -5zM402 710c179 0 348 -130 348 -357s-169 -363 -352 -363c-179 0 -348 130 -348 357s169 363 352 363zM420 40c137 0 220 111 220 287c0 207 -115 333 -260 333c-137 0 -220 -111 -220 -287c0 -207 115 -333 260 -333z" />
    <glyph glyph-name="Odieresis" unicode="&#xd6;" horiz-adv-x="800" 
d="M300 786c-28 0 -52 24 -52 52c0 29 24 52 52 52c29 0 52 -23 52 -52c0 -28 -23 -52 -52 -52zM501 786c-28 0 -52 24 -52 52c0 29 24 52 52 52c29 0 52 -23 52 -52c0 -28 -23 -52 -52 -52zM402 710c179 0 348 -130 348 -357s-169 -363 -352 -363c-179 0 -348 130 -348 357
s169 363 352 363zM420 40c137 0 220 111 220 287c0 207 -115 333 -260 333c-137 0 -220 -111 -220 -287c0 -207 115 -333 260 -333z" />
    <glyph glyph-name="Ograve" unicode="&#xd2;" horiz-adv-x="800" 
d="M434 770l-245 160h120l130 -155zM402 710c179 0 348 -130 348 -357s-169 -363 -352 -363c-179 0 -348 130 -348 357s169 363 352 363zM420 40c137 0 220 111 220 287c0 207 -115 333 -260 333c-137 0 -220 -111 -220 -287c0 -207 115 -333 260 -333z" />
    <glyph glyph-name="Ohungarumlaut" unicode="&#x150;" horiz-adv-x="800" 
d="M296 770l-5 5l90 155h120zM486 770l-5 5l90 155h120zM402 710c179 0 348 -130 348 -357s-169 -363 -352 -363c-179 0 -348 130 -348 357s169 363 352 363zM420 40c137 0 220 111 220 287c0 207 -115 333 -260 333c-137 0 -220 -111 -220 -287c0 -207 115 -333 260 -333z
" />
    <glyph glyph-name="Omacron" unicode="&#x14c;" horiz-adv-x="800" 
d="M228 871h346v-65h-346v65zM402 710c179 0 348 -130 348 -357s-169 -363 -352 -363c-179 0 -348 130 -348 357s169 363 352 363zM420 40c137 0 220 111 220 287c0 207 -115 333 -260 333c-137 0 -220 -111 -220 -287c0 -207 115 -333 260 -333z" />
    <glyph glyph-name="Oslash" unicode="&#xd8;" horiz-adv-x="800" 
d="M619 637c78 -60 131 -157 131 -284c0 -227 -169 -363 -352 -363c-69 0 -136 19 -193 56l-45 -64l-33 23l45 65c-73 61 -122 155 -122 277c0 227 169 363 352 363c65 0 129 -17 184 -50l35 50l32 -24zM160 373c0 -95 24 -173 64 -229l317 452c-44 42 -100 64 -161 64
c-137 0 -220 -111 -220 -287zM420 40c137 0 220 111 220 287c0 100 -27 182 -71 239l-318 -454c45 -47 104 -72 169 -72z" />
    <glyph glyph-name="Otilde" unicode="&#xd5;" horiz-adv-x="800" 
d="M482 900c63 0 95 -56 98 -127h-5c-19 45 -52 57 -77 57c-55 0 -117 -57 -180 -57s-95 56 -98 127h5c19 -45 52 -57 77 -57c55 0 117 57 180 57zM402 710c179 0 348 -130 348 -357s-169 -363 -352 -363c-179 0 -348 130 -348 357s169 363 352 363zM420 40
c137 0 220 111 220 287c0 207 -115 333 -260 333c-137 0 -220 -111 -220 -287c0 -207 115 -333 260 -333z" />
    <glyph glyph-name="OE" unicode="&#x152;" horiz-adv-x="1015" 
d="M873 50l97 129v-179h-572c-179 0 -348 133 -348 360c0 237 169 340 348 340h542v-179l-97 129h-233v-265h179l68 90v-230l-68 90h-179v-285h263zM510 50v600h-102c-149 0 -248 -99 -248 -300c0 -191 99 -300 248 -300h102z" />
    <glyph glyph-name="P" unicode="P" horiz-adv-x="620" 
d="M327 290h-112v-230l120 -60h-300l80 60v580l-80 60h292c159 0 268 -56 268 -188s-109 -222 -268 -222zM215 650v-310h102c109 0 168 64 168 160s-59 150 -168 150h-102z" />
    <glyph glyph-name="Thorn" unicode="&#xde;" horiz-adv-x="690" 
d="M352 590c169 0 288 -76 288 -228s-119 -242 -288 -242h-137v-60l80 -60h-260l80 60v580l-80 60h260l-80 -60v-50h137zM342 170c119 0 188 69 188 185s-69 185 -188 185h-127v-370h127z" />
    <glyph glyph-name="Q" unicode="Q" horiz-adv-x="800" 
d="M476 -2c36 -84 137 -154 240 -179v-5c-157 -7 -269 52 -357 178c-164 17 -309 144 -309 355c0 227 169 363 352 363c179 0 348 -130 348 -357c0 -194 -124 -322 -274 -355zM160 373c0 -207 115 -333 260 -333c137 0 220 111 220 287c0 207 -115 333 -260 333
c-137 0 -220 -111 -220 -287z" />
    <glyph glyph-name="R" unicode="R" horiz-adv-x="685" 
d="M407 342c98 -153 181 -282 303 -342v-5c-210 -20 -260 106 -441 375c164 9 206 78 206 149c0 84 -59 131 -158 131h-102v-590l80 -60h-260l80 60v580l-80 60h292c149 0 258 -52 258 -169c0 -95 -72 -162 -178 -189z" />
    <glyph glyph-name="Racute" unicode="&#x154;" horiz-adv-x="685" 
d="M539 930l-245 -160l-5 5l130 155h120zM407 342c98 -153 181 -282 303 -342v-5c-210 -20 -260 106 -441 375c164 9 206 78 206 149c0 84 -59 131 -158 131h-102v-590l80 -60h-260l80 60v580l-80 60h292c149 0 258 -52 258 -169c0 -95 -72 -162 -178 -189z" />
    <glyph glyph-name="Rcaron" unicode="&#x158;" horiz-adv-x="685" 
d="M493 930l-165 -180l-165 180l5 5l160 -90l160 90zM407 342c98 -153 181 -282 303 -342v-5c-210 -20 -260 106 -441 375c164 9 206 78 206 149c0 84 -59 131 -158 131h-102v-590l80 -60h-260l80 60v580l-80 60h292c149 0 258 -52 258 -169c0 -95 -72 -162 -178 -189z" />
    <glyph glyph-name="Rcommaaccent" unicode="&#x156;" horiz-adv-x="685" 
d="M407 342c98 -153 181 -282 303 -342v-5c-210 -20 -260 106 -441 375c164 9 206 78 206 149c0 84 -59 131 -158 131h-102v-590l80 -60h-260l80 60v580l-80 60h292c149 0 258 -52 258 -169c0 -95 -72 -162 -178 -189zM349 -65c27 0 50 -17 50 -64c0 -69 -58 -117 -118 -139
l-2 4c41 26 58 59 58 89c0 26 -14 50 -35 65c0 22 18 45 47 45z" />
    <glyph glyph-name="S" unicode="S" 
d="M169 539c0 -153 361 -108 361 -357c0 -121 -101 -192 -237 -192c-60 0 -113 13 -161 32l-62 -31v219l106 -143c37 -18 73 -27 114 -27c120 0 140 71 140 123c0 188 -356 130 -356 364c0 109 92 183 230 183c48 0 92 -9 137 -27l53 27v-219l-117 157c-22 8 -44 12 -69 12
c-116 0 -139 -74 -139 -121z" />
    <glyph glyph-name="Sacute" unicode="&#x15a;" 
d="M506 930l-245 -160l-5 5l130 155h120zM169 539c0 -153 361 -108 361 -357c0 -121 -101 -192 -237 -192c-60 0 -113 13 -161 32l-62 -31v219l106 -143c37 -18 73 -27 114 -27c120 0 140 71 140 123c0 188 -356 130 -356 364c0 109 92 183 230 183c48 0 92 -9 137 -27
l53 27v-219l-117 157c-22 8 -44 12 -69 12c-116 0 -139 -74 -139 -121z" />
    <glyph glyph-name="Scaron" unicode="&#x160;" 
d="M460 930l-165 -180l-165 180l5 5l160 -90l160 90zM169 539c0 -153 361 -108 361 -357c0 -121 -101 -192 -237 -192c-60 0 -113 13 -161 32l-62 -31v219l106 -143c37 -18 73 -27 114 -27c120 0 140 71 140 123c0 188 -356 130 -356 364c0 109 92 183 230 183
c48 0 92 -9 137 -27l53 27v-219l-117 157c-22 8 -44 12 -69 12c-116 0 -139 -74 -139 -121z" />
    <glyph glyph-name="Scedilla" unicode="&#x15e;" 
d="M530 182c0 -116 -93 -186 -221 -192l-23 -57c72 -23 98 -56 98 -98c0 -55 -46 -85 -99 -85c-65 0 -94 44 -106 83l5 5c23 -16 50 -28 78 -28c27 0 47 12 47 43c0 24 -12 44 -66 67l28 71c-51 2 -97 14 -139 31l-62 -31v219l106 -143c37 -18 73 -27 114 -27
c120 0 140 71 140 123c0 188 -356 130 -356 364c0 109 92 183 230 183c48 0 92 -9 137 -27l53 27v-219l-117 157c-22 8 -44 12 -69 12c-116 0 -139 -74 -139 -121c0 -153 361 -108 361 -357z" />
    <glyph glyph-name="Scommaaccent" unicode="&#x218;" 
d="M169 539c0 -153 361 -108 361 -357c0 -121 -101 -192 -237 -192c-60 0 -113 13 -161 32l-62 -31v219l106 -143c37 -18 73 -27 114 -27c120 0 140 71 140 123c0 188 -356 130 -356 364c0 109 92 183 230 183c48 0 92 -9 137 -27l53 27v-219l-117 157c-22 8 -44 12 -69 12
c-116 0 -139 -74 -139 -121zM296 -65c27 0 50 -17 50 -64c0 -69 -58 -117 -118 -139l-2 4c41 26 58 59 58 89c0 26 -14 50 -35 65c0 22 18 45 47 45z" />
    <glyph glyph-name="uni1E9E" unicode="&#x1e9e;" horiz-adv-x="712" 
d="M427 444c162 -26 240 -126 240 -235c0 -132 -114 -219 -237 -219c-66 0 -117 19 -155 48l60 80l105 -78c74 0 127 71 127 155c0 83 -61 153 -194 172l-38 -54l-50 37l212 300h-307v-590l80 -60h-260l80 60v580l-80 60h596z" />
    <glyph glyph-name="T" unicode="T" horiz-adv-x="680" 
d="M562 700l88 20v-199l-97 129h-163v-590l80 -60h-259l79 59v591h-163l-97 -129v199l88 -20h444z" />
    <glyph glyph-name="Tbar" unicode="&#x166;" horiz-adv-x="680" 
d="M562 700l88 20v-199l-97 129h-163v-255h190v-50h-190v-285l80 -60h-259l79 59v286h-190v50h190v255h-163l-97 -129v199l88 -20h444z" />
    <glyph glyph-name="Tcaron" unicode="&#x164;" horiz-adv-x="680" 
d="M505 930l-165 -180l-165 180l5 5l160 -90l160 90zM562 700l88 20v-199l-97 129h-163v-590l80 -60h-259l79 59v591h-163l-97 -129v199l88 -20h444z" />
    <glyph glyph-name="uni0162" unicode="&#x162;" horiz-adv-x="680" 
d="M562 700l88 20v-199l-97 129h-163v-590l80 -60h-112l-27 -67c72 -23 98 -56 98 -98c0 -55 -46 -85 -99 -85c-65 0 -94 44 -106 83l5 5c23 -16 50 -28 78 -28c27 0 47 12 47 43c0 24 -12 44 -66 67l32 80h-109l79 59v591h-163l-97 -129v199l88 -20h444z" />
    <glyph glyph-name="uni021A" unicode="&#x21a;" horiz-adv-x="680" 
d="M562 700l88 20v-199l-97 129h-163v-590l80 -60h-259l79 59v591h-163l-97 -129v199l88 -20h444zM341 -65c27 0 50 -17 50 -64c0 -69 -58 -117 -118 -139l-2 4c41 26 58 59 58 89c0 26 -14 50 -35 65c0 22 18 45 47 45z" />
    <glyph glyph-name="U" unicode="U" horiz-adv-x="775" 
d="M765 700l-80 -60v-340c0 -207 -108 -310 -281 -310c-165 0 -304 93 -304 300v350l-80 60h260l-80 -60v-340c0 -171 76 -255 210 -255s210 84 210 255v340l-120 60h265z" />
    <glyph glyph-name="Uacute" unicode="&#xda;" horiz-adv-x="775" 
d="M611 930l-245 -160l-5 5l130 155h120zM765 700l-80 -60v-340c0 -207 -108 -310 -281 -310c-165 0 -304 93 -304 300v350l-80 60h260l-80 -60v-340c0 -171 76 -255 210 -255s210 84 210 255v340l-120 60h265z" />
    <glyph glyph-name="Ucircumflex" unicode="&#xdb;" horiz-adv-x="775" 
d="M400 860l-160 -90l-5 5l165 180l165 -180l-5 -5zM765 700l-80 -60v-340c0 -207 -108 -310 -281 -310c-165 0 -304 93 -304 300v350l-80 60h260l-80 -60v-340c0 -171 76 -255 210 -255s210 84 210 255v340l-120 60h265z" />
    <glyph glyph-name="Udieresis" unicode="&#xdc;" horiz-adv-x="775" 
d="M300 786c-28 0 -52 24 -52 52c0 29 24 52 52 52c29 0 52 -23 52 -52c0 -28 -23 -52 -52 -52zM501 786c-28 0 -52 24 -52 52c0 29 24 52 52 52c29 0 52 -23 52 -52c0 -28 -23 -52 -52 -52zM765 700l-80 -60v-340c0 -207 -108 -310 -281 -310c-165 0 -304 93 -304 300v350
l-80 60h260l-80 -60v-340c0 -171 76 -255 210 -255s210 84 210 255v340l-120 60h265z" />
    <glyph glyph-name="Ugrave" unicode="&#xd9;" horiz-adv-x="775" 
d="M439 775l-5 -5l-245 160h120zM765 700l-80 -60v-340c0 -207 -108 -310 -281 -310c-165 0 -304 93 -304 300v350l-80 60h260l-80 -60v-340c0 -171 76 -255 210 -255s210 84 210 255v340l-120 60h265z" />
    <glyph glyph-name="Uhungarumlaut" unicode="&#x170;" horiz-adv-x="775" 
d="M501 930l-205 -160l-5 5l90 155h120zM486 770l-5 5l90 155h120zM765 700l-80 -60v-340c0 -207 -108 -310 -281 -310c-165 0 -304 93 -304 300v350l-80 60h260l-80 -60v-340c0 -171 76 -255 210 -255s210 84 210 255v340l-120 60h265z" />
    <glyph glyph-name="Umacron" unicode="&#x16a;" horiz-adv-x="775" 
d="M574 871v-65h-346v65h346zM765 700l-80 -60v-340c0 -207 -108 -310 -281 -310c-165 0 -304 93 -304 300v350l-80 60h260l-80 -60v-340c0 -171 76 -255 210 -255s210 84 210 255v340l-120 60h265z" />
    <glyph glyph-name="Uogonek" unicode="&#x172;" horiz-adv-x="775" 
d="M765 700l-80 -60v-340c0 -170 -73 -270 -194 -300h23c-63 -41 -94 -82 -94 -129c0 -41 24 -56 56 -56c22 0 41 7 64 23l5 -5c-12 -40 -44 -83 -105 -83c-58 0 -95 40 -95 94s27 101 98 148c-12 -1 -26 -2 -39 -2c-165 0 -304 93 -304 300v350l-80 60h260l-80 -60v-340
c0 -171 76 -255 210 -255s210 84 210 255v340l-120 60h265z" />
    <glyph glyph-name="Uring" unicode="&#x16e;" horiz-adv-x="775" 
d="M400 731c-66 0 -122 55 -122 120c0 66 56 122 122 122s122 -56 122 -122c0 -65 -56 -120 -122 -120zM400 935c-47 0 -82 -36 -82 -84c0 -46 35 -82 82 -82s82 36 82 82c0 48 -35 84 -82 84zM765 700l-80 -60v-340c0 -207 -108 -310 -281 -310c-165 0 -304 93 -304 300
v350l-80 60h260l-80 -60v-340c0 -171 76 -255 210 -255s210 84 210 255v340l-120 60h265z" />
    <glyph glyph-name="V" unicode="V" horiz-adv-x="745" 
d="M745 700l-80 -60l-273 -670h-6l-298 672l-78 58h273l-80 -60l205 -485l193 485l-120 60h264z" />
    <glyph glyph-name="W" unicode="W" horiz-adv-x="1060" 
d="M1060 700l-80 -60l-212 -670h-6l-224 551l-205 -551h-6l-246 676l-71 54h263l-80 -60l161 -455l152 414l-41 101h153l-20 -60l178 -455l140 455l-120 60h264z" />
    <glyph glyph-name="Wacute" unicode="&#x1e82;" horiz-adv-x="1060" 
d="M744 930l-245 -160l-5 5l130 155h120zM1060 700l-80 -60l-212 -670h-6l-224 551l-205 -551h-6l-246 676l-71 54h263l-80 -60l161 -455l152 414l-41 101h153l-20 -60l178 -455l140 455l-120 60h264z" />
    <glyph glyph-name="Wcircumflex" unicode="&#x174;" horiz-adv-x="1060" 
d="M533 860l-160 -90l-5 5l165 180l165 -180l-5 -5zM1060 700l-80 -60l-212 -670h-6l-224 551l-205 -551h-6l-246 676l-71 54h263l-80 -60l161 -455l152 414l-41 101h153l-20 -60l178 -455l140 455l-120 60h264z" />
    <glyph glyph-name="Wdieresis" unicode="&#x1e84;" horiz-adv-x="1060" 
d="M433 786c-28 0 -52 24 -52 52c0 29 24 52 52 52c29 0 52 -23 52 -52c0 -28 -23 -52 -52 -52zM634 786c-28 0 -52 24 -52 52c0 29 24 52 52 52c29 0 52 -23 52 -52c0 -28 -23 -52 -52 -52zM1060 700l-80 -60l-212 -670h-6l-224 551l-205 -551h-6l-246 676l-71 54h263
l-80 -60l161 -455l152 414l-41 101h153l-20 -60l178 -455l140 455l-120 60h264z" />
    <glyph glyph-name="Wgrave" unicode="&#x1e80;" horiz-adv-x="1060" 
d="M572 775l-5 -5l-245 160h120zM1060 700l-80 -60l-212 -670h-6l-224 551l-205 -551h-6l-246 676l-71 54h263l-80 -60l161 -455l152 414l-41 101h153l-20 -60l178 -455l140 455l-120 60h264z" />
    <glyph glyph-name="X" unicode="X" horiz-adv-x="708" 
d="M648 56l75 -56h-277l80 60l-177 239l-186 -239l88 -60h-241l80 60l222 287l-224 302l-68 51h273l-80 -60l170 -228l178 228l-88 60h241l-80 -60l-215 -277z" />
    <glyph glyph-name="Y" unicode="Y" horiz-adv-x="725" 
d="M645 640l-231 -332v-248l80 -60h-259l79 59v249l-234 339l-70 53h275l-80 -60l182 -271l188 271v1l-119 59h269z" />
    <glyph glyph-name="Yacute" unicode="&#xdd;" horiz-adv-x="725" 
d="M587 930l-245 -160l-5 5l130 155h120zM645 640l-231 -332v-248l80 -60h-259l79 59v249l-234 339l-70 53h275l-80 -60l182 -271l188 271v1l-119 59h269z" />
    <glyph glyph-name="Ycircumflex" unicode="&#x176;" horiz-adv-x="725" 
d="M376 910l-160 -130l-5 5l165 220l165 -220l-5 -5zM645 640l-231 -332v-248l80 -60h-259l79 59v249l-234 339l-70 53h275l-80 -60l182 -271l188 271v1l-119 59h269z" />
    <glyph glyph-name="Ydieresis" unicode="&#x178;" horiz-adv-x="725" 
d="M276 826c-28 0 -52 24 -52 52c0 29 24 52 52 52c29 0 52 -23 52 -52c0 -28 -23 -52 -52 -52zM477 826c-28 0 -52 24 -52 52c0 29 24 52 52 52c29 0 52 -23 52 -52c0 -28 -23 -52 -52 -52zM645 640l-231 -332v-248l80 -60h-259l79 59v249l-234 339l-70 53h275l-80 -60
l182 -271l188 271v1l-119 59h269z" />
    <glyph glyph-name="Ygrave" unicode="&#x1ef2;" horiz-adv-x="725" 
d="M415 795l-5 -5l-195 200h110zM645 640l-231 -332v-248l80 -60h-259l79 59v249l-234 339l-70 53h275l-80 -60l182 -271l188 271v1l-119 59h269z" />
    <glyph glyph-name="Z" unicode="Z" horiz-adv-x="675" 
d="M533 50l97 129v-179h-605l451 650h-303l-97 -129v199l88 -20h462l-451 -650h358z" />
    <glyph glyph-name="Zacute" unicode="&#x179;" horiz-adv-x="675" 
d="M574 930l-245 -160l-5 5l130 155h120zM533 50l97 129v-179h-605l451 650h-303l-97 -129v199l88 -20h462l-451 -650h358z" />
    <glyph glyph-name="Zcaron" unicode="&#x17d;" horiz-adv-x="675" 
d="M528 930l-165 -180l-165 180l5 5l160 -90l160 90zM533 50l97 129v-179h-605l451 650h-303l-97 -129v199l88 -20h462l-451 -650h358z" />
    <glyph glyph-name="Zdotaccent" unicode="&#x17b;" horiz-adv-x="675" 
d="M359 781c-33 0 -60 27 -60 60s27 60 60 60s60 -27 60 -60s-27 -60 -60 -60zM533 50l97 129v-179h-605l451 650h-303l-97 -129v199l88 -20h462l-451 -650h358z" />
    <glyph glyph-name="a" unicode="a" horiz-adv-x="535" 
d="M520 80l5 -5c-25 -66 -57 -85 -99 -85c-50 0 -83 28 -93 74h-5c-33 -47 -81 -74 -143 -74c-80 0 -135 44 -135 117c0 53 29 94 68 115h205v84c0 78 -31 109 -100 109c-47 0 -96 -14 -147 -50l-5 5c48 87 130 120 202 120c90 0 140 -52 140 -149v-226c0 -47 21 -58 48 -58
c19 0 35 5 59 23zM215 50c34 0 69 17 108 54v83h-156c-14 -17 -22 -38 -22 -66c0 -54 35 -71 70 -71z" />
    <glyph glyph-name="aacute" unicode="&#xe1;" horiz-adv-x="535" 
d="M431 770l-195 -200l-5 5l90 195h110zM520 80l5 -5c-25 -66 -57 -85 -99 -85c-50 0 -83 28 -93 74h-5c-33 -47 -81 -74 -143 -74c-80 0 -135 44 -135 117c0 53 29 94 68 115h205v84c0 78 -31 109 -100 109c-47 0 -96 -14 -147 -50l-5 5c48 87 130 120 202 120
c90 0 140 -52 140 -149v-226c0 -47 21 -58 48 -58c19 0 35 5 59 23zM215 50c34 0 69 17 108 54v83h-156c-14 -17 -22 -38 -22 -66c0 -54 35 -71 70 -71z" />
    <glyph glyph-name="abreve" unicode="&#x103;" horiz-adv-x="535" 
d="M270 590c-75 0 -150 68 -155 180l5 5c43 -92 97 -115 150 -115s107 23 150 115l5 -5c-5 -112 -80 -180 -155 -180zM520 80l5 -5c-25 -66 -57 -85 -99 -85c-50 0 -83 28 -93 74h-5c-33 -47 -81 -74 -143 -74c-80 0 -135 44 -135 117c0 53 29 94 68 115h205v84
c0 78 -31 109 -100 109c-47 0 -96 -14 -147 -50l-5 5c48 87 130 120 202 120c90 0 140 -52 140 -149v-226c0 -47 21 -58 48 -58c19 0 35 5 59 23zM215 50c34 0 69 17 108 54v83h-156c-14 -17 -22 -38 -22 -66c0 -54 35 -71 70 -71z" />
    <glyph glyph-name="acircumflex" unicode="&#xe2;" horiz-adv-x="535" 
d="M270 690l-160 -130l-5 5l165 220l165 -220l-5 -5zM520 80l5 -5c-25 -66 -57 -85 -99 -85c-50 0 -83 28 -93 74h-5c-33 -47 -81 -74 -143 -74c-80 0 -135 44 -135 117c0 53 29 94 68 115h205v84c0 78 -31 109 -100 109c-47 0 -96 -14 -147 -50l-5 5c48 87 130 120 202 120
c90 0 140 -52 140 -149v-226c0 -47 21 -58 48 -58c19 0 35 5 59 23zM215 50c34 0 69 17 108 54v83h-156c-14 -17 -22 -38 -22 -66c0 -54 35 -71 70 -71z" />
    <glyph glyph-name="adieresis" unicode="&#xe4;" horiz-adv-x="535" 
d="M170 606c-28 0 -52 24 -52 52c0 29 24 52 52 52c29 0 52 -23 52 -52c0 -28 -23 -52 -52 -52zM371 606c-28 0 -52 24 -52 52c0 29 24 52 52 52c29 0 52 -23 52 -52c0 -28 -23 -52 -52 -52zM520 80l5 -5c-25 -66 -57 -85 -99 -85c-50 0 -83 28 -93 74h-5
c-33 -47 -81 -74 -143 -74c-80 0 -135 44 -135 117c0 53 29 94 68 115h205v84c0 78 -31 109 -100 109c-47 0 -96 -14 -147 -50l-5 5c48 87 130 120 202 120c90 0 140 -52 140 -149v-226c0 -47 21 -58 48 -58c19 0 35 5 59 23zM215 50c34 0 69 17 108 54v83h-156
c-14 -17 -22 -38 -22 -66c0 -54 35 -71 70 -71z" />
    <glyph glyph-name="agrave" unicode="&#xe0;" horiz-adv-x="535" 
d="M309 575l-5 -5l-195 200h110zM520 80l5 -5c-25 -66 -57 -85 -99 -85c-50 0 -83 28 -93 74h-5c-33 -47 -81 -74 -143 -74c-80 0 -135 44 -135 117c0 53 29 94 68 115h205v84c0 78 -31 109 -100 109c-47 0 -96 -14 -147 -50l-5 5c48 87 130 120 202 120
c90 0 140 -52 140 -149v-226c0 -47 21 -58 48 -58c19 0 35 5 59 23zM215 50c34 0 69 17 108 54v83h-156c-14 -17 -22 -38 -22 -66c0 -54 35 -71 70 -71z" />
    <glyph glyph-name="amacron" unicode="&#x101;" horiz-adv-x="535" 
d="M424 681v-65h-306v65h306zM520 80l5 -5c-25 -66 -57 -85 -99 -85c-50 0 -83 28 -93 74h-5c-33 -47 -81 -74 -143 -74c-80 0 -135 44 -135 117c0 53 29 94 68 115h205v84c0 78 -31 109 -100 109c-47 0 -96 -14 -147 -50l-5 5c48 87 130 120 202 120c90 0 140 -52 140 -149
v-226c0 -47 21 -58 48 -58c19 0 35 5 59 23zM215 50c34 0 69 17 108 54v83h-156c-14 -17 -22 -38 -22 -66c0 -54 35 -71 70 -71z" />
    <glyph glyph-name="aogonek" unicode="&#x105;" horiz-adv-x="535" 
d="M456 -175c22 0 41 7 64 23l5 -5c-12 -40 -44 -83 -105 -83c-59 0 -95 40 -95 97c0 48 36 92 92 133c-45 4 -75 31 -84 74h-5c-33 -47 -81 -74 -143 -74c-80 0 -135 44 -135 117c0 53 29 94 68 115h205v84c0 78 -31 109 -100 109c-47 0 -96 -14 -147 -50l-5 5
c48 87 130 120 202 120c90 0 140 -52 140 -149v-226c0 -47 21 -58 48 -58c19 0 35 5 59 23l5 -5c-17 -46 -38 -69 -63 -79c-37 -36 -62 -76 -62 -111c0 -47 25 -60 56 -60zM215 50c34 0 69 17 108 54v83h-156c-14 -17 -22 -38 -22 -66c0 -54 35 -71 70 -71z" />
    <glyph glyph-name="aring" unicode="&#xe5;" horiz-adv-x="535" 
d="M270 561c-66 0 -122 55 -122 120c0 66 56 122 122 122s122 -56 122 -122c0 -65 -56 -120 -122 -120zM270 767c-47 0 -82 -38 -82 -86c0 -46 35 -84 82 -84s82 38 82 84c0 48 -35 86 -82 86zM520 80l5 -5c-25 -66 -57 -85 -99 -85c-50 0 -83 28 -93 74h-5
c-33 -47 -81 -74 -143 -74c-80 0 -135 44 -135 117c0 53 29 94 68 115h205v84c0 78 -31 109 -100 109c-47 0 -96 -14 -147 -50l-5 5c48 87 130 120 202 120c90 0 140 -52 140 -149v-226c0 -47 21 -58 48 -58c19 0 35 5 59 23zM215 50c34 0 69 17 108 54v83h-156
c-14 -17 -22 -38 -22 -66c0 -54 35 -71 70 -71z" />
    <glyph glyph-name="atilde" unicode="&#xe3;" horiz-adv-x="535" 
d="M198 593c-63 0 -95 56 -98 127h5c19 -45 52 -57 77 -57c55 0 97 57 160 57s95 -56 98 -127h-5c-19 45 -52 57 -77 57c-55 0 -97 -57 -160 -57zM520 80l5 -5c-25 -66 -57 -85 -99 -85c-50 0 -83 28 -93 74h-5c-33 -47 -81 -74 -143 -74c-80 0 -135 44 -135 117
c0 53 29 94 68 115h205v84c0 78 -31 109 -100 109c-47 0 -96 -14 -147 -50l-5 5c48 87 130 120 202 120c90 0 140 -52 140 -149v-226c0 -47 21 -58 48 -58c19 0 35 5 59 23zM215 50c34 0 69 17 108 54v83h-156c-14 -17 -22 -38 -22 -66c0 -54 35 -71 70 -71z" />
    <glyph glyph-name="ae" unicode="&#xe6;" horiz-adv-x="793" 
d="M592 75c40 0 88 11 146 55l5 -5c-35 -105 -113 -135 -181 -135c-87 0 -163 49 -202 129c-25 -79 -87 -129 -169 -129c-84 0 -141 44 -141 117c0 53 29 94 68 115h215v84c0 78 -31 109 -100 109c-47 0 -96 -14 -147 -50l-5 5c48 87 130 120 202 120c58 0 100 -22 122 -64
c44 42 103 64 163 64c94 0 176 -54 185 -185h-329c-1 -10 -1 -20 -1 -31c0 -116 58 -199 169 -199zM554 453c-60 0 -106 -41 -124 -113h218c0 62 -26 113 -94 113zM216 50c38 0 109 33 116 137h-165c-14 -17 -22 -38 -22 -64c0 -56 37 -73 71 -73z" />
    <glyph glyph-name="b" unicode="b" horiz-adv-x="575" 
d="M320 490c102 0 210 -79 210 -238c0 -172 -127 -262 -259 -262c-37 0 -96 7 -135 26l-61 -26v668l-70 52l160 70v-289l-15 -85l5 -5c29 45 89 89 165 89zM278 30c88 0 152 75 152 200c0 115 -54 185 -142 185c-43 0 -89 -17 -123 -49v-244c0 -60 56 -92 113 -92z" />
    <glyph glyph-name="c" unicode="c" horiz-adv-x="485" 
d="M304 75c40 0 88 11 146 55l5 -5c-35 -105 -113 -135 -181 -135c-126 0 -229 105 -229 253c0 171 138 247 247 247c70 0 123 -20 163 -50l-63 -84l-110 94c-86 0 -147 -64 -147 -179c0 -111 57 -196 169 -196z" />
    <glyph glyph-name="cacute" unicode="&#x107;" horiz-adv-x="485" 
d="M436 770l-195 -200l-5 5l90 195h110zM304 75c40 0 88 11 146 55l5 -5c-35 -105 -113 -135 -181 -135c-126 0 -229 105 -229 253c0 171 138 247 247 247c70 0 123 -20 163 -50l-63 -84l-110 94c-86 0 -147 -64 -147 -179c0 -111 57 -196 169 -196z" />
    <glyph glyph-name="ccaron" unicode="&#x10d;" horiz-adv-x="485" 
d="M440 780l-165 -220l-165 220l5 5l160 -130l160 130zM304 75c40 0 88 11 146 55l5 -5c-35 -105 -113 -135 -181 -135c-126 0 -229 105 -229 253c0 171 138 247 247 247c70 0 123 -20 163 -50l-63 -84l-110 94c-86 0 -147 -64 -147 -179c0 -111 57 -196 169 -196z" />
    <glyph glyph-name="ccedilla" unicode="&#xe7;" horiz-adv-x="485" 
d="M304 75c40 0 88 11 146 55l5 -5c-32 -97 -102 -130 -166 -134l-23 -58c72 -23 98 -56 98 -98c0 -55 -46 -85 -99 -85c-65 0 -94 44 -106 83l5 5c23 -16 50 -28 78 -28c27 0 47 12 47 43c0 24 -12 44 -66 67l28 71c-115 12 -206 113 -206 252c0 171 138 247 247 247
c70 0 123 -20 163 -50l-63 -84l-110 94c-86 0 -147 -64 -147 -179c0 -111 57 -196 169 -196z" />
    <glyph glyph-name="cdotaccent" unicode="&#x10b;" horiz-adv-x="485" 
d="M271 591c-33 0 -60 27 -60 60s27 60 60 60s60 -27 60 -60s-27 -60 -60 -60zM304 75c40 0 88 11 146 55l5 -5c-35 -105 -113 -135 -181 -135c-126 0 -229 105 -229 253c0 171 138 247 247 247c70 0 123 -20 163 -50l-63 -84l-110 94c-86 0 -147 -64 -147 -179
c0 -111 57 -196 169 -196z" />
    <glyph glyph-name="d" unicode="d" horiz-adv-x="600" 
d="M500 90l70 -52l-114 -48l-31 89h-5c-29 -45 -89 -89 -165 -89c-102 0 -210 79 -210 238c0 172 127 262 259 262c28 0 70 -4 106 -15v183l-70 52l160 70v-690zM287 65c43 0 89 17 123 49v244c0 60 -56 92 -113 92c-88 0 -152 -75 -152 -200c0 -115 54 -185 142 -185z" />
    <glyph glyph-name="eth" unicode="&#xf0;" 
d="M364 674c114 -93 171 -238 171 -424c0 -175 -111 -260 -245 -260s-245 95 -245 240s111 240 245 240c50 0 95 -12 132 -36c-20 81 -57 145 -111 196l-99 -83l-29 34l93 78c-48 35 -105 61 -173 81l15 40c81 -15 151 -41 208 -79l94 79l29 -34zM306 30
c91 0 122 89 122 178c0 125 -49 222 -154 222c-91 0 -124 -89 -124 -178c0 -125 71 -222 156 -222z" />
    <glyph glyph-name="dcaron" unicode="&#x10f;" horiz-adv-x="720" 
d="M500 780v-690l70 -52l-114 -48l-31 89h-5c-29 -45 -89 -89 -165 -89c-102 0 -210 79 -210 238c0 172 127 262 259 262c28 0 70 -4 106 -15v183l-70 52zM580 780h110l-52 -260h-5zM287 65c43 0 89 17 123 49v244c0 60 -56 92 -113 92c-88 0 -152 -75 -152 -200
c0 -115 54 -185 142 -185z" />
    <glyph glyph-name="dcroat" unicode="&#x111;" horiz-adv-x="600" 
d="M600 565h-100v-475l70 -52l-114 -48l-31 89h-5c-29 -45 -89 -89 -165 -89c-102 0 -210 79 -210 238c0 172 127 262 259 262c28 0 70 -4 106 -15v90h-150v45h150v48l-70 52l160 70v-170h100v-45zM287 65c43 0 89 17 123 49v244c0 60 -56 92 -113 92
c-88 0 -152 -75 -152 -200c0 -115 54 -185 142 -185z" />
    <glyph glyph-name="e" unicode="e" horiz-adv-x="505" 
d="M304 75c40 0 88 11 146 55l5 -5c-35 -105 -113 -135 -181 -135c-126 0 -229 104 -229 254c0 159 115 246 235 246c94 0 176 -54 185 -185h-329c-1 -10 -1 -20 -1 -31c0 -116 58 -199 169 -199zM266 453c-60 0 -106 -41 -124 -113h218c0 62 -26 113 -94 113z" />
    <glyph glyph-name="eacute" unicode="&#xe9;" horiz-adv-x="505" 
d="M436 770l-195 -200l-5 5l90 195h110zM304 75c40 0 88 11 146 55l5 -5c-35 -105 -113 -135 -181 -135c-126 0 -229 104 -229 254c0 159 115 246 235 246c94 0 176 -54 185 -185h-329c-1 -10 -1 -20 -1 -31c0 -116 58 -199 169 -199zM266 453c-60 0 -106 -41 -124 -113h218
c0 62 -26 113 -94 113z" />
    <glyph glyph-name="ecaron" unicode="&#x11b;" horiz-adv-x="505" 
d="M440 780l-165 -220l-165 220l5 5l160 -130l160 130zM304 75c40 0 88 11 146 55l5 -5c-35 -105 -113 -135 -181 -135c-126 0 -229 104 -229 254c0 159 115 246 235 246c94 0 176 -54 185 -185h-329c-1 -10 -1 -20 -1 -31c0 -116 58 -199 169 -199zM266 453
c-60 0 -106 -41 -124 -113h218c0 62 -26 113 -94 113z" />
    <glyph glyph-name="ecircumflex" unicode="&#xea;" horiz-adv-x="505" 
d="M275 690l-160 -130l-5 5l165 220l165 -220l-5 -5zM304 75c40 0 88 11 146 55l5 -5c-35 -105 -113 -135 -181 -135c-126 0 -229 104 -229 254c0 159 115 246 235 246c94 0 176 -54 185 -185h-329c-1 -10 -1 -20 -1 -31c0 -116 58 -199 169 -199zM266 453
c-60 0 -106 -41 -124 -113h218c0 62 -26 113 -94 113z" />
    <glyph glyph-name="edieresis" unicode="&#xeb;" horiz-adv-x="505" 
d="M175 606c-28 0 -52 24 -52 52c0 29 24 52 52 52c29 0 52 -23 52 -52c0 -28 -23 -52 -52 -52zM376 606c-28 0 -52 24 -52 52c0 29 24 52 52 52c29 0 52 -23 52 -52c0 -28 -23 -52 -52 -52zM304 75c40 0 88 11 146 55l5 -5c-35 -105 -113 -135 -181 -135
c-126 0 -229 104 -229 254c0 159 115 246 235 246c94 0 176 -54 185 -185h-329c-1 -10 -1 -20 -1 -31c0 -116 58 -199 169 -199zM266 453c-60 0 -106 -41 -124 -113h218c0 62 -26 113 -94 113z" />
    <glyph glyph-name="edotaccent" unicode="&#x117;" horiz-adv-x="505" 
d="M271 591c-33 0 -60 27 -60 60s27 60 60 60s60 -27 60 -60s-27 -60 -60 -60zM304 75c40 0 88 11 146 55l5 -5c-35 -105 -113 -135 -181 -135c-126 0 -229 104 -229 254c0 159 115 246 235 246c94 0 176 -54 185 -185h-329c-1 -10 -1 -20 -1 -31c0 -116 58 -199 169 -199z
M266 453c-60 0 -106 -41 -124 -113h218c0 62 -26 113 -94 113z" />
    <glyph glyph-name="egrave" unicode="&#xe8;" horiz-adv-x="505" 
d="M314 575l-5 -5l-195 200h110zM304 75c40 0 88 11 146 55l5 -5c-35 -105 -113 -135 -181 -135c-126 0 -229 104 -229 254c0 159 115 246 235 246c94 0 176 -54 185 -185h-329c-1 -10 -1 -20 -1 -31c0 -116 58 -199 169 -199zM266 453c-60 0 -106 -41 -124 -113h218
c0 62 -26 113 -94 113z" />
    <glyph glyph-name="emacron" unicode="&#x113;" horiz-adv-x="505" 
d="M429 681v-65h-306v65h306zM304 75c40 0 88 11 146 55l5 -5c-35 -105 -113 -135 -181 -135c-126 0 -229 104 -229 254c0 159 115 246 235 246c94 0 176 -54 185 -185h-329c-1 -10 -1 -20 -1 -31c0 -116 58 -199 169 -199zM266 453c-60 0 -106 -41 -124 -113h218
c0 62 -26 113 -94 113z" />
    <glyph glyph-name="eogonek" unicode="&#x119;" horiz-adv-x="505" 
d="M304 75c40 0 88 11 146 55l5 -5c-18 -55 -49 -90 -84 -110c-54 -44 -94 -96 -94 -140c0 -47 25 -60 56 -60c22 0 41 7 64 23l5 -5c-12 -40 -44 -83 -105 -83c-59 0 -95 40 -95 97c0 53 44 101 110 146c-13 -2 -26 -3 -38 -3c-126 0 -229 104 -229 254
c0 159 115 246 235 246c94 0 176 -54 185 -185h-329c-1 -10 -1 -20 -1 -31c0 -116 58 -199 169 -199zM266 453c-60 0 -106 -41 -124 -113h218c0 62 -26 113 -94 113z" />
    <glyph glyph-name="f" unicode="f" horiz-adv-x="330" 
d="M306 740c-71 -6 -106 -76 -106 -185v-75h160l-31 -60h-129v-360l120 -60h-290l80 60v360h-100l100 75v30c0 183 106 255 216 255c53 0 99 -12 134 -30l-65 -87z" />
    <glyph glyph-name="g" unicode="g" horiz-adv-x="525" 
d="M515 485v-80l-121 41c35 -27 57 -67 57 -116c0 -100 -93 -160 -193 -160c-32 0 -63 6 -91 18c-27 -22 -40 -48 -40 -71c0 -24 15 -42 44 -42h259c50 -25 85 -76 85 -139c0 -102 -93 -186 -274 -186c-145 0 -211 53 -211 128c0 40 20 82 79 114c-35 20 -54 56 -54 96
c0 50 30 89 78 118c-41 28 -68 70 -68 124c0 100 93 160 193 160c29 0 58 -5 84 -15zM266 207c58 0 90 52 90 115c0 73 -44 131 -106 131c-58 0 -90 -52 -90 -115c0 -73 44 -131 106 -131zM340 -10h-189c-18 -22 -35 -51 -35 -90c0 -66 52 -110 145 -110
c114 0 159 53 159 120c0 50 -25 80 -80 80z" />
    <glyph glyph-name="gbreve" unicode="&#x11f;" horiz-adv-x="525" 
d="M268 590c-75 0 -150 68 -155 180l5 5c43 -92 97 -115 150 -115s107 23 150 115l5 -5c-5 -112 -80 -180 -155 -180zM515 485v-80l-121 41c35 -27 57 -67 57 -116c0 -100 -93 -160 -193 -160c-32 0 -63 6 -91 18c-27 -22 -40 -48 -40 -71c0 -24 15 -42 44 -42h259
c50 -25 85 -76 85 -139c0 -102 -93 -186 -274 -186c-145 0 -211 53 -211 128c0 40 20 82 79 114c-35 20 -54 56 -54 96c0 50 30 89 78 118c-41 28 -68 70 -68 124c0 100 93 160 193 160c29 0 58 -5 84 -15zM266 207c58 0 90 52 90 115c0 73 -44 131 -106 131
c-58 0 -90 -52 -90 -115c0 -73 44 -131 106 -131zM340 -10h-189c-18 -22 -35 -51 -35 -90c0 -66 52 -110 145 -110c114 0 159 53 159 120c0 50 -25 80 -80 80z" />
    <glyph glyph-name="gcommaaccent" unicode="&#x123;" horiz-adv-x="525" 
d="M260 590c-27 0 -50 17 -50 64c0 69 58 117 118 139l2 -4c-41 -26 -58 -59 -58 -89c0 -26 14 -50 35 -65c0 -22 -18 -45 -47 -45zM515 485v-80l-121 41c35 -27 57 -67 57 -116c0 -100 -93 -160 -193 -160c-32 0 -63 6 -91 18c-27 -22 -40 -48 -40 -71c0 -24 15 -42 44 -42
h259c50 -25 85 -76 85 -139c0 -102 -93 -186 -274 -186c-145 0 -211 53 -211 128c0 40 20 82 79 114c-35 20 -54 56 -54 96c0 50 30 89 78 118c-41 28 -68 70 -68 124c0 100 93 160 193 160c29 0 58 -5 84 -15zM266 207c58 0 90 52 90 115c0 73 -44 131 -106 131
c-58 0 -90 -52 -90 -115c0 -73 44 -131 106 -131zM340 -10h-189c-18 -22 -35 -51 -35 -90c0 -66 52 -110 145 -110c114 0 159 53 159 120c0 50 -25 80 -80 80z" />
    <glyph glyph-name="gdotaccent" unicode="&#x121;" horiz-adv-x="525" 
d="M264 591c-33 0 -60 27 -60 60s27 60 60 60s60 -27 60 -60s-27 -60 -60 -60zM515 485v-80l-121 41c35 -27 57 -67 57 -116c0 -100 -93 -160 -193 -160c-32 0 -63 6 -91 18c-27 -22 -40 -48 -40 -71c0 -24 15 -42 44 -42h259c50 -25 85 -76 85 -139
c0 -102 -93 -186 -274 -186c-145 0 -211 53 -211 128c0 40 20 82 79 114c-35 20 -54 56 -54 96c0 50 30 89 78 118c-41 28 -68 70 -68 124c0 100 93 160 193 160c29 0 58 -5 84 -15zM266 207c58 0 90 52 90 115c0 73 -44 131 -106 131c-58 0 -90 -52 -90 -115
c0 -73 44 -131 106 -131zM340 -10h-189c-18 -22 -35 -51 -35 -90c0 -66 52 -110 145 -110c114 0 159 53 159 120c0 50 -25 80 -80 80z" />
    <glyph glyph-name="h" unicode="h" horiz-adv-x="620" 
d="M520 60l80 -60h-250l80 60v246c0 88 -41 109 -99 109c-32 0 -83 -8 -136 -49v-306l80 -60h-250l80 60v598l-70 52l160 70v-289l-15 -85l5 -5c50 50 108 89 194 89c69 0 141 -32 141 -139v-291z" />
    <glyph glyph-name="hbar" unicode="&#x127;" horiz-adv-x="620" 
d="M520 60l80 -60h-250l80 60v246c0 88 -41 109 -99 109c-32 0 -83 -8 -136 -49v-306l80 -60h-250l80 60v505h-105v45h105v48l-70 52l160 70v-170h145v-45h-145v-74l-15 -85l5 -5c50 50 108 89 194 89c69 0 141 -32 141 -139v-291z" />
    <glyph glyph-name="i" unicode="i" horiz-adv-x="295" 
d="M145 590c-33 0 -60 27 -60 60s27 60 60 60s60 -27 60 -60s-27 -60 -60 -60zM195 60l80 -60h-250l80 60v308l-70 52l160 70v-430z" />
    <glyph glyph-name="dotlessi" unicode="&#x131;" horiz-adv-x="295" 
d="M195 60l80 -60h-250l80 60v308l-70 52l160 70v-430z" />
    <glyph glyph-name="iacute" unicode="&#xed;" horiz-adv-x="295" 
d="M114 570l-5 5l90 195h110zM195 60l80 -60h-250l80 60v308l-70 52l160 70v-430z" />
    <glyph glyph-name="icircumflex" unicode="&#xee;" horiz-adv-x="295" 
d="M148 785l165 -220l-5 -5l-160 130l-160 -130l-5 5zM195 60l80 -60h-250l80 60v308l-70 52l160 70v-430z" />
    <glyph glyph-name="idieresis" unicode="&#xef;" horiz-adv-x="295" 
d="M48 566c-28 0 -52 24 -52 52c0 29 24 52 52 52c29 0 52 -23 52 -52c0 -28 -23 -52 -52 -52zM249 566c-28 0 -52 24 -52 52c0 29 24 52 52 52c29 0 52 -23 52 -52c0 -28 -23 -52 -52 -52zM195 60l80 -60h-250l80 60v308l-70 52l160 70v-430z" />
    <glyph glyph-name="i.loclTRK" horiz-adv-x="295" 
d="M144 591c-33 0 -60 27 -60 60s27 60 60 60s60 -27 60 -60s-27 -60 -60 -60zM195 60l80 -60h-250l80 60v308l-70 52l160 70v-430z" />
    <glyph glyph-name="igrave" unicode="&#xec;" horiz-adv-x="295" 
d="M182 570l-195 200h110l90 -195zM195 60l80 -60h-250l80 60v308l-70 52l160 70v-430z" />
    <glyph glyph-name="imacron" unicode="&#x12b;" horiz-adv-x="295" 
d="M-24 651h346v-65h-346v65zM195 60l80 -60h-250l80 60v308l-70 52l160 70v-430z" />
    <glyph glyph-name="iogonek" unicode="&#x12f;" horiz-adv-x="295" 
d="M144 561c-33 0 -60 27 -60 60s27 60 60 60s60 -27 60 -60s-27 -60 -60 -60zM291 -152l5 -5c-12 -40 -44 -83 -105 -83c-58 0 -95 40 -95 94c0 53 26 99 95 146h-166l80 60v308l-70 52l160 70v-430l67 -50h3c-1 0 -1 -1 -2 -1l12 -9h-25c-53 -38 -79 -76 -79 -119
c0 -41 24 -56 56 -56c22 0 41 7 64 23z" />
    <glyph glyph-name="j" unicode="j" horiz-adv-x="280" 
d="M145 590c-33 0 -60 27 -60 60s27 60 60 60s60 -27 60 -60s-27 -60 -60 -60zM105 368l-70 52l160 70v-500c-1 -123 -46 -197 -155 -250l-5 5c53 68 70 141 70 255v368z" />
    <glyph glyph-name="k" unicode="k" 
d="M195 780v-720l80 -60h-250l80 60v598l-70 52zM334 275c93 -151 139 -219 246 -275v-5c-157 -20 -203 32 -340 259l176 166l-111 60h241z" />
    <glyph glyph-name="kcommaaccent" unicode="&#x137;" 
d="M195 60l80 -60h-250l80 60v598l-70 52l160 70v-720zM334 275c93 -151 139 -219 246 -275v-5c-157 -20 -203 32 -340 259l176 166l-111 60h241zM291 -65c27 0 50 -17 50 -64c0 -69 -58 -117 -118 -139l-2 4c41 26 58 59 58 89c0 26 -14 50 -35 65c0 22 18 45 47 45z" />
    <glyph glyph-name="l" unicode="l" horiz-adv-x="295" 
d="M195 60l80 -60h-250l80 60v598l-70 52l160 70v-720z" />
    <glyph glyph-name="lacute" unicode="&#x13a;" horiz-adv-x="295" 
d="M359 960l-245 -160l-5 5l130 155h120zM195 780v-720l80 -60h-250l80 60v598l-70 52z" />
    <glyph glyph-name="lcaron" unicode="&#x13e;" horiz-adv-x="415" 
d="M195 780v-720l80 -60h-250l80 60v598l-70 52zM275 780h110l-52 -260h-5z" />
    <glyph glyph-name="lcommaaccent" unicode="&#x13c;" horiz-adv-x="295" 
d="M25 0l80 60v598l-70 52l160 70v-720l80 -60h-250zM151 -65c27 0 50 -17 50 -64c0 -69 -58 -117 -118 -139l-2 4c41 26 58 59 58 89c0 26 -14 50 -35 65c0 22 18 45 47 45z" />
    <glyph glyph-name="lslash" unicode="&#x142;" horiz-adv-x="335" 
d="M305 447l-95 -66v-321l80 -60h-250l80 60v258l-95 -67v60l95 67v280l-70 52l160 70v-339l95 66v-60z" />
    <glyph glyph-name="m" unicode="m" horiz-adv-x="905" 
d="M805 60l80 -60h-250l80 60v246c0 88 -31 109 -89 109c-32 0 -73 -8 -126 -49v-306l80 -60h-250l80 60v246c0 88 -31 109 -89 109c-32 0 -73 -8 -126 -49v-306l80 -60h-250l80 60v308l-70 52l160 70l-15 -84l5 -5c43 47 103 89 184 89c56 0 107 -21 124 -85
c43 45 102 85 181 85c69 0 131 -32 131 -139v-291z" />
    <glyph glyph-name="n" unicode="n" horiz-adv-x="620" 
d="M520 60l80 -60h-250l80 60v246c0 88 -41 109 -99 109c-32 0 -83 -8 -136 -49v-306l80 -60h-250l80 60v308l-70 52l160 70l-15 -84l5 -5c50 50 108 89 194 89c69 0 141 -32 141 -139v-291z" />
    <glyph glyph-name="nacute" unicode="&#x144;" horiz-adv-x="620" 
d="M296 570l-5 5l90 195h110zM520 60l80 -60h-250l80 60v246c0 88 -41 109 -99 109c-32 0 -83 -8 -136 -49v-306l80 -60h-250l80 60v308l-70 52l160 70l-15 -84l5 -5c50 50 108 89 194 89c69 0 141 -32 141 -139v-291z" />
    <glyph glyph-name="ncaron" unicode="&#x148;" horiz-adv-x="620" 
d="M490 785l5 -5l-165 -220l-165 220l5 5l160 -130zM520 60l80 -60h-250l80 60v246c0 88 -41 109 -99 109c-32 0 -83 -8 -136 -49v-306l80 -60h-250l80 60v308l-70 52l160 70l-15 -84l5 -5c50 50 108 89 194 89c69 0 141 -32 141 -139v-291z" />
    <glyph glyph-name="ncommaaccent" unicode="&#x146;" horiz-adv-x="620" 
d="M520 60l80 -60h-250l80 60v246c0 88 -41 109 -99 109c-32 0 -83 -8 -136 -49v-306l80 -60h-250l80 60v308l-70 52l160 70l-15 -84l5 -5c50 50 108 89 194 89c69 0 141 -32 141 -139v-291zM311 -65c27 0 50 -17 50 -64c0 -69 -58 -117 -118 -139l-2 4c41 26 58 59 58 89
c0 26 -14 50 -35 65c0 22 18 45 47 45z" />
    <glyph glyph-name="eng" unicode="&#x14b;" horiz-adv-x="595" 
d="M379 490c69 0 141 -32 141 -139v-361c-1 -123 -46 -197 -155 -250l-5 5c53 68 70 141 70 255v306c0 88 -41 109 -99 109c-32 0 -83 -8 -136 -49v-306l80 -60h-250l80 60v308l-70 52l160 70l-15 -84l5 -5c30 30 108 89 194 89z" />
    <glyph glyph-name="ntilde" unicode="&#xf1;" horiz-adv-x="620" 
d="M402 720c63 0 95 -56 98 -127h-5c-19 45 -52 57 -77 57c-55 0 -97 -57 -160 -57s-95 56 -98 127h5c19 -45 52 -57 77 -57c55 0 97 57 160 57zM520 60l80 -60h-250l80 60v246c0 88 -41 109 -99 109c-32 0 -83 -8 -136 -49v-306l80 -60h-250l80 60v308l-70 52l160 70
l-15 -84l5 -5c50 50 108 89 194 89c69 0 141 -32 141 -139v-291z" />
    <glyph glyph-name="o" unicode="o" 
d="M290 -10c-134 0 -245 95 -245 250s111 250 245 250s245 -95 245 -250s-111 -250 -245 -250zM306 30c91 0 122 89 122 188c0 135 -69 232 -154 232c-91 0 -124 -89 -124 -188c0 -135 71 -232 156 -232z" />
    <glyph glyph-name="oacute" unicode="&#xf3;" 
d="M256 570l-5 5l90 195h110zM290 -10c-134 0 -245 95 -245 250s111 250 245 250s245 -95 245 -250s-111 -250 -245 -250zM306 30c91 0 122 89 122 188c0 135 -69 232 -154 232c-91 0 -124 -89 -124 -188c0 -135 71 -232 156 -232z" />
    <glyph glyph-name="ocircumflex" unicode="&#xf4;" 
d="M290 785l165 -220l-5 -5l-160 130l-160 -130l-5 5zM290 -10c-134 0 -245 95 -245 250s111 250 245 250s245 -95 245 -250s-111 -250 -245 -250zM306 30c91 0 122 89 122 188c0 135 -69 232 -154 232c-91 0 -124 -89 -124 -188c0 -135 71 -232 156 -232z" />
    <glyph glyph-name="odieresis" unicode="&#xf6;" 
d="M190 606c-28 0 -52 24 -52 52c0 29 24 52 52 52c29 0 52 -23 52 -52c0 -28 -23 -52 -52 -52zM391 606c-28 0 -52 24 -52 52c0 29 24 52 52 52c29 0 52 -23 52 -52c0 -28 -23 -52 -52 -52zM290 -10c-134 0 -245 95 -245 250s111 250 245 250s245 -95 245 -250
s-111 -250 -245 -250zM306 30c91 0 122 89 122 188c0 135 -69 232 -154 232c-91 0 -124 -89 -124 -188c0 -135 71 -232 156 -232z" />
    <glyph glyph-name="ograve" unicode="&#xf2;" 
d="M324 570l-195 200h110l90 -195zM290 -10c-134 0 -245 95 -245 250s111 250 245 250s245 -95 245 -250s-111 -250 -245 -250zM306 30c91 0 122 89 122 188c0 135 -69 232 -154 232c-91 0 -124 -89 -124 -188c0 -135 71 -232 156 -232z" />
    <glyph glyph-name="ohungarumlaut" unicode="&#x151;" 
d="M196 570l-5 5l70 195h100zM366 570l-5 5l70 195h100zM290 -10c-134 0 -245 95 -245 250s111 250 245 250s245 -95 245 -250s-111 -250 -245 -250zM306 30c91 0 122 89 122 188c0 135 -69 232 -154 232c-91 0 -124 -89 -124 -188c0 -135 71 -232 156 -232z" />
    <glyph glyph-name="omacron" unicode="&#x14d;" 
d="M138 681h306v-65h-306v65zM290 -10c-134 0 -245 95 -245 250s111 250 245 250s245 -95 245 -250s-111 -250 -245 -250zM306 30c91 0 122 89 122 188c0 135 -69 232 -154 232c-91 0 -124 -89 -124 -188c0 -135 71 -232 156 -232z" />
    <glyph glyph-name="oslash" unicode="&#xf8;" 
d="M449 436c52 -43 86 -111 86 -196c0 -155 -111 -250 -245 -250c-47 0 -92 12 -130 34l-44 -63l-33 23l45 63c-51 44 -83 110 -83 193c0 155 111 250 245 250c46 0 89 -11 126 -32l29 42l32 -24zM150 262c0 -54 11 -101 30 -139l193 275c-27 33 -61 52 -99 52
c-91 0 -124 -89 -124 -188zM306 30c91 0 122 89 122 188c0 56 -12 105 -31 143l-194 -275c28 -36 64 -56 103 -56z" />
    <glyph glyph-name="otilde" unicode="&#xf5;" 
d="M362 720c63 0 95 -56 98 -127h-5c-19 45 -52 57 -77 57c-55 0 -97 -57 -160 -57s-95 56 -98 127h5c19 -45 52 -57 77 -57c55 0 97 57 160 57zM290 -10c-134 0 -245 95 -245 250s111 250 245 250s245 -95 245 -250s-111 -250 -245 -250zM306 30c91 0 122 89 122 188
c0 135 -69 232 -154 232c-91 0 -124 -89 -124 -188c0 -135 71 -232 156 -232z" />
    <glyph glyph-name="oe" unicode="&#x153;" horiz-adv-x="915" 
d="M714 75c40 0 88 11 146 55l5 -5c-35 -105 -113 -135 -181 -135c-78 0 -148 40 -189 106c-44 -68 -120 -106 -205 -106c-134 0 -245 95 -245 250s111 250 245 250c84 0 160 -38 204 -104c44 68 119 104 196 104c94 0 176 -54 185 -185h-329c-1 -10 -1 -20 -1 -31
c0 -116 58 -199 169 -199zM676 453c-60 0 -106 -41 -124 -113h218c0 62 -26 113 -94 113zM306 30c91 0 122 89 122 188c0 135 -69 232 -154 232c-91 0 -124 -89 -124 -188c0 -135 71 -232 156 -232z" />
    <glyph glyph-name="p" unicode="p" horiz-adv-x="590" 
d="M286 -10c-28 0 -70 4 -106 15v-186l119 -59h-289l80 60v548l-70 52l160 70l-15 -84l5 -5c29 45 89 89 165 89c102 0 210 -79 210 -238c0 -172 -127 -262 -259 -262zM303 415c-43 0 -89 -17 -123 -49v-244c0 -60 56 -92 113 -92c88 0 152 75 152 200
c0 115 -54 185 -142 185z" />
    <glyph glyph-name="thorn" unicode="&#xfe;" horiz-adv-x="605" 
d="M301 -10c-28 0 -70 4 -106 15v-186l119 -59h-289l80 60v838l-70 52l160 70v-365c32 40 87 75 155 75c102 0 210 -79 210 -238c0 -172 -127 -262 -259 -262zM318 415c-43 0 -89 -17 -123 -49v-244c0 -60 56 -92 113 -92c88 0 152 75 152 200c0 115 -54 185 -142 185z" />
    <glyph glyph-name="q" unicode="q" horiz-adv-x="590" 
d="M410 -260v249l15 85l-5 5c-29 -45 -89 -89 -165 -89c-102 0 -210 79 -210 238c0 172 127 262 259 262c37 0 96 -7 135 -26l61 26v-628l70 -52zM287 65c43 0 89 17 123 49v244c0 60 -56 92 -113 92c-88 0 -152 -75 -152 -200c0 -115 54 -185 142 -185z" />
    <glyph glyph-name="r" unicode="r" horiz-adv-x="390" 
d="M345 382c-66 20 -120 3 -150 -26v-296l120 -60h-290l80 60v308l-70 52l160 70l-19 -107l5 -2c36 66 109 119 199 99z" />
    <glyph glyph-name="racute" unicode="&#x155;" horiz-adv-x="390" 
d="M176 570l-5 5l90 195h110zM345 382c-66 20 -120 3 -150 -26v-296l120 -60h-290l80 60v308l-70 52l160 70l-19 -107l5 -2c36 66 109 119 199 99z" />
    <glyph glyph-name="rcaron" unicode="&#x159;" horiz-adv-x="390" 
d="M370 785l5 -5l-165 -220l-165 220l5 5l160 -130zM345 382c-66 20 -120 3 -150 -26v-296l120 -60h-290l80 60v308l-70 52l160 70l-19 -107l5 -2c36 66 109 119 199 99z" />
    <glyph glyph-name="rcommaaccent" unicode="&#x157;" horiz-adv-x="390" 
d="M345 382c-66 20 -120 3 -150 -26v-296l120 -60h-290l80 60v308l-70 52l160 70l-19 -107l5 -2c36 66 109 119 199 99zM166 -65c27 0 50 -17 50 -64c0 -69 -58 -117 -118 -139l-2 4c41 26 58 59 58 89c0 26 -14 50 -35 65c0 22 18 45 47 45z" />
    <glyph glyph-name="s" unicode="s" horiz-adv-x="460" 
d="M145 376c0 -112 260 -78 260 -239c0 -94 -89 -147 -177 -147c-39 0 -78 10 -111 24l-62 -24v167l79 -104c30 -15 60 -23 88 -23c58 0 87 34 87 76c0 124 -254 91 -254 246c0 96 97 138 180 138c35 0 68 -8 98 -20l52 20v-167l-88 117c-18 6 -38 10 -58 10
c-66 0 -94 -37 -94 -74z" />
    <glyph glyph-name="sacute" unicode="&#x15b;" horiz-adv-x="460" 
d="M196 570l-5 5l90 195h110zM145 376c0 -112 260 -78 260 -239c0 -94 -89 -147 -177 -147c-39 0 -78 10 -111 24l-62 -24v167l79 -104c30 -15 60 -23 88 -23c58 0 87 34 87 76c0 124 -254 91 -254 246c0 96 97 138 180 138c35 0 68 -8 98 -20l52 20v-167l-88 117
c-18 6 -38 10 -58 10c-66 0 -94 -37 -94 -74z" />
    <glyph glyph-name="scaron" unicode="&#x161;" horiz-adv-x="460" 
d="M390 785l5 -5l-165 -220l-165 220l5 5l160 -130zM145 376c0 -112 260 -78 260 -239c0 -94 -89 -147 -177 -147c-39 0 -78 10 -111 24l-62 -24v167l79 -104c30 -15 60 -23 88 -23c58 0 87 34 87 76c0 124 -254 91 -254 246c0 96 97 138 180 138c35 0 68 -8 98 -20l52 20
v-167l-88 117c-18 6 -38 10 -58 10c-66 0 -94 -37 -94 -74z" />
    <glyph glyph-name="scedilla" unicode="&#x15f;" horiz-adv-x="460" 
d="M405 137c0 -88 -78 -140 -161 -146l-23 -58c72 -23 98 -56 98 -98c0 -55 -46 -85 -99 -85c-65 0 -94 44 -106 83l5 5c23 -16 50 -28 78 -28c27 0 47 12 47 43c0 24 -12 44 -66 67l28 71c-31 3 -62 12 -89 23l-62 -24v167l79 -104c30 -15 60 -23 88 -23c58 0 87 34 87 76
c0 124 -254 91 -254 246c0 96 97 138 180 138c35 0 68 -8 98 -20l52 20v-167l-88 117c-18 6 -38 10 -58 10c-66 0 -94 -37 -94 -74c0 -112 260 -78 260 -239z" />
    <glyph glyph-name="scommaaccent" unicode="&#x219;" horiz-adv-x="460" 
d="M145 376c0 -112 260 -78 260 -239c0 -94 -89 -147 -177 -147c-39 0 -78 10 -111 24l-62 -24v167l79 -104c30 -15 60 -23 88 -23c58 0 87 34 87 76c0 124 -254 91 -254 246c0 96 97 138 180 138c35 0 68 -8 98 -20l52 20v-167l-88 117c-18 6 -38 10 -58 10
c-66 0 -94 -37 -94 -74zM231 -65c27 0 50 -17 50 -64c0 -69 -58 -117 -118 -139l-2 4c41 26 58 59 58 89c0 26 -14 50 -35 65c0 22 18 45 47 45z" />
    <glyph glyph-name="germandbls" unicode="&#xdf;" horiz-adv-x="630" 
d="M404 445c0 -167 216 -131 216 -298c0 -96 -71 -157 -181 -157c-45 0 -89 10 -125 33v102l132 -95c36 10 74 34 74 88c0 115 -206 113 -206 286c0 70 34 122 107 181c0 69 -19 155 -97 155c-74 0 -124 -76 -124 -185v-495l80 -60h-250l80 60v360h-100l100 75v30
c0 183 122 255 231 255c101 0 161 -63 170 -175c-93 -56 -107 -117 -107 -160z" />
    <glyph glyph-name="t" unicode="t" horiz-adv-x="439" 
d="M289 75c36 0 70 13 111 45l5 -5c-25 -90 -85 -125 -149 -125c-88 0 -142 68 -142 145v285h-109l199 149v-89h210l-31 -60h-179v-245c0 -46 11 -100 85 -100z" />
    <glyph glyph-name="tbar" unicode="&#x167;" horiz-adv-x="439" 
d="M289 75c36 0 70 13 111 45l5 -5c-25 -90 -85 -125 -149 -125c-88 0 -142 68 -142 145v135h-80v45h80v105h-109l199 149v-89h210l-31 -60h-179v-105h170v-45h-170v-95c0 -46 11 -100 85 -100z" />
    <glyph glyph-name="tcaron" unicode="&#x165;" horiz-adv-x="470" 
d="M398 544h-5l-48 236h100zM383 420h-179v-245c0 -46 11 -100 85 -100c36 0 70 13 111 45l5 -5c-25 -90 -85 -125 -149 -125c-88 0 -142 68 -142 145v285h-109l199 149v-89h210z" />
    <glyph glyph-name="uni0163" unicode="&#x163;" horiz-adv-x="439" 
d="M405 115c-18 -65 -55 -102 -98 -117l-26 -65c72 -23 98 -56 98 -98c0 -55 -46 -85 -99 -85c-65 0 -94 44 -106 83l5 5c23 -16 50 -28 78 -28c27 0 47 12 47 43c0 24 -12 44 -66 67l28 70h-10c-88 0 -142 68 -142 145v285h-109l199 149v-89h210l-31 -60h-179v-245
c0 -46 11 -100 85 -100c36 0 70 13 111 45z" />
    <glyph glyph-name="uni021B" unicode="&#x21b;" horiz-adv-x="439" 
d="M289 75c36 0 70 13 111 45l5 -5c-25 -90 -85 -125 -149 -125c-88 0 -142 68 -142 145v285h-109l199 149v-89h210l-31 -60h-179v-245c0 -46 11 -100 85 -100zM291 -65c27 0 50 -17 50 -64c0 -69 -58 -117 -118 -139l-2 4c41 26 58 59 58 89c0 26 -14 50 -35 65
c0 22 18 45 47 45z" />
    <glyph glyph-name="u" unicode="u" horiz-adv-x="585" 
d="M485 90l70 -52l-114 -48l-31 89h-5c-30 -30 -108 -89 -194 -89c-59 0 -131 32 -131 139v239l-70 52l160 70v-316c0 -88 41 -109 89 -109c32 0 83 8 136 49v254l-70 52l160 70v-400z" />
    <glyph glyph-name="uacute" unicode="&#xfa;" horiz-adv-x="585" 
d="M249 570l-5 5l90 195h110zM485 90l70 -52l-114 -48l-31 89h-5c-30 -30 -108 -89 -194 -89c-59 0 -131 32 -131 139v239l-70 52l160 70v-316c0 -88 41 -109 89 -109c32 0 83 8 136 49v254l-70 52l160 70v-400z" />
    <glyph glyph-name="ucircumflex" unicode="&#xfb;" horiz-adv-x="585" 
d="M283 785l165 -220l-5 -5l-160 130l-160 -130l-5 5zM485 90l70 -52l-114 -48l-31 89h-5c-30 -30 -108 -89 -194 -89c-59 0 -131 32 -131 139v239l-70 52l160 70v-316c0 -88 41 -109 89 -109c32 0 83 8 136 49v254l-70 52l160 70v-400z" />
    <glyph glyph-name="udieresis" unicode="&#xfc;" horiz-adv-x="585" 
d="M183 606c-28 0 -52 24 -52 52c0 29 24 52 52 52c29 0 52 -23 52 -52c0 -28 -23 -52 -52 -52zM384 606c-28 0 -52 24 -52 52c0 29 24 52 52 52c29 0 52 -23 52 -52c0 -28 -23 -52 -52 -52zM485 90l70 -52l-114 -48l-31 89h-5c-30 -30 -108 -89 -194 -89
c-59 0 -131 32 -131 139v239l-70 52l160 70v-316c0 -88 41 -109 89 -109c32 0 83 8 136 49v254l-70 52l160 70v-400z" />
    <glyph glyph-name="ugrave" unicode="&#xf9;" horiz-adv-x="585" 
d="M317 570l-195 200h110l90 -195zM485 90l70 -52l-114 -48l-31 89h-5c-30 -30 -108 -89 -194 -89c-59 0 -131 32 -131 139v239l-70 52l160 70v-316c0 -88 41 -109 89 -109c32 0 83 8 136 49v254l-70 52l160 70v-400z" />
    <glyph glyph-name="uhungarumlaut" unicode="&#x171;" horiz-adv-x="585" 
d="M189 570l-5 5l70 195h100zM359 570l-5 5l70 195h100zM485 90l70 -52l-114 -48l-31 89h-5c-30 -30 -108 -89 -194 -89c-59 0 -131 32 -131 139v239l-70 52l160 70v-316c0 -88 41 -109 89 -109c32 0 83 8 136 49v254l-70 52l160 70v-400z" />
    <glyph glyph-name="umacron" unicode="&#x16b;" horiz-adv-x="585" 
d="M131 681h306v-65h-306v65zM485 90l70 -52l-114 -48l-31 89h-5c-30 -30 -108 -89 -194 -89c-59 0 -131 32 -131 139v239l-70 52l160 70v-316c0 -88 41 -109 89 -109c32 0 83 8 136 49v254l-70 52l160 70v-400z" />
    <glyph glyph-name="uogonek" unicode="&#x173;" horiz-adv-x="585" 
d="M463 -185c22 0 41 7 64 23l5 -5c-12 -40 -44 -83 -105 -83c-58 0 -95 40 -95 94s36 101 108 148l-30 87h-5c-30 -30 -108 -89 -194 -89c-59 0 -131 32 -131 139v239l-70 52l160 70v-316c0 -88 41 -109 89 -109c32 0 83 8 136 49v254l-70 52l160 70v-400l70 -52
c-113 -61 -148 -120 -148 -167c0 -41 24 -56 56 -56z" />
    <glyph glyph-name="uring" unicode="&#x16f;" horiz-adv-x="585" 
d="M283 561c-66 0 -122 55 -122 120c0 66 56 122 122 122s122 -56 122 -122c0 -65 -56 -120 -122 -120zM283 597c47 0 82 38 82 84c0 48 -35 86 -82 86s-82 -38 -82 -86c0 -46 35 -84 82 -84zM485 90l70 -52l-114 -48l-31 89h-5c-30 -30 -108 -89 -194 -89
c-59 0 -131 32 -131 139v239l-70 52l160 70v-316c0 -88 41 -109 89 -109c32 0 83 8 136 49v254l-70 52l160 70v-400z" />
    <glyph glyph-name="v" unicode="v" horiz-adv-x="575" 
d="M575 480l-80 -60l-191 -450h-6l-232 461l-66 49h257l-80 -60l140 -285l118 285l-88 60h228z" />
    <glyph glyph-name="w" unicode="w" horiz-adv-x="850" 
d="M850 480l-80 -60l-171 -450h-6l-157 338l-159 -338h-6l-209 464l-62 46h254l-80 -60l125 -280l107 232l-50 108h159l-27 -60l124 -270l98 270l-88 60h228z" />
    <glyph glyph-name="wacute" unicode="&#x1e83;" horiz-adv-x="850" 
d="M651 710l-245 -160l-5 5l130 155h120zM850 480l-80 -60l-171 -450h-6l-157 338l-159 -338h-6l-209 464l-62 46h254l-80 -60l125 -280l107 232l-50 108h159l-27 -60l124 -270l98 270l-88 60h228z" />
    <glyph glyph-name="wcircumflex" unicode="&#x175;" horiz-adv-x="850" 
d="M440 640l-160 -90l-5 5l165 180l165 -180l-5 -5zM850 480l-80 -60l-171 -450h-6l-157 338l-159 -338h-6l-209 464l-62 46h254l-80 -60l125 -280l107 232l-50 108h159l-27 -60l124 -270l98 270l-88 60h228z" />
    <glyph glyph-name="wdieresis" unicode="&#x1e85;" horiz-adv-x="850" 
d="M340 566c-28 0 -52 24 -52 52c0 29 24 52 52 52c29 0 52 -23 52 -52c0 -28 -23 -52 -52 -52zM541 566c-28 0 -52 24 -52 52c0 29 24 52 52 52c29 0 52 -23 52 -52c0 -28 -23 -52 -52 -52zM850 480l-80 -60l-171 -450h-6l-157 338l-159 -338h-6l-209 464l-62 46h254
l-80 -60l125 -280l107 232l-50 108h159l-27 -60l124 -270l98 270l-88 60h228z" />
    <glyph glyph-name="wgrave" unicode="&#x1e81;" horiz-adv-x="850" 
d="M474 570l-195 200h110l90 -195zM850 480l-80 -60l-171 -450h-6l-157 338l-159 -338h-6l-209 464l-62 46h254l-80 -60l125 -280l107 232l-50 108h159l-27 -60l124 -270l98 270l-88 60h228z" />
    <glyph glyph-name="x" unicode="x" horiz-adv-x="525" 
d="M467 51l68 -51h-267l80 60l-104 133l-107 -133l88 -60h-235l80 60l141 174l-151 193l-70 53h268l-80 -60l100 -128l101 128l-88 60h233l-80 -60l-134 -169z" />
    <glyph glyph-name="y" unicode="y" horiz-adv-x="570" 
d="M490 420l-257 -580l137 -80h-243l141 295l-199 374l-69 51h257l-80 -60l139 -265l114 265l-88 60h228z" />
    <glyph glyph-name="yacute" unicode="&#xfd;" horiz-adv-x="570" 
d="M504 710l-245 -160l-5 5l130 155h120zM490 420l-257 -580l137 -80h-243l141 295l-199 374l-69 51h257l-80 -60l139 -265l114 265l-88 60h228z" />
    <glyph glyph-name="ycircumflex" unicode="&#x177;" horiz-adv-x="570" 
d="M293 785l165 -220l-5 -5l-160 130l-160 -130l-5 5zM490 420l-257 -580l137 -80h-243l141 295l-199 374l-69 51h257l-80 -60l139 -265l114 265l-88 60h228z" />
    <glyph glyph-name="ydieresis" unicode="&#xff;" horiz-adv-x="570" 
d="M193 606c-28 0 -52 24 -52 52c0 29 24 52 52 52c29 0 52 -23 52 -52c0 -28 -23 -52 -52 -52zM394 606c-28 0 -52 24 -52 52c0 29 24 52 52 52c29 0 52 -23 52 -52c0 -28 -23 -52 -52 -52zM490 420l-257 -580l137 -80h-243l141 295l-199 374l-69 51h257l-80 -60l139 -265
l114 265l-88 60h228z" />
    <glyph glyph-name="ygrave" unicode="&#x1ef3;" horiz-adv-x="570" 
d="M327 570l-195 200h110l90 -195zM490 420l-257 -580l137 -80h-243l141 295l-199 374l-69 51h257l-80 -60l139 -265l114 265l-88 60h228z" />
    <glyph glyph-name="z" unicode="z" horiz-adv-x="515" 
d="M160 45h228l97 129v-174h-470l331 435h-193l-97 -129v194l88 -20h346z" />
    <glyph glyph-name="zacute" unicode="&#x17a;" horiz-adv-x="515" 
d="M249 570l-5 5l90 195h110zM160 45h228l97 129v-174h-470l331 435h-193l-97 -129v194l88 -20h346z" />
    <glyph glyph-name="zcaron" unicode="&#x17e;" horiz-adv-x="515" 
d="M443 785l5 -5l-165 -220l-165 220l5 5l160 -130zM160 45h228l97 129v-174h-470l331 435h-193l-97 -129v194l88 -20h346z" />
    <glyph glyph-name="zdotaccent" unicode="&#x17c;" horiz-adv-x="515" 
d="M279 591c-33 0 -60 27 -60 60s27 60 60 60s60 -27 60 -60s-27 -60 -60 -60zM160 45h228l97 129v-174h-470l331 435h-193l-97 -129v194l88 -20h346z" />
    <glyph glyph-name="f_f" horiz-adv-x="630" 
d="M606 740c-71 -6 -106 -76 -106 -185v-75h160l-31 -60h-129v-360l120 -60h-290l80 60v360h-210v-360l80 -60h-250l80 60v360h-100l100 75v10c0 183 126 255 256 255c46 0 94 -9 129 -23c37 30 84 43 131 43c53 0 99 -12 134 -30l-65 -87zM200 480h210v45c0 48 7 89 20 122
l-84 73c-91 -7 -146 -76 -146 -185v-55z" />
    <glyph glyph-name="f_f_i" horiz-adv-x="900" 
d="M800 60l80 -60h-250l80 60v360h-210v-360l80 -60h-250l80 60v360h-210v-360l80 -60h-250l80 60v360h-100l100 75v10c0 183 126 255 256 255c51 0 106 -11 141 -28c47 33 104 48 159 48c53 0 99 -12 134 -30l-65 -87l-89 77c-81 -6 -146 -76 -146 -185v-75h300v-420z
M200 480h210v45c0 47 9 86 24 119l-88 76c-91 -7 -146 -76 -146 -185v-55z" />
    <glyph glyph-name="f_f_l" horiz-adv-x="900" 
d="M800 60l80 -60h-250l80 60v622l-80 58c-71 -6 -130 -76 -130 -185v-75h130l-31 -60h-99v-360l80 -60h-250l80 60v360h-210v-360l80 -60h-250l80 60v360h-100l100 75v10c0 183 126 255 256 255c50 0 102 -11 138 -27c43 33 97 47 146 47c53 0 115 -12 150 -30v-690z
M410 480v45c0 47 9 87 23 120l-87 75c-91 -7 -146 -76 -146 -185v-55h210z" />
    <glyph glyph-name="a.sc" horiz-adv-x="612" 
d="M558 48l64 -48h-248l80 60l-63 137h-211l-61 -137l120 -60h-204l269 587h6zM201 242h170l-86 188z" />
    <glyph glyph-name="aacute.sc" horiz-adv-x="612" 
d="M466 850l-195 -200l-5 5l90 195h110zM558 48l64 -48h-248l80 60l-63 137h-211l-61 -137l120 -60h-204l269 587h6zM201 242h170l-86 188z" />
    <glyph glyph-name="abreve.sc" horiz-adv-x="612" 
d="M305 670c-75 0 -150 68 -155 180l5 5c43 -92 97 -115 150 -115s107 23 150 115l5 -5c-5 -112 -80 -180 -155 -180zM558 48l64 -48h-248l80 60l-63 137h-211l-61 -137l120 -60h-204l269 587h6zM201 242h170l-86 188z" />
    <glyph glyph-name="acircumflex.sc" horiz-adv-x="612" 
d="M305 770l-160 -130l-5 5l165 220l165 -220l-5 -5zM558 48l64 -48h-248l80 60l-63 137h-211l-61 -137l120 -60h-204l269 587h6zM201 242h170l-86 188z" />
    <glyph glyph-name="adieresis.sc" horiz-adv-x="612" 
d="M205 686c-28 0 -52 24 -52 52c0 29 24 52 52 52c29 0 52 -23 52 -52c0 -28 -23 -52 -52 -52zM406 686c-28 0 -52 24 -52 52c0 29 24 52 52 52c29 0 52 -23 52 -52c0 -28 -23 -52 -52 -52zM558 48l64 -48h-248l80 60l-63 137h-211l-61 -137l120 -60h-204l269 587h6z
M201 242h170l-86 188z" />
    <glyph glyph-name="agrave.sc" horiz-adv-x="612" 
d="M344 655l-5 -5l-195 200h110zM558 48l64 -48h-248l80 60l-63 137h-211l-61 -137l120 -60h-204l269 587h6zM201 242h170l-86 188z" />
    <glyph glyph-name="amacron.sc" horiz-adv-x="612" 
d="M459 761v-65h-306v65h306zM558 48l64 -48h-248l80 60l-63 137h-211l-61 -137l120 -60h-204l269 587h6zM201 242h170l-86 188z" />
    <glyph glyph-name="aogonek.sc" horiz-adv-x="612" 
d="M558 48l64 -48h-156c-60 -38 -74 -83 -74 -122c0 -48 21 -63 55 -63c23 0 42 7 65 23l5 -5c-12 -40 -44 -83 -104 -83c-61 0 -96 43 -96 103c0 53 28 126 146 190l-71 154h-212l-61 -137l120 -60h-204l269 587h6zM201 242h170l-86 188z" />
    <glyph glyph-name="aring.sc" horiz-adv-x="612" 
d="M558 48l64 -48h-248l80 60l-63 137h-211l-61 -137l120 -60h-204l255 557c-59 7 -107 59 -107 119c0 66 56 122 122 122s122 -56 122 -122c0 -59 -46 -109 -103 -119zM223 676c0 -46 35 -84 82 -84s82 38 82 84c0 48 -35 86 -82 86s-82 -38 -82 -86zM201 242h170l-86 188z
" />
    <glyph glyph-name="atilde.sc" horiz-adv-x="612" 
d="M233 673c-63 0 -95 56 -98 127h5c19 -45 52 -57 77 -57c55 0 97 57 160 57s95 -56 98 -127h-5c-19 45 -52 57 -77 57c-55 0 -97 -57 -160 -57zM558 48l64 -48h-248l80 60l-63 137h-211l-61 -137l120 -60h-204l269 587h6zM201 242h170l-86 188z" />
    <glyph glyph-name="ae.sc" horiz-adv-x="850" 
d="M727 45l78 108v-153h-398v210h-170l-101 -150l120 -60h-221l345 517l-71 43h471v-153l-78 108h-200v-201h151l57 73v-190l-57 72h-151v-224h225zM267 255h140v209z" />
    <glyph glyph-name="b.sc" horiz-adv-x="597" 
d="M417 289c85 -18 140 -61 140 -133c0 -96 -95 -156 -247 -156h-285l80 60v440l-80 60h282c134 0 221 -54 221 -142c0 -63 -43 -108 -111 -129zM299 515h-99v-206h99c92 0 134 42 134 104c0 61 -42 102 -134 102zM301 45c109 0 156 39 156 107s-48 112 -156 112h-101v-219
h101z" />
    <glyph glyph-name="c.sc" horiz-adv-x="599" 
d="M564 147l5 -5c-54 -113 -148 -152 -237 -152c-147 0 -292 108 -292 284c0 181 154 296 327 296c43 0 92 -7 138 -22l46 21v-190l-96 134c-31 9 -60 12 -87 12c-133 0 -228 -83 -228 -230c0 -139 86 -230 218 -230c64 0 139 22 206 82z" />
    <glyph glyph-name="cacute.sc" horiz-adv-x="599" 
d="M316 650l-5 5l90 195h110zM564 147l5 -5c-54 -113 -148 -152 -237 -152c-147 0 -292 108 -292 284c0 181 154 296 327 296c43 0 92 -7 138 -22l46 21v-190l-96 134c-31 9 -60 12 -87 12c-133 0 -228 -83 -228 -230c0 -139 86 -230 218 -230c64 0 139 22 206 82z" />
    <glyph glyph-name="ccaron.sc" horiz-adv-x="599" 
d="M510 865l5 -5l-165 -220l-165 220l5 5l160 -130zM564 147l5 -5c-54 -113 -148 -152 -237 -152c-147 0 -292 108 -292 284c0 181 154 296 327 296c43 0 92 -7 138 -22l46 21v-190l-96 134c-31 9 -60 12 -87 12c-133 0 -228 -83 -228 -230c0 -139 86 -230 218 -230
c64 0 139 22 206 82z" />
    <glyph glyph-name="ccedilla.sc" horiz-adv-x="599" 
d="M569 142c-47 -99 -126 -141 -204 -150l-24 -59c72 -23 98 -56 98 -98c0 -55 -46 -85 -99 -85c-65 0 -94 44 -106 83l5 5c23 -16 50 -28 78 -28c27 0 47 12 47 43c0 24 -12 44 -66 67l28 70c-145 3 -286 110 -286 284c0 181 154 296 327 296c43 0 92 -7 138 -22l46 21
v-190l-96 134c-31 9 -60 12 -87 12c-133 0 -228 -83 -228 -230c0 -139 86 -230 218 -230c64 0 139 22 206 82z" />
    <glyph glyph-name="cdotaccent.sc" horiz-adv-x="599" 
d="M346 671c-33 0 -60 27 -60 60s27 60 60 60s60 -27 60 -60s-27 -60 -60 -60zM564 147l5 -5c-54 -113 -148 -152 -237 -152c-147 0 -292 108 -292 284c0 181 154 296 327 296c43 0 92 -7 138 -22l46 21v-190l-96 134c-31 9 -60 12 -87 12c-133 0 -228 -83 -228 -230
c0 -139 86 -230 218 -230c64 0 139 22 206 82z" />
    <glyph glyph-name="d.sc" horiz-adv-x="675" 
d="M336 560c156 0 299 -79 299 -268c0 -182 -143 -292 -299 -292h-311l80 60v440l-80 60h311zM327 45c124 0 208 89 208 238c0 157 -84 232 -208 232h-127v-470h127z" />
    <glyph glyph-name="eth.sc" horiz-adv-x="675" 
d="M336 560c156 0 299 -79 299 -268c0 -182 -143 -292 -299 -292h-311l80 60v216h-98v45h98v179l-80 60h311zM327 45c124 0 208 89 208 238c0 157 -84 232 -208 232h-127v-194h147v-45h-147v-231h127z" />
    <glyph glyph-name="dcaron.sc" horiz-adv-x="675" 
d="M512 860l-165 -220l-165 220l5 5l160 -130l160 130zM336 560c156 0 299 -79 299 -268c0 -182 -143 -292 -299 -292h-311l80 60v440l-80 60h311zM327 45c124 0 208 89 208 238c0 157 -84 232 -208 232h-127v-470h127z" />
    <glyph glyph-name="dcroat.sc" horiz-adv-x="675" 
d="M336 560c156 0 299 -79 299 -268c0 -182 -143 -292 -299 -292h-311l80 60v216h-98v45h98v179l-80 60h311zM327 45c124 0 208 89 208 238c0 157 -84 232 -208 232h-127v-194h147v-45h-147v-231h127z" />
    <glyph glyph-name="e.sc" horiz-adv-x="548" 
d="M425 45l78 108v-153h-478l80 60v440l-80 60h453v-153l-78 108h-200v-201h151l57 73v-190l-57 72h-151v-224h225z" />
    <glyph glyph-name="eacute.sc" horiz-adv-x="548" 
d="M439 850l-195 -200l-5 5l90 195h110zM425 45l78 108v-153h-478l80 60v440l-80 60h453v-153l-78 108h-200v-201h151l57 73v-190l-57 72h-151v-224h225z" />
    <glyph glyph-name="ecaron.sc" horiz-adv-x="548" 
d="M443 860l-165 -220l-165 220l5 5l160 -130l160 130zM425 45l78 108v-153h-478l80 60v440l-80 60h453v-153l-78 108h-200v-201h151l57 73v-190l-57 72h-151v-224h225z" />
    <glyph glyph-name="ecircumflex.sc" horiz-adv-x="548" 
d="M278 770l-160 -130l-5 5l165 220l165 -220l-5 -5zM425 45l78 108v-153h-478l80 60v440l-80 60h453v-153l-78 108h-200v-201h151l57 73v-190l-57 72h-151v-224h225z" />
    <glyph glyph-name="edieresis.sc" horiz-adv-x="548" 
d="M178 686c-28 0 -52 24 -52 52c0 29 24 52 52 52c29 0 52 -23 52 -52c0 -28 -23 -52 -52 -52zM379 686c-28 0 -52 24 -52 52c0 29 24 52 52 52c29 0 52 -23 52 -52c0 -28 -23 -52 -52 -52zM425 45l78 108v-153h-478l80 60v440l-80 60h453v-153l-78 108h-200v-201h151
l57 73v-190l-57 72h-151v-224h225z" />
    <glyph glyph-name="edotaccent.sc" horiz-adv-x="548" 
d="M274 671c-33 0 -60 27 -60 60s27 60 60 60s60 -27 60 -60s-27 -60 -60 -60zM425 45l78 108v-153h-478l80 60v440l-80 60h453v-153l-78 108h-200v-201h151l57 73v-190l-57 72h-151v-224h225z" />
    <glyph glyph-name="egrave.sc" horiz-adv-x="548" 
d="M317 655l-5 -5l-195 200h110zM425 45l78 108v-153h-478l80 60v440l-80 60h453v-153l-78 108h-200v-201h151l57 73v-190l-57 72h-151v-224h225z" />
    <glyph glyph-name="emacron.sc" horiz-adv-x="548" 
d="M432 761v-65h-306v65h306zM425 45l78 108v-153h-478l80 60v440l-80 60h453v-153l-78 108h-200v-201h151l57 73v-190l-57 72h-151v-224h225z" />
    <glyph glyph-name="eogonek.sc" horiz-adv-x="548" 
d="M529 -162l5 -5c-12 -40 -44 -83 -105 -83c-58 0 -95 40 -95 94c0 57 30 106 111 156h-420l80 60v440l-80 60h453v-153l-78 108h-200v-201h151l57 73v-190l-57 72h-151v-224h225l78 108v-153c-63 -41 -94 -82 -94 -129c0 -41 24 -56 56 -56c22 0 41 7 64 23z" />
    <glyph glyph-name="f.sc" horiz-adv-x="505" 
d="M470 560v-153l-78 108h-192v-226h179l62 79v-204l-62 80h-179v-184l120 -60h-295l80 60v440l-80 60h445z" />
    <glyph glyph-name="g.sc" horiz-adv-x="619" 
d="M574 266v-268l-47 25c-53 -23 -113 -33 -166 -33c-174 0 -321 104 -321 287c0 188 156 293 324 293c46 0 97 -8 142 -23l49 22v-180l-96 124c-32 9 -61 12 -88 12c-135 0 -230 -79 -230 -226c0 -151 100 -254 233 -254c27 0 70 4 115 19v137l-147 65h232z" />
    <glyph glyph-name="gbreve.sc" horiz-adv-x="619" 
d="M493 855l5 -5c-5 -112 -80 -180 -155 -180s-150 68 -155 180l5 5c43 -92 97 -115 150 -115s107 23 150 115zM574 266v-268l-47 25c-53 -23 -113 -33 -166 -33c-174 0 -321 104 -321 287c0 188 156 293 324 293c46 0 97 -8 142 -23l49 22v-180l-96 124
c-32 9 -61 12 -88 12c-135 0 -230 -79 -230 -226c0 -151 100 -254 233 -254c27 0 70 4 115 19v137l-147 65h232z" />
    <glyph glyph-name="gcommaaccent.sc" horiz-adv-x="619" 
d="M574 266v-268l-47 25c-53 -23 -113 -33 -166 -33c-174 0 -321 104 -321 287c0 188 156 293 324 293c46 0 97 -8 142 -23l49 22v-180l-96 124c-32 9 -61 12 -88 12c-135 0 -230 -79 -230 -226c0 -151 100 -254 233 -254c27 0 70 4 115 19v137l-147 65h232zM344 -65
c27 0 50 -17 50 -64c0 -69 -58 -117 -118 -139l-2 4c41 26 58 59 58 89c0 26 -14 50 -35 65c0 22 18 45 47 45z" />
    <glyph glyph-name="gdotaccent.sc" horiz-adv-x="619" 
d="M339 671c-33 0 -60 27 -60 60s27 60 60 60s60 -27 60 -60s-27 -60 -60 -60zM574 266v-268l-47 25c-53 -23 -113 -33 -166 -33c-174 0 -321 104 -321 287c0 188 156 293 324 293c46 0 97 -8 142 -23l49 22v-180l-96 124c-32 9 -61 12 -88 12c-135 0 -230 -79 -230 -226
c0 -151 100 -254 233 -254c27 0 70 4 115 19v137l-147 65h232z" />
    <glyph glyph-name="h.sc" horiz-adv-x="721" 
d="M616 500v-440l80 -60h-255l80 60v223h-321v-223l80 -60h-255l80 60v440l-80 60h255l-80 -60v-172h321v172l-80 60h255z" />
    <glyph glyph-name="hbar.sc" horiz-adv-x="741" 
d="M616 398v-338l80 -60h-255l80 60v223h-321v-223l80 -60h-255l80 60v338h-48v45h48v57l-80 60h255l-80 -60v-57h321v57l-80 60h255l-80 -60v-57h79v-45h-79zM200 328h321v70h-321v-70z" />
    <glyph glyph-name="i.sc" horiz-adv-x="315" 
d="M205 500v-440l80 -60h-255l80 60v440l-80 60h255z" />
    <glyph glyph-name="dotlessi.sc" horiz-adv-x="315" 
d="M205 500v-440l80 -60h-255l80 60v440l-80 60h255z" />
    <glyph glyph-name="iacute.sc" horiz-adv-x="315" 
d="M318 850l-195 -200l-5 5l90 195h110zM285 560l-80 -60v-440l80 -60h-255l80 60v440l-80 60h255z" />
    <glyph glyph-name="icircumflex.sc" horiz-adv-x="315" 
d="M157 865l165 -220l-5 -5l-160 130l-160 -130l-5 5zM285 560l-80 -60v-440l80 -60h-255l80 60v440l-80 60h255z" />
    <glyph glyph-name="idieresis.sc" horiz-adv-x="315" 
d="M109 738c0 -28 -23 -52 -52 -52c-28 0 -52 24 -52 52c0 29 24 52 52 52c29 0 52 -23 52 -52zM258 790c29 0 52 -23 52 -52c0 -28 -23 -52 -52 -52c-28 0 -52 24 -52 52c0 29 24 52 52 52zM285 560l-80 -60v-440l80 -60h-255l80 60v440l-80 60h255z" />
    <glyph glyph-name="i.sc.loclTRK" horiz-adv-x="315" 
d="M153 671c-33 0 -60 27 -60 60s27 60 60 60s60 -27 60 -60s-27 -60 -60 -60zM205 500v-440l80 -60h-255l80 60v440l-80 60h255z" />
    <glyph glyph-name="igrave.sc" horiz-adv-x="315" 
d="M196 655l-5 -5l-195 200h110zM205 500v-440l80 -60h-255l80 60v440l-80 60h255z" />
    <glyph glyph-name="imacron.sc" horiz-adv-x="315" 
d="M5 761h306v-65h-306v65zM285 560l-80 -60v-440l80 -60h-255l80 60v440l-80 60h255z" />
    <glyph glyph-name="iogonek.sc" horiz-adv-x="315" 
d="M174 0c-46 -40 -77 -86 -77 -125c0 -47 25 -60 56 -60c22 0 41 7 64 23l5 -5c-12 -40 -44 -83 -105 -83c-59 0 -95 40 -95 97c0 55 49 106 120 153h-112l80 60v440l-80 60h255l-80 -60v-440l80 -60h-111z" />
    <glyph glyph-name="j.sc" horiz-adv-x="300" 
d="M280 560l-80 -60v-489c0 -109 -58 -169 -158 -203l-4 4c45 54 67 105 67 196v492l-80 60h255z" />
    <glyph glyph-name="k.sc" horiz-adv-x="634" 
d="M200 500v-440l80 -60h-255l80 60v440l-80 60h255zM356 313c131 -184 180 -273 303 -313v-5c-176 -16 -220 41 -399 293l233 221l-76 51h200z" />
    <glyph glyph-name="kcommaaccent.sc" horiz-adv-x="634" 
d="M200 500v-440l80 -60h-255l80 60v440l-80 60h255zM356 313c131 -184 180 -273 303 -313v-5c-176 -16 -220 41 -399 293l233 221l-76 51h200zM354 -65c27 0 50 -17 50 -64c0 -69 -58 -117 -118 -139l-2 4c41 26 58 59 58 89c0 26 -14 50 -35 65c0 22 18 45 47 45z" />
    <glyph glyph-name="l.sc" horiz-adv-x="502" 
d="M413 45l79 110v-155h-477l80 60v440l-80 60h255l-80 -60v-455h223z" />
    <glyph glyph-name="lacute.sc" horiz-adv-x="502" 
d="M325 850l-195 -200l-5 5l90 195h110zM413 45l79 110v-155h-477l80 60v440l-80 60h255l-80 -60v-455h223z" />
    <glyph glyph-name="lcaron.sc" horiz-adv-x="543" 
d="M386 391c44 29 63 65 63 98c0 29 -15 56 -39 71c0 25 20 50 52 50c30 0 56 -18 56 -70c0 -76 -65 -128 -131 -153zM190 45h223l79 110v-155h-477l80 60v440l-80 60h255l-80 -60v-455z" />
    <glyph glyph-name="lcommaaccent.sc" horiz-adv-x="502" 
d="M413 45l79 110v-155h-477l80 60v440l-80 60h255l-80 -60v-455h223zM295 -71c27 0 50 -17 50 -64c0 -69 -58 -117 -118 -139l-2 4c41 26 58 59 58 89c0 26 -14 50 -35 65c0 22 18 45 47 45z" />
    <glyph glyph-name="lslash.sc" horiz-adv-x="522" 
d="M433 45l79 110v-155h-477l80 60v128l-85 -57v60l85 56v253l-80 60h255l-80 -60v-195l190 127v-60l-190 -126v-201h223z" />
    <glyph glyph-name="m.sc" horiz-adv-x="820" 
d="M715 500v-440l80 -60h-255l80 60v377l-227 -331l-228 317v-363l120 -60h-260l80 60v440l-80 60h156l234 -326l223 326h157z" />
    <glyph glyph-name="n.sc" horiz-adv-x="737" 
d="M712 560l-80 -60v-526h-5l-452 446v-360l120 -60h-260l80 60v440l-80 60h134l403 -402v342l-120 60h260z" />
    <glyph glyph-name="nacute.sc" horiz-adv-x="737" 
d="M535 850l-195 -200l-5 5l90 195h110zM712 560l-80 -60v-526h-5l-452 446v-360l120 -60h-260l80 60v440l-80 60h134l403 -402v342l-120 60h260z" />
    <glyph glyph-name="ncaron.sc" horiz-adv-x="737" 
d="M539 860l-165 -220l-165 220l5 5l160 -130l160 130zM712 560l-80 -60v-526h-5l-452 446v-360l120 -60h-260l80 60v440l-80 60h134l403 -402v342l-120 60h260z" />
    <glyph glyph-name="ncommaaccent.sc" horiz-adv-x="737" 
d="M712 560l-80 -60v-526h-5l-452 446v-360l120 -60h-260l80 60v440l-80 60h134l403 -402v342l-120 60h260zM375 -65c27 0 50 -17 50 -64c0 -69 -58 -117 -118 -139l-2 4c41 26 58 59 58 89c0 26 -14 50 -35 65c0 22 18 45 47 45z" />
    <glyph glyph-name="eng.sc" horiz-adv-x="722" 
d="M712 560l-80 -60v-479c0 -119 -54 -179 -146 -213l-4 4c62 52 94 104 97 210l-404 398v-360l120 -60h-260l80 60v440l-80 60h134l403 -402v342l-120 60h260z" />
    <glyph glyph-name="ntilde.sc" horiz-adv-x="737" 
d="M302 673c-63 0 -95 56 -98 127h5c19 -45 52 -57 77 -57c55 0 97 57 160 57s95 -56 98 -127h-5c-19 45 -52 57 -77 57c-55 0 -97 -57 -160 -57zM712 560l-80 -60v-526h-5l-452 446v-360l120 -60h-260l80 60v440l-80 60h134l403 -402v342l-120 60h260z" />
    <glyph glyph-name="o.sc" horiz-adv-x="678" 
d="M341 570c154 0 297 -103 297 -288s-143 -292 -301 -292c-154 0 -297 103 -297 288s143 292 301 292zM353 35c111 0 180 85 180 230c0 170 -94 260 -209 260c-110 0 -179 -84 -179 -230c0 -169 93 -260 208 -260z" />
    <glyph glyph-name="oacute.sc" horiz-adv-x="678" 
d="M305 650l-5 5l90 195h110zM341 570c154 0 297 -103 297 -288s-143 -292 -301 -292c-154 0 -297 103 -297 288s143 292 301 292zM353 35c111 0 180 85 180 230c0 170 -94 260 -209 260c-110 0 -179 -84 -179 -230c0 -169 93 -260 208 -260z" />
    <glyph glyph-name="ocircumflex.sc" horiz-adv-x="678" 
d="M339 865l165 -220l-5 -5l-160 130l-160 -130l-5 5zM341 570c154 0 297 -103 297 -288s-143 -292 -301 -292c-154 0 -297 103 -297 288s143 292 301 292zM353 35c111 0 180 85 180 230c0 170 -94 260 -209 260c-110 0 -179 -84 -179 -230c0 -169 93 -260 208 -260z" />
    <glyph glyph-name="odieresis.sc" horiz-adv-x="678" 
d="M239 686c-28 0 -52 24 -52 52c0 29 24 52 52 52c29 0 52 -23 52 -52c0 -28 -23 -52 -52 -52zM440 686c-28 0 -52 24 -52 52c0 29 24 52 52 52c29 0 52 -23 52 -52c0 -28 -23 -52 -52 -52zM341 570c154 0 297 -103 297 -288s-143 -292 -301 -292c-154 0 -297 103 -297 288
s143 292 301 292zM353 35c111 0 180 85 180 230c0 170 -94 260 -209 260c-110 0 -179 -84 -179 -230c0 -169 93 -260 208 -260z" />
    <glyph glyph-name="ograve.sc" horiz-adv-x="678" 
d="M373 650l-195 200h110l90 -195zM341 570c154 0 297 -103 297 -288s-143 -292 -301 -292c-154 0 -297 103 -297 288s143 292 301 292zM353 35c111 0 180 85 180 230c0 170 -94 260 -209 260c-110 0 -179 -84 -179 -230c0 -169 93 -260 208 -260z" />
    <glyph glyph-name="ohungarumlaut.sc" horiz-adv-x="678" 
d="M245 650l-5 5l70 195h100zM415 650l-5 5l70 195h100zM341 570c154 0 297 -103 297 -288s-143 -292 -301 -292c-154 0 -297 103 -297 288s143 292 301 292zM353 35c111 0 180 85 180 230c0 170 -94 260 -209 260c-110 0 -179 -84 -179 -230c0 -169 93 -260 208 -260z" />
    <glyph glyph-name="omacron.sc" horiz-adv-x="678" 
d="M187 761h306v-65h-306v65zM341 570c154 0 297 -103 297 -288s-143 -292 -301 -292c-154 0 -297 103 -297 288s143 292 301 292zM353 35c111 0 180 85 180 230c0 170 -94 260 -209 260c-110 0 -179 -84 -179 -230c0 -169 93 -260 208 -260z" />
    <glyph glyph-name="oslash.sc" horiz-adv-x="678" 
d="M528 511c66 -49 110 -126 110 -229c0 -185 -143 -292 -301 -292c-58 0 -115 15 -163 43l-38 -51l-33 23l38 51c-61 49 -101 124 -101 222c0 185 143 292 301 292c54 0 107 -13 153 -37l33 44l32 -25zM145 295c0 -72 17 -130 45 -172l263 354c-35 32 -80 48 -129 48
c-110 0 -179 -84 -179 -230zM353 35c111 0 180 85 180 230c0 78 -20 139 -52 182l-265 -357c37 -36 85 -55 137 -55z" />
    <glyph glyph-name="otilde.sc" horiz-adv-x="678" 
d="M411 800c63 0 95 -56 98 -127h-5c-19 45 -52 57 -77 57c-55 0 -97 -57 -160 -57s-95 56 -98 127h5c19 -45 52 -57 77 -57c55 0 97 57 160 57zM341 570c154 0 297 -103 297 -288s-143 -292 -301 -292c-154 0 -297 103 -297 288s143 292 301 292zM353 35
c111 0 180 85 180 230c0 170 -94 260 -209 260c-110 0 -179 -84 -179 -230c0 -169 93 -260 208 -260z" />
    <glyph glyph-name="oe.sc" horiz-adv-x="877" 
d="M754 45l78 108v-153h-493c-156 0 -299 106 -299 287c0 190 143 273 299 273h468v-153l-78 108h-200v-201h151l57 73v-190l-57 72h-151v-224h225zM434 45v470h-86c-124 0 -208 -78 -208 -235c0 -149 84 -235 208 -235h86z" />
    <glyph glyph-name="p.sc" horiz-adv-x="550" 
d="M305 229h-95v-169l120 -60h-295l80 60v440l-80 60h270c136 0 230 -47 230 -153c0 -107 -94 -178 -230 -178zM210 521v-253h84c91 0 141 50 141 130c0 79 -50 123 -141 123h-84z" />
    <glyph glyph-name="thorn.sc" horiz-adv-x="615" 
d="M330 474c143 0 245 -60 245 -184c0 -125 -102 -195 -245 -195h-120v-35l80 -60h-255l80 60v440l-80 60h255l-80 -60v-26h120zM319 140c99 0 156 53 156 145c0 91 -57 144 -156 144h-109v-289h109z" />
    <glyph glyph-name="q.sc" horiz-adv-x="678" 
d="M425 1c30 -66 110 -126 201 -145v-4c-131 -7 -227 39 -300 138c-150 5 -286 107 -286 288c0 185 143 292 301 292c154 0 297 -103 297 -288c0 -150 -94 -248 -213 -281zM145 295c0 -169 93 -260 208 -260c111 0 180 85 180 230c0 170 -94 260 -209 260
c-110 0 -179 -84 -179 -230z" />
    <glyph glyph-name="r.sc" horiz-adv-x="597" 
d="M373 261c82 -126 148 -216 249 -261v-5c-179 -15 -238 68 -372 288c130 8 169 60 169 125c0 74 -50 107 -132 107h-87v-455l80 -60h-255l80 60v440l-80 60h273c127 0 221 -43 221 -142c0 -77 -59 -132 -146 -157z" />
    <glyph glyph-name="racute.sc" horiz-adv-x="597" 
d="M458 850l-195 -200l-5 5l90 195h110zM373 261c82 -126 148 -216 249 -261v-5c-179 -15 -238 68 -372 288c130 8 169 60 169 125c0 74 -50 107 -132 107h-87v-455l80 -60h-255l80 60v440l-80 60h273c127 0 221 -43 221 -142c0 -77 -59 -132 -146 -157z" />
    <glyph glyph-name="rcaron.sc" horiz-adv-x="597" 
d="M462 860l-165 -220l-165 220l5 5l160 -130l160 130zM373 261c82 -126 148 -216 249 -261v-5c-179 -15 -238 68 -372 288c130 8 169 60 169 125c0 74 -50 107 -132 107h-87v-455l80 -60h-255l80 60v440l-80 60h273c127 0 221 -43 221 -142c0 -77 -59 -132 -146 -157z" />
    <glyph glyph-name="rcommaaccent.sc" horiz-adv-x="597" 
d="M373 261c82 -126 148 -216 249 -261v-5c-179 -15 -238 68 -372 288c130 8 169 60 169 125c0 74 -50 107 -132 107h-87v-455l80 -60h-255l80 60v440l-80 60h273c127 0 221 -43 221 -142c0 -77 -59 -132 -146 -157zM344 -65c27 0 50 -17 50 -64c0 -69 -58 -117 -118 -139
l-2 4c41 26 58 59 58 89c0 26 -14 50 -35 65c0 22 18 45 47 45z" />
    <glyph glyph-name="s.sc" horiz-adv-x="499" 
d="M149 434c0 -111 310 -87 310 -286c0 -102 -92 -158 -207 -158c-52 0 -98 12 -141 29l-51 -26v178l79 -107c35 -18 69 -29 107 -29c98 0 123 54 123 93c0 134 -305 94 -305 290c0 90 79 152 199 152c42 0 80 -9 118 -24l45 22v-178l-89 121c-22 9 -44 14 -68 14
c-96 0 -120 -52 -120 -91z" />
    <glyph glyph-name="sacute.sc" horiz-adv-x="499" 
d="M220 650l-5 5l90 195h110zM149 434c0 -111 310 -87 310 -286c0 -102 -92 -158 -207 -158c-52 0 -98 12 -141 29l-51 -26v178l79 -107c35 -18 69 -29 107 -29c98 0 123 54 123 93c0 134 -305 94 -305 290c0 90 79 152 199 152c42 0 80 -9 118 -24l45 22v-178l-89 121
c-22 9 -44 14 -68 14c-96 0 -120 -52 -120 -91z" />
    <glyph glyph-name="scaron.sc" horiz-adv-x="499" 
d="M414 865l5 -5l-165 -220l-165 220l5 5l160 -130zM149 434c0 -111 310 -87 310 -286c0 -102 -92 -158 -207 -158c-52 0 -98 12 -141 29l-51 -26v178l79 -107c35 -18 69 -29 107 -29c98 0 123 54 123 93c0 134 -305 94 -305 290c0 90 79 152 199 152c42 0 80 -9 118 -24
l45 22v-178l-89 121c-22 9 -44 14 -68 14c-96 0 -120 -52 -120 -91z" />
    <glyph glyph-name="scedilla.sc" horiz-adv-x="499" 
d="M459 148c0 -97 -84 -153 -191 -158l-23 -57c72 -23 98 -56 98 -98c0 -55 -46 -85 -99 -85c-65 0 -94 44 -106 83l5 5c23 -16 50 -28 78 -28c27 0 47 12 47 43c0 24 -12 44 -66 67l28 71c-43 2 -82 13 -119 28l-51 -26v178l79 -107c35 -18 69 -29 107 -29
c98 0 123 54 123 93c0 134 -305 94 -305 290c0 90 79 152 199 152c42 0 80 -9 118 -24l45 22v-178l-89 121c-22 9 -44 14 -68 14c-96 0 -120 -52 -120 -91c0 -111 310 -87 310 -286z" />
    <glyph glyph-name="scommaaccent.sc" horiz-adv-x="499" 
d="M149 434c0 -111 310 -87 310 -286c0 -102 -92 -158 -207 -158c-52 0 -98 12 -141 29l-51 -26v178l79 -107c35 -18 69 -29 107 -29c98 0 123 54 123 93c0 134 -305 94 -305 290c0 90 79 152 199 152c42 0 80 -9 118 -24l45 22v-178l-89 121c-22 9 -44 14 -68 14
c-96 0 -120 -52 -120 -91zM255 -65c27 0 50 -17 50 -64c0 -69 -58 -117 -118 -139l-2 4c41 26 58 59 58 89c0 26 -14 50 -35 65c0 22 18 45 47 45z" />
    <glyph glyph-name="germandbls.sc" horiz-adv-x="579" 
d="M387 354c118 -27 172 -105 172 -185c0 -102 -87 -177 -189 -177c-36 0 -77 9 -108 27v86l113 -79c56 10 86 69 86 126c0 62 -35 111 -121 135l-35 -50l-50 37l170 241h-250v-455l80 -60h-255l80 60v440l-80 60h531z" />
    <glyph glyph-name="t.sc" horiz-adv-x="583" 
d="M488 560l70 15v-168l-78 108h-141v-455l80 -60h-255l80 60v455h-141l-78 -108v168l70 -15h393z" />
    <glyph glyph-name="tbar.sc" horiz-adv-x="593" 
d="M488 560l70 15v-168l-78 108h-141v-210h123v-45h-123v-200l80 -60h-255l80 60v200h-122v45h122v210h-141l-78 -108v168l70 -15h393z" />
    <glyph glyph-name="tcaron.sc" horiz-adv-x="583" 
d="M457 860l-165 -220l-165 220l5 5l160 -130l160 130zM488 560l70 15v-168l-78 108h-141v-455l80 -60h-255l80 60v455h-141l-78 -108v168l70 -15h393z" />
    <glyph glyph-name="uni0163.sc" horiz-adv-x="583" 
d="M488 560l70 15v-168l-78 108h-141v-455l80 -60h-109l-27 -67c72 -23 98 -56 98 -98c0 -55 -46 -85 -99 -85c-65 0 -94 44 -106 83l5 5c23 -16 50 -28 78 -28c27 0 47 12 47 43c0 24 -12 44 -66 67l32 80h-108l80 60v455h-141l-78 -108v168l70 -15h393z" />
    <glyph glyph-name="uni021B.sc" horiz-adv-x="583" 
d="M488 560l70 15v-168l-78 108h-141v-455l80 -60h-255l80 60v455h-141l-78 -108v168l70 -15h393zM293 -65c27 0 50 -17 50 -64c0 -69 -58 -117 -118 -139l-2 4c41 26 58 59 58 89c0 26 -14 50 -35 65c0 22 18 45 47 45z" />
    <glyph glyph-name="u.sc" horiz-adv-x="679" 
d="M674 560l-80 -60v-263c0 -163 -91 -247 -239 -247c-141 0 -260 77 -260 239v271l-80 60h255l-80 -60v-263c0 -135 64 -197 172 -197c109 0 172 63 172 197v263l-120 60h260z" />
    <glyph glyph-name="uacute.sc" horiz-adv-x="679" 
d="M516 850l-195 -200l-5 5l90 195h110zM674 560l-80 -60v-263c0 -163 -91 -247 -239 -247c-141 0 -260 77 -260 239v271l-80 60h255l-80 -60v-263c0 -135 64 -197 172 -197c109 0 172 63 172 197v263l-120 60h260z" />
    <glyph glyph-name="ucircumflex.sc" horiz-adv-x="679" 
d="M355 770l-160 -130l-5 5l165 220l165 -220l-5 -5zM674 560l-80 -60v-263c0 -163 -91 -247 -239 -247c-141 0 -260 77 -260 239v271l-80 60h255l-80 -60v-263c0 -135 64 -197 172 -197c109 0 172 63 172 197v263l-120 60h260z" />
    <glyph glyph-name="udieresis.sc" horiz-adv-x="679" 
d="M255 686c-28 0 -52 24 -52 52c0 29 24 52 52 52c29 0 52 -23 52 -52c0 -28 -23 -52 -52 -52zM456 686c-28 0 -52 24 -52 52c0 29 24 52 52 52c29 0 52 -23 52 -52c0 -28 -23 -52 -52 -52zM674 560l-80 -60v-263c0 -163 -91 -247 -239 -247c-141 0 -260 77 -260 239v271
l-80 60h255l-80 -60v-263c0 -135 64 -197 172 -197c109 0 172 63 172 197v263l-120 60h260z" />
    <glyph glyph-name="ugrave.sc" horiz-adv-x="679" 
d="M394 655l-5 -5l-195 200h110zM674 560l-80 -60v-263c0 -163 -91 -247 -239 -247c-141 0 -260 77 -260 239v271l-80 60h255l-80 -60v-263c0 -135 64 -197 172 -197c109 0 172 63 172 197v263l-120 60h260z" />
    <glyph glyph-name="uhungarumlaut.sc" horiz-adv-x="679" 
d="M426 850l-165 -200l-5 5l70 195h100zM431 650l-5 5l70 195h100zM674 560l-80 -60v-263c0 -163 -91 -247 -239 -247c-141 0 -260 77 -260 239v271l-80 60h255l-80 -60v-263c0 -135 64 -197 172 -197c109 0 172 63 172 197v263l-120 60h260z" />
    <glyph glyph-name="umacron.sc" horiz-adv-x="679" 
d="M509 761v-65h-306v65h306zM674 560l-80 -60v-263c0 -163 -91 -247 -239 -247c-141 0 -260 77 -260 239v271l-80 60h255l-80 -60v-263c0 -135 64 -197 172 -197c109 0 172 63 172 197v263l-120 60h260z" />
    <glyph glyph-name="uogonek.sc" horiz-adv-x="679" 
d="M674 560l-80 -60v-263c0 -138 -65 -219 -175 -241c-43 -39 -72 -83 -72 -121c0 -47 25 -60 56 -60c22 0 41 7 64 23l5 -5c-12 -40 -44 -83 -105 -83c-59 0 -95 40 -95 97c0 52 43 99 106 144c-7 -1 -15 -1 -23 -1c-141 0 -260 77 -260 239v271l-80 60h255l-80 -60v-263
c0 -135 64 -197 172 -197c109 0 172 63 172 197v263l-120 60h260z" />
    <glyph glyph-name="uring.sc" horiz-adv-x="679" 
d="M355 641c-66 0 -122 55 -122 120c0 66 56 122 122 122s122 -56 122 -122c0 -65 -56 -120 -122 -120zM355 847c-47 0 -82 -38 -82 -86c0 -46 35 -84 82 -84s82 38 82 84c0 48 -35 86 -82 86zM674 560l-80 -60v-263c0 -163 -91 -247 -239 -247c-141 0 -260 77 -260 239v271
l-80 60h255l-80 -60v-263c0 -135 64 -197 172 -197c109 0 172 63 172 197v263l-120 60h260z" />
    <glyph glyph-name="v.sc" horiz-adv-x="621" 
d="M626 560l-64 -48l-236 -537h-5l-258 542l-58 43h241l-75 -56l169 -364l162 366l-108 54h232z" />
    <glyph glyph-name="w.sc" horiz-adv-x="900" 
d="M905 560l-73 -55l-182 -530h-5l-191 442l-174 -442h-5l-213 542l-57 43h241l-76 -57l128 -338l126 324l-31 71h136l-16 -45l146 -350l117 343l-103 52h232z" />
    <glyph glyph-name="wacute.sc" horiz-adv-x="900" 
d="M612 850l-195 -200l-5 5l90 195h110zM905 560l-73 -55l-182 -530h-5l-191 442l-174 -442h-5l-213 542l-57 43h241l-76 -57l128 -338l126 324l-31 71h136l-16 -45l146 -350l117 343l-103 52h232z" />
    <glyph glyph-name="wcircumflex.sc" horiz-adv-x="900" 
d="M451 770l-160 -130l-5 5l165 220l165 -220l-5 -5zM905 560l-73 -55l-182 -530h-5l-191 442l-174 -442h-5l-213 542l-57 43h241l-76 -57l128 -338l126 324l-31 71h136l-16 -45l146 -350l117 343l-103 52h232z" />
    <glyph glyph-name="wdieresis.sc" horiz-adv-x="900" 
d="M351 686c-28 0 -52 24 -52 52c0 29 24 52 52 52c29 0 52 -23 52 -52c0 -28 -23 -52 -52 -52zM552 686c-28 0 -52 24 -52 52c0 29 24 52 52 52c29 0 52 -23 52 -52c0 -28 -23 -52 -52 -52zM905 560l-73 -55l-182 -530h-5l-191 442l-174 -442h-5l-213 542l-57 43h241
l-76 -57l128 -338l126 324l-31 71h136l-16 -45l146 -350l117 343l-103 52h232z" />
    <glyph glyph-name="wgrave.sc" horiz-adv-x="900" 
d="M490 655l-5 -5l-195 200h110zM905 560l-73 -55l-182 -530h-5l-191 442l-174 -442h-5l-213 542l-57 43h241l-76 -57l128 -338l126 324l-31 71h136l-16 -45l146 -350l117 343l-103 52h232z" />
    <glyph glyph-name="x.sc" horiz-adv-x="600" 
d="M541 59l79 -59h-258l73 54l-142 182l-144 -181l80 -55h-224l77 58l177 222l-176 226l-72 54h256l-73 -54l132 -170l136 169l-80 55h224l-78 -58l-168 -210z" />
    <glyph glyph-name="y.sc" horiz-adv-x="616" 
d="M359 242v-182l80 -60h-255l80 60v184l-190 264l-69 52h251l-73 -55l152 -210l151 215l-99 50h234l-77 -58z" />
    <glyph glyph-name="yacute.sc" horiz-adv-x="616" 
d="M477 850l-195 -200l-5 5l90 195h110zM359 242v-182l80 -60h-255l80 60v184l-190 264l-69 52h251l-73 -55l152 -210l151 215l-99 50h234l-77 -58z" />
    <glyph glyph-name="ycircumflex.sc" horiz-adv-x="616" 
d="M316 770l-160 -130l-5 5l165 220l165 -220l-5 -5zM359 242v-182l80 -60h-255l80 60v184l-190 264l-69 52h251l-73 -55l152 -210l151 215l-99 50h234l-77 -58z" />
    <glyph glyph-name="ydieresis.sc" horiz-adv-x="616" 
d="M216 686c-28 0 -52 24 -52 52c0 29 24 52 52 52c29 0 52 -23 52 -52c0 -28 -23 -52 -52 -52zM417 686c-28 0 -52 24 -52 52c0 29 24 52 52 52c29 0 52 -23 52 -52c0 -28 -23 -52 -52 -52zM359 242v-182l80 -60h-255l80 60v184l-190 264l-69 52h251l-73 -55l152 -210
l151 215l-99 50h234l-77 -58z" />
    <glyph glyph-name="ygrave.sc" horiz-adv-x="616" 
d="M355 655l-5 -5l-195 200h110zM359 242v-182l80 -60h-255l80 60v184l-190 264l-69 52h251l-73 -55l152 -210l151 215l-99 50h234l-77 -58z" />
    <glyph glyph-name="z.sc" horiz-adv-x="577" 
d="M440 45l97 129v-174h-517l373 515h-233l-97 -129v189l70 -15h402l-373 -515h278z" />
    <glyph glyph-name="zacute.sc" horiz-adv-x="577" 
d="M271 650l-5 5l90 195h110zM440 45l97 129v-174h-517l373 515h-233l-97 -129v189l70 -15h402l-373 -515h278z" />
    <glyph glyph-name="zcaron.sc" horiz-adv-x="577" 
d="M465 865l5 -5l-165 -220l-165 220l5 5l160 -130zM440 45l97 129v-174h-517l373 515h-233l-97 -129v189l70 -15h402l-373 -515h278z" />
    <glyph glyph-name="zdotaccent.sc" horiz-adv-x="577" 
d="M301 671c-33 0 -60 27 -60 60s27 60 60 60s60 -27 60 -60s-27 -60 -60 -60zM440 45l97 129v-174h-517l373 515h-233l-97 -129v189l70 -15h402l-373 -515h278z" />
    <glyph glyph-name="uni0410" unicode="&#x410;" horiz-adv-x="707" 
d="M642 56l75 -56h-273l80 60l-84 205h-229l-86 -205l119 -60h-209l312 730h6zM232 315h187l-93 226z" />
    <glyph glyph-name="uni0411" unicode="&#x411;" horiz-adv-x="660" 
d="M347 410c159 0 268 -66 268 -198s-109 -212 -268 -212h-312l80 60v580l-80 60h530v-179l-97 129h-253v-240h132zM337 50c109 0 168 59 168 155s-59 155 -168 155h-122v-310h122z" />
    <glyph glyph-name="uni0412" unicode="&#x412;" horiz-adv-x="675" 
d="M469 364c98 -21 161 -75 161 -168c0 -120 -114 -196 -293 -196h-302l80 60v580l-80 60h297c159 0 258 -67 258 -179c0 -74 -47 -129 -121 -157zM332 650h-117v-265h117c109 0 153 59 153 130c0 76 -44 135 -153 135zM337 50c129 0 183 56 183 140c0 89 -54 145 -183 145
h-122v-285h122z" />
    <glyph glyph-name="uni0413" unicode="&#x413;" horiz-adv-x="575" 
d="M545 700v-179l-97 129h-233v-590l120 -60h-300l80 60v580l-80 60h510z" />
    <glyph glyph-name="uni0414" unicode="&#x414;" horiz-adv-x="750" 
d="M635 640v-590h80v-250l-98 200h-484l-98 -200v250h69c102 102 135 370 140 591l-79 59h550zM210 50h325v600h-230c-1 -249 -22 -468 -95 -600z" />
    <glyph glyph-name="uni0415" unicode="&#x415;" horiz-adv-x="620" 
d="M478 50l97 129v-179h-540l80 60v580l-80 60h510v-179l-97 129h-233v-265h179l68 90v-230l-68 90h-179v-285h263z" />
    <glyph glyph-name="uni0401" unicode="&#x401;" horiz-adv-x="620" 
d="M210 786c-28 0 -52 24 -52 52c0 29 24 52 52 52c29 0 52 -23 52 -52c0 -28 -23 -52 -52 -52zM411 786c-28 0 -52 24 -52 52c0 29 24 52 52 52c29 0 52 -23 52 -52c0 -28 -23 -52 -52 -52zM478 50l97 129v-179h-540l80 60v580l-80 60h510v-179l-97 129h-233v-265h179
l68 90v-230l-68 90h-179v-285h263z" />
    <glyph glyph-name="uni0416" unicode="&#x416;" horiz-adv-x="961" 
d="M158 640l258 -279c-190 -309 -231 -386 -441 -366v5c149 54 208 160 335 385l-286 315h240zM525 640v-580l80 -60h-250l80 60v580l-80 60h250zM651 385c127 -225 186 -331 335 -385v-5c-210 -20 -251 57 -441 366l258 279l-106 60h240z" />
    <glyph glyph-name="uni0417" unicode="&#x417;" 
d="M378 367c86 -19 157 -82 157 -179c0 -124 -116 -198 -248 -198c-116 0 -214 58 -257 193l5 5c82 -95 165 -118 232 -118c104 0 158 55 158 124c0 91 -92 166 -213 136v80c124 -30 198 38 198 120c0 63 -44 130 -145 130c-27 0 -53 -5 -79 -14l-115 -155v219l54 -27
c52 19 104 27 156 27c151 0 239 -71 239 -178c0 -74 -43 -137 -142 -165z" />
    <glyph glyph-name="uni0418" unicode="&#x418;" horiz-adv-x="830" 
d="M715 640v-580l80 -60h-260l80 60v535l-400 -595h-180l80 60v580l-80 60h260l-80 -60v-535l400 595h180z" />
    <glyph glyph-name="uni0419" unicode="&#x419;" horiz-adv-x="830" 
d="M415 770c-85 0 -150 68 -155 150l5 5c43 -62 87 -85 150 -85s107 23 150 85l5 -5c-5 -82 -70 -150 -155 -150zM715 640v-580l80 -60h-260l80 60v535l-400 -595h-180l80 60v580l-80 60h260l-80 -60v-535l400 595h180z" />
    <glyph glyph-name="uni041A" unicode="&#x41a;" horiz-adv-x="720" 
d="M215 640v-580l80 -60h-260l80 60v580l-80 60h260zM380 385c157 -225 216 -331 365 -385v-5c-210 -20 -261 57 -471 366l281 279l-106 60h247z" />
    <glyph glyph-name="uni041B" unicode="&#x41b;" horiz-adv-x="690" 
d="M575 640v-580l80 -60h-260l80 60v590h-236c-7 -466 -12 -657 -204 -660v110c93 10 134 121 144 541l-79 59h555z" />
    <glyph glyph-name="uni041C" unicode="&#x41c;" horiz-adv-x="930" 
d="M815 60l80 -60h-260l80 60v485l-267 -405l-268 385v-465l120 -60h-265l80 60v580l-80 60h138l296 -425l277 425h148l-79 -59v-581z" />
    <glyph glyph-name="uni041D" unicode="&#x41d;" horiz-adv-x="830" 
d="M715 640v-580l80 -60h-260l80 60v285h-400v-285l80 -60h-260l80 60v580l-80 60h260l-80 -60v-245h400v245l-80 60h260z" />
    <glyph glyph-name="uni041E" unicode="&#x41e;" horiz-adv-x="800" 
d="M402 710c179 0 348 -130 348 -357s-169 -363 -352 -363c-179 0 -348 130 -348 357s169 363 352 363zM420 40c137 0 220 111 220 287c0 207 -115 333 -260 333c-137 0 -220 -111 -220 -287c0 -207 115 -333 260 -333z" />
    <glyph glyph-name="uni041F" unicode="&#x41f;" horiz-adv-x="810" 
d="M695 640v-580l80 -60h-260l80 60v590h-380v-590l80 -60h-260l80 60v580l-80 60h740z" />
    <glyph glyph-name="uni0420" unicode="&#x420;" horiz-adv-x="620" 
d="M327 290h-112v-230l120 -60h-300l80 60v580l-80 60h292c159 0 268 -56 268 -188s-109 -222 -268 -222zM215 650v-310h102c109 0 168 64 168 160s-59 150 -168 150h-102z" />
    <glyph glyph-name="uni0421" unicode="&#x421;" horiz-adv-x="710" 
d="M665 178l5 -5c-63 -144 -178 -183 -273 -183c-176 0 -347 135 -347 356c0 228 182 364 383 364c49 0 107 -8 160 -26l57 26v-235l-129 173c-31 9 -62 12 -90 12c-159 0 -276 -101 -276 -290c0 -176 102 -300 262 -300c76 0 168 28 248 108z" />
    <glyph glyph-name="uni0422" unicode="&#x422;" horiz-adv-x="680" 
d="M562 700l88 20v-199l-97 129h-163v-590l80 -60h-259l79 59v591h-163l-97 -129v199l88 -20h444z" />
    <glyph glyph-name="uni0423" unicode="&#x423;" horiz-adv-x="725" 
d="M725 700l-80 -60l-258 -470c-68 -112 -119 -177 -238 -180v110c75 13 132 25 200 121l-274 430l-65 49h271l-80 -60l198 -328l176 328v1l-119 59h269z" />
    <glyph glyph-name="uni0424" unicode="&#x424;" horiz-adv-x="820" 
d="M527 105h-72v-55l80 -60h-250l80 60v55h-72c-159 0 -268 86 -268 238s109 252 268 252h72v55l-80 60h250l-80 -60v-55h72c159 0 268 -86 268 -238s-109 -252 -268 -252zM365 155v390h-62c-109 0 -168 -79 -168 -195s59 -195 168 -195h62zM455 545v-390h62
c109 0 168 79 168 195s-59 195 -168 195h-62z" />
    <glyph glyph-name="uni0425" unicode="&#x425;" horiz-adv-x="708" 
d="M648 56l75 -56h-277l80 60l-177 239l-186 -239l88 -60h-241l80 60l222 287l-224 302l-68 51h273l-80 -60l170 -228l178 228l-88 60h241l-80 -60l-215 -277z" />
    <glyph glyph-name="uni0427" unicode="&#x427;" horiz-adv-x="760" 
d="M645 640v-580l80 -60h-300l120 60v240c-61 -18 -118 -30 -189 -30c-179 0 -251 68 -251 220v150l-80 60h260l-80 -60v-139c0 -116 29 -181 169 -181c56 0 114 12 171 30v290l-80 60h260z" />
    <glyph glyph-name="uni0426" unicode="&#x426;" horiz-adv-x="750" 
d="M660 640v-590h78v-250l-98 200h-620l80 60v580l-80 60h260l-80 -60v-590h360v590l-80 60h260z" />
    <glyph glyph-name="uni0428" unicode="&#x428;" horiz-adv-x="1090" 
d="M975 640v-580l80 -60h-1020l80 60v580l-80 60h260l-80 -60v-590h280v590l-80 60h260l-80 -60v-590h280v590l-80 60h260z" />
    <glyph glyph-name="uni0429" unicode="&#x429;" horiz-adv-x="1090" 
d="M975 640v-590h80v-250l-98 200h-922l80 60v580l-80 60h260l-80 -60v-590h280v590l-80 60h260l-80 -60v-590h280v590l-80 60h260z" />
    <glyph glyph-name="uni042C" unicode="&#x42c;" horiz-adv-x="640" 
d="M347 410c159 0 268 -66 268 -198s-109 -212 -268 -212h-312l80 60v580l-80 60h300l-120 -60v-230h132zM337 50c109 0 168 59 168 155s-59 155 -168 155h-122v-310h122z" />
    <glyph glyph-name="uni042A" unicode="&#x42a;" horiz-adv-x="805" 
d="M512 410c159 0 268 -66 268 -198s-109 -212 -268 -212h-312l80 60v590h-153l-97 -129v179h470l-120 -60v-230h132zM502 50c109 0 168 59 168 155s-59 155 -168 155h-122v-310h122z" />
    <glyph glyph-name="uni042B" unicode="&#x42b;" horiz-adv-x="950" 
d="M327 410c159 0 268 -66 268 -198s-109 -212 -268 -212h-292l80 60v580l-80 60h300l-120 -60v-230h112zM830 640v-580l80 -60h-260l80 60v580l-80 60h260zM317 50c109 0 168 59 168 155s-59 155 -168 155h-102v-310h102z" />
    <glyph glyph-name="uni042D" unicode="&#x42d;" horiz-adv-x="720" 
d="M308 710c200 0 362 -130 362 -359s-161 -361 -338 -361c-89 0 -231 33 -292 173l5 5c80 -70 180 -98 262 -98c149 0 249 93 257 265h-363v50h363c-9 167 -104 270 -257 270c-32 0 -73 -5 -116 -17l-121 -163v235l59 -27c59 18 128 27 179 27z" />
    <glyph glyph-name="uni042E" unicode="&#x42e;" horiz-adv-x="1035" 
d="M677 710c159 0 318 -130 318 -357s-159 -363 -322 -363c-156 0 -312 125 -318 345h-140v-275l80 -60h-260l80 60v580l-80 60h260l-80 -60v-255h142c16 204 166 325 320 325zM695 40c117 0 190 111 190 285c0 209 -105 335 -230 335c-117 0 -190 -111 -190 -285
c0 -209 105 -335 230 -335z" />
    <glyph glyph-name="uni042F" unicode="&#x42f;" horiz-adv-x="685" 
d="M570 640v-580l80 -60h-260l80 60v590h-102c-99 0 -158 -47 -158 -131c0 -71 42 -140 206 -149c-181 -269 -231 -395 -441 -375v5c122 60 205 189 303 342c-106 27 -178 94 -178 189c0 117 109 169 258 169h292z" />
    <glyph glyph-name="uni0430" unicode="&#x430;" horiz-adv-x="535" 
d="M520 80l5 -5c-25 -66 -57 -85 -99 -85c-50 0 -83 28 -93 74h-5c-33 -47 -81 -74 -143 -74c-80 0 -135 44 -135 117c0 53 29 94 68 115h205v84c0 78 -31 109 -100 109c-47 0 -96 -14 -147 -50l-5 5c48 87 130 120 202 120c90 0 140 -52 140 -149v-226c0 -47 21 -58 48 -58
c19 0 35 5 59 23zM215 50c34 0 69 17 108 54v83h-156c-14 -17 -22 -38 -22 -66c0 -54 35 -71 70 -71z" />
    <glyph glyph-name="uni0431" unicode="&#x431;" horiz-adv-x="575" 
d="M285 470c134 0 245 -95 245 -240s-111 -240 -245 -240s-240 95 -240 240c0 270 60 416 127 517h230c42 0 66 5 83 33h5c10 -24 11 -42 11 -51c0 -46 -28 -67 -79 -67h-170c-71 0 -126 -114 -149 -269c44 49 109 77 182 77zM304 30c86 0 119 89 119 177
c0 126 -67 223 -157 223c-86 0 -121 -89 -121 -178c0 -125 69 -222 159 -222z" />
    <glyph glyph-name="uni0432" unicode="&#x432;" 
d="M421 250c72 -12 114 -47 114 -108c0 -85 -79 -142 -203 -142h-307l80 60v360l-80 60h287c124 0 203 -40 203 -125c0 -55 -34 -90 -94 -105zM195 435v-170h117c69 0 103 29 103 85s-34 85 -103 85h-117zM332 45c69 0 103 32 103 88s-34 87 -103 87h-137v-175h137z" />
    <glyph glyph-name="uni0433" unicode="&#x433;" horiz-adv-x="475" 
d="M455 480v-174l-97 129h-163v-375l119 -60h-289l80 60v360l-80 60h430z" />
    <glyph glyph-name="uni0434" unicode="&#x434;" horiz-adv-x="600" 
d="M500 420v-370h80v-250l-98 200h-364l-98 -200v250h59c63 81 102 216 110 371l-79 59h470zM185 50h225v380h-166v11c-1 -159 -15 -279 -59 -391z" />
    <glyph glyph-name="uni0435" unicode="&#x435;" horiz-adv-x="505" 
d="M304 75c40 0 88 11 146 55l5 -5c-35 -105 -113 -135 -181 -135c-126 0 -229 104 -229 254c0 159 115 246 235 246c94 0 176 -54 185 -185h-329c-1 -10 -1 -20 -1 -31c0 -116 58 -199 169 -199zM266 453c-60 0 -106 -41 -124 -113h218c0 62 -26 113 -94 113z" />
    <glyph glyph-name="uni0451" unicode="&#x451;" horiz-adv-x="505" 
d="M175 606c-28 0 -52 24 -52 52c0 29 24 52 52 52c29 0 52 -23 52 -52c0 -28 -23 -52 -52 -52zM376 606c-28 0 -52 24 -52 52c0 29 24 52 52 52c29 0 52 -23 52 -52c0 -28 -23 -52 -52 -52zM304 75c40 0 88 11 146 55l5 -5c-35 -105 -113 -135 -181 -135
c-126 0 -229 104 -229 254c0 159 115 246 235 246c94 0 176 -54 185 -185h-329c-1 -10 -1 -20 -1 -31c0 -116 58 -199 169 -199zM266 453c-60 0 -106 -41 -124 -113h218c0 62 -26 113 -94 113z" />
    <glyph glyph-name="uni0436" unicode="&#x436;" horiz-adv-x="820" 
d="M154 420l166 -176c-127 -227 -163 -269 -320 -249v5c102 56 144 116 232 267l-198 213h201zM450 420v-360l80 -60h-240l80 60v360l-80 60h240zM588 267c88 -151 130 -211 232 -267v-5c-157 -20 -193 22 -320 249l166 176l-81 60h201z" />
    <glyph glyph-name="uni0437" unicode="&#x437;" horiz-adv-x="465" 
d="M298 252c69 -12 122 -62 122 -128c0 -86 -91 -134 -193 -134c-73 0 -170 25 -207 145l5 5c58 -54 117 -70 174 -70c66 0 116 22 116 73c0 53 -43 89 -157 78v60c107 -10 147 35 147 89c0 50 -43 80 -114 80l-100 -77l-57 77c42 23 105 40 179 40c116 0 192 -46 192 -124
c0 -63 -49 -96 -107 -114z" />
    <glyph glyph-name="uni0438" unicode="&#x438;" horiz-adv-x="635" 
d="M530 420v-360l80 -60h-250l80 60v323l-245 -383h-170l80 60v360l-80 60h250l-80 -60v-323l245 383h170z" />
    <glyph glyph-name="uni0439" unicode="&#x439;" horiz-adv-x="635" 
d="M318 590c-75 0 -150 68 -155 180l5 5c43 -92 97 -115 150 -115s107 23 150 115l5 -5c-5 -112 -80 -180 -155 -180zM530 420v-360l80 -60h-250l80 60v323l-245 -383h-170l80 60v360l-80 60h250l-80 -60v-323l245 383h170z" />
    <glyph glyph-name="uni043A" unicode="&#x43a;" 
d="M195 420v-360l80 -60h-250l80 60v360l-80 60h250zM334 275c93 -151 139 -219 246 -275v-5c-157 -20 -203 32 -340 259l176 166l-111 60h241z" />
    <glyph glyph-name="uni043B" unicode="&#x43b;" horiz-adv-x="570" 
d="M465 420v-360l80 -60h-250l80 60v370h-153c-8 -196 -23 -437 -197 -440v95c95 26 132 129 143 337l-78 58h455z" />
    <glyph glyph-name="uni043C" unicode="&#x43c;" horiz-adv-x="750" 
d="M645 60l80 -60h-260l80 60v293l-187 -253l-188 235v-275l120 -60h-265l80 60v360l-80 60h138l216 -268l197 268h148l-79 -59v-361z" />
    <glyph glyph-name="uni043D" unicode="&#x43d;" horiz-adv-x="635" 
d="M530 420v-360l80 -60h-250l80 60v170h-245v-170l80 -60h-250l80 60v360l-80 60h250l-80 -60v-140h245v140l-80 60h250z" />
    <glyph glyph-name="uni043E" unicode="&#x43e;" 
d="M290 -10c-134 0 -245 95 -245 250s111 250 245 250s245 -95 245 -250s-111 -250 -245 -250zM306 30c91 0 122 89 122 188c0 135 -69 232 -154 232c-91 0 -124 -89 -124 -188c0 -135 71 -232 156 -232z" />
    <glyph glyph-name="uni043F" unicode="&#x43f;" horiz-adv-x="615" 
d="M510 420v-360l80 -60h-250l80 60v370h-225v-370l80 -60h-250l80 60v360l-80 60h565z" />
    <glyph glyph-name="uni0440" unicode="&#x440;" horiz-adv-x="590" 
d="M286 -10c-28 0 -70 4 -106 15v-186l119 -59h-289l80 60v548l-70 52l160 70l-15 -84l5 -5c29 45 89 89 165 89c102 0 210 -79 210 -238c0 -172 -127 -262 -259 -262zM303 415c-43 0 -89 -17 -123 -49v-244c0 -60 56 -92 113 -92c88 0 152 75 152 200
c0 115 -54 185 -142 185z" />
    <glyph glyph-name="uni0441" unicode="&#x441;" horiz-adv-x="485" 
d="M304 75c40 0 88 11 146 55l5 -5c-35 -105 -113 -135 -181 -135c-126 0 -229 105 -229 253c0 171 138 247 247 247c70 0 123 -20 163 -50l-63 -84l-110 94c-86 0 -147 -64 -147 -179c0 -111 57 -196 169 -196z" />
    <glyph glyph-name="uni0442" unicode="&#x442;" horiz-adv-x="510" 
d="M490 480v-174l-97 129h-93v-375l80 -60h-250l80 60v375h-93l-97 -129v174h470z" />
    <glyph glyph-name="uni0443" unicode="&#x443;" horiz-adv-x="570" 
d="M490 420l-257 -580l137 -80h-243l141 295l-199 374l-69 51h257l-80 -60l139 -265l114 265l-88 60h228z" />
    <glyph glyph-name="uni0444" unicode="&#x444;" horiz-adv-x="830" 
d="M596 490c92 0 189 -61 189 -242c0 -178 -103 -258 -198 -258c-51 0 -100 24 -132 65v-235l80 -60h-240l80 60v236c-31 -39 -79 -66 -141 -66c-92 0 -189 61 -189 242c0 178 103 258 198 258c51 0 100 -24 132 -65v237l-70 52l150 66v-356c31 39 79 66 141 66zM266 55
c37 0 75 17 109 49v272c-34 32 -72 49 -109 49c-74 0 -121 -70 -121 -185s47 -185 121 -185zM564 55c74 0 121 70 121 185s-47 185 -121 185c-37 0 -75 -17 -109 -49v-272c34 -32 72 -49 109 -49z" />
    <glyph glyph-name="uni0445" unicode="&#x445;" horiz-adv-x="525" 
d="M467 51l68 -51h-267l80 60l-104 133l-107 -133l88 -60h-235l80 60l141 174l-151 193l-70 53h268l-80 -60l100 -128l101 128l-88 60h233l-80 -60l-134 -169z" />
    <glyph glyph-name="uni0447" unicode="&#x447;" horiz-adv-x="610" 
d="M505 420v-360l80 -60h-250l80 60v160c-35 -32 -106 -80 -184 -80c-69 0 -141 32 -141 139v141l-80 60h250l-80 -60v-96c0 -88 41 -109 99 -109c32 0 83 8 136 49v156l-80 60h250z" />
    <glyph glyph-name="uni0446" unicode="&#x446;" horiz-adv-x="600" 
d="M510 420v-370h80v-250l-98 200h-467l80 60v360l-80 60h250l-80 -60v-370h225v370l-80 60h250z" />
    <glyph glyph-name="uni0448" unicode="&#x448;" horiz-adv-x="900" 
d="M795 420v-360l80 -60h-850l80 60v360l-80 60h250l-80 -60v-370h210v370l-80 60h250l-80 -60v-370h210v370l-80 60h250z" />
    <glyph glyph-name="uni0449" unicode="&#x449;" horiz-adv-x="900" 
d="M795 420v-370h80v-250l-98 200h-752l80 60v360l-80 60h250l-80 -60v-370h210v370l-80 60h250l-80 -60v-370h210v370l-80 60h250z" />
    <glyph glyph-name="uni044C" unicode="&#x44c;" horiz-adv-x="600" 
d="M352 290c104 0 203 -41 203 -138s-99 -152 -203 -152h-327l80 60v360l-80 60h250l-80 -60v-130h157zM332 45c79 0 123 29 123 100s-44 100 -123 100h-137v-200h137z" />
    <glyph glyph-name="uni044A" unicode="&#x44a;" horiz-adv-x="705" 
d="M457 290c104 0 203 -41 203 -138s-99 -152 -203 -152h-327l80 60v375h-93l-97 -129v174h360l-80 -60v-130h157zM437 45c79 0 123 29 123 100s-44 100 -123 100h-137v-200h137z" />
    <glyph glyph-name="uni044B" unicode="&#x44b;" horiz-adv-x="850" 
d="M342 290c104 0 203 -41 203 -138s-99 -152 -203 -152h-317l80 60v360l-80 60h250l-80 -60v-130h147zM745 420v-360l80 -60h-250l80 60v360l-80 60h250zM322 45c79 0 123 29 123 100s-44 100 -123 100h-127v-200h127z" />
    <glyph glyph-name="uni044D" unicode="&#x44d;" horiz-adv-x="495" 
d="M219 490c120 0 231 -88 231 -245c0 -152 -103 -255 -229 -255c-68 0 -156 30 -191 135l5 5c56 -43 117 -55 161 -55c106 0 155 68 163 165h-225v40h226c-3 110 -52 170 -151 170c-45 0 -72 -12 -93 -26l-76 -101v167l66 -26c34 16 73 26 113 26z" />
    <glyph glyph-name="uni044E" unicode="&#x44e;" horiz-adv-x="805" 
d="M525 490c124 0 235 -95 235 -250s-111 -250 -235 -250c-119 0 -225 87 -234 230h-101v-160l80 -60h-245l80 60v360l-80 60h245l-80 -60v-150h101c14 137 118 220 234 220zM544 30c77 0 114 92 114 181c0 147 -74 239 -151 239c-76 0 -116 -88 -116 -183
c0 -145 75 -237 153 -237z" />
    <glyph glyph-name="uni044F" unicode="&#x44f;" horiz-adv-x="587" 
d="M482 420v-360l80 -60h-250l80 60v150h-118c-87 -186 -130 -234 -272 -215l-2 5c82 47 128 108 179 217c-71 14 -127 51 -127 124c0 97 99 139 203 139h307zM392 255v180h-117c-79 0 -123 -19 -123 -90s44 -90 123 -90h117z" />
    <glyph glyph-name="uni0430.sc" horiz-adv-x="612" 
d="M558 48l64 -48h-248l80 60l-63 137h-211l-61 -137l120 -60h-204l269 587h6zM201 242h170l-86 188z" />
    <glyph glyph-name="uni0431.sc" horiz-adv-x="582" 
d="M312 331c136 0 230 -54 230 -160c0 -107 -94 -171 -230 -171h-287l80 60v440l-80 60h473v-147l-78 101h-220v-183h112zM301 46c91 0 141 40 141 120c0 79 -50 119 -141 119h-101v-239h101z" />
    <glyph glyph-name="uni0432.sc" horiz-adv-x="597" 
d="M417 289c85 -18 140 -61 140 -133c0 -96 -95 -156 -247 -156h-285l80 60v440l-80 60h282c134 0 221 -54 221 -142c0 -63 -43 -108 -111 -129zM299 515h-99v-206h99c92 0 134 42 134 104c0 61 -42 102 -134 102zM301 45c109 0 156 39 156 107s-48 112 -156 112h-101v-219
h101z" />
    <glyph glyph-name="uni0433.sc" horiz-adv-x="495" 
d="M470 560v-153l-78 108h-192v-455l120 -60h-295l80 60v440l-80 60h445z" />
    <glyph glyph-name="uni0434.sc" horiz-adv-x="658" 
d="M553 500v-455h65v-205l-85 160h-413l-85 -160v205h59c81 79 112 278 117 462l-70 53h492zM182 45h281v470h-201c-2 -202 -22 -370 -80 -470z" />
    <glyph glyph-name="uni0435.sc" horiz-adv-x="548" 
d="M425 45l78 108v-153h-478l80 60v440l-80 60h453v-153l-78 108h-200v-201h151l57 73v-190l-57 72h-151v-224h225z" />
    <glyph glyph-name="uni0451.sc" horiz-adv-x="548" 
d="M178 686c-28 0 -52 24 -52 52c0 29 24 52 52 52c29 0 52 -23 52 -52c0 -28 -23 -52 -52 -52zM379 686c-28 0 -52 24 -52 52c0 29 24 52 52 52c29 0 52 -23 52 -52c0 -28 -23 -52 -52 -52zM425 45l78 108v-153h-478l80 60v440l-80 60h453v-153l-78 108h-200v-201h151
l57 73v-190l-57 72h-151v-224h225z" />
    <glyph glyph-name="uni0436.sc" horiz-adv-x="817" 
d="M141 509l206 -211c-153 -257 -196 -319 -372 -303v5c122 40 172 133 279 316l-237 244h210zM451 500v-440l80 -60h-245l80 60v440l-80 60h245zM563 316c107 -183 157 -276 279 -316v-5c-176 -16 -219 46 -372 303l206 211l-85 51h209z" />
    <glyph glyph-name="uni0437.sc" horiz-adv-x="494" 
d="M318 296c78 -17 136 -71 136 -147c0 -101 -99 -159 -208 -159c-115 0 -194 65 -226 162l5 5c72 -76 139 -92 196 -92c89 0 133 38 133 95c0 68 -65 124 -179 109v61c112 -21 167 32 167 96c0 52 -38 97 -121 97c-25 0 -48 -4 -72 -12l-95 -132v190l49 -22
c43 14 86 21 131 21c130 0 206 -57 206 -142c0 -60 -38 -108 -122 -130z" />
    <glyph glyph-name="uni0438.sc" horiz-adv-x="732" 
d="M627 500v-440l80 -60h-255l80 60v410l-332 -470h-175l80 60v440l-80 60h255l-80 -60v-410l332 470h175z" />
    <glyph glyph-name="uni0439.sc" horiz-adv-x="732" 
d="M375 630c-85 0 -150 68 -155 150l5 5c43 -62 87 -85 150 -85s107 23 150 85l5 -5c-5 -82 -70 -150 -155 -150zM627 500v-440l80 -60h-255l80 60v410l-332 -470h-175l80 60v440l-80 60h255l-80 -60v-410l332 470h175z" />
    <glyph glyph-name="uni043A.sc" horiz-adv-x="634" 
d="M200 500v-440l80 -60h-255l80 60v440l-80 60h255zM356 313c131 -184 180 -273 303 -313v-5c-176 -16 -220 41 -399 293l233 221l-76 51h200z" />
    <glyph glyph-name="uni043B.sc" horiz-adv-x="610" 
d="M505 500v-440l80 -60h-255l80 60v461h-202c-7 -385 -17 -529 -173 -531v95c80 7 115 98 124 423l-69 52h495z" />
    <glyph glyph-name="uni043C.sc" horiz-adv-x="820" 
d="M715 500v-440l80 -60h-255l80 60v377l-227 -331l-228 317v-363l120 -60h-260l80 60v440l-80 60h156l234 -326l223 326h157z" />
    <glyph glyph-name="uni043D.sc" horiz-adv-x="721" 
d="M616 500v-440l80 -60h-255l80 60v223h-321v-223l80 -60h-255l80 60v440l-80 60h255l-80 -60v-172h321v172l-80 60h255z" />
    <glyph glyph-name="uni043E.sc" horiz-adv-x="678" 
d="M341 570c154 0 297 -103 297 -288s-143 -292 -301 -292c-154 0 -297 103 -297 288s143 292 301 292zM353 35c111 0 180 85 180 230c0 170 -94 260 -209 260c-110 0 -179 -84 -179 -230c0 -169 93 -260 208 -260z" />
    <glyph glyph-name="uni043F.sc" horiz-adv-x="716" 
d="M611 500v-440l80 -60h-255l80 60v455h-316v-455l80 -60h-255l80 60v440l-80 60h666z" />
    <glyph glyph-name="uni0440.sc" horiz-adv-x="550" 
d="M305 229h-95v-169l120 -60h-295l80 60v440l-80 60h270c136 0 230 -47 230 -153c0 -107 -94 -178 -230 -178zM210 521v-253h84c91 0 141 50 141 130c0 79 -50 123 -141 123h-84z" />
    <glyph glyph-name="uni0441.sc" horiz-adv-x="599" 
d="M564 147l5 -5c-54 -113 -148 -152 -237 -152c-147 0 -292 108 -292 284c0 181 154 296 327 296c43 0 92 -7 138 -22l46 21v-190l-96 134c-31 9 -60 12 -87 12c-133 0 -228 -83 -228 -230c0 -139 86 -230 218 -230c64 0 139 22 206 82z" />
    <glyph glyph-name="uni0442.sc" horiz-adv-x="583" 
d="M488 560l70 15v-168l-78 108h-141v-455l80 -60h-255l80 60v455h-141l-78 -108v168l70 -15h393z" />
    <glyph glyph-name="uni0443.sc" horiz-adv-x="616" 
d="M359 242v-182l80 -60h-255l80 60v184l-190 264l-69 52h251l-73 -55l152 -210l151 215l-99 50h234l-77 -58z" />
    <glyph glyph-name="uni0444.sc" horiz-adv-x="702" 
d="M458 81h-65v-31l80 -60h-245l80 60v31h-64c-137 0 -229 72 -229 194c0 121 92 204 229 204h64v31l-80 60h245l-80 -60v-31h65c136 0 229 -72 229 -194c0 -121 -93 -204 -229 -204zM308 120v320h-54c-91 0 -144 -65 -144 -160s53 -160 144 -160h54zM393 440v-320h55
c90 0 144 65 144 160s-54 160 -144 160h-55z" />
    <glyph glyph-name="uni0445.sc" horiz-adv-x="600" 
d="M541 59l79 -59h-258l73 54l-142 182l-144 -181l80 -55h-224l77 58l177 222l-176 226l-72 54h256l-73 -54l132 -170l136 169l-80 55h224l-78 -58l-168 -210z" />
    <glyph glyph-name="uni0447.sc" horiz-adv-x="662" 
d="M557 500v-440l80 -60h-295l120 60v178c-50 -15 -100 -24 -158 -24c-149 0 -219 53 -219 174v112l-80 60h255l-80 -60v-99c0 -95 29 -142 141 -142c46 0 96 9 141 23v218l-80 60h255z" />
    <glyph glyph-name="uni0446.sc" horiz-adv-x="674" 
d="M584 500v-455h64v-205l-85 160h-548l80 60v440l-80 60h255l-80 -60v-455h299v455l-80 60h255z" />
    <glyph glyph-name="uni0448.sc" horiz-adv-x="957" 
d="M852 500v-440l80 -60h-907l80 60v440l-80 60h255l-80 -60v-455h231v455l-80 60h255l-80 -60v-455h231v455l-80 60h255z" />
    <glyph glyph-name="uni0449.sc" horiz-adv-x="957" 
d="M852 500v-455h65v-205l-84 160h-808l80 60v440l-80 60h255l-80 -60v-455h231v455l-80 60h255l-80 -60v-455h231v455l-80 60h255z" />
    <glyph glyph-name="uni044C.sc" horiz-adv-x="557" 
d="M312 331c136 0 230 -54 230 -160c0 -107 -94 -171 -230 -171h-287l80 60v440l-80 60h295l-120 -60v-169h112zM301 46c91 0 141 40 141 120c0 79 -50 119 -141 119h-101v-239h101z" />
    <glyph glyph-name="uni044A.sc" horiz-adv-x="686" 
d="M441 331c136 0 230 -54 230 -160c0 -107 -94 -171 -230 -171h-287l80 60v455h-131l-78 -108v153h424l-120 -60v-169h112zM430 46c91 0 141 40 141 120c0 79 -50 119 -141 119h-101v-239h101z" />
    <glyph glyph-name="uni044B.sc" horiz-adv-x="872" 
d="M312 331c136 0 230 -54 230 -160c0 -107 -94 -171 -230 -171h-287l80 60v440l-80 60h295l-120 -60v-169h112zM762 500v-440l80 -60h-255l80 60v440l-80 60h255zM301 46c91 0 141 40 141 120c0 79 -50 119 -141 119h-101v-239h101z" />
    <glyph glyph-name="uni044D.sc" horiz-adv-x="602" 
d="M248 568c172 0 309 -104 309 -286s-139 -290 -284 -290c-102 0 -201 44 -253 150l5 5c68 -55 147 -80 220 -80c121 0 206 64 212 206h-299v45h298c-10 127 -86 200 -209 200c-32 0 -73 -5 -113 -17l-88 -122v190l50 -23c50 15 108 22 152 22z" />
    <glyph glyph-name="uni044E.sc" horiz-adv-x="887" 
d="M585 570c138 0 272 -105 272 -288s-134 -292 -275 -292c-137 0 -270 103 -272 283h-110v-213l80 -60h-255l80 60v440l-80 60h255l-80 -60v-182h112c18 159 143 252 273 252zM598 35c99 0 159 86 159 228c0 170 -85 262 -188 262c-98 0 -158 -86 -158 -228
c0 -170 84 -262 187 -262z" />
    <glyph glyph-name="uni044F.sc" horiz-adv-x="597" 
d="M492 500v-440l80 -60h-255l80 60v455h-87c-82 0 -132 -33 -132 -107c0 -65 39 -117 169 -125c-134 -220 -193 -303 -372 -288v5c101 45 167 135 249 261c-87 25 -146 80 -146 157c0 99 94 142 221 142h273z" />
    <glyph glyph-name="zero" unicode="0" horiz-adv-x="590" 
d="M295 710c136 0 245 -133 245 -360s-109 -360 -245 -360s-245 133 -245 360s109 360 245 360zM295 40c96 0 135 119 135 310s-39 310 -135 310s-135 -119 -135 -310s39 -310 135 -310z" />
    <glyph glyph-name="one" unicode="1" horiz-adv-x="510" 
d="M310 60l160 -60h-420l160 60v519l-149 56l249 85v-660z" />
    <glyph glyph-name="two" unicode="2" horiz-adv-x="570" 
d="M443 90l67 89v-179h-480c296 275 363 397 363 497c0 85 -49 128 -130 128c-77 0 -147 -38 -197 -125l-5 5c33 135 123 205 245 205c121 0 187 -69 187 -175c0 -140 -116 -270 -294 -445h244z" />
    <glyph glyph-name="three" unicode="3" horiz-adv-x="573" 
d="M371 422c72 -37 122 -99 122 -188c0 -154 -155 -244 -298 -244c-66 0 -117 19 -155 48l60 80l105 -78c104 0 198 69 198 169c0 67 -42 129 -129 155c-26 -12 -54 -23 -86 -34l-15 40c141 54 169 110 169 163c0 57 -32 97 -103 97c-52 0 -124 -21 -194 -100l-5 5
c54 117 129 175 234 175c114 0 168 -68 168 -150c0 -53 -22 -98 -71 -138z" />
    <glyph glyph-name="four" unicode="4" horiz-adv-x="610" 
d="M554 177h-97v-117l80 -60h-290l120 60v117h-307l-40 33l347 490l90 20v-463h113zM116 257h251v356z" />
    <glyph glyph-name="five" unicode="5" horiz-adv-x="570" 
d="M168 494c224 -20 332 -119 332 -257c0 -171 -168 -247 -307 -247c-70 0 -123 20 -163 50l63 84l110 -84c106 0 207 57 207 172c0 102 -80 180 -318 200l59 288h345l-19 -90h-285z" />
    <glyph glyph-name="six" unicode="6" horiz-adv-x="575" 
d="M198 376c168 69 332 -11 332 -174c0 -122 -91 -212 -231 -212c-138 0 -249 87 -249 277c0 224 156 416 422 473l15 -40c-220 -63 -332 -195 -332 -415c0 -188 82 -245 150 -245c80 0 120 81 120 163c0 126 -92 168 -212 133z" />
    <glyph glyph-name="seven" unicode="7" horiz-adv-x="550" 
d="M30 700h500c-162 -273 -236 -463 -236 -700h-105c15 237 131 437 236 610h-313l-82 -109v199z" />
    <glyph glyph-name="eight" unicode="8" horiz-adv-x="600" 
d="M391 381c78 -36 149 -84 149 -189c0 -134 -113 -202 -243 -202c-127 0 -237 60 -237 179c0 91 62 152 142 194c-64 32 -117 75 -117 162c0 121 102 185 219 185c120 0 211 -64 211 -167c0 -79 -53 -130 -124 -162zM301 660c-91 0 -116 -69 -116 -116
c0 -74 68 -105 145 -137c62 32 90 83 90 134c0 52 -29 119 -119 119zM303 40c93 0 132 76 132 136c0 97 -90 128 -179 164c-72 -45 -96 -97 -96 -154c0 -72 43 -146 143 -146z" />
    <glyph glyph-name="nine" unicode="9" horiz-adv-x="575" 
d="M377 314c-167 -69 -332 2 -332 172c0 125 100 224 243 224c135 0 237 -87 237 -277c0 -224 -156 -416 -422 -473l-15 40c220 63 332 195 332 415c0 188 -72 245 -140 245c-80 0 -128 -80 -128 -166c0 -129 87 -176 210 -140z" />
    <glyph glyph-name="zero.osf" 
d="M290 -10c-134 0 -245 95 -245 250s111 250 245 250s245 -95 245 -250s-111 -250 -245 -250zM306 30c91 0 122 89 122 188c0 135 -69 232 -154 232c-91 0 -124 -89 -124 -188c0 -135 71 -232 156 -232z" />
    <glyph glyph-name="one.osf" horiz-adv-x="375" 
d="M235 420v-360l80 -60h-250l80 60v360l-80 60h250z" />
    <glyph glyph-name="two.osf" horiz-adv-x="490" 
d="M204 85h261l-17 -85h-433c260 190 313 249 313 321c0 62 -39 84 -96 84c-70 0 -133 -34 -191 -105l-5 5c38 115 123 185 235 185c101 0 157 -57 157 -138c0 -118 -111 -194 -224 -267z" />
    <glyph glyph-name="three.osf" horiz-adv-x="573" 
d="M371 202c72 -37 122 -99 122 -188c0 -154 -155 -244 -298 -244c-66 0 -117 19 -155 48l60 80l105 -78c104 0 198 69 198 169c0 67 -42 129 -129 155c-26 -12 -54 -23 -86 -34l-15 40c141 54 169 110 169 163c0 57 -32 97 -103 97c-52 0 -124 -21 -194 -100l-5 5
c54 117 129 175 234 175c114 0 168 -68 168 -150c0 -53 -22 -98 -71 -138z" />
    <glyph glyph-name="four.osf" horiz-adv-x="560" 
d="M540 75l-16 -75h-97v-220h-90v220h-297l-40 33l337 450l90 20v-428h113zM96 75h241v324z" />
    <glyph glyph-name="five.osf" horiz-adv-x="515" 
d="M153 274c225 -20 342 -119 342 -257c0 -171 -168 -247 -307 -247c-70 0 -123 20 -163 50l63 84l110 -84c106 0 207 57 207 172c0 102 -90 180 -328 200l59 288h345l-19 -90h-285z" />
    <glyph glyph-name="six.osf" horiz-adv-x="570" 
d="M193 376c168 69 332 -11 332 -174c0 -122 -91 -212 -231 -212c-138 0 -249 87 -249 277c0 224 156 416 422 473l15 -40c-220 -63 -332 -195 -332 -415c0 -188 82 -245 150 -245c80 0 120 81 120 163c0 126 -92 168 -212 133z" />
    <glyph glyph-name="seven.osf" horiz-adv-x="525" 
d="M35 480h490c-162 -273 -236 -463 -236 -700h-105c15 237 131 437 236 610h-303l-82 -109v199z" />
    <glyph glyph-name="eight.osf" horiz-adv-x="570" 
d="M376 381c78 -36 149 -84 149 -189c0 -134 -113 -202 -243 -202c-127 0 -237 60 -237 179c0 91 62 152 142 194c-64 32 -117 75 -117 162c0 121 102 185 219 185c120 0 211 -64 211 -167c0 -79 -53 -130 -124 -162zM286 660c-91 0 -116 -69 -116 -116
c0 -74 68 -105 145 -137c62 32 90 83 90 134c0 52 -29 119 -119 119zM288 40c93 0 132 76 132 136c0 97 -90 128 -179 164c-72 -45 -96 -97 -96 -154c0 -72 43 -146 143 -146z" />
    <glyph glyph-name="nine.osf" horiz-adv-x="570" 
d="M377 94c-167 -69 -332 2 -332 172c0 125 100 224 243 224c135 0 237 -87 237 -277c0 -224 -156 -416 -422 -473l-15 40c220 63 332 195 332 415c0 188 -72 245 -140 245c-80 0 -128 -80 -128 -166c0 -129 87 -176 210 -140z" />
    <glyph glyph-name="zero.dnom" horiz-adv-x="407" 
d="M203 440c85 0 154 -83 154 -225s-69 -225 -154 -225s-153 83 -153 225s68 225 153 225zM203 21c60 0 85 74 85 194c0 119 -25 194 -85 194s-84 -75 -84 -194c0 -120 24 -194 84 -194z" />
    <glyph glyph-name="one.dnom" horiz-adv-x="353" 
d="M213 38l100 -38h-263l100 38v324l-93 35l156 53v-412z" />
    <glyph glyph-name="two.dnom" horiz-adv-x="390" 
d="M288 56l42 56v-112h-300c185 172 227 248 227 311c0 53 -31 80 -82 80c-48 0 -91 -24 -123 -78l-3 3c21 84 77 128 153 128s117 -43 117 -110c0 -87 -72 -168 -184 -278h153z" />
    <glyph glyph-name="three.dnom" horiz-adv-x="403" 
d="M247 260c45 -23 76 -62 76 -118c0 -96 -97 -152 -186 -152c-41 0 -73 12 -97 30l38 50l65 -49c65 0 124 43 124 106c0 41 -27 80 -80 96c-16 -7 -34 -14 -54 -21l-10 25c88 34 106 69 106 102c0 36 -20 61 -65 61c-32 0 -77 -13 -121 -63l-3 3c34 74 81 110 146 110
c72 0 105 -43 105 -94c0 -33 -14 -61 -44 -86z" />
    <glyph glyph-name="four.dnom" horiz-adv-x="403" 
d="M353 111h-60v-73l50 -38h-182l75 38v73h-191l-25 20l216 307l57 12v-289h70zM80 161h156v222z" />
    <glyph glyph-name="five.dnom" horiz-adv-x="394" 
d="M116 305c140 -13 208 -74 208 -161c0 -107 -105 -154 -192 -154c-44 0 -77 12 -102 31l39 53l69 -53c66 0 129 36 129 108c0 63 -50 112 -198 125l36 180h216l-12 -57h-178z" />
    <glyph glyph-name="six.dnom" horiz-adv-x="395" 
d="M143 231c105 43 207 -7 207 -109c0 -76 -57 -132 -144 -132c-86 0 -156 54 -156 173c0 140 98 260 264 296l9 -25c-137 -40 -207 -122 -207 -260c0 -117 51 -153 94 -153c50 0 75 51 75 102c0 79 -58 105 -133 83z" />
    <glyph glyph-name="seven.dnom" horiz-adv-x="362" 
d="M30 438h312c-101 -171 -147 -290 -147 -438h-66c10 148 82 273 148 381h-197l-50 -68v125z" />
    <glyph glyph-name="eight.dnom" horiz-adv-x="420" 
d="M266 234c49 -22 94 -52 94 -118c0 -84 -71 -126 -152 -126c-80 0 -148 37 -148 112c0 57 38 95 88 121c-40 20 -73 47 -73 101c0 76 64 116 137 116c75 0 132 -40 132 -105c0 -49 -33 -81 -78 -101zM210 409c-57 0 -72 -44 -72 -73c0 -46 42 -66 90 -86
c39 21 57 52 57 84c0 33 -19 75 -75 75zM211 21c59 0 83 48 83 85c0 61 -56 80 -112 102c-45 -28 -60 -60 -60 -96c0 -45 27 -91 89 -91z" />
    <glyph glyph-name="nine.dnom" horiz-adv-x="395" 
d="M253 181c-105 -43 -208 2 -208 108c0 78 63 140 152 140c84 0 148 -55 148 -173c0 -140 -97 -260 -264 -296l-9 25c138 39 208 122 208 259c0 118 -45 154 -88 154c-50 0 -80 -50 -80 -104c0 -81 54 -110 131 -88z" />
    <glyph glyph-name="zero.numr" horiz-adv-x="407" 
d="M203 710c85 0 154 -83 154 -225s-69 -225 -154 -225s-153 83 -153 225s68 225 153 225zM203 291c60 0 85 74 85 194c0 119 -25 194 -85 194s-84 -75 -84 -194c0 -120 24 -194 84 -194z" />
    <glyph glyph-name="one.numr" horiz-adv-x="353" 
d="M213 308l100 -38h-263l100 38v324l-93 35l156 53v-412z" />
    <glyph glyph-name="two.numr" horiz-adv-x="390" 
d="M288 322l42 56v-112h-300c185 172 227 248 227 311c0 53 -31 80 -82 80c-48 0 -91 -24 -123 -78l-3 3c21 84 77 128 153 128s117 -43 117 -110c0 -87 -72 -168 -184 -278h153z" />
    <glyph glyph-name="three.numr" horiz-adv-x="403" 
d="M247 530c45 -23 76 -62 76 -118c0 -96 -97 -152 -186 -152c-41 0 -73 12 -97 30l38 50l65 -49c65 0 124 43 124 106c0 42 -27 80 -81 96c-16 -7 -34 -14 -53 -21l-10 25c88 34 106 69 106 102c0 36 -20 61 -65 61c-32 0 -77 -13 -121 -63l-3 3c34 74 81 110 146 110
c72 0 105 -43 105 -94c0 -33 -14 -61 -44 -86z" />
    <glyph glyph-name="four.numr" horiz-adv-x="403" 
d="M353 381h-60v-73l50 -38h-182l75 38v73h-191l-25 20l216 307l57 12v-289h70zM80 431h156v222z" />
    <glyph glyph-name="five.numr" horiz-adv-x="394" 
d="M116 572c140 -13 208 -74 208 -161c0 -107 -105 -154 -192 -154c-44 0 -77 12 -102 31l39 53l69 -53c66 0 129 36 129 108c0 63 -50 112 -198 125l36 180h216l-12 -57h-178z" />
    <glyph glyph-name="six.numr" horiz-adv-x="395" 
d="M143 513c105 43 207 -7 207 -109c0 -76 -57 -132 -144 -132c-86 0 -156 54 -156 173c0 140 98 260 264 296l9 -25c-137 -40 -207 -122 -207 -260c0 -117 51 -153 94 -153c50 0 75 51 75 102c0 79 -58 105 -133 83z" />
    <glyph glyph-name="seven.numr" horiz-adv-x="362" 
d="M30 701h312c-101 -171 -147 -290 -147 -438h-66c10 148 82 273 148 381h-197l-50 -68v125z" />
    <glyph glyph-name="eight.numr" horiz-adv-x="420" 
d="M266 505c50 -23 94 -53 94 -119c0 -84 -71 -126 -152 -126c-80 0 -148 37 -148 112c0 57 38 95 88 121c-40 20 -73 47 -73 101c0 76 64 116 137 116c75 0 132 -40 132 -105c0 -49 -33 -81 -78 -100zM210 679c-57 0 -72 -44 -72 -73c0 -46 43 -66 91 -85
c39 20 56 52 56 83c0 33 -19 75 -75 75zM211 291c59 0 83 48 83 85c0 60 -56 80 -112 102c-45 -28 -60 -60 -60 -96c0 -45 27 -91 89 -91z" />
    <glyph glyph-name="nine.numr" horiz-adv-x="395" 
d="M253 462c-105 -43 -208 2 -208 108c0 78 63 140 152 140c84 0 148 -55 148 -173c0 -140 -97 -260 -264 -296l-9 25c138 39 208 122 208 259c0 118 -45 154 -88 154c-50 0 -80 -50 -80 -104c0 -81 54 -110 131 -88z" />
    <glyph glyph-name="fraction" unicode="&#x2044;" horiz-adv-x="385" 
d="M385 740l-315 -800h-51l315 800h51z" />
    <glyph glyph-name="onehalf" unicode="&#xbd;" horiz-adv-x="958" 
d="M617 740h51l-315 -800h-51zM50 270l100 38v324l-93 35l156 53v-412l100 -38h-263zM876 56l42 56v-112h-300c185 172 227 248 227 311c0 53 -31 80 -82 80c-48 0 -91 -24 -123 -78l-3 3c21 84 77 128 153 128s117 -43 117 -110c0 -87 -72 -168 -184 -278h153z" />
    <glyph glyph-name="onequarter" unicode="&#xbc;" horiz-adv-x="992" 
d="M617 740h51l-315 -800h-51zM50 270l100 38v324l-93 35l156 53v-412l100 -38h-263zM941 111h-60v-73l50 -38h-182l75 38v73h-191l-25 20l216 307l57 12v-289h70zM668 161h156v222z" />
    <glyph glyph-name="threequarters" unicode="&#xbe;" horiz-adv-x="1051" 
d="M637 740h51l-315 -800h-51zM247 530c45 -23 76 -62 76 -118c0 -96 -97 -152 -186 -152c-41 0 -73 12 -97 30l38 50l65 -49c65 0 124 43 124 106c0 42 -27 80 -81 96c-16 -7 -34 -14 -53 -21l-10 25c88 34 106 69 106 102c0 36 -20 61 -65 61c-32 0 -77 -13 -121 -63l-3 3
c34 74 81 110 146 110c72 0 105 -43 105 -94c0 -33 -14 -61 -44 -86zM961 111h-60v-73l50 -38h-182l75 38v73h-191l-25 20l216 307l57 12v-289h70zM688 161h156v222z" />
    <glyph glyph-name="oneeighth" unicode="&#x215b;" horiz-adv-x="988" 
d="M668 740l-315 -800h-51l315 800h51zM213 308l100 -38h-263l100 38v324l-93 35l156 53v-412zM854 234c49 -22 94 -52 94 -118c0 -84 -71 -126 -152 -126c-80 0 -148 37 -148 112c0 57 38 95 88 121c-40 20 -73 47 -73 101c0 76 64 116 137 116c75 0 132 -40 132 -105
c0 -49 -33 -81 -78 -101zM798 409c-57 0 -72 -44 -72 -73c0 -46 42 -66 90 -86c39 21 57 52 57 84c0 33 -19 75 -75 75zM799 21c59 0 83 48 83 85c0 61 -56 80 -112 102c-45 -28 -60 -60 -60 -96c0 -45 27 -91 89 -91z" />
    <glyph glyph-name="threeeighths" unicode="&#x215c;" horiz-adv-x="1047" 
d="M688 740l-315 -800h-51l315 800h51zM247 530c45 -23 76 -62 76 -118c0 -96 -97 -152 -186 -152c-41 0 -73 12 -97 30l38 50l65 -49c65 0 124 43 124 106c0 42 -27 80 -81 96c-16 -7 -34 -14 -53 -21l-10 25c88 34 106 69 106 102c0 36 -20 61 -65 61
c-32 0 -77 -13 -121 -63l-3 3c34 74 81 110 146 110c72 0 105 -43 105 -94c0 -33 -14 -61 -44 -86zM874 234c49 -22 94 -52 94 -118c0 -84 -71 -126 -152 -126c-80 0 -148 37 -148 112c0 57 38 95 88 121c-40 20 -73 47 -73 101c0 76 64 116 137 116c75 0 132 -40 132 -105
c0 -49 -33 -81 -78 -101zM818 409c-57 0 -72 -44 -72 -73c0 -46 42 -66 90 -86c39 21 57 52 57 84c0 33 -19 75 -75 75zM819 21c59 0 83 48 83 85c0 61 -56 80 -112 102c-45 -28 -60 -60 -60 -96c0 -45 27 -91 89 -91z" />
    <glyph glyph-name="fiveeighths" unicode="&#x215d;" horiz-adv-x="1018" 
d="M668 740l-315 -800h-51l315 800h51zM116 572c140 -13 208 -74 208 -161c0 -107 -105 -154 -192 -154c-44 0 -77 12 -102 31l39 53l69 -53c66 0 129 36 129 108c0 63 -50 112 -198 125l36 180h216l-12 -57h-178zM854 234c49 -22 94 -52 94 -118c0 -84 -71 -126 -152 -126
c-80 0 -148 37 -148 112c0 57 38 95 88 121c-40 20 -73 47 -73 101c0 76 64 116 137 116c75 0 132 -40 132 -105c0 -49 -33 -81 -78 -101zM798 409c-57 0 -72 -44 -72 -73c0 -46 42 -66 90 -86c39 21 57 52 57 84c0 33 -19 75 -75 75zM799 21c59 0 83 48 83 85
c0 61 -56 80 -112 102c-45 -28 -60 -60 -60 -96c0 -45 27 -91 89 -91z" />
    <glyph glyph-name="seveneighths" unicode="&#x215e;" horiz-adv-x="927" 
d="M577 740h51l-315 -800h-51zM30 701h312c-101 -171 -147 -290 -147 -438h-66c10 148 82 273 148 381h-197l-50 -68v125zM814 234c49 -22 94 -52 94 -118c0 -84 -71 -126 -152 -126c-80 0 -148 37 -148 112c0 57 38 95 88 121c-40 20 -73 47 -73 101c0 76 64 116 137 116
c75 0 132 -40 132 -105c0 -49 -33 -81 -78 -101zM686 336c0 -46 42 -66 90 -86c39 21 57 52 57 84c0 33 -19 75 -75 75c-57 0 -72 -44 -72 -73zM759 21c59 0 83 48 83 85c0 61 -56 80 -112 102c-45 -28 -60 -60 -60 -96c0 -45 27 -91 89 -91z" />
    <glyph glyph-name="zero.sc" horiz-adv-x="523" 
d="M262 570c118 0 211 -105 211 -290s-93 -290 -211 -290s-212 105 -212 290s94 290 212 290zM262 35c79 0 112 94 112 245s-33 245 -112 245c-80 0 -112 -94 -112 -245s32 -245 112 -245z" />
    <glyph glyph-name="one.sc" horiz-adv-x="440" 
d="M271 49l129 -49h-350l128 49v413l-119 41l212 72v-526z" />
    <glyph glyph-name="two.sc" horiz-adv-x="505" 
d="M389 79l56 77v-156h-415c239 204 307 305 307 392c0 68 -41 102 -109 102c-65 0 -124 -31 -168 -100l-4 4c28 110 105 172 212 172c102 0 160 -56 160 -145c0 -108 -85 -209 -242 -346h203z" />
    <glyph glyph-name="three.sc" horiz-adv-x="516" 
d="M334 331c59 -31 102 -79 102 -151c0 -124 -127 -190 -254 -190c-62 0 -108 21 -142 51l58 60l86 -71c89 -1 169 45 169 125c0 55 -38 101 -114 128c-18 -7 -37 -14 -57 -20l-12 32c115 40 142 84 142 128c0 46 -28 78 -89 78c-46 0 -105 -18 -164 -80l-4 4
c45 95 109 145 201 145c98 0 145 -57 145 -124c0 -45 -22 -82 -67 -115z" />
    <glyph glyph-name="four.sc" horiz-adv-x="534" 
d="M479 140h-82v-95l64 -45h-251l97 49v91h-254l-33 26l287 391l90 18v-363h97zM106 212h201v276z" />
    <glyph glyph-name="five.sc" horiz-adv-x="502" 
d="M143 393c194 -18 289 -95 289 -208c0 -130 -125 -195 -250 -195c-62 0 -118 21 -152 51l58 60l86 -71c92 -1 175 45 175 132c0 81 -72 142 -270 158l51 240h298l-16 -78h-249z" />
    <glyph glyph-name="six.sc" horiz-adv-x="508" 
d="M184 307c148 52 279 -16 279 -144c0 -101 -82 -173 -200 -173c-114 0 -213 68 -213 224c0 177 129 330 360 376l13 -32c-186 -51 -278 -159 -278 -330c0 -144 65 -193 122 -193c66 0 101 65 101 131c0 93 -70 135 -173 108z" />
    <glyph glyph-name="seven.sc" horiz-adv-x="477" 
d="M30 560h427c-138 -218 -197 -371 -200 -560h-97c14 184 106 341 204 481h-268l-66 -92v171z" />
    <glyph glyph-name="eight.sc" horiz-adv-x="535" 
d="M348 305c67 -28 127 -67 127 -153c0 -108 -95 -160 -212 -160c-115 0 -203 55 -203 148c0 70 48 117 114 147c-52 26 -93 61 -93 129c0 99 86 152 190 152c107 0 181 -58 181 -138c0 -61 -43 -100 -104 -125zM267 523c-73 0 -100 -48 -100 -88c0 -61 60 -85 128 -110
c50 27 73 69 73 108c0 42 -27 90 -101 90zM267 37c83 0 113 53 113 100c0 77 -78 100 -155 129c-51 -32 -71 -72 -71 -116c0 -57 35 -113 113 -113z" />
    <glyph glyph-name="nine.sc" horiz-adv-x="508" 
d="M324 245c-148 -52 -279 11 -279 144c0 104 81 181 201 181c112 0 212 -67 212 -223c0 -178 -130 -331 -361 -377l-12 32c186 51 278 158 278 330c0 145 -65 193 -122 193c-67 0 -100 -65 -100 -134c0 -99 69 -139 172 -113z" />
    <glyph glyph-name="asterisk" unicode="*" horiz-adv-x="399" 
d="M134 443l-57 63l112 108l-169 21l42 73l137 -72l-32 171l81 -18l-29 -153l152 78l8 -83l-150 -17l122 -122l-76 -34l-66 142z" />
    <glyph glyph-name="backslash" unicode="\" horiz-adv-x="425" 
d="M20 740h60l325 -880h-60z" />
    <glyph glyph-name="periodcentered" unicode="&#xb7;" horiz-adv-x="220" 
d="M110 210c-33 0 -60 27 -60 60s27 60 60 60s60 -27 60 -60s-27 -60 -60 -60z" />
    <glyph glyph-name="bullet" unicode="&#x2022;" horiz-adv-x="296" 
d="M148 265c-54 0 -98 44 -98 97c0 54 44 98 98 98s98 -44 98 -98c0 -53 -44 -97 -98 -97z" />
    <glyph glyph-name="colon" unicode=":" horiz-adv-x="220" 
d="M110 370c-33 0 -60 27 -60 60s27 60 60 60s60 -27 60 -60s-27 -60 -60 -60zM110 -10c-33 0 -60 27 -60 60s27 60 60 60s60 -27 60 -60s-27 -60 -60 -60z" />
    <glyph glyph-name="comma" unicode="," horiz-adv-x="230" 
d="M113 110c36 0 67 -22 67 -85c0 -91 -78 -155 -158 -185l-2 5c54 35 77 79 77 119c0 35 -18 67 -47 86c0 30 24 60 63 60z" />
    <glyph glyph-name="ellipsis" unicode="&#x2026;" horiz-adv-x="660" 
d="M110 -10c-33 0 -60 27 -60 60s27 60 60 60s60 -27 60 -60s-27 -60 -60 -60zM330 -10c-33 0 -60 27 -60 60s27 60 60 60s60 -27 60 -60s-27 -60 -60 -60zM550 -10c-33 0 -60 27 -60 60s27 60 60 60s60 -27 60 -60s-27 -60 -60 -60z" />
    <glyph glyph-name="exclam" unicode="!" horiz-adv-x="340" 
d="M220 750l-30 -530h-40l-30 530h100zM170 -10c-33 0 -60 27 -60 60s27 60 60 60s60 -27 60 -60s-27 -60 -60 -60z" />
    <glyph glyph-name="exclamdown" unicode="&#xa1;" horiz-adv-x="340" 
d="M170 490c33 0 60 -27 60 -60s-27 -60 -60 -60s-60 27 -60 60s27 60 60 60zM220 -270h-100l30 530h40z" />
    <glyph glyph-name="numbersign" unicode="#" horiz-adv-x="666" 
d="M627 480h-110l-23 -260h110l-4 -50h-110l-15 -170h-65l15 170h-215l-15 -170h-65l15 170h-110l4 50h110l23 260h-110l4 50h110l15 170h65l-15 -170h215l15 170h65l-15 -170h110zM429 220l23 260h-215l-23 -260h215z" />
    <glyph glyph-name="period" unicode="." horiz-adv-x="220" 
d="M110 -10c-33 0 -60 27 -60 60s27 60 60 60s60 -27 60 -60s-27 -60 -60 -60z" />
    <glyph glyph-name="question" unicode="?" horiz-adv-x="503" 
d="M204 220c-31 194 139 231 139 367c0 73 -50 124 -120 133l-120 -94l-63 84c50 30 123 50 194 50c111 0 209 -48 209 -157c0 -155 -199 -201 -199 -383h-40zM225 -10c-33 0 -60 27 -60 60s27 60 60 60s60 -27 60 -60s-27 -60 -60 -60z" />
    <glyph glyph-name="questiondown" unicode="&#xbf;" horiz-adv-x="428" 
d="M253 490c33 0 60 -27 60 -60s-27 -60 -60 -60s-60 27 -60 60s27 60 60 60zM274 260c31 -194 -139 -231 -139 -367c0 -73 50 -124 120 -133l120 94l63 -84c-50 -30 -123 -50 -194 -50c-111 0 -209 48 -209 157c0 155 199 201 199 383h40z" />
    <glyph glyph-name="quotedbl" unicode="&#x22;" horiz-adv-x="260" 
d="M63 520l-53 260h110l-52 -260h-5zM203 520l-53 260h110l-52 -260h-5z" />
    <glyph glyph-name="quotesingle" unicode="'" horiz-adv-x="190" 
d="M93 520l-53 260h110l-52 -260h-5z" />
    <glyph glyph-name="semicolon" unicode=";" horiz-adv-x="230" 
d="M115 370c-33 0 -60 27 -60 60s27 60 60 60s60 -27 60 -60s-27 -60 -60 -60zM113 110c36 0 67 -22 67 -85c0 -91 -78 -155 -158 -185l-2 5c54 35 77 79 77 119c0 35 -18 67 -47 86c0 30 24 60 63 60z" />
    <glyph glyph-name="slash" unicode="/" horiz-adv-x="425" 
d="M405 740l-325 -880h-60l325 880h60z" />
    <glyph glyph-name="underscore" unicode="_" horiz-adv-x="450" 
d="M20 0h410v-50h-410v50z" />
    <glyph glyph-name="braceleft" unicode="{" horiz-adv-x="296" 
d="M261 815c-70 -18 -100 -79 -100 -152c0 -67 25 -148 25 -215c0 -52 -15 -86 -54 -98c38 -13 54 -47 54 -101c0 -68 -25 -148 -25 -215c0 -73 30 -134 100 -152v-5c-125 10 -180 75 -180 166c0 61 25 128 25 198c0 39 -8 96 -56 106v5c48 10 56 65 56 104
c0 70 -25 137 -25 198c0 91 55 156 180 166v-5z" />
    <glyph glyph-name="braceright" unicode="}" horiz-adv-x="296" 
d="M35 815v5c125 -10 180 -75 180 -166c0 -61 -25 -128 -25 -198c0 -39 8 -94 56 -104v-5c-48 -10 -56 -67 -56 -106c0 -70 25 -137 25 -198c0 -91 -55 -156 -180 -166v5c70 18 100 79 100 152c0 67 -25 147 -25 215c0 54 16 88 54 101c-39 12 -54 46 -54 98
c0 67 25 148 25 215c0 73 -30 134 -100 152z" />
    <glyph glyph-name="bracketleft" unicode="[" horiz-adv-x="345" 
d="M310 805l-130 -51v-798l130 -51v-5h-210v910h210v-5z" />
    <glyph glyph-name="bracketright" unicode="]" horiz-adv-x="345" 
d="M245 810v-910h-210v5l130 51v798l-130 51v5h210z" />
    <glyph glyph-name="parenleft" unicode="(" horiz-adv-x="330" 
d="M295 820c-120 -142 -160 -293 -160 -465s40 -323 160 -465l-5 -5c-160 122 -240 278 -240 470s80 348 240 470z" />
    <glyph glyph-name="parenright" unicode=")" horiz-adv-x="330" 
d="M40 825c160 -122 240 -278 240 -470s-80 -348 -240 -470l-5 5c120 142 160 293 160 465s-40 323 -160 465z" />
    <glyph glyph-name="emdash" unicode="&#x2014;" horiz-adv-x="770" 
d="M20 295h730v-50h-730v50z" />
    <glyph glyph-name="endash" unicode="&#x2013;" horiz-adv-x="550" 
d="M20 295h510v-50h-510v50z" />
    <glyph glyph-name="hyphen" unicode="-" horiz-adv-x="408" 
d="M30 285l345 30l5 -60l-345 -30z" />
    <glyph glyph-name="guillemotleft" unicode="&#xab;" horiz-adv-x="460" 
d="M250 460l-120 -200l120 -200l-5 -5l-220 205l220 205zM440 460l-120 -200l120 -200l-5 -5l-220 205l220 205z" />
    <glyph glyph-name="guillemotright" unicode="&#xbb;" horiz-adv-x="460" 
d="M25 465l220 -205l-220 -205l-5 5l120 200l-120 200zM215 465l220 -205l-220 -205l-5 5l120 200l-120 200z" />
    <glyph glyph-name="guilsinglleft" unicode="&#x2039;" horiz-adv-x="270" 
d="M250 460l-120 -200l120 -200l-5 -5l-220 205l220 205z" />
    <glyph glyph-name="guilsinglright" unicode="&#x203a;" horiz-adv-x="270" 
d="M25 465l220 -205l-220 -205l-5 5l120 200l-120 200z" />
    <glyph glyph-name="quotedblbase" unicode="&#x201e;" horiz-adv-x="410" 
d="M113 110c36 0 67 -22 67 -85c0 -91 -78 -155 -158 -185l-2 5c54 35 77 79 77 119c0 35 -18 67 -47 86c0 30 24 60 63 60zM293 110c36 0 67 -22 67 -85c0 -91 -78 -155 -158 -185l-2 5c54 35 77 79 77 119c0 35 -18 67 -47 86c0 30 24 60 63 60z" />
    <glyph glyph-name="quotedblleft" unicode="&#x201c;" horiz-adv-x="410" 
d="M117 520c-36 0 -67 22 -67 85c0 91 78 155 158 185l2 -5c-54 -35 -77 -79 -77 -119c0 -35 18 -67 47 -86c0 -30 -24 -60 -63 -60zM297 520c-36 0 -67 22 -67 85c0 91 78 155 158 185l2 -5c-54 -35 -77 -79 -77 -119c0 -35 18 -67 47 -86c0 -30 -24 -60 -63 -60z" />
    <glyph glyph-name="quotedblright" unicode="&#x201d;" horiz-adv-x="410" 
d="M113 790c36 0 67 -22 67 -85c0 -91 -78 -155 -158 -185l-2 5c54 35 77 79 77 119c0 35 -18 67 -47 86c0 30 24 60 63 60zM293 790c36 0 67 -22 67 -85c0 -91 -78 -155 -158 -185l-2 5c54 35 77 79 77 119c0 35 -18 67 -47 86c0 30 24 60 63 60z" />
    <glyph glyph-name="quoteleft" unicode="&#x2018;" horiz-adv-x="230" 
d="M117 520c-36 0 -67 22 -67 85c0 91 78 155 158 185l2 -5c-54 -35 -77 -79 -77 -119c0 -35 18 -67 47 -86c0 -30 -24 -60 -63 -60z" />
    <glyph glyph-name="quoteright" unicode="&#x2019;" horiz-adv-x="230" 
d="M113 790c36 0 67 -22 67 -85c0 -91 -78 -155 -158 -185l-2 5c54 35 77 79 77 119c0 35 -18 67 -47 86c0 30 24 60 63 60z" />
    <glyph glyph-name="quotesinglbase" unicode="&#x201a;" horiz-adv-x="230" 
d="M113 110c36 0 67 -22 67 -85c0 -91 -78 -155 -158 -185l-2 5c54 35 77 79 77 119c0 35 -18 67 -47 86c0 30 24 60 63 60z" />
    <glyph glyph-name="backslash.sc" horiz-adv-x="359" 
d="M17 592h49l276 -704h-49z" />
    <glyph glyph-name="braceleft.sc" horiz-adv-x="269" 
d="M234 655c-59 -16 -84 -65 -84 -121s22 -114 22 -170c0 -44 -14 -74 -51 -83c37 -10 51 -40 51 -85c0 -56 -22 -114 -22 -170s25 -105 84 -121v-4c-110 7 -158 62 -158 134c0 51 22 101 22 158c0 33 -7 76 -48 85v4c41 9 48 52 48 85c0 57 -22 107 -22 157
c0 73 48 128 158 135v-4z" />
    <glyph glyph-name="braceright.sc" horiz-adv-x="269" 
d="M35 655v4c110 -7 158 -62 158 -135c0 -50 -22 -100 -22 -157c0 -33 7 -76 48 -85v-4c-41 -9 -48 -52 -48 -85c0 -57 22 -107 22 -158c0 -72 -48 -127 -158 -134v4c59 16 84 65 84 121s-22 114 -22 170c0 45 14 75 51 85c-37 9 -51 39 -51 83c0 56 22 114 22 170
s-25 105 -84 121z" />
    <glyph glyph-name="bracketleft.sc" horiz-adv-x="305" 
d="M270 645l-114 -41v-640l114 -41v-4h-188v730h188v-4z" />
    <glyph glyph-name="bracketright.sc" horiz-adv-x="305" 
d="M223 649v-730h-188v4l114 41v640l-114 41v4h188z" />
    <glyph glyph-name="emdash.sc" horiz-adv-x="663" 
d="M17 239h629v-39h-629v39z" />
    <glyph glyph-name="endash.sc" horiz-adv-x="471" 
d="M17 239h437v-39h-437v39z" />
    <glyph glyph-name="exclam.sc" horiz-adv-x="290" 
d="M192 600l-30 -423h-33l-31 423h94zM145 -8c-28 0 -52 23 -52 51s24 50 52 50c29 0 52 -22 52 -50s-23 -51 -52 -51z" />
    <glyph glyph-name="exclamdown.sc" horiz-adv-x="290" 
d="M145 395c29 0 52 -23 52 -51s-23 -50 -52 -50c-28 0 -52 22 -52 50s24 51 52 51zM192 -213h-94l31 423h33z" />
    <glyph glyph-name="hyphen.sc" horiz-adv-x="350" 
d="M26 231l296 24l4 -47l-296 -24z" />
    <glyph glyph-name="numbersign.sc" horiz-adv-x="572" 
d="M534 383h-93l-20 -206h94l-4 -39h-93l-13 -138h-53l13 138h-184l-13 -138h-52l13 138h-94l3 39h94l19 206h-93l3 39h93l13 138h53l-13 -138h184l13 138h53l-13 -138h93zM368 177l20 206h-184l-20 -206h184z" />
    <glyph glyph-name="parenleft.sc" horiz-adv-x="296" 
d="M261 658c-97 -110 -132 -235 -132 -374s35 -264 132 -374l-5 -4c-135 97 -206 222 -206 378s71 281 206 378z" />
    <glyph glyph-name="parenright.sc" horiz-adv-x="296" 
d="M40 662c135 -97 206 -222 206 -378s-71 -281 -206 -378l-5 4c97 110 132 235 132 374s-35 264 -132 374z" />
    <glyph glyph-name="question.sc" horiz-adv-x="432" 
d="M176 177c-29 150 117 187 117 295c0 58 -42 99 -107 105l-97 -78l-58 61c44 31 106 49 172 49c98 0 181 -39 181 -128c0 -126 -175 -160 -175 -304h-33zM194 -8c-29 0 -52 23 -52 51s23 50 52 50s52 -22 52 -50s-23 -51 -52 -51z" />
    <glyph glyph-name="questiondown.sc" horiz-adv-x="378" 
d="M225 396c29 0 52 -23 52 -51s-23 -50 -52 -50s-52 22 -52 50s23 51 52 51zM243 211c29 -150 -117 -187 -117 -295c0 -58 42 -99 107 -105l97 78l58 -61c-44 -31 -106 -49 -172 -49c-98 0 -181 39 -181 128c0 126 175 160 175 304h33z" />
    <glyph glyph-name="slash.sc" horiz-adv-x="359" 
d="M342 592l-276 -704h-49l276 704h49z" />
    <glyph glyph-name="space" unicode=" " horiz-adv-x="210" 
 />
    <glyph glyph-name="cent" unicode="&#xa2;" horiz-adv-x="485" 
d="M304 75c40 0 88 11 146 55l5 -5c-35 -105 -113 -135 -181 -135h-4l-8 -91l-40 4l8 91c-105 22 -185 119 -185 249c0 161 123 238 228 246l8 91l40 -3l-8 -88c60 -3 106 -22 142 -49l-63 -84l-84 72l-31 -351c9 -1 18 -2 27 -2zM135 271c0 -87 35 -157 103 -184l32 363
c-80 -6 -135 -70 -135 -179z" />
    <glyph glyph-name="currency" unicode="&#xa4;" horiz-adv-x="642" 
d="M596 265c0 -69 -25 -131 -67 -179l68 -68l-29 -29l-68 68c-48 -42 -110 -67 -179 -67s-131 25 -179 67l-68 -68l-29 29l68 68c-42 48 -67 110 -67 179s25 131 67 179l-68 68l29 29l68 -68c48 42 110 67 179 67s131 -25 179 -67l68 68l29 -29l-68 -68
c42 -48 67 -110 67 -179zM321 30c127 0 230 108 230 235s-103 235 -230 235s-230 -108 -230 -235s103 -235 230 -235z" />
    <glyph glyph-name="dollar" unicode="$" 
d="M320 404c99 -40 210 -85 210 -222c0 -121 -101 -192 -237 -192h-9l-7 -81l-50 5l7 80c-61 9 -114 31 -164 57v159l67 -120c34 -23 67 -37 101 -45l25 283c-93 38 -189 78 -189 199c0 107 88 180 222 183l7 81l50 -5l-7 -78c50 -6 96 -22 148 -49v-168l-77 140
c-26 14 -50 22 -75 26zM164 539c0 -58 47 -89 107 -115l21 235c-103 -6 -128 -75 -128 -120zM290 40c120 0 145 71 145 123c0 78 -56 115 -123 145l-24 -268h2z" />
    <glyph glyph-name="Euro" unicode="&#x20ac;" horiz-adv-x="800" 
d="M755 178l5 -5c-63 -144 -178 -183 -273 -183c-152 0 -300 100 -338 270h-99l20 50h72c-1 12 -2 24 -2 36c0 19 1 37 4 54h-84l20 50h74c46 165 201 260 369 260c49 0 107 -8 160 -26l57 26v-235l-129 173c-31 9 -62 12 -90 12c-135 0 -239 -73 -268 -210h367l-20 -50
h-354c-1 -10 -1 -20 -1 -30c0 -21 1 -41 4 -60h361l-20 -50h-330c34 -115 123 -190 247 -190c76 0 168 28 248 108z" />
    <glyph glyph-name="sterling" unicode="&#xa3;" horiz-adv-x="653" 
d="M603 110l5 -5c-54 -90 -92 -115 -170 -115c-60 0 -139 49 -216 49c-38 0 -76 -12 -111 -49l-40 30c83 104 115 158 115 229c0 29 -5 55 -13 81h-138l20 50h101c-17 47 -36 93 -36 144c0 128 116 186 232 186c48 0 92 -9 137 -27l53 27v-219l-117 157c-22 8 -44 12 -69 12
c-80 0 -136 -50 -136 -143c0 -45 14 -89 25 -137h250l-20 -50h-221c1 -13 2 -27 2 -41c0 -60 -17 -124 -72 -206c30 18 58 27 97 27c74 0 137 -42 221 -42c40 0 76 18 101 42z" />
    <glyph glyph-name="yen" unicode="&#xa5;" horiz-adv-x="725" 
d="M725 700l-80 -60l-160 -230h135v-50h-170l-36 -52v-38h206v-50h-206v-160l80 -60h-259l79 59v161h-204v50h204v38l-36 52h-168v50h134l-164 237l-70 53h275l-80 -60l182 -271l188 271v1l-119 59h269z" />
    <glyph glyph-name="plus" unicode="+" horiz-adv-x="590" 
d="M550 375v-50h-230v-230h-50v230h-230v50h230v230h50v-230h230z" />
    <glyph glyph-name="minus" unicode="&#x2212;" horiz-adv-x="590" 
d="M40 375h510v-50h-510v50z" />
    <glyph glyph-name="multiply" unicode="&#xd7;" horiz-adv-x="546" 
d="M506 548l-198 -198l198 -198l-35 -35l-198 198l-198 -198l-35 35l198 198l-198 198l35 35l198 -198l198 198z" />
    <glyph glyph-name="divide" unicode="&#xf7;" horiz-adv-x="590" 
d="M295 470c-33 0 -60 27 -60 60s27 60 60 60s60 -27 60 -60s-27 -60 -60 -60zM40 375h510v-50h-510v50zM295 100c-33 0 -60 27 -60 60s27 60 60 60s60 -27 60 -60s-27 -60 -60 -60z" />
    <glyph glyph-name="equal" unicode="=" horiz-adv-x="590" 
d="M40 475h510v-50h-510v50zM40 275h510v-50h-510v50z" />
    <glyph glyph-name="notequal" unicode="&#x2260;" horiz-adv-x="590" 
d="M550 425h-178l-105 -150h283v-50h-318l-101 -144l-33 23l85 121h-143v50h178l105 150h-283v50h318l102 145l32 -24l-85 -121h143v-50z" />
    <glyph glyph-name="greater" unicode="&#x3e;" horiz-adv-x="590" 
d="M40 595l510 -250v-50l-510 -250v50l459 225l-459 225v50z" />
    <glyph glyph-name="less" unicode="&#x3c;" horiz-adv-x="590" 
d="M550 595v-50l-459 -225l459 -225v-50l-510 250v50z" />
    <glyph glyph-name="greaterequal" unicode="&#x2265;" horiz-adv-x="590" 
d="M40 635l510 -250v-50l-510 -250v50l459 225l-459 225v50zM550 50v-50h-510v50h510z" />
    <glyph glyph-name="lessequal" unicode="&#x2264;" horiz-adv-x="590" 
d="M550 635v-50l-459 -225l459 -225v-50l-510 250v50zM40 50h510v-50h-510v50z" />
    <glyph glyph-name="plusminus" unicode="&#xb1;" horiz-adv-x="590" 
d="M320 415h230v-50h-230v-230h-50v230h-230v50h230v230h50v-230zM40 0v50h510v-50h-510z" />
    <glyph glyph-name="approxequal" unicode="&#x2248;" horiz-adv-x="590" 
d="M431 505c71 0 114 -29 119 -112h-5c-22 49 -61 57 -96 57c-80 0 -205 -42 -290 -42c-71 0 -114 29 -119 112h5c22 -49 61 -57 96 -57c80 0 205 42 290 42zM431 305c71 0 114 -29 119 -112h-5c-22 49 -61 57 -96 57c-80 0 -205 -42 -290 -42c-71 0 -114 29 -119 112h5
c22 -49 61 -57 96 -57c80 0 205 42 290 42z" />
    <glyph glyph-name="asciitilde" unicode="~" horiz-adv-x="590" 
d="M431 405c71 0 114 -29 119 -112h-5c-22 49 -61 57 -96 57c-80 0 -205 -42 -290 -42c-71 0 -114 29 -119 112h5c22 -49 61 -57 96 -57c80 0 205 42 290 42z" />
    <glyph glyph-name="logicalnot" unicode="&#xac;" horiz-adv-x="590" 
d="M40 375h510v-162h-50v112h-460v50z" />
    <glyph glyph-name="emptyset" unicode="&#x2205;" horiz-adv-x="642" 
d="M597 512l-68 -68c42 -48 67 -110 67 -179c0 -152 -123 -275 -275 -275c-69 0 -131 25 -179 67l-68 -68l-29 29l68 68c-42 48 -67 110 -67 179c0 152 123 275 275 275c69 0 131 -25 179 -67l68 68zM91 265c0 -56 20 -108 53 -148l326 326c-40 35 -92 57 -149 57
c-127 0 -230 -108 -230 -235zM551 265c0 56 -20 108 -53 148l-326 -326c40 -35 92 -57 149 -57c127 0 230 108 230 235z" />
    <glyph glyph-name="infinity" unicode="&#x221e;" horiz-adv-x="690" 
d="M501 501c91 0 149 -73 149 -150s-58 -150 -149 -150c-83 0 -131 62 -156 100c-25 -38 -73 -100 -156 -100c-91 0 -149 73 -149 150s58 150 149 150c83 0 131 -62 156 -100c25 38 73 100 156 100zM191 246c52 0 86 34 131 105c-45 71 -79 105 -131 105
c-61 0 -96 -47 -96 -105s35 -105 96 -105zM499 246c61 0 96 47 96 105s-35 105 -96 105c-52 0 -86 -34 -131 -105c45 -71 79 -105 131 -105z" />
    <glyph glyph-name="integral" unicode="&#x222b;" horiz-adv-x="594" 
d="M513 780c53 0 98 -12 131 -30l-73 -87l-82 77c-71 -6 -113 -76 -122 -185l-47 -540c-16 -183 -129 -255 -239 -255c-53 0 -98 12 -131 30l73 87l82 -77c71 6 113 76 122 185l47 540c16 183 129 255 239 255z" />
    <glyph glyph-name="product" unicode="&#x220f;" horiz-adv-x="810" 
d="M695 640v-820l80 -60h-260l80 60v830h-380v-830l80 -60h-260l80 60v820l-80 60h740z" />
    <glyph glyph-name="summation" unicode="&#x2211;" horiz-adv-x="660" 
d="M518 -150l97 129v-219h-580l320 470l-299 470h558v-179l-97 129h-309l247 -390l-281 -410h344z" />
    <glyph glyph-name="radical" unicode="&#x221a;" horiz-adv-x="586" 
d="M526 860h60l-292 -890h-6l-224 462l-64 48h151l150 -325z" />
    <glyph glyph-name="partialdiff" unicode="&#x2202;" horiz-adv-x="586" 
d="M172 780c275 -50 391 -240 366 -530c-16 -175 -134 -260 -268 -260c-126 0 -225 87 -225 220c0 156 125 260 267 260c50 0 94 -12 130 -37c-26 161 -125 257 -293 307zM290 30c103 0 139 108 139 209c0 109 -42 191 -136 191c-103 0 -141 -106 -141 -201
c0 -113 59 -199 138 -199z" />
    <glyph glyph-name="percent" unicode="%" horiz-adv-x="902" 
d="M402 507c0 -112 -75 -203 -176 -203s-176 91 -176 203s75 203 176 203s176 -91 176 -203zM600 700h60l-358 -700h-60zM226 344c64 0 86 75 86 163s-22 163 -86 163s-86 -75 -86 -163s22 -163 86 -163zM676 396c101 0 176 -91 176 -203s-75 -203 -176 -203
s-176 91 -176 203s75 203 176 203zM676 30c64 0 86 75 86 163s-22 163 -86 163s-86 -75 -86 -163s22 -163 86 -163z" />
    <glyph glyph-name="perthousand" unicode="&#x2030;" horiz-adv-x="1304" 
d="M402 507c0 -112 -75 -203 -176 -203s-176 91 -176 203s75 203 176 203s176 -91 176 -203zM600 700h60l-358 -700h-60zM226 344c64 0 86 75 86 163s-22 163 -86 163s-86 -75 -86 -163s22 -163 86 -163zM676 396c101 0 176 -91 176 -203s-75 -203 -176 -203
s-176 91 -176 203s75 203 176 203zM1078 396c101 0 176 -91 176 -203s-75 -203 -176 -203s-176 91 -176 203s75 203 176 203zM676 30c64 0 86 75 86 163s-22 163 -86 163s-86 -75 -86 -163s22 -163 86 -163zM1078 30c64 0 86 75 86 163s-22 163 -86 163s-86 -75 -86 -163
s22 -163 86 -163z" />
    <glyph glyph-name="arrowup" unicode="&#x2191;" horiz-adv-x="490" 
d="M450 560l-5 -5l-167 100v-655h-65v656l-168 -101l-5 5l205 220z" />
    <glyph glyph-name="uni2197" unicode="&#x2197;" horiz-adv-x="584" 
d="M573 369h-7l-47 189l-463 -464l-46 46l463 464l-190 48v7l301 10z" />
    <glyph glyph-name="arrowright" unicode="&#x2192;" horiz-adv-x="800" 
d="M580 554l220 -205l-220 -205l-5 5l101 168h-656v65h655l-100 167z" />
    <glyph glyph-name="uni2198" unicode="&#x2198;" horiz-adv-x="584" 
d="M573 388l11 -300l-301 10v7l190 48l-463 464l46 46l463 -464l47 189h7z" />
    <glyph glyph-name="arrowdown" unicode="&#x2193;" horiz-adv-x="480" 
d="M445 210l-205 -220l-205 220l5 5l168 -101v656h65v-655l167 100z" />
    <glyph glyph-name="uni2199" unicode="&#x2199;" horiz-adv-x="584" 
d="M21 388h7l47 -189l463 464l46 -46l-463 -464l190 -48v-7l-301 -10z" />
    <glyph glyph-name="arrowleft" unicode="&#x2190;" horiz-adv-x="800" 
d="M220 564l5 -5l-100 -167h655v-65h-656l101 -168l-5 -5l-220 205z" />
    <glyph glyph-name="uni2196" unicode="&#x2196;" horiz-adv-x="584" 
d="M21 369l-11 300l301 -10v-7l-190 -48l463 -464l-46 -46l-463 464l-47 -189h-7z" />
    <glyph glyph-name="arrowboth" unicode="&#x2194;" horiz-adv-x="980" 
d="M760 554l220 -205l-220 -205l-5 5l101 168h-732l101 -168l-5 -5l-220 205l220 205l5 -5l-100 -167h730l-100 167z" />
    <glyph glyph-name="arrowupdn" unicode="&#x2195;" horiz-adv-x="450" 
d="M258 115l167 100l5 -5l-205 -220l-205 220l5 5l168 -101v542l-168 -101l-5 5l205 220l205 -220l-5 -5l-167 100v-540z" />
    <glyph glyph-name="lozenge" unicode="&#x25ca;" horiz-adv-x="562" 
d="M527 350l-246 -390l1 2l-247 388l247 388l-1 2zM281 55l186 295l-186 295l-186 -295z" />
    <glyph glyph-name="at" unicode="@" horiz-adv-x="883" 
d="M517 630c211 0 336 -126 336 -309c0 -155 -90 -295 -219 -295c-47 0 -118 19 -107 111l8 65h-4c-34 -94 -99 -176 -185 -176c-61 0 -109 41 -109 128c0 125 98 322 397 292l-34 -299c-7 -61 18 -79 48 -79c76 0 158 111 158 250c0 165 -115 269 -293 269
c-217 0 -413 -154 -413 -389c0 -253 228 -344 472 -303l-3 -35c-245 -45 -519 44 -519 334c0 266 221 436 467 436zM368 96c65 0 159 115 195 308c-144 2 -239 -97 -239 -233c0 -46 11 -75 44 -75z" />
    <glyph glyph-name="ampersand" unicode="&#x26;" horiz-adv-x="755" 
d="M597 139c90 -88 124 -108 213 -139v-10c-120 -18 -180 -12 -279 71c-57 -47 -130 -71 -210 -71c-144 0 -276 78 -276 228c0 100 58 173 146 229c-20 41 -31 82 -31 126c0 119 92 197 219 197c40 0 83 -10 126 -30l58 30v-219l-117 157c-21 9 -40 12 -64 12
c-82 0 -127 -38 -127 -124c0 -106 81 -190 178 -290c50 -51 89 -92 123 -125c29 46 45 108 42 187l-144 72h266l-73 -71c4 -93 -15 -170 -50 -230zM338 70c51 0 101 12 142 37c-35 34 -76 76 -125 128c-59 62 -109 119 -144 176c-60 -55 -81 -111 -81 -165
c0 -108 85 -176 208 -176z" />
    <glyph glyph-name="paragraph" unicode="&#xb6;" horiz-adv-x="640" 
d="M620 700l-80 -60v-790h-60v800h-120v-800h-180l120 60v350h-17c-139 0 -258 80 -258 227s119 213 258 213h337z" />
    <glyph glyph-name="section" unicode="&#xa7;" horiz-adv-x="596" 
d="M435 112c58 -32 101 -78 101 -159c0 -124 -101 -193 -238 -193c-86 0 -157 27 -222 61v159l106 -143c37 -18 73 -27 115 -27c118 0 144 71 144 123c0 194 -371 120 -371 335c0 83 55 142 129 180c-64 31 -114 73 -114 153c0 107 91 179 229 179c67 0 125 -17 191 -51
v-168l-117 158c-22 7 -44 11 -70 11c-114 0 -143 -74 -143 -120c0 -161 371 -99 371 -328c0 -82 -47 -134 -111 -170zM140 287c0 -92 133 -107 245 -152c65 33 86 77 86 121c0 105 -118 131 -224 172c-78 -36 -107 -98 -107 -141z" />
    <glyph glyph-name="copyright" unicode="&#xa9;" horiz-adv-x="820" 
d="M410 710c199 0 360 -161 360 -360s-161 -360 -360 -360s-360 161 -360 360s161 360 360 360zM410 22c179 0 323 149 323 328s-144 328 -323 328s-323 -149 -323 -328s144 -328 323 -328zM425 200c40 0 90 15 133 57l2 -2c-33 -77 -95 -98 -146 -98
c-94 0 -186 72 -186 191c0 122 97 195 205 195c27 0 57 -5 85 -14l32 14v-66s-1 0 -1 1v-61l-68 93c-17 4 -34 6 -49 6c-85 0 -148 -54 -148 -156c0 -94 55 -160 141 -160z" />
    <glyph glyph-name="registered" unicode="&#xae;" horiz-adv-x="820" 
d="M410 710c199 0 360 -161 360 -360s-161 -360 -360 -360s-360 161 -360 360s161 360 360 360zM410 22c179 0 323 149 323 328s-144 328 -323 328s-323 -149 -323 -328s144 -328 323 -328zM448 346c53 -83 98 -152 163 -184v-3c-113 -10 -140 57 -237 201
c88 5 111 42 111 80c0 45 -32 71 -85 71h-55v-317l43 -32h-139l43 32v311l-43 32h156c80 0 139 -27 139 -90c0 -51 -39 -87 -96 -101z" />
    <glyph glyph-name="trademark" unicode="&#x2122;" horiz-adv-x="1121" 
d="M394 780l60 14v-136l-66 88h-112v-403l55 -41h-177l54 40v404h-111l-67 -88v136l61 -14h303zM1032 740v-397l54 -41h-177l54 41v331l-182 -276l-183 263v-318l82 -41h-181l55 41v396l-55 41h94l202 -290l190 290h101z" />
    <glyph glyph-name="degree" unicode="&#xb0;" horiz-adv-x="244" 
d="M122 566c-66 0 -122 55 -122 120c0 66 56 122 122 122s122 -56 122 -122c0 -65 -56 -120 -122 -120zM122 604c47 0 82 36 82 82c0 48 -35 84 -82 84s-82 -36 -82 -84c0 -46 35 -82 82 -82z" />
    <glyph glyph-name="bar" unicode="|" horiz-adv-x="280" 
d="M175 810v-1010h-70v1010h70z" />
    <glyph glyph-name="brokenbar" unicode="&#xa6;" horiz-adv-x="280" 
d="M175 810v-410h-70v410h70zM175 210v-410h-70v410h70z" />
    <glyph glyph-name="dagger" unicode="&#x2020;" horiz-adv-x="540" 
d="M510 510v-100l-220 30l30 -590l-50 -80l-50 80l30 590l-220 -30v100l220 -30l-30 220h100l-30 -220z" />
    <glyph glyph-name="daggerdbl" unicode="&#x2021;" horiz-adv-x="540" 
d="M510 510v-100l-220 30l30 -200l-30 -200l220 30v-100l-220 30l30 -220h-100l30 220l-220 -30v100l220 -30l-30 200l30 200l-220 -30v100l220 -30l-30 220h100l-30 -220z" />
    <glyph glyph-name="asciicircum" unicode="^" horiz-adv-x="562" 
d="M527 350h-60l-186 295l-186 -295h-60l247 388l-1 2z" />
    <glyph glyph-name="uni0308" unicode="&#x308;" horiz-adv-x="0" 
d="M-253 606c-28 0 -52 24 -52 52c0 29 24 52 52 52c29 0 52 -23 52 -52c0 -28 -23 -52 -52 -52zM-52 606c-28 0 -52 24 -52 52c0 29 24 52 52 52c29 0 52 -23 52 -52c0 -28 -23 -52 -52 -52z" />
    <glyph glyph-name="uni0307" unicode="&#x307;" horiz-adv-x="0" 
d="M-60 591c-33 0 -60 27 -60 60s27 60 60 60s60 -27 60 -60s-27 -60 -60 -60z" />
    <glyph glyph-name="gravecomb" unicode="&#x300;" horiz-adv-x="0" 
d="M-5 570l-195 200h110l90 -195z" />
    <glyph glyph-name="acutecomb" unicode="&#x301;" horiz-adv-x="0" 
d="M-195 570l-5 5l90 195h110z" />
    <glyph glyph-name="uni030B" unicode="&#x30b;" horiz-adv-x="0" 
d="M-335 570l-5 5l70 195h100zM-165 570l-5 5l70 195h100z" />
    <glyph glyph-name="uni0302" unicode="&#x302;" horiz-adv-x="0" 
d="M-165 785l165 -220l-5 -5l-160 130l-160 -130l-5 5z" />
    <glyph glyph-name="uni030C" unicode="&#x30c;" horiz-adv-x="0" 
d="M-5 785l5 -5l-165 -220l-165 220l5 5l160 -130z" />
    <glyph glyph-name="uni0306" unicode="&#x306;" horiz-adv-x="0" 
d="M-5 775l5 -5c-5 -112 -80 -180 -155 -180s-150 68 -155 180l5 5c43 -92 97 -115 150 -115s107 23 150 115z" />
    <glyph glyph-name="uni030A" unicode="&#x30a;" horiz-adv-x="0" 
d="M-122 561c-66 0 -122 55 -122 120c0 66 56 122 122 122s122 -56 122 -122c0 -65 -56 -120 -122 -120zM-122 597c47 0 82 38 82 84c0 48 -35 86 -82 86s-82 -38 -82 -86c0 -46 35 -84 82 -84z" />
    <glyph glyph-name="tildecomb" unicode="&#x303;" horiz-adv-x="0" 
d="M-98 720c63 0 95 -56 98 -127h-5c-19 45 -52 57 -77 57c-55 0 -97 -57 -160 -57s-95 56 -98 127h5c19 -45 52 -57 77 -57c55 0 97 57 160 57z" />
    <glyph glyph-name="uni0304" unicode="&#x304;" horiz-adv-x="0" 
d="M-306 681h306v-65h-306v65z" />
    <glyph glyph-name="uni0312" unicode="&#x312;" horiz-adv-x="0" 
 />
    <glyph glyph-name="uni0326" unicode="&#x326;" horiz-adv-x="0" 
d="M-46 -65c27 0 50 -17 50 -64c0 -69 -58 -117 -118 -139l-2 4c41 26 58 59 58 89c0 26 -14 50 -35 65c0 22 18 45 47 45z" />
    <glyph glyph-name="uni0327" unicode="&#x327;" horiz-adv-x="0" 
d="M-98 -67c72 -23 98 -56 98 -98c0 -55 -46 -85 -99 -85c-65 0 -94 44 -106 83l5 5c23 -16 50 -28 78 -28c27 0 47 12 47 43c0 24 -12 44 -66 67l32 80h38z" />
    <glyph glyph-name="uni0328" unicode="&#x328;" horiz-adv-x="0" 
d="M-69 20h25c-58 -45 -101 -99 -101 -145c0 -47 25 -60 56 -60c22 0 41 7 64 23l5 -5c-12 -40 -44 -83 -105 -83c-59 0 -95 40 -95 97c0 63 64 120 151 173z" />
    <glyph glyph-name="uni0335" unicode="&#x335;" horiz-adv-x="0" 
d="M-579 395h340v-45h-340v45z" />
    <glyph glyph-name="uni0336" unicode="&#x336;" horiz-adv-x="0" 
d="M-580 293h510v-45h-510v45z" />
    <glyph glyph-name="uni0338" unicode="&#x338;" horiz-adv-x="0" 
 />
    <glyph glyph-name="acute" unicode="&#xb4;" horiz-adv-x="250" 
d="M5 550l-5 5l130 155h120z" />
    <glyph glyph-name="breve" unicode="&#x2d8;" horiz-adv-x="310" 
d="M305 705l5 -5c-5 -82 -70 -150 -155 -150s-150 68 -155 150l5 5c43 -62 87 -85 150 -85s107 23 150 85z" />
    <glyph glyph-name="caron" unicode="&#x2c7;" horiz-adv-x="330" 
d="M325 715l5 -5l-165 -180l-165 180l5 5l160 -90z" />
    <glyph glyph-name="cedilla" unicode="&#xb8;" horiz-adv-x="600" 
 />
    <glyph glyph-name="circumflex" unicode="&#x2c6;" horiz-adv-x="330" 
d="M165 735l165 -180l-5 -5l-160 90l-160 -90l-5 5z" />
    <glyph glyph-name="dieresis" unicode="&#xa8;" horiz-adv-x="304" 
d="M52 566c-28 0 -52 24 -52 52c0 29 24 52 52 52c29 0 52 -23 52 -52c0 -28 -23 -52 -52 -52zM253 566c-28 0 -52 24 -52 52c0 29 24 52 52 52c29 0 52 -23 52 -52c0 -28 -23 -52 -52 -52z" />
    <glyph glyph-name="dotaccent" unicode="&#x2d9;" horiz-adv-x="120" 
d="M60 561c-33 0 -60 27 -60 60s27 60 60 60s60 -27 60 -60s-27 -60 -60 -60z" />
    <glyph glyph-name="grave" unicode="`" horiz-adv-x="250" 
d="M245 550l-245 160h120l130 -155z" />
    <glyph glyph-name="hungarumlaut" unicode="&#x2dd;" horiz-adv-x="400" 
d="M5 550l-5 5l90 155h120zM195 550l-5 5l90 155h120z" />
    <glyph glyph-name="macron" unicode="&#xaf;" horiz-adv-x="346" 
d="M0 651h346v-65h-346v65z" />
    <glyph glyph-name="ogonek" unicode="&#x2db;" horiz-adv-x="210" 
d="M144 0c-63 -41 -94 -82 -94 -129c0 -41 24 -56 56 -56c22 0 41 7 64 23l5 -5c-12 -40 -44 -83 -105 -83c-58 0 -95 40 -95 94c0 57 30 106 111 156h58z" />
    <glyph glyph-name="ring" unicode="&#x2da;" horiz-adv-x="244" 
d="M122 511c-66 0 -122 55 -122 120c0 66 56 122 122 122s122 -56 122 -122c0 -65 -56 -120 -122 -120zM122 549c47 0 82 36 82 82c0 48 -35 84 -82 84s-82 -36 -82 -84c0 -46 35 -82 82 -82z" />
    <glyph glyph-name="tilde" unicode="&#x2dc;" horiz-adv-x="360" 
d="M262 680c63 0 95 -56 98 -127h-5c-19 45 -52 57 -77 57c-55 0 -117 -57 -180 -57s-95 56 -98 127h5c19 -45 52 -57 77 -57c55 0 117 57 180 57z" />
    <glyph glyph-name="com_infinity" horiz-adv-x="740" 
d="M540 556c108 0 180 -68 180 -171c0 -72 -55 -176 -180 -176c-84 0 -135 58 -179 120c-38 -64 -83 -120 -161 -120c-108 0 -180 68 -180 171c0 72 55 176 180 176c86 0 135 -55 176 -115c40 62 88 115 164 115zM540 289c56 0 118 37 118 105c0 72 -47 112 -118 112
c-64 0 -103 -48 -137 -105c38 -59 75 -112 137 -112zM200 259c58 0 96 51 132 111c-39 56 -76 106 -132 106s-118 -37 -118 -105c0 -72 47 -112 118 -112z" />
    <glyph glyph-name="long_f" horiz-adv-x="330" 
d="M200 555v-75h240l-31 -60h-209v-360l120 -60h-290l80 60v360h-100l100 75v30c0 183 106 255 216 255c53 0 99 -12 134 -30l-65 -87l-89 77c-71 -6 -106 -76 -106 -185z" />
    </font>
</defs>
</svg>
