<svg width="143" height="143" viewBox="0 0 143 143" fill="none" xmlns="http://www.w3.org/2000/svg">
<g opacity="0.5">
<path d="M70.7287 84.8416C78.14 84.8416 84.1481 78.8335 84.1481 71.4222C84.1481 64.0109 78.14 58.0028 70.7287 58.0028C63.3174 58.0028 57.3093 64.0109 57.3093 71.4222C57.3093 78.8335 63.3174 84.8416 70.7287 84.8416Z" fill="#638181"/>
<path d="M57.6226 142.858H57.3094C43.7397 140.312 31.1726 133.963 21.0716 124.551C10.9705 115.139 3.75127 103.051 0.254617 89.6949C0.217903 89.5481 0.210496 89.3954 0.232776 89.2457C0.255055 89.096 0.306624 88.9521 0.384505 88.8223C0.462387 88.6925 0.565042 88.5793 0.686668 88.4892C0.808295 88.399 0.946474 88.3338 1.09333 88.2971C1.24018 88.2603 1.39285 88.2529 1.54258 88.2752C1.69231 88.2975 1.83616 88.349 1.96596 88.4269C2.09577 88.5048 2.209 88.6075 2.29911 88.7291C2.38923 88.8507 2.45447 88.9889 2.49118 89.1358C5.89831 102.065 12.9042 113.762 22.695 122.868C32.4858 131.974 44.6594 138.115 57.8015 140.577C58.0916 140.631 58.3485 140.798 58.5161 141.041C58.6837 141.284 58.7484 141.583 58.6961 141.874C58.6599 142.137 58.5328 142.38 58.3368 142.56C58.1408 142.739 57.8882 142.845 57.6226 142.858Z" fill="#638181"/>
<path d="M1.97676 52.6351H1.686C1.40047 52.5517 1.15883 52.36 1.0126 52.1009C0.866364 51.8419 0.827088 51.536 0.903186 51.2484C4.56607 38.4949 11.6614 26.9924 21.4151 17.996C31.1688 8.99954 43.2061 2.85483 56.2135 0.23236C56.5035 0.178953 56.8029 0.239989 57.049 0.402621C57.295 0.565253 57.4685 0.816837 57.533 1.10462C57.5624 1.24854 57.5632 1.39686 57.5353 1.54107C57.5074 1.68529 57.4513 1.82257 57.3703 1.94511C57.2893 2.06765 57.1849 2.17305 57.0632 2.25525C56.9414 2.33746 56.8047 2.39484 56.6607 2.42418C44.0371 4.94702 32.3513 10.8954 22.8834 19.6177C13.4155 28.34 6.53067 39.4998 2.98318 51.8747C2.9088 52.0863 2.77369 52.2714 2.59467 52.4067C2.41565 52.5419 2.20072 52.6214 1.97676 52.6351Z" fill="#638181"/>
<path d="M140.733 57.6675C140.479 57.6686 140.231 57.5828 140.032 57.4241C139.833 57.2655 139.693 57.0437 139.637 56.7952C136.799 43.246 130.016 30.8391 120.142 21.1363C110.269 11.4335 97.745 4.86856 84.1482 2.26774C84.0014 2.23984 83.8614 2.18328 83.7364 2.1013C83.6114 2.01932 83.5039 1.91353 83.4197 1.78996C83.3356 1.66638 83.2767 1.52746 83.2462 1.38111C83.2158 1.23476 83.2145 1.08383 83.2424 0.936978C83.2703 0.790123 83.3268 0.650197 83.4088 0.525198C83.4908 0.4002 83.5966 0.292575 83.7202 0.208463C83.8438 0.124351 83.9827 0.0654144 84.129 0.0349939C84.2754 0.00457345 84.4263 0.00326917 84.5732 0.0311716C98.5968 2.71811 111.513 9.49191 121.697 19.5006C131.88 29.5093 138.877 42.3058 141.807 56.2808C141.84 56.4233 141.844 56.571 141.818 56.7151C141.793 56.8592 141.739 56.9968 141.66 57.1198C141.581 57.2428 141.478 57.3486 141.357 57.4312C141.236 57.5137 141.1 57.5713 140.957 57.6004L140.733 57.6675Z" fill="#638181"/>
<path d="M86.0718 142.388C85.7752 142.421 85.4778 142.335 85.245 142.148C85.0122 141.961 84.8631 141.69 84.8305 141.393C84.7979 141.097 84.8844 140.799 85.0711 140.566C85.2577 140.334 85.5292 140.184 85.8258 140.152C99.4907 137.198 111.959 130.222 121.625 120.122C131.291 110.021 137.712 97.2588 140.062 83.4773C140.113 83.1807 140.279 82.9163 140.524 82.7422C140.77 82.5682 141.074 82.4987 141.371 82.5491C141.667 82.5996 141.932 82.7657 142.106 83.0111C142.28 83.2564 142.349 83.5609 142.299 83.8575C139.876 98.0739 133.258 111.241 123.294 121.667C113.33 132.093 100.477 139.301 86.3849 142.366L86.0718 142.388Z" fill="#638181"/>
<path d="M11.8625 62.0958L20.6969 62.9457C21.249 62.966 21.7896 63.1091 22.2793 63.3648C22.769 63.6205 23.1955 63.9822 23.5276 64.4237C23.8598 64.8651 24.0892 65.3751 24.1992 65.9165C24.3093 66.4579 24.2971 67.017 24.1636 67.5531C24.1428 68.4134 23.8626 69.2474 23.3598 69.9458C22.8569 70.6442 22.1549 71.1744 21.3456 71.467L19.8918 69.387C21.2561 68.9621 21.9494 68.4477 22.1283 67.3517C22.3072 66.2558 21.4797 65.6072 20.0483 65.473L11.6836 64.6679L11.8625 62.0958Z" fill="#638181"/>
<path d="M24.2083 53.5297C24.8793 53.731 25.1476 53.5297 25.2818 53.1048C25.3254 52.9058 25.3254 52.6998 25.2818 52.5009L27.0487 53.0377C27.1428 53.5252 27.0963 54.0294 26.9145 54.4914C26.8474 54.9921 26.5882 55.4472 26.1916 55.7602C25.7951 56.0732 25.2924 56.2198 24.7898 56.1688C25.2412 56.5561 25.555 57.0794 25.684 57.66C25.8131 58.2406 25.7504 58.8475 25.5055 59.3895C25.4388 59.7578 25.2933 60.1072 25.0789 60.414C24.8646 60.7207 24.5864 60.9774 24.2634 61.1665C23.9405 61.3556 23.5804 61.4726 23.208 61.5095C22.8356 61.5463 22.4597 61.5022 22.1059 61.38C20.0035 60.7538 19.3549 58.7186 20.6969 55.1177L19.6904 54.8046C19.5192 54.7226 19.3318 54.68 19.142 54.6797C18.9521 54.6794 18.7647 54.7216 18.5932 54.803C18.4217 54.8844 18.2706 55.0031 18.1509 55.1504C18.0312 55.2978 17.9458 55.4699 17.9012 55.6544C17.8365 55.8392 17.8116 56.0356 17.8283 56.2306C17.8449 56.4257 17.9027 56.615 17.9977 56.7862C18.0928 56.9573 18.223 57.1064 18.3798 57.2235C18.5367 57.3407 18.7165 57.4234 18.9076 57.4661L17.767 59.7026C15.8212 58.9422 15.5304 56.974 16.0895 54.9835C16.6487 52.9929 18.1024 51.6734 20.2048 52.322L24.2083 53.5297ZM22.1059 55.5426C21.3902 57.6226 21.6809 58.6067 22.6203 58.8975C22.7731 58.9443 22.9341 58.9585 23.0928 58.9391C23.2515 58.9197 23.4043 58.8672 23.5414 58.785C23.6784 58.7027 23.7967 58.5926 23.8885 58.4617C23.9802 58.3308 24.0435 58.1821 24.0741 58.0252C24.173 57.8225 24.2288 57.6015 24.2381 57.3762C24.2474 57.1508 24.2099 56.926 24.128 56.7158C24.046 56.5057 23.9214 56.3148 23.762 56.1552C23.6026 55.9956 23.4118 55.8708 23.2018 55.7886L22.1059 55.5426Z" fill="#638181"/>
<path d="M18.3708 48.8777L19.6681 46.4846L24.5661 47.4686C25.6238 47.677 26.6633 47.9686 27.675 48.3409C26.8015 47.6563 25.9792 46.9088 25.2147 46.1043L21.7257 42.5482L22.9559 40.3116L29.9562 48.0278L28.6144 50.5104L18.3708 48.8777Z" fill="#638181"/>
<path d="M34.6977 36.9568C35.2568 37.4041 35.5923 37.3147 35.8831 36.9568C36.0033 36.795 36.0941 36.6133 36.1515 36.4201L37.5828 37.6054C37.4732 38.086 37.2333 38.527 36.8895 38.8803C36.632 39.3163 36.2164 39.6363 35.729 39.7738C35.2417 39.9112 34.7201 39.8556 34.2727 39.6183C34.5415 40.1469 34.6323 40.7483 34.5316 41.3327C34.4308 41.9171 34.1439 42.4533 33.7136 42.8614C33.5064 43.1754 33.2345 43.4415 32.916 43.6419C32.5976 43.8422 32.24 43.9722 31.8672 44.023C31.4944 44.0738 31.1151 44.0444 30.7546 43.9366C30.3942 43.8288 30.0609 43.6452 29.7772 43.3981C28.0998 41.9891 28.2787 39.8867 30.8955 37.0687L30.0903 36.3977C29.9731 36.2488 29.8237 36.1285 29.6532 36.0457C29.4827 35.963 29.2958 35.92 29.1063 35.92C28.9168 35.92 28.7298 35.963 28.5593 36.0457C28.3888 36.1285 28.2394 36.2488 28.1222 36.3977C27.9912 36.5428 27.8924 36.7139 27.8322 36.8998C27.7721 37.0858 27.7519 37.2823 27.773 37.4766C27.7941 37.6709 27.856 37.8585 27.9548 38.0272C28.0535 38.1959 28.1867 38.3418 28.3458 38.4553L26.4224 40.0656C24.9015 38.6342 25.3712 36.6885 26.7131 35.0558C28.0551 33.4231 29.8443 32.8192 31.5441 34.2059L34.6977 36.9568ZM31.9914 37.9857C30.5376 39.6407 30.4258 40.6695 31.1863 41.2958C31.3078 41.4012 31.4507 41.4792 31.6052 41.5244C31.7597 41.5696 31.9222 41.5809 32.0814 41.5576C32.2407 41.5342 32.393 41.4767 32.528 41.3891C32.663 41.3015 32.7775 41.1857 32.8637 41.0497C33.1483 40.747 33.3068 40.347 33.3068 39.9315C33.3068 39.5159 33.1483 39.116 32.8637 38.8132L31.9914 37.9857Z" fill="#638181"/>
<path d="M41.9666 33.9821L35.3911 23.336L39.1261 21.0995C39.7788 20.5874 40.5388 20.2295 41.3493 20.0527C42.1597 19.8758 42.9998 19.8845 43.8064 20.0781C44.6131 20.2717 45.3655 20.6452 46.0074 21.1706C46.6494 21.6961 47.1641 22.3599 47.5133 23.1124C48.05 23.7817 48.4295 24.5632 48.6236 25.399C48.8177 26.2347 48.8215 27.1034 48.6347 27.9409C48.4479 28.7783 48.0752 29.563 47.5443 30.2371C47.0134 30.9111 46.3378 31.4572 45.5675 31.835L41.9666 33.9821ZM44.2032 30.0457C44.6942 29.8164 45.1242 29.4745 45.4583 29.0478C45.7923 28.621 46.0209 28.1214 46.1255 27.5897C46.2301 27.0579 46.2077 26.509 46.0603 25.9875C45.9128 25.466 45.6443 24.9867 45.2767 24.5885C43.6216 21.9046 41.8548 21.8823 40.0655 23.0006L38.7236 23.8281L43.0177 30.7838L44.2032 30.0457Z" fill="#638181"/>
<path d="M57.0186 23.1794H59.2551C59.292 24.0819 59.0026 24.9674 58.4399 25.6738C57.8772 26.3803 57.0788 26.8604 56.191 27.0263C55.5818 27.2564 54.9296 27.3507 54.2801 27.3026C53.6306 27.2545 52.9995 27.0652 52.4308 26.7478C51.8621 26.4304 51.3696 25.9927 50.9877 25.4652C50.6057 24.9377 50.3435 24.3332 50.2194 23.6939C49.9163 23.0956 49.7482 22.438 49.7269 21.7677C49.7056 21.0973 49.8316 20.4305 50.096 19.8141C50.3605 19.1978 50.757 18.6469 51.2575 18.2005C51.758 17.754 52.3503 17.4228 52.9928 17.2302C53.516 17.0186 54.0793 16.9247 54.6428 16.9552C55.2064 16.9857 55.7563 17.1398 56.2536 17.4066C56.7509 17.6734 57.1835 18.0464 57.5205 18.499C57.8576 18.9517 58.0909 19.473 58.2039 20.0259C58.3636 20.4408 58.4543 20.879 58.4723 21.3231L52.6573 23.2466C53.2388 24.7898 54.29 25.5949 55.6543 25.1476C56.0873 25.0508 56.4679 24.7946 56.7207 24.4299C56.9735 24.0653 57.0798 23.6189 57.0186 23.1794ZM55.8779 20.585C55.8779 20.4285 55.8779 20.3614 55.8779 20.2272C55.8235 19.9935 55.7197 19.7742 55.5734 19.5841C55.4271 19.3939 55.2416 19.2374 55.0296 19.1251C54.8176 19.0127 54.584 18.9471 54.3446 18.9328C54.1051 18.9184 53.8652 18.9556 53.6413 19.0418C53.1272 19.2562 52.7116 19.6547 52.4758 20.1594C52.24 20.664 52.2011 21.2385 52.3665 21.7704L55.8779 20.585Z" fill="#638181"/>
<path d="M58.9199 15.6422L61.6038 15.3291L63.639 19.8023C64.0783 20.7957 64.4446 21.8197 64.735 22.8663C64.7517 21.787 64.8489 20.7105 65.0258 19.6457L65.9204 14.7029L68.5148 14.3898L66.2782 24.5662L63.4825 24.9016L58.9199 15.6422Z" fill="#638181"/>
<path d="M76.6782 21.6363L78.7806 22.4862C78.4671 23.3348 77.8578 24.0418 77.0648 24.4774C76.2719 24.9129 75.3484 25.0477 74.4641 24.857C73.814 24.8344 73.1766 24.6704 72.5965 24.3762C72.0163 24.0821 71.5073 23.665 71.1048 23.154C70.7024 22.643 70.4163 22.0503 70.2664 21.4174C70.1165 20.7845 70.1064 20.1264 70.2369 19.4892C70.4829 16.1344 72.4735 14.3675 75.2916 14.5911C75.8458 14.5961 76.3924 14.7214 76.8934 14.9585C77.3945 15.1956 77.838 15.5388 78.1932 15.9642C78.5485 16.3897 78.807 16.8873 78.9509 17.4226C79.0948 17.9578 79.1206 18.518 79.0266 19.0643C79.0073 19.5135 78.9245 19.9578 78.7806 20.3838L72.6524 19.9142C72.6524 21.5692 73.2786 22.7099 74.7101 22.8217C75.1256 22.8912 75.5522 22.8099 75.9131 22.5926C76.274 22.3752 76.5454 22.0361 76.6782 21.6363ZM76.6782 18.7959C76.6782 18.6393 76.6782 18.5498 76.6782 18.438C76.7164 18.2008 76.7038 17.9581 76.6412 17.7261C76.5787 17.4941 76.4677 17.2779 76.3155 17.0919C76.1634 16.9059 75.9735 16.7543 75.7584 16.6471C75.5434 16.5399 75.308 16.4794 75.0679 16.4698C73.9049 16.4698 73.0997 17.1855 72.8313 18.5051L76.6782 18.7959Z" fill="#638181"/>
<path d="M83.947 26.2437C83.4448 26.2656 82.9418 26.2281 82.4484 26.1319C82.1108 26.1049 81.7837 26.0015 81.4918 25.8297C81.2 25.6578 80.951 25.4219 80.7636 25.1398C80.5762 24.8576 80.4553 24.5366 80.4101 24.2009C80.3649 23.8652 80.3966 23.5236 80.5026 23.202L83.2983 11.5271L85.7586 12.1086L83.1194 23.1125C83.0822 23.2259 83.0705 23.3462 83.0855 23.4646C83.1004 23.583 83.1414 23.6966 83.2056 23.7972C83.2698 23.8978 83.3556 23.9829 83.4568 24.0463C83.5579 24.1097 83.6718 24.1498 83.7904 24.1637C84.0408 24.2196 84.3004 24.2196 84.5508 24.1637L83.947 26.2437Z" fill="#638181"/>
<path d="M86.586 21.7481C86.7784 21.1233 87.0998 20.5458 87.5293 20.0529C87.9588 19.56 88.487 19.1627 89.0796 18.8867C89.6722 18.6106 90.3161 18.4619 90.9697 18.4502C91.6234 18.4385 92.2723 18.5641 92.8744 18.8188C93.4765 19.0734 94.0185 19.4516 94.4654 19.9288C94.9123 20.406 95.2541 20.9716 95.4687 21.5891C95.6834 22.2067 95.7661 22.8624 95.7115 23.5138C95.657 24.1653 95.4665 24.7982 95.1521 25.3714C94.9597 25.9962 94.6383 26.5737 94.2088 27.0666C93.7793 27.5595 93.2512 27.9568 92.6586 28.2329C92.0659 28.5089 91.422 28.6576 90.7683 28.6693C90.1147 28.681 89.4659 28.5555 88.8638 28.3008C88.2616 28.0461 87.7196 27.668 87.2727 27.1908C86.8259 26.7136 86.484 26.1479 86.2694 25.5304C86.0547 24.9129 85.972 24.2572 86.0265 23.6057C86.0811 22.9542 86.2717 22.3214 86.586 21.7481ZM88.8226 22.7322C87.9727 24.7451 88.2188 25.9752 89.5607 26.5344C90.9026 27.0935 91.9538 26.4226 92.8037 24.2978C93.6536 22.1731 93.3181 21.189 91.9985 20.6299C90.679 20.0707 89.6949 20.8088 88.8897 22.7322H88.8226Z" fill="#638181"/>
<path d="M93.9669 35.6372L91.9316 34.1834L100.14 22.6875L101.884 23.94L101.034 25.6621C101.608 25.2615 102.297 25.06 102.995 25.0883C103.694 25.1165 104.365 25.3731 104.904 25.8187C106.85 27.2053 106.961 29.4643 105.127 32.014C103.293 34.5637 100.766 35.503 98.5742 33.9598C98.0859 33.67 97.6965 33.2395 97.4571 32.7247C97.2176 32.2099 97.1393 31.6347 97.2323 31.0746L93.9669 35.6372ZM98.7755 28.9275C98.5695 29.1408 98.412 29.3961 98.3138 29.6759C98.2156 29.9557 98.1791 30.2535 98.2067 30.5487C98.2343 30.844 98.3254 31.1297 98.4738 31.3865C98.6221 31.6433 98.8243 31.8649 99.0663 32.0363C100.117 32.7744 101.616 32.5507 102.936 30.7168C104.255 28.8828 104.054 27.6974 102.936 26.9146C102.675 26.7277 102.378 26.5989 102.063 26.5369C101.749 26.475 101.425 26.4813 101.113 26.5556C100.801 26.6298 100.509 26.7702 100.256 26.9672C100.003 27.1642 99.7959 27.4132 99.6478 27.6974L98.7755 28.9275Z" fill="#638181"/>
<path d="M109.421 39.5289L110.338 41.6088C109.527 42.0051 108.6 42.0943 107.729 41.86C106.857 41.6256 106.1 41.0836 105.597 40.334C105.158 39.8698 104.824 39.317 104.617 38.7129C104.41 38.1088 104.335 37.4674 104.396 36.8317C104.457 36.1961 104.654 35.5809 104.973 35.0277C105.292 34.4744 105.726 33.9959 106.245 33.6243C108.75 31.3878 111.39 31.3878 113.313 33.6243C113.71 34.022 114.015 34.5013 114.208 35.0288C114.401 35.5564 114.476 36.1196 114.429 36.6794C114.383 37.2391 114.214 37.7819 113.937 38.2701C113.659 38.7583 113.278 39.1802 112.821 39.5065C112.501 39.8154 112.139 40.0788 111.747 40.2893L107.632 35.8161C106.469 36.9568 106.156 38.254 107.118 39.3052C107.411 39.6134 107.805 39.8056 108.228 39.8467C108.651 39.8878 109.075 39.775 109.421 39.5289ZM111.345 37.4265L111.613 37.2028C111.807 37.0603 111.968 36.8778 112.085 36.6677C112.201 36.4576 112.272 36.2248 112.291 35.9851C112.31 35.7454 112.277 35.5044 112.195 35.2785C112.113 35.0525 111.983 34.8469 111.815 34.6755C111.402 34.2983 110.864 34.0891 110.305 34.0891C109.746 34.0891 109.207 34.2983 108.795 34.6755L111.345 37.4265Z" fill="#638181"/>
<path d="M118.725 46.015C118.641 45.679 118.497 45.3609 118.301 45.0756C118.13 44.7659 117.896 44.496 117.613 44.2841C117.33 44.0723 117.005 43.9232 116.66 43.847C116.315 43.7708 115.958 43.7691 115.612 43.8421C115.266 43.9152 114.94 44.0612 114.655 44.2705L110.696 46.7307L109.354 44.4941L117.719 39.3276L118.86 41.184L116.735 42.8391C117.569 42.4887 118.507 42.4826 119.345 42.822C120.183 43.1615 120.853 43.8189 121.208 44.6507L118.725 46.015Z" fill="#638181"/>
<path d="M116.288 50.6893C115.891 50.9272 115.603 51.3092 115.482 51.7553C115.361 52.2014 115.417 52.677 115.639 53.0824C115.997 53.9323 116.511 54.402 117.16 54.1336C117.809 53.8652 117.898 53.4179 117.764 52.4338L117.54 50.9801C117.333 50.3007 117.396 49.5674 117.717 48.9337C118.038 48.3001 118.592 47.8152 119.262 47.5805C121.499 46.6635 122.863 48.1843 123.601 50.0183C124.339 51.8523 124.205 53.6639 122.505 54.4914L121.275 52.3891C122.036 51.9865 122.148 51.4273 121.79 50.5775C121.432 49.7276 120.962 49.4816 120.403 49.7276C119.844 49.9736 119.687 50.3314 119.844 51.1142L120.068 52.5233C120.322 53.2653 120.277 54.077 119.943 54.7867C119.609 55.4963 119.012 56.0482 118.278 56.3254C116.288 57.1306 114.856 55.8334 113.984 53.6863C113.112 51.5392 113.201 49.9736 114.767 48.9672L116.288 50.6893Z" fill="#638181"/>
<path d="M129.797 55.4978L130.423 57.958L124.899 58.2935L124.518 56.8174L129.797 55.4978Z" fill="#638181"/>
<path d="M120.135 77.8188C119.211 77.3008 118.461 76.5211 117.98 75.5779C117.498 74.6347 117.306 73.5701 117.428 72.5182C117.428 69.141 119.866 66.882 124.026 66.9491C124.871 66.8519 125.726 66.9418 126.532 67.2123C127.338 67.4828 128.074 67.9273 128.689 68.5143C129.304 69.1013 129.782 69.8164 130.089 70.6088C130.396 71.4013 130.526 72.2517 130.468 73.0997C130.52 74.1522 130.236 75.1941 129.657 76.0747C129.078 76.9553 128.234 77.6288 127.247 77.9977L126.106 75.5152C126.702 75.409 127.241 75.0942 127.626 74.627C128.012 74.1599 128.218 73.5709 128.209 72.9655C128.209 70.9078 126.621 69.6554 123.937 69.6106C121.253 69.5659 119.732 70.6394 119.71 72.8089C119.678 73.4149 119.832 74.0161 120.152 74.5318C120.472 75.0475 120.942 75.4531 121.499 75.6941L120.135 77.8188Z" fill="#638181"/>
<path d="M122.17 79.4068C122.846 79.4609 123.503 79.6617 124.094 79.9954C124.686 80.3291 125.197 80.7875 125.593 81.3388C125.989 81.8902 126.261 82.5212 126.388 83.188C126.516 83.8548 126.497 84.5414 126.332 85.2C126.167 85.8586 125.861 86.4735 125.435 87.0018C125.008 87.5301 124.472 87.9592 123.863 88.2593C123.254 88.5594 122.587 88.7232 121.908 88.7394C121.23 88.7556 120.556 88.6237 119.933 88.353C119.256 88.2989 118.6 88.098 118.008 87.7644C117.417 87.4307 116.906 86.9722 116.51 86.4209C116.113 85.8696 115.842 85.2386 115.715 84.5718C115.587 83.905 115.606 83.2184 115.771 82.5597C115.936 81.9011 116.242 81.2863 116.668 80.758C117.094 80.2296 117.631 79.8005 118.24 79.5004C118.849 79.2004 119.516 79.0366 120.194 79.0204C120.873 79.0042 121.547 79.136 122.17 79.4068ZM121.566 81.8222C119.463 81.3078 118.278 81.8222 117.92 83.1418C117.562 84.4614 118.412 85.3784 120.515 86.027C122.617 86.6756 123.691 86.027 124.026 84.6627C124.362 83.2984 123.668 82.3366 121.633 81.8222H121.566Z" fill="#638181"/>
<path d="M120.649 94.3246C121.144 94.8023 121.464 95.4326 121.557 96.1142C121.651 96.7958 121.512 97.4889 121.163 98.0821C121.004 98.4549 120.765 98.7882 120.463 99.0587C120.161 99.3291 119.803 99.5301 119.415 99.6473C119.027 99.7646 118.618 99.7954 118.217 99.7375C117.816 99.6796 117.432 99.5344 117.093 99.3122L110.987 96.2034L112.105 93.9668L117.54 96.673C118.547 97.1651 119.352 97.1427 119.777 96.2034C120.202 95.264 120.157 94.1904 118.502 93.3406L113.581 90.9027L114.722 88.6661L123.489 93.1393L122.55 95.0403L120.649 94.3246Z" fill="#638181"/>
<path d="M116.578 101.616L118.166 102.779L117.294 103.942L117.987 104.456C118.421 104.715 118.792 105.067 119.072 105.487C119.352 105.907 119.534 106.385 119.605 106.885C119.675 107.385 119.633 107.895 119.481 108.376C119.329 108.858 119.071 109.299 118.725 109.668C118.269 110.292 117.691 110.817 117.026 111.211L115.55 109.623C116.079 109.403 116.536 109.039 116.869 108.572C117.384 107.878 117.428 107.185 116.422 106.335L115.796 105.888L114.297 107.901L112.709 106.715L114.208 104.702L107.923 100.028L109.421 98.015L115.728 102.689L116.578 101.616Z" fill="#638181"/>
<path d="M103.942 108.974L101.884 109.981C101.465 109.182 101.347 108.258 101.552 107.379C101.758 106.5 102.272 105.725 103.002 105.194C103.452 104.744 103.992 104.394 104.587 104.169C105.182 103.943 105.818 103.848 106.454 103.888C107.089 103.928 107.708 104.103 108.27 104.402C108.832 104.7 109.323 105.115 109.712 105.619C110.248 106.026 110.689 106.546 111.001 107.142C111.314 107.738 111.491 108.396 111.521 109.068C111.551 109.741 111.433 110.412 111.174 111.033C110.916 111.655 110.523 112.212 110.025 112.664C109.641 113.076 109.172 113.399 108.651 113.611C108.129 113.822 107.568 113.918 107.005 113.89C106.443 113.862 105.894 113.712 105.396 113.45C104.897 113.188 104.462 112.821 104.121 112.374C103.799 112.068 103.527 111.713 103.316 111.323L107.789 107.073C106.603 105.932 105.306 105.664 104.277 106.648C103.946 106.927 103.729 107.318 103.667 107.747C103.605 108.176 103.703 108.613 103.942 108.974ZM106.178 110.83L106.424 111.099C106.582 111.279 106.776 111.424 106.994 111.523C107.212 111.622 107.449 111.673 107.688 111.673C107.927 111.673 108.164 111.622 108.382 111.523C108.6 111.424 108.794 111.279 108.952 111.099C109.329 110.687 109.538 110.148 109.538 109.589C109.538 109.03 109.329 108.492 108.952 108.08L106.178 110.83Z" fill="#638181"/>
<path d="M97.7914 118.524C98.1162 118.408 98.4245 118.25 98.7084 118.055C99.0138 117.876 99.277 117.633 99.4801 117.343C99.6831 117.053 99.8212 116.723 99.8849 116.375C99.9486 116.026 99.9365 115.668 99.8492 115.325C99.7619 114.982 99.6017 114.662 99.3793 114.387L96.7849 110.495L99.0215 109.108L104.277 117.272L102.443 118.48L100.721 116.422C101.088 117.236 101.119 118.161 100.81 118.997C100.5 119.834 99.874 120.516 99.0663 120.895L97.7914 118.524Z" fill="#638181"/>
<path d="M88.6214 118.234L86.3849 118.457C86.2706 117.564 86.481 116.659 86.9777 115.908C87.4744 115.157 88.2244 114.609 89.0911 114.364C89.6763 114.082 90.3161 113.93 90.966 113.919C91.6159 113.909 92.2602 114.04 92.8541 114.304C93.448 114.568 93.9774 114.958 94.4051 115.448C94.8329 115.937 95.1489 116.514 95.3311 117.138C95.6856 117.712 95.9097 118.356 95.9876 119.027C96.0655 119.697 95.9954 120.376 95.782 121.016C95.5687 121.656 95.2175 122.241 94.7531 122.73C94.2887 123.22 93.7225 123.601 93.0946 123.847C92.5973 124.101 92.0509 124.245 91.493 124.267C90.9352 124.29 90.3789 124.192 89.8626 123.979C89.3462 123.767 88.882 123.445 88.5018 123.036C88.1215 122.628 87.8343 122.141 87.6597 121.611C87.4682 121.206 87.3327 120.777 87.2572 120.336L92.8933 117.898C92.1776 116.422 91.0369 115.662 89.7397 116.288C89.3568 116.432 89.036 116.705 88.832 117.06C88.628 117.415 88.5536 117.83 88.6214 118.234ZM90.0081 120.716C90.045 120.831 90.0898 120.943 90.1423 121.052C90.2187 121.267 90.3385 121.465 90.4942 121.633C90.65 121.801 90.8384 121.935 91.048 122.027C91.2575 122.119 91.4836 122.168 91.7125 122.169C91.9414 122.171 92.1682 122.125 92.3789 122.036C92.6312 121.918 92.8577 121.752 93.0452 121.546C93.2327 121.34 93.3774 121.099 93.4711 120.837C93.5647 120.575 93.6054 120.297 93.5906 120.019C93.5759 119.741 93.5061 119.468 93.3853 119.218L90.0081 120.716Z" fill="#638181"/>
<path d="M83.2535 124.921C83.1815 125.604 82.8786 126.243 82.3946 126.731C81.9107 127.219 81.2748 127.527 80.592 127.605C80.2015 127.711 79.7923 127.73 79.3936 127.661C78.9948 127.591 78.6164 127.434 78.2853 127.201C77.9542 126.968 77.6786 126.665 77.4781 126.314C77.2775 125.962 77.1571 125.571 77.1253 125.167L75.761 118.323L78.2435 117.831L79.429 123.78C79.6526 124.899 80.167 125.502 81.2182 125.301C82.2694 125.1 83.0522 124.362 82.672 122.528L81.5984 117.16L84.081 116.668L86.0044 126.285L83.9244 126.71L83.2535 124.921Z" fill="#638181"/>
<path d="M65.7637 120.918C65.9726 120.024 66.5087 119.241 67.2664 118.724C68.0241 118.206 68.9483 117.991 69.8566 118.122C70.5116 118.113 71.1606 118.248 71.7577 118.517C72.3548 118.787 72.8855 119.184 73.3121 119.681C73.7388 120.178 74.0511 120.763 74.227 121.394C74.4028 122.025 74.4378 122.687 74.3297 123.333C74.4254 123.996 74.371 124.672 74.1705 125.311C73.9699 125.95 73.6284 126.536 73.1711 127.026C72.7139 127.515 72.1525 127.896 71.5285 128.139C70.9045 128.383 70.2338 128.483 69.5659 128.432C69.1044 128.485 68.637 128.442 68.193 128.306C67.7489 128.17 67.3377 127.943 66.9851 127.641C66.6324 127.339 66.3459 126.967 66.1434 126.549C65.941 126.131 65.8269 125.676 65.8084 125.212L68.0449 124.675C68.2015 125.771 68.7159 126.397 69.7224 126.419C71.1314 126.419 71.9589 125.212 71.9589 123.311C71.9589 121.41 71.1761 120.135 69.7224 120.112C68.8501 120.112 68.2463 120.493 67.9555 121.611L65.7637 120.918Z" fill="#638181"/>
<path d="M58.1146 119.956L56.1465 118.815C56.5681 118.045 57.2476 117.448 58.0656 117.129C58.8836 116.81 59.7879 116.789 60.6196 117.071C61.2601 117.181 61.8689 117.429 62.4037 117.798C62.9385 118.167 63.3865 118.648 63.7164 119.208C64.0464 119.768 64.2504 120.393 64.3143 121.04C64.3781 121.686 64.3003 122.339 64.0862 122.953C64.0431 123.624 63.8537 124.277 63.5313 124.867C63.2089 125.456 62.7613 125.969 62.22 126.367C61.6787 126.766 61.0567 127.041 60.3978 127.174C59.7388 127.306 59.0587 127.293 58.4053 127.135C57.8495 127.047 57.3195 126.839 56.8523 126.526C56.3851 126.212 55.9919 125.8 55.7001 125.319C55.4084 124.838 55.2252 124.299 55.1632 123.739C55.1012 123.18 55.162 122.614 55.3413 122.08C55.4284 121.646 55.5713 121.225 55.7662 120.828L61.7602 122.103C62.051 120.493 61.5366 119.262 60.1275 118.949C59.7275 118.861 59.3094 118.913 58.9431 119.096C58.5767 119.28 58.2842 119.583 58.1146 119.956ZM57.8015 122.774C57.7938 122.893 57.7938 123.012 57.8015 123.132C57.7158 123.365 57.683 123.614 57.7054 123.862C57.7278 124.109 57.805 124.349 57.9313 124.563C58.0575 124.777 58.2297 124.96 58.4355 125.099C58.6413 125.239 58.8755 125.33 59.1211 125.368C60.2617 125.614 61.1564 124.943 61.6037 123.668L57.8015 122.774Z" fill="#638181"/>
<path d="M44.4939 110.585L51.718 114.588L50.8457 116.154C46.3726 115.997 44.5162 116.534 43.7335 117.92C43.6179 118.09 43.5414 118.283 43.5094 118.486C43.4775 118.688 43.4909 118.895 43.5486 119.092C43.6064 119.289 43.7071 119.471 43.8435 119.624C43.9799 119.777 44.1486 119.898 44.3374 119.978C45.0978 120.381 45.9253 120.202 46.5739 119.106L48.3632 120.716C48.0795 121.141 47.7146 121.505 47.2897 121.787C46.8647 122.07 46.3879 122.266 45.8869 122.364C45.3859 122.462 44.8705 122.459 44.3704 122.357C43.8703 122.254 43.3954 122.054 42.973 121.767C42.5276 121.575 42.1285 121.29 41.8025 120.931C41.4764 120.572 41.231 120.147 41.0827 119.685C40.9344 119.223 40.8866 118.735 40.9427 118.253C40.9987 117.771 41.1572 117.307 41.4075 116.892C42.6152 114.655 45.053 114.275 47.7369 114.923L43.2638 112.508L44.4939 110.585Z" fill="#638181"/>
<path d="M40.1773 113.917C39.4736 114.683 38.5592 115.224 37.5489 115.472C36.5386 115.721 35.4775 115.665 34.4989 115.312C33.5202 114.959 32.6677 114.324 32.0485 113.489C31.4292 112.653 31.0708 111.652 31.0182 110.613C30.9657 109.574 31.2213 108.543 31.753 107.649C32.2848 106.755 33.0689 106.037 34.0069 105.587C34.9449 105.138 35.9949 104.975 37.0251 105.12C38.0553 105.265 39.0197 105.711 39.7971 106.402C40.3487 106.849 40.8001 107.407 41.1217 108.039C41.4434 108.672 41.6282 109.366 41.664 110.075C41.6999 110.784 41.5861 111.492 41.3299 112.154C41.0738 112.816 40.681 113.417 40.1773 113.917ZM38.3657 112.239C38.6786 111.789 38.8546 111.258 38.8724 110.71C38.8902 110.162 38.7491 109.621 38.4661 109.152C38.1831 108.682 37.7702 108.305 37.2774 108.064C36.7845 107.824 36.2327 107.732 35.6885 107.799C35.1444 107.865 34.6311 108.088 34.2107 108.44C33.7902 108.791 33.4806 109.257 33.3191 109.781C33.1576 110.305 33.1511 110.865 33.3005 111.392C33.4499 111.92 33.7487 112.392 34.1609 112.754C34.4586 113.022 34.81 113.224 35.1917 113.345C35.5734 113.467 35.9767 113.506 36.3746 113.459C36.7725 113.412 37.1559 113.282 37.4993 113.075C37.8426 112.869 38.138 112.591 38.3657 112.262V112.239Z" fill="#638181"/>
<path d="M30.2023 95.5549L35.0556 102.265L33.6019 103.316C29.5537 101.213 27.6973 100.945 26.4001 101.862C26.2251 101.968 26.0754 102.111 25.9614 102.281C25.8473 102.451 25.7717 102.644 25.7398 102.847C25.7078 103.049 25.7204 103.256 25.7765 103.453C25.8326 103.649 25.9309 103.832 26.0647 103.987C26.5791 104.68 27.429 104.859 28.5249 104.188L29.4642 106.425C29.027 106.688 28.5422 106.862 28.0375 106.937C27.5328 107.011 27.0183 106.986 26.5235 106.861C26.0288 106.736 25.5636 106.515 25.1548 106.21C24.7459 105.905 24.4015 105.522 24.1412 105.083C23.8193 104.718 23.5788 104.289 23.4358 103.824C23.2928 103.359 23.2506 102.869 23.312 102.386C23.3734 101.904 23.5369 101.44 23.7918 101.025C24.0466 100.611 24.3868 100.256 24.7898 99.9833C26.8474 98.5072 29.2629 99.1781 31.3653 100.9L28.4354 96.8521L30.2023 95.5549Z" fill="#638181"/>
<path d="M26.1763 86.9216L29.576 94.4588L27.9432 95.1969C24.4095 92.3341 22.6426 91.6855 21.2336 92.3341C21.0405 92.4026 20.8647 92.5123 20.7184 92.6556C20.5721 92.799 20.4588 92.9725 20.3864 93.1641C20.314 93.3557 20.2842 93.5608 20.2992 93.7651C20.3142 93.9694 20.3736 94.168 20.4731 94.347C20.831 95.1298 21.6138 95.4876 22.8439 95.0403L23.3135 97.4111C22.832 97.5804 22.3217 97.6528 21.812 97.624C21.3024 97.5952 20.8034 97.4659 20.344 97.2434C19.8845 97.021 19.4737 96.7098 19.135 96.3279C18.7963 95.9459 18.5366 95.5007 18.3707 95.018C18.1269 94.5976 17.9759 94.1299 17.9281 93.6463C17.8803 93.1627 17.9367 92.6745 18.0936 92.2145C18.2504 91.7546 18.504 91.3336 18.8373 90.98C19.1707 90.6264 19.5759 90.3484 20.0258 90.1646C22.2624 89.1134 24.499 90.1646 26.2882 92.4012L24.2305 87.9281L26.1763 86.9216Z" fill="#638181"/>
</g>
</svg>
