<svg width="142" height="40" viewBox="0 0 142 40" fill="none" xmlns="http://www.w3.org/2000/svg">
<path d="M1.41047 1.11996H4.8576V18.389C4.8576 19.3888 4.65389 20.186 4.24648 20.7808C3.83906 21.3756 3.2384 21.8054 2.44449 22.0704C1.88063 22.2593 1.0658 22.3538 0 22.3538V19.6381C0.491909 19.6381 0.849547 19.5381 1.07417 19.3596C1.29879 19.1812 1.41047 18.9079 1.41047 18.5371V1.11996Z" fill="#FDFDFD"/>
<path d="M10.9537 18.5712C10.3003 19.3812 9.62563 19.7861 8.9296 19.7861C8.59446 19.7901 8.26314 19.714 7.9628 19.564C7.66245 19.4139 7.40161 19.1943 7.20164 18.923C6.48469 18.022 6.12622 16.1967 6.12622 13.4472V11.7312C6.12622 9.49801 6.77792 7.78621 8.08131 6.59579C9.0852 5.68716 10.4346 5.23285 12.1295 5.23285H13.5212V15.9187C13.5212 16.5785 13.5864 17.0425 13.7169 17.3108C13.843 17.5754 14.0416 17.798 14.2891 17.9524L12.5549 19.7861C12.2412 19.7276 11.9424 19.6058 11.6765 19.428C11.3826 19.1925 11.1371 18.9015 10.9537 18.5712ZM10.5296 7.97139C10.0694 8.14187 9.68927 8.48006 9.46417 8.91925C9.23328 9.36218 9.11825 10.2501 9.11908 11.5831V14.1964C9.11908 15.8551 9.27218 16.9269 9.57837 17.412C9.62652 17.5018 9.69715 17.5774 9.78323 17.6311C9.86931 17.6848 9.96784 17.7149 10.069 17.7183C10.2355 17.7308 10.4004 17.6783 10.5296 17.5715V7.97139Z" fill="#FDFDFD"/>
<path d="M18.6712 5.38089H21.6214L19.2936 19.7861H16.5568L14.1487 5.38089H17.0725L17.9271 17.0033L18.6712 5.38089Z" fill="#FDFDFD"/>
<path d="M26.7789 18.5712C26.1247 19.3812 25.4496 19.7861 24.7536 19.7861C24.4184 19.7901 24.0871 19.714 23.7868 19.564C23.4864 19.4139 23.2256 19.1943 23.0256 18.923C22.3095 18.022 21.951 16.1967 21.9502 13.4472V11.7312C21.9502 9.49801 22.6019 7.78621 23.9053 6.59579C24.9092 5.68716 26.259 5.23285 27.9547 5.23285H29.3464V15.9187C29.3464 16.5781 29.4104 17.0412 29.5422 17.3108C29.6681 17.575 29.8662 17.7976 30.1131 17.9524L28.3827 19.7874C28.069 19.7287 27.7703 19.6069 27.5042 19.4293C27.209 19.194 26.9626 18.9024 26.7789 18.5712V18.5712ZM26.3586 7.97139C25.8984 8.14187 25.5183 8.48006 25.2932 8.91925C25.0631 9.36218 24.9481 10.2501 24.9481 11.5831V14.1964C24.9481 15.8551 25.1016 16.9269 25.4086 17.412C25.4567 17.5019 25.5273 17.5775 25.6134 17.6313C25.6995 17.685 25.7981 17.715 25.8993 17.7183C26.0654 17.7306 26.2298 17.6781 26.3586 17.5715V7.97139Z" fill="#FDFDFD"/>
<path d="M36.5367 1.11996H37.5557C38.8507 1.11996 39.963 1.28659 40.8924 1.61984C41.8236 1.95439 42.6543 2.52381 43.3055 3.27385C44.0281 4.11982 44.5721 5.10546 44.9042 6.17058C45.289 7.334 45.4819 8.71804 45.4827 10.3227C45.4827 11.967 45.2844 13.4308 44.8879 14.714C44.4914 15.9972 43.9116 17.0328 43.1487 17.8208C42.6374 18.3678 42.0185 18.801 41.3316 19.0926C40.4549 19.4562 39.3895 19.6381 38.1354 19.6381H36.5367V1.11996ZM39.9839 4.22171V16.616C40.2934 16.4642 40.5702 16.2521 40.7983 15.9921C41.1438 15.5526 41.4102 14.9409 41.5976 14.1572C41.785 13.3734 41.8791 12.0952 41.88 10.3227C41.88 8.86821 41.7754 7.6411 41.5663 6.64135C41.419 5.91495 41.1735 5.33198 40.8297 4.89243C40.5968 4.61223 40.3088 4.38384 39.9839 4.22171V4.22171Z" fill="#FDFDFD"/>
<path d="M53.7561 19.571C52.7897 19.8425 51.7704 19.8585 50.7961 19.6176C49.8218 19.3767 48.9254 18.8869 48.1932 18.1954C47.0764 17.1324 46.5176 15.2544 46.5167 12.5614V10.9251C46.5167 8.74335 46.9672 7.1716 47.8682 6.20982C48.4739 5.55935 49.2686 5.23369 50.2525 5.23285C51.4672 5.23285 52.3807 5.62093 52.9931 6.39711C53.6055 7.17328 53.9117 8.1106 53.9117 9.20906C53.9117 10.5277 53.5419 11.5768 52.8024 12.3564C52.0628 13.1359 51.023 13.6775 49.6828 13.9813C49.7028 15.1691 50.0538 16.093 50.7356 16.7527C51.2023 17.2117 51.8305 17.4652 52.4824 17.4576C52.786 17.4576 53.2106 17.3627 53.7561 17.1729V19.571ZM50.3165 7.48924C50.0906 7.7189 49.9081 7.98823 49.7781 8.28397C49.6112 8.76957 49.5309 9.28114 49.541 9.79498V11.6401C49.9661 11.5175 50.3376 11.2535 50.5951 10.8909C50.846 10.5349 50.9715 9.99325 50.9715 9.266C50.9682 8.47127 50.7498 7.87901 50.3165 7.48924Z" fill="#FDFDFD"/>
<path d="M59.1885 5.38089H62.1387L59.8096 19.7861H57.0728L54.6647 5.38089H57.5948L58.4481 17.0033L59.1885 5.38089Z" fill="#FDFDFD"/>
<path d="M69.329 19.571C68.3634 19.8418 67.345 19.8575 66.3716 19.6166C65.3983 19.3757 64.5028 18.8862 63.7712 18.1954C62.651 17.1324 62.0909 15.2544 62.0909 12.5614V10.9251C62.0909 8.74335 62.541 7.1716 63.4412 6.20982C64.0485 5.55935 64.8433 5.23369 65.8254 5.23285C67.0393 5.23285 67.9524 5.62093 68.5648 6.39711C69.1772 7.17328 69.4834 8.1106 69.4834 9.20906C69.4834 10.5277 69.114 11.5768 68.3753 12.3564C67.6366 13.1359 66.598 13.6775 65.2595 13.9813C65.2804 15.1691 65.6318 16.093 66.3136 16.7527C66.5444 16.9801 66.8173 17.1594 67.1168 17.2803C67.4163 17.4013 67.7365 17.4615 68.0591 17.4576C68.3628 17.4576 68.7873 17.3627 69.3328 17.1729L69.329 19.571ZM65.8869 7.48924C65.6607 7.71861 65.4782 7.988 65.3486 8.28397C65.1817 8.76957 65.1014 9.28114 65.1114 9.79498V11.6401C65.5362 11.5174 65.9073 11.2534 66.1643 10.8909C66.4152 10.5349 66.5407 9.99325 66.5407 9.266C66.5407 8.47127 66.3228 7.87901 65.8869 7.48924Z" fill="#FDFDFD"/>
<path d="M70.7709 1.11996H73.7637V16.7135C73.7637 17.1758 73.8315 17.5053 73.967 17.7018C74.1026 17.8993 74.3435 18.0612 74.6873 18.1903L72.4122 19.7861C71.866 19.6494 71.4565 19.4335 71.1837 19.1382C70.911 18.8429 70.7746 18.4211 70.7746 17.8727L70.7709 1.11996Z" fill="#FDFDFD"/>
<path d="M78.7769 5.23285C79.6444 5.23285 80.3806 5.59647 80.9855 6.32371C81.9777 7.52088 82.4738 9.58491 82.4738 12.5158C82.4738 15.4315 81.9718 17.4951 80.9679 18.7067C80.3723 19.4271 79.6411 19.787 78.7744 19.7861C77.9077 19.7853 77.1715 19.4217 76.5658 18.6953C75.5736 17.5065 75.0771 15.4467 75.0763 12.5158C75.0755 9.58491 75.5774 7.52088 76.5821 6.32371C77.1778 5.59647 77.9094 5.23285 78.7769 5.23285ZM78.7769 7.72082C78.6004 7.88705 78.4661 8.09365 78.3854 8.3232C78.3109 8.50544 78.2427 9.11499 78.1808 10.1519C78.088 11.8105 78.0411 12.9014 78.0403 13.4244C78.0403 15.5758 78.2858 16.8746 78.7769 17.3209C78.9426 17.1801 79.0718 17.0007 79.1534 16.7983C79.2161 16.6464 79.2839 16.0065 79.3567 14.8785C79.4604 13.1912 79.5127 12.0889 79.5135 11.5718C79.5135 9.3993 79.268 8.11566 78.7769 7.72082V7.72082Z" fill="#FDFDFD"/>
<path d="M85.0513 5.23285C85.4311 5.32981 85.7965 5.47704 86.138 5.67071C86.3624 5.81235 86.551 6.00472 86.6889 6.2326C87.2385 5.56694 87.7727 5.23369 88.2913 5.23285C88.9455 5.23285 89.5006 5.52433 89.9565 6.10731C90.7095 7.05559 91.088 8.80536 91.0922 11.3566V12.9815C91.0922 15.4206 90.5685 17.2382 89.5211 18.4346C88.8142 19.2445 87.8701 19.695 86.6889 19.7861V22.3538H83.696V7.74993C83.696 7.35594 83.4768 7.03408 83.0385 6.78435L85.0513 5.23285ZM86.6826 7.47152V17.1159C86.8585 17.089 87.0266 17.0246 87.1757 16.9268C87.3248 16.829 87.4515 16.7002 87.5472 16.549C87.9111 15.9803 88.0931 14.916 88.0931 13.3561V10.3796C88.0931 8.9935 87.9467 8.08445 87.6539 7.65249C87.5955 7.55413 87.5132 7.47234 87.4149 7.41479C87.3166 7.35724 87.2053 7.32581 87.0917 7.32346C86.9451 7.32764 86.8038 7.37958 86.6889 7.47152H86.6826Z" fill="#FDFDFD"/>
<path d="M99.3166 19.571C98.351 19.8418 97.3325 19.8575 96.3592 19.6166C95.3858 19.3757 94.4903 18.8862 93.7588 18.1954C92.6377 17.1349 92.0777 15.2569 92.0785 12.5614V10.9251C92.0785 8.74335 92.5286 7.1716 93.4287 6.20982C94.0361 5.55935 94.8308 5.23369 95.813 5.23285C97.0277 5.23285 97.9408 5.62093 98.5524 6.39711C99.1639 7.17328 99.4701 8.1106 99.4709 9.20906C99.4709 10.5277 99.1016 11.5768 98.3629 12.3564C97.6242 13.1359 96.5843 13.6775 95.2433 13.9813C95.2642 15.1691 95.6156 16.093 96.2974 16.7527C96.5281 16.9801 96.8011 17.1594 97.1006 17.2803C97.4001 17.4013 97.7203 17.4615 98.0429 17.4576C98.3474 17.4576 98.772 17.3627 99.3166 17.1729V19.571ZM95.8782 7.48924C95.652 7.71861 95.4695 7.988 95.3399 8.28397C95.173 8.76957 95.0927 9.28114 95.1027 9.79498V11.6401C95.5275 11.5174 95.8986 11.2534 96.1556 10.8909C96.4065 10.5349 96.532 9.99325 96.532 9.266C96.5295 8.47127 96.3116 7.87901 95.8782 7.48924Z" fill="#FDFDFD"/>
<path d="M103.751 7.28929C103.892 7.11758 104.008 6.9262 104.095 6.72108C104.419 6.0782 104.795 5.65426 105.225 5.44925C105.517 5.30498 105.94 5.23285 106.494 5.23285V7.92584C105.732 8.07011 105.131 8.3502 104.692 8.76613C104.065 9.36513 103.752 9.87134 103.753 10.2847V19.6381H100.758V7.92078C100.758 7.46519 100.534 7.09735 100.085 6.81726L101.894 5.23285C102.497 5.40158 102.926 5.61545 103.182 5.87446C103.437 6.13346 103.627 6.60508 103.751 7.28929Z" fill="#FDFDFD"/>
<path d="M106.948 17.2754C107.301 17.5519 107.737 17.7 108.185 17.6955C108.548 17.7125 108.907 17.6065 109.204 17.3943C109.332 17.2962 109.435 17.1679 109.503 17.0205C109.572 16.8732 109.603 16.7114 109.595 16.549C109.595 15.8741 109.198 14.6963 108.404 13.0157C107.453 10.9909 106.978 9.4609 106.979 8.42572C106.979 7.30449 107.263 6.49204 107.832 5.98837C108.401 5.4847 109.135 5.2316 110.033 5.22906C110.587 5.22906 111.25 5.3843 112.023 5.69477V7.67148C111.616 7.41838 111.25 7.29183 110.927 7.29183C110.623 7.28509 110.327 7.38533 110.088 7.5753C109.971 7.67256 109.878 7.79632 109.817 7.93658C109.755 8.07683 109.728 8.22966 109.736 8.38269C109.736 9.02726 110.112 10.1595 110.865 11.7793C111.836 13.8885 112.322 15.4826 112.322 16.5616C112.322 17.6677 112.011 18.4801 111.39 18.999C110.768 19.5179 109.94 19.7773 108.906 19.7773C108.236 19.7765 107.572 19.6477 106.949 19.3976L106.948 17.2754Z" fill="#FDFDFD"/>
<path d="M115.299 0.973175H118.039V3.72185L117.398 6.8856H115.971L115.299 3.72185V0.973175Z" fill="#FDFDFD"/>
<path d="M40.206 37.3583C39.9283 37.5153 39.6132 37.5928 39.295 37.5823C38.3036 37.5823 37.5114 37.1094 36.9183 36.1637C36.3251 35.2179 36.0286 33.8959 36.0286 32.1976C36.0286 30.2985 36.4653 28.8643 37.3386 27.8949C37.9042 27.2697 38.5412 26.9572 39.2498 26.9572C39.5785 26.9583 39.9036 27.0259 40.206 27.1558V28.4846C40.023 28.4112 39.8282 28.3722 39.6313 28.3695C39.4504 28.3709 39.2725 28.4159 39.1123 28.5006C38.9521 28.5854 38.8142 28.7074 38.7102 28.8567C38.2735 29.4211 38.0552 30.4757 38.0552 32.0204C38.0552 33.6555 38.2012 34.7413 38.4931 35.2778C38.7851 35.8144 39.1733 36.0831 39.6576 36.084C39.8475 36.0831 40.0347 36.0399 40.206 35.9574V37.3583Z" fill="#FDFDFD"/>
<path d="M42.8086 29.3616C43.0494 29.3611 43.2871 29.4165 43.5034 29.5233C43.7197 29.6302 43.9087 29.7857 44.0559 29.9779C44.6173 30.6528 44.8975 31.8188 44.8967 33.4758C44.8959 35.1327 44.6143 36.2987 44.0522 36.9736C43.906 37.1642 43.7182 37.3183 43.5034 37.4239C43.2886 37.5294 43.0525 37.5837 42.8136 37.5823C42.5726 37.5829 42.3346 37.5276 42.1182 37.4207C41.9017 37.3139 41.7124 37.1583 41.565 36.966C41.0053 36.2911 40.7251 35.1277 40.7242 33.4758C40.7234 31.8239 41.0066 30.6579 41.5738 29.9779C41.7185 29.786 41.9053 29.6306 42.1195 29.5236C42.3337 29.4167 42.5696 29.3613 42.8086 29.3616V29.3616ZM42.8086 30.7676C42.7089 30.8612 42.6327 30.9775 42.5865 31.1067C42.5451 31.2092 42.5074 31.5547 42.4723 32.1407C42.4179 33.0771 42.3911 33.693 42.392 33.9883C42.392 35.2049 42.5308 35.9388 42.8086 36.1903C42.9021 36.1104 42.9749 36.0088 43.0207 35.8941C43.0558 35.8098 43.0943 35.4482 43.1361 34.8096C43.1955 33.8571 43.2248 33.2349 43.2239 32.943C43.2239 31.7146 43.0855 30.9895 42.8086 30.7676Z" fill="#FDFDFD"/>
<path d="M46.3536 29.3616C46.694 29.4394 46.9944 29.6402 47.1982 29.926C47.3857 29.7408 47.6008 29.5862 47.8356 29.4679C48.0211 29.3933 48.2195 29.3571 48.4191 29.3616C48.7716 29.3524 49.1147 29.4771 49.3804 29.7109C49.6426 29.945 49.7744 30.2981 49.7744 30.7739V37.4988H48.0828V30.8891C48.0841 30.8431 48.0744 30.7975 48.0545 30.7561C48.0346 30.7147 48.0052 30.6787 47.9686 30.6511C47.8898 30.5907 47.7929 30.559 47.6938 30.5613C47.6258 30.5624 47.559 30.5802 47.4993 30.6132C47.4271 30.6533 47.3639 30.708 47.3136 30.7739V37.4988H45.6233V30.8865C45.6233 30.5739 45.5104 30.3575 45.287 30.2373L46.3536 29.3616Z" fill="#FDFDFD"/>
<path d="M53.6506 26.9546V28.1163C53.4613 28.1255 53.2792 28.1926 53.1286 28.3087C53.0562 28.3742 52.9982 28.4544 52.9584 28.544C52.9186 28.6336 52.8979 28.7306 52.8977 28.8288V29.4426H53.6506V30.4689H52.8977V36.8837C52.8977 37.4216 52.8312 37.8278 52.6994 38.0999C52.532 38.402 52.266 38.6364 51.9465 38.763C51.4893 38.9531 50.9978 39.0449 50.5034 39.0325V37.7114C50.5925 37.7198 50.6824 37.7099 50.7676 37.6823C50.8528 37.6546 50.9316 37.6099 50.9991 37.5506C51.1346 37.4089 51.2024 37.1178 51.2024 36.6774V30.4765H50.5034V29.4426H51.2049V28.8971C51.1924 28.4962 51.3038 28.1013 51.5236 27.767C51.74 27.4562 52.0504 27.2245 52.4083 27.1064C52.6831 27.0103 53.096 26.9597 53.6506 26.9546Z" fill="#FDFDFD"/>
<path d="M57.7303 37.4608C57.1852 37.6133 56.6103 37.6219 56.061 37.4858C55.5116 37.3498 55.0061 37.0736 54.5931 36.6838C53.9606 36.0848 53.6444 35.0239 53.6444 33.501V32.5772C53.6444 31.3446 53.8987 30.4588 54.4074 29.9197C54.5799 29.736 54.7895 29.5917 55.022 29.4965C55.2544 29.4013 55.5044 29.3575 55.7551 29.3679C56.4419 29.3679 56.9577 29.5873 57.3024 30.026C57.6535 30.4783 57.8372 31.0399 57.8219 31.6142C57.8219 32.3583 57.6127 32.9488 57.1944 33.3859C56.7761 33.8229 56.188 34.1287 55.4301 34.3034C55.4426 34.9783 55.6413 35.5001 56.0261 35.8688C56.1565 35.9973 56.3108 36.0987 56.48 36.1671C56.6492 36.2355 56.8302 36.2696 57.0125 36.2674C57.2589 36.2513 57.5014 36.1971 57.7315 36.1067L57.7303 37.4608ZM55.7877 30.6271C55.6592 30.7604 55.5563 30.9166 55.484 31.0877C55.3899 31.3619 55.3445 31.6506 55.3498 31.9407V32.986C55.5898 32.9163 55.7994 32.7669 55.9446 32.562C56.0851 32.3621 56.1554 32.0563 56.1554 31.6445C56.1554 31.189 56.0328 30.8515 55.7877 30.6321V30.6271Z" fill="#FDFDFD"/>
<path d="M60.24 30.5233C60.3202 30.4264 60.3858 30.3181 60.4345 30.2019C60.6177 29.8387 60.8298 29.5982 61.072 29.4831C61.2989 29.3889 61.5434 29.3457 61.7885 29.3565V30.8751C61.411 30.931 61.0575 31.0958 60.7708 31.3497C60.4169 31.6872 60.24 31.974 60.24 32.2102V37.4912H58.5447V30.8789C58.5434 30.7506 58.5077 30.625 58.4414 30.5154C58.3752 30.4058 58.2808 30.3163 58.1682 30.2563L59.1897 29.3616C59.4586 29.4185 59.709 29.543 59.9175 29.7235C60.0597 29.8737 60.1672 30.1403 60.24 30.5233Z" fill="#FDFDFD"/>
<path d="M65.7753 37.4608C65.2302 37.6133 64.6554 37.6219 64.106 37.4858C63.5566 37.3498 63.0512 37.0736 62.6381 36.6838C62.0057 36.0848 61.6895 35.0239 61.6895 33.501V32.5772C61.6895 31.3446 61.9438 30.4588 62.4524 29.9197C62.625 29.736 62.8345 29.5917 63.067 29.4965C63.2995 29.4013 63.5495 29.3575 63.8001 29.3679C64.487 29.3679 65.0027 29.5873 65.3474 30.026C65.6985 30.4783 65.8822 31.0399 65.8669 31.6142C65.8669 32.3583 65.6578 32.9488 65.2395 33.3859C64.8212 33.8229 64.2335 34.1287 63.4764 34.3034C63.4873 34.9783 63.6855 35.5001 64.0712 35.8688C64.2016 35.9973 64.3558 36.0987 64.525 36.1671C64.6943 36.2355 64.8752 36.2696 65.0575 36.2674C65.304 36.2513 65.5465 36.1971 65.7766 36.1067L65.7753 37.4608ZM63.8328 30.6271C63.7054 30.7571 63.6025 30.9093 63.5291 31.0763C63.435 31.3505 63.3895 31.6392 63.3948 31.9293V32.986C63.6351 32.9169 63.8449 32.7674 63.9896 32.562C64.1302 32.3621 64.2004 32.0563 64.2004 31.6445C64.2004 31.189 64.0779 30.8515 63.8328 30.6321V30.6271Z" fill="#FDFDFD"/>
<path d="M67.3476 29.3616C67.688 29.4394 67.9884 29.6402 68.1922 29.926C68.3797 29.7408 68.5948 29.5862 68.8296 29.4679C69.0151 29.3932 69.2135 29.357 69.4132 29.3616C69.7656 29.3524 70.1087 29.4771 70.3744 29.7109C70.6367 29.945 70.7672 30.2981 70.7672 30.7739V37.4988H69.0769V30.8891C69.0781 30.8431 69.0684 30.7975 69.0485 30.7561C69.0286 30.7147 68.9992 30.6787 68.9627 30.6511C68.8837 30.5909 68.7869 30.5592 68.6878 30.5613C68.6198 30.5624 68.553 30.5802 68.4933 30.6132C68.4211 30.6533 68.3579 30.708 68.3076 30.7739V37.4988H66.6173V30.8865C66.6173 30.5739 66.5044 30.3575 66.281 30.2373L67.3476 29.3616Z" fill="#FDFDFD"/>
<path d="M74.6534 37.3709C74.5295 37.433 74.3984 37.4793 74.2631 37.5089C74.0995 37.5542 73.9309 37.5788 73.7612 37.5823C73.4026 37.5828 73.0498 37.4913 72.736 37.3165C72.4085 37.1336 72.1488 36.8485 71.9956 36.5041C71.6693 35.8334 71.5066 34.9842 71.5074 33.9566V32.7822C71.5074 31.5024 71.7915 30.5676 72.3595 29.9779C72.5604 29.7725 72.8015 29.6117 73.0675 29.5056C73.3335 29.3994 73.6184 29.3504 73.9043 29.3616C74.1571 29.3684 74.4089 29.3964 74.6572 29.4451V30.6904L74.612 30.6701C74.4894 30.6122 74.3559 30.5816 74.2205 30.5803C74.0957 30.577 73.972 30.6032 73.8591 30.6568C73.7463 30.7105 73.6474 30.79 73.5705 30.889C73.3195 31.1885 73.194 31.8213 73.194 32.7873V33.8592C73.194 35.0403 73.304 35.7781 73.524 36.0725C73.5863 36.1615 73.6691 36.2338 73.7653 36.2832C73.8615 36.3326 73.9682 36.3576 74.0762 36.356C74.2788 36.3488 74.4769 36.2937 74.6547 36.1953L74.6534 37.3709Z" fill="#FDFDFD"/>
<path d="M79.176 37.4608C78.6309 37.6132 78.056 37.6219 77.5067 37.4858C76.9573 37.3497 76.4518 37.0735 76.0388 36.6837C75.4055 36.0847 75.0889 35.0238 75.0889 33.501V32.5772C75.0889 31.3446 75.3432 30.4587 75.8518 29.9196C76.0249 29.7363 76.2347 29.5923 76.4674 29.4971C76.7 29.402 76.95 29.3579 77.2008 29.3679C77.886 29.3679 78.4017 29.5872 78.7481 30.0259C79.0988 30.4784 79.2821 31.04 79.2663 31.6141C79.2663 32.3582 79.0572 32.9488 78.6389 33.3858C78.2206 33.8229 77.6329 34.1287 76.8758 34.3033C76.8871 34.9753 77.0866 35.4967 77.4706 35.8688C77.601 35.9973 77.7552 36.0986 77.9244 36.167C78.0937 36.2354 78.2746 36.2695 78.4569 36.2674C78.7038 36.2512 78.9467 36.197 79.1772 36.1067L79.176 37.4608ZM77.2334 30.627C77.1041 30.7597 77.001 30.9161 76.9298 31.0877C76.835 31.3617 76.7895 31.6505 76.7955 31.9406V32.9859C77.0355 32.9163 77.2451 32.7669 77.3903 32.562C77.5308 32.362 77.5999 32.0558 77.5999 31.6445C77.5999 31.1889 77.4777 30.8515 77.2334 30.6321V30.627Z" fill="#FDFDFD"/>
<path d="M82.7511 27.5899C83.0179 27.4102 83.3047 27.2628 83.6057 27.1508C84.0059 27.0269 84.4303 27.0048 84.8411 27.0865C85.2518 27.1682 85.6362 27.3511 85.9598 27.619C86.394 28.0062 86.6107 28.639 86.6098 29.5172C86.5964 30.3088 86.5064 31.0971 86.3413 31.8711C86.1288 32.94 85.7481 34.3818 85.1994 36.1966H86.7428V37.5886H82.7511C83.3416 35.9796 83.818 34.3303 84.1766 32.6532C84.4602 31.3573 84.6016 30.3871 84.6008 29.7425C84.6008 29.3274 84.5125 29.0355 84.336 28.8668C84.2487 28.7831 84.1459 28.7177 84.0335 28.6743C83.9211 28.6309 83.8013 28.6103 83.681 28.6137C83.3425 28.6147 83.0145 28.7321 82.7511 28.9465V27.5899Z" fill="#FDFDFD"/>
<path d="M87.142 32.2937C87.142 30.112 87.4929 28.5934 88.1948 27.7379C88.6206 27.2157 89.1309 26.9546 89.7257 26.9546C90.298 26.9546 90.8053 27.222 91.2479 27.7569C91.9615 28.6301 92.3187 30.1487 92.3196 32.3127C92.3196 34.4388 91.9682 35.9342 91.2655 36.7989C90.8413 37.3203 90.3519 37.581 89.7973 37.581C89.4941 37.5832 89.1946 37.515 88.9217 37.3818C88.6489 37.2486 88.41 37.0539 88.2237 36.8128C87.5017 35.9397 87.1411 34.4333 87.142 32.2937ZM89.7433 28.5782C89.5975 28.735 89.486 28.9208 89.4158 29.1237C89.3397 29.3371 89.2807 29.7952 89.2389 30.498C89.1795 31.6479 89.1502 32.4456 89.151 32.8911C89.151 33.9878 89.2217 34.7817 89.3631 35.2727C89.4333 35.5337 89.5621 35.7749 89.7396 35.9776C89.8809 35.7955 89.9889 35.5894 90.0583 35.3689C90.1302 35.1462 90.1834 34.7117 90.2177 34.0654C90.272 33.0083 90.2988 32.2511 90.298 31.7939C90.298 30.6904 90.2361 29.8889 90.1122 29.3894C90.041 29.098 89.9158 28.8228 89.7433 28.5782Z" fill="#FDFDFD"/>
<path d="M92.9469 27.5899C93.2137 27.4102 93.5005 27.2628 93.8015 27.1507C94.0404 27.074 94.2899 27.036 94.5406 27.0381C95.1323 27.0192 95.7093 27.2267 96.1556 27.619C96.5898 28.0062 96.8069 28.639 96.8069 29.5172C96.7914 30.3094 96.6993 31.0982 96.5321 31.8723C96.3196 32.9413 95.9389 34.3831 95.3901 36.1978H96.9386V37.5899H92.9469C93.5374 35.9808 94.0138 34.3315 94.3724 32.6544C94.656 31.3585 94.7978 30.3883 94.7978 29.7438C94.7978 29.3287 94.7092 29.0368 94.5318 28.868C94.4445 28.7844 94.3417 28.719 94.2293 28.6755C94.1169 28.6321 93.9971 28.6115 93.8768 28.6149C93.5383 28.6159 93.2103 28.7333 92.9469 28.9478V27.5899Z" fill="#FDFDFD"/>
<path d="M97.2926 27.5899C97.5593 27.4102 97.8462 27.2628 98.1471 27.1507C98.3872 27.0736 98.638 27.0356 98.89 27.0381C99.4817 27.0192 100.059 27.2267 100.505 27.619C100.939 28.0062 101.156 28.639 101.156 29.5172C101.141 30.3094 101.049 31.0982 100.881 31.8723C100.669 32.9413 100.288 34.3831 99.7395 36.1978H101.288V37.5899H97.2926C97.883 35.9808 98.3594 34.3315 98.7181 32.6544C99 31.3568 99.141 30.3875 99.141 29.7463C99.141 29.3312 99.0523 29.0393 98.8749 28.8706C98.7877 28.7869 98.6849 28.7215 98.5725 28.6781C98.4601 28.6346 98.3402 28.614 98.2199 28.6175C97.8814 28.6184 97.5534 28.7358 97.29 28.9503L97.2926 27.5899Z" fill="#FDFDFD"/>
<path d="M133.238 0C133.238 0 140.266 7.20071 126.552 18.0562C115.561 26.8552 124.043 31.8843 126.552 37.5968C120.094 31.7755 115.447 26.6274 118.619 21.8261C123.262 14.7393 136.069 11.3136 133.237 0H133.238ZM129.612 32.7993C132.897 36.5705 128.704 40 128.704 40C128.704 40 137.091 35.6555 133.237 30.2847C129.723 25.1417 127.005 22.6284 141.735 14.0559C141.735 14.0559 118.504 19.8848 129.611 32.7968L129.612 32.7993Z" fill="#FDFDFD"/>
<path d="M125.891 36.5899H100.206V37.5899H126.558L125.891 36.5899Z" fill="white"/>
<path d="M133.238 0C133.238 0 140.266 7.20071 126.552 18.0562C115.561 26.8552 124.043 31.8843 126.552 37.5968C120.094 31.7755 115.447 26.6274 118.619 21.8261C123.262 14.7393 136.069 11.3136 133.237 0H133.238ZM129.612 32.7993C132.897 36.5705 128.704 40 128.704 40C128.704 40 137.091 35.6555 133.237 30.2847C129.723 25.1417 127.005 22.6284 141.735 14.0559C141.735 14.0559 118.504 19.8848 129.611 32.7968L129.612 32.7993Z" fill="#FDFDFD"/>
</svg>
