<svg width="447" height="243" viewBox="0 0 447 243" fill="none" xmlns="http://www.w3.org/2000/svg">
<path d="M409.463 0.0112305H38.3883C17.6571 0.0112305 0.851074 16.8172 0.851074 37.5485V205.403C0.851074 226.135 17.6571 242.94 38.3883 242.94H409.463C430.194 242.94 447 226.135 447 205.403V37.5485C447 16.8172 430.194 0.0112305 409.463 0.0112305Z" fill="#638181"/>
<path opacity="0.5" d="M397.783 231.845H393.112C392.957 231.845 392.808 231.784 392.699 231.674C392.589 231.565 392.528 231.416 392.528 231.261C392.528 231.106 392.589 230.958 392.699 230.848C392.808 230.739 392.957 230.677 393.112 230.677H397.783C397.83 230.771 397.901 230.85 397.99 230.905C398.079 230.96 398.181 230.989 398.286 230.989C398.39 230.989 398.492 230.96 398.581 230.905C398.67 230.85 398.741 230.771 398.788 230.677C400.353 230.656 401.914 230.523 403.46 230.28C403.536 230.267 403.615 230.269 403.691 230.287C403.767 230.304 403.839 230.337 403.902 230.383C403.965 230.428 404.018 230.486 404.059 230.553C404.099 230.62 404.126 230.694 404.137 230.771C404.157 230.922 404.117 231.076 404.025 231.198C403.934 231.32 403.798 231.402 403.647 231.425C402.102 231.678 400.54 231.819 398.975 231.845C398.868 231.841 398.763 231.811 398.67 231.758C398.576 231.705 398.497 231.631 398.438 231.542C398.375 231.655 398.278 231.746 398.16 231.801C398.043 231.856 397.911 231.871 397.783 231.845ZM388.44 231.845H383.768C383.613 231.845 383.465 231.784 383.355 231.674C383.246 231.565 383.184 231.416 383.184 231.261C383.184 231.106 383.246 230.958 383.355 230.848C383.465 230.739 383.613 230.677 383.768 230.677H388.44C388.595 230.677 388.743 230.739 388.853 230.848C388.962 230.958 389.024 231.106 389.024 231.261C389.024 231.416 388.962 231.565 388.853 231.674C388.743 231.784 388.595 231.845 388.44 231.845ZM379.097 231.845H374.425C374.27 231.845 374.122 231.784 374.012 231.674C373.902 231.565 373.841 231.416 373.841 231.261C373.841 231.106 373.902 230.958 374.012 230.848C374.122 230.739 374.27 230.677 374.425 230.677H379.097C379.251 230.677 379.4 230.739 379.509 230.848C379.619 230.958 379.681 231.106 379.681 231.261C379.681 231.416 379.619 231.565 379.509 231.674C379.4 231.784 379.251 231.845 379.097 231.845ZM369.753 231.845H365.081C364.927 231.845 364.778 231.784 364.669 231.674C364.559 231.565 364.497 231.416 364.497 231.261C364.497 231.106 364.559 230.958 364.669 230.848C364.778 230.739 364.927 230.677 365.081 230.677H369.753C369.908 230.677 370.057 230.739 370.166 230.848C370.276 230.958 370.337 231.106 370.337 231.261C370.337 231.416 370.276 231.565 370.166 231.674C370.057 231.784 369.908 231.845 369.753 231.845ZM360.41 231.845H355.738C355.583 231.845 355.435 231.784 355.325 231.674C355.216 231.565 355.154 231.416 355.154 231.261C355.154 231.106 355.216 230.958 355.325 230.848C355.435 230.739 355.583 230.677 355.738 230.677H360.41C360.565 230.677 360.713 230.739 360.823 230.848C360.932 230.958 360.994 231.106 360.994 231.261C360.994 231.416 360.932 231.565 360.823 231.674C360.713 231.784 360.565 231.845 360.41 231.845ZM351.066 231.845H346.395C346.24 231.845 346.091 231.784 345.982 231.674C345.872 231.565 345.811 231.416 345.811 231.261C345.811 231.106 345.872 230.958 345.982 230.848C346.091 230.739 346.24 230.677 346.395 230.677H351.066C351.221 230.677 351.37 230.739 351.479 230.848C351.589 230.958 351.65 231.106 351.65 231.261C351.65 231.416 351.589 231.565 351.479 231.674C351.37 231.784 351.221 231.845 351.066 231.845ZM341.723 231.845H337.051C336.896 231.845 336.748 231.784 336.638 231.674C336.529 231.565 336.467 231.416 336.467 231.261C336.467 231.106 336.529 230.958 336.638 230.848C336.748 230.739 336.896 230.677 337.051 230.677H341.723C341.878 230.677 342.026 230.739 342.136 230.848C342.245 230.958 342.307 231.106 342.307 231.261C342.307 231.416 342.245 231.565 342.136 231.674C342.026 231.784 341.878 231.845 341.723 231.845ZM332.379 231.845H327.708C327.553 231.845 327.404 231.784 327.295 231.674C327.185 231.565 327.124 231.416 327.124 231.261C327.124 231.106 327.185 230.958 327.295 230.848C327.404 230.739 327.553 230.677 327.708 230.677H332.379C332.534 230.677 332.683 230.739 332.792 230.848C332.902 230.958 332.963 231.106 332.963 231.261C332.963 231.416 332.902 231.565 332.792 231.674C332.683 231.784 332.534 231.845 332.379 231.845ZM323.036 231.845H318.364C318.209 231.845 318.061 231.784 317.951 231.674C317.842 231.565 317.78 231.416 317.78 231.261C317.78 231.106 317.842 230.958 317.951 230.848C318.061 230.739 318.209 230.677 318.364 230.677H323.036C323.191 230.677 323.339 230.739 323.449 230.848C323.558 230.958 323.62 231.106 323.62 231.261C323.62 231.416 323.558 231.565 323.449 231.674C323.339 231.784 323.191 231.845 323.036 231.845ZM313.693 231.845H309.021C308.866 231.845 308.717 231.784 308.608 231.674C308.498 231.565 308.437 231.416 308.437 231.261C308.437 231.106 308.498 230.958 308.608 230.848C308.717 230.739 308.866 230.677 309.021 230.677H313.693C313.847 230.677 313.996 230.739 314.105 230.848C314.215 230.958 314.277 231.106 314.277 231.261C314.277 231.416 314.215 231.565 314.105 231.674C313.996 231.784 313.847 231.845 313.693 231.845ZM304.349 231.845H299.677C299.523 231.845 299.374 231.784 299.265 231.674C299.155 231.565 299.093 231.416 299.093 231.261C299.093 231.106 299.155 230.958 299.265 230.848C299.374 230.739 299.523 230.677 299.677 230.677H304.349C304.504 230.677 304.653 230.739 304.762 230.848C304.872 230.958 304.933 231.106 304.933 231.261C304.933 231.416 304.872 231.565 304.762 231.674C304.653 231.784 304.504 231.845 304.349 231.845ZM295.006 231.845H290.334C290.179 231.845 290.031 231.784 289.921 231.674C289.812 231.565 289.75 231.416 289.75 231.261C289.75 231.106 289.812 230.958 289.921 230.848C290.031 230.739 290.179 230.677 290.334 230.677H295.006C295.161 230.677 295.309 230.739 295.419 230.848C295.528 230.958 295.59 231.106 295.59 231.261C295.59 231.416 295.528 231.565 295.419 231.674C295.309 231.784 295.161 231.845 295.006 231.845ZM285.662 231.845H280.991C280.836 231.845 280.687 231.784 280.578 231.674C280.468 231.565 280.407 231.416 280.407 231.261C280.407 231.106 280.468 230.958 280.578 230.848C280.687 230.739 280.836 230.677 280.991 230.677H285.662C285.817 230.677 285.966 230.739 286.075 230.848C286.185 230.958 286.246 231.106 286.246 231.261C286.246 231.416 286.185 231.565 286.075 231.674C285.966 231.784 285.817 231.845 285.662 231.845ZM276.319 231.845H271.647C271.492 231.845 271.344 231.784 271.234 231.674C271.125 231.565 271.063 231.416 271.063 231.261C271.063 231.106 271.125 230.958 271.234 230.848C271.344 230.739 271.492 230.677 271.647 230.677H276.319C276.474 230.677 276.622 230.739 276.732 230.848C276.841 230.958 276.903 231.106 276.903 231.261C276.903 231.416 276.841 231.565 276.732 231.674C276.622 231.784 276.474 231.845 276.319 231.845ZM266.975 231.845H262.304C262.149 231.845 262 231.784 261.891 231.674C261.781 231.565 261.72 231.416 261.72 231.261C261.72 231.106 261.781 230.958 261.891 230.848C262 230.739 262.149 230.677 262.304 230.677H266.975C267.13 230.677 267.279 230.739 267.388 230.848C267.498 230.958 267.559 231.106 267.559 231.261C267.559 231.416 267.498 231.565 267.388 231.674C267.279 231.784 267.13 231.845 266.975 231.845ZM257.632 231.845H252.96C252.805 231.845 252.657 231.784 252.547 231.674C252.438 231.565 252.376 231.416 252.376 231.261C252.376 231.106 252.438 230.958 252.547 230.848C252.657 230.739 252.805 230.677 252.96 230.677H257.632C257.787 230.677 257.935 230.739 258.045 230.848C258.154 230.958 258.216 231.106 258.216 231.261C258.216 231.416 258.154 231.565 258.045 231.674C257.935 231.784 257.787 231.845 257.632 231.845ZM248.289 231.845H243.617C243.462 231.845 243.313 231.784 243.204 231.674C243.094 231.565 243.033 231.416 243.033 231.261C243.033 231.106 243.094 230.958 243.204 230.848C243.313 230.739 243.462 230.677 243.617 230.677H248.289C248.443 230.677 248.592 230.739 248.701 230.848C248.811 230.958 248.873 231.106 248.873 231.261C248.873 231.416 248.811 231.565 248.701 231.674C248.592 231.784 248.443 231.845 248.289 231.845ZM238.945 231.845H234.273C234.119 231.845 233.97 231.784 233.861 231.674C233.751 231.565 233.689 231.416 233.689 231.261C233.689 231.106 233.751 230.958 233.861 230.848C233.97 230.739 234.119 230.677 234.273 230.677H238.945C239.1 230.677 239.248 230.739 239.358 230.848C239.468 230.958 239.529 231.106 239.529 231.261C239.529 231.416 239.468 231.565 239.358 231.674C239.248 231.784 239.1 231.845 238.945 231.845ZM229.602 231.845H224.93C224.775 231.845 224.627 231.784 224.517 231.674C224.408 231.565 224.346 231.416 224.346 231.261C224.346 231.106 224.408 230.958 224.517 230.848C224.627 230.739 224.775 230.677 224.93 230.677H229.602C229.757 230.677 229.905 230.739 230.015 230.848C230.124 230.958 230.186 231.106 230.186 231.261C230.186 231.416 230.124 231.565 230.015 231.674C229.905 231.784 229.757 231.845 229.602 231.845ZM220.258 231.845H215.587C215.432 231.845 215.283 231.784 215.174 231.674C215.064 231.565 215.003 231.416 215.003 231.261C215.003 231.106 215.064 230.958 215.174 230.848C215.283 230.739 215.432 230.677 215.587 230.677H220.258C220.413 230.677 220.562 230.739 220.671 230.848C220.781 230.958 220.842 231.106 220.842 231.261C220.842 231.416 220.781 231.565 220.671 231.674C220.562 231.784 220.413 231.845 220.258 231.845ZM210.915 231.845H206.243C206.088 231.845 205.94 231.784 205.83 231.674C205.721 231.565 205.659 231.416 205.659 231.261C205.659 231.106 205.721 230.958 205.83 230.848C205.94 230.739 206.088 230.677 206.243 230.677H210.915C211.07 230.677 211.218 230.739 211.328 230.848C211.437 230.958 211.499 231.106 211.499 231.261C211.499 231.416 211.437 231.565 211.328 231.674C211.218 231.784 211.07 231.845 210.915 231.845ZM201.571 231.845H196.9C196.745 231.845 196.596 231.784 196.487 231.674C196.377 231.565 196.316 231.416 196.316 231.261C196.316 231.106 196.377 230.958 196.487 230.848C196.596 230.739 196.745 230.677 196.9 230.677H201.571C201.726 230.677 201.875 230.739 201.984 230.848C202.094 230.958 202.155 231.106 202.155 231.261C202.155 231.416 202.094 231.565 201.984 231.674C201.875 231.784 201.726 231.845 201.571 231.845ZM192.228 231.845H187.556C187.401 231.845 187.253 231.784 187.143 231.674C187.034 231.565 186.972 231.416 186.972 231.261C186.972 231.106 187.034 230.958 187.143 230.848C187.253 230.739 187.401 230.677 187.556 230.677H192.228C192.383 230.677 192.531 230.739 192.641 230.848C192.75 230.958 192.812 231.106 192.812 231.261C192.812 231.416 192.75 231.565 192.641 231.674C192.531 231.784 192.383 231.845 192.228 231.845ZM182.885 231.845H178.213C178.058 231.845 177.909 231.784 177.8 231.674C177.69 231.565 177.629 231.416 177.629 231.261C177.629 231.106 177.69 230.958 177.8 230.848C177.909 230.739 178.058 230.677 178.213 230.677H182.885C183.039 230.677 183.188 230.739 183.297 230.848C183.407 230.958 183.468 231.106 183.468 231.261C183.468 231.416 183.407 231.565 183.297 231.674C183.188 231.784 183.039 231.845 182.885 231.845ZM173.541 231.845H168.869C168.714 231.845 168.566 231.784 168.456 231.674C168.347 231.565 168.285 231.416 168.285 231.261C168.285 231.106 168.347 230.958 168.456 230.848C168.566 230.739 168.714 230.677 168.869 230.677H173.541C173.696 230.677 173.844 230.739 173.954 230.848C174.063 230.958 174.125 231.106 174.125 231.261C174.125 231.416 174.063 231.565 173.954 231.674C173.844 231.784 173.696 231.845 173.541 231.845ZM164.198 231.845H159.526C159.371 231.845 159.223 231.784 159.113 231.674C159.004 231.565 158.942 231.416 158.942 231.261C158.942 231.106 159.004 230.958 159.113 230.848C159.223 230.739 159.371 230.677 159.526 230.677H164.198C164.353 230.677 164.501 230.739 164.611 230.848C164.72 230.958 164.782 231.106 164.782 231.261C164.782 231.416 164.72 231.565 164.611 231.674C164.501 231.784 164.353 231.845 164.198 231.845ZM154.854 231.845H150.182C150.028 231.845 149.879 231.784 149.77 231.674C149.66 231.565 149.599 231.416 149.599 231.261C149.599 231.106 149.66 230.958 149.77 230.848C149.879 230.739 150.028 230.677 150.182 230.677H154.854C155.009 230.677 155.158 230.739 155.267 230.848C155.377 230.958 155.438 231.106 155.438 231.261C155.438 231.416 155.377 231.565 155.267 231.674C155.158 231.784 155.009 231.845 154.854 231.845ZM145.511 231.845H140.839C140.684 231.845 140.536 231.784 140.426 231.674C140.317 231.565 140.255 231.416 140.255 231.261C140.255 231.106 140.317 230.958 140.426 230.848C140.536 230.739 140.684 230.677 140.839 230.677H145.511C145.666 230.677 145.814 230.739 145.924 230.848C146.033 230.958 146.095 231.106 146.095 231.261C146.095 231.416 146.033 231.565 145.924 231.674C145.814 231.784 145.666 231.845 145.511 231.845ZM136.167 231.845H131.496C131.341 231.845 131.192 231.784 131.083 231.674C130.973 231.565 130.912 231.416 130.912 231.261C130.912 231.106 130.973 230.958 131.083 230.848C131.192 230.739 131.341 230.677 131.496 230.677H136.167C136.322 230.677 136.471 230.739 136.58 230.848C136.69 230.958 136.751 231.106 136.751 231.261C136.751 231.416 136.69 231.565 136.58 231.674C136.471 231.784 136.322 231.845 136.167 231.845ZM126.824 231.845H122.152C121.997 231.845 121.849 231.784 121.739 231.674C121.63 231.565 121.568 231.416 121.568 231.261C121.568 231.106 121.63 230.958 121.739 230.848C121.849 230.739 121.997 230.677 122.152 230.677H126.824C126.979 230.677 127.127 230.739 127.237 230.848C127.346 230.958 127.408 231.106 127.408 231.261C127.408 231.416 127.346 231.565 127.237 231.674C127.127 231.784 126.979 231.845 126.824 231.845ZM117.48 231.845H112.809C112.654 231.845 112.505 231.784 112.396 231.674C112.286 231.565 112.225 231.416 112.225 231.261C112.225 231.106 112.286 230.958 112.396 230.848C112.505 230.739 112.654 230.677 112.809 230.677H117.48C117.635 230.677 117.784 230.739 117.893 230.848C118.003 230.958 118.064 231.106 118.064 231.261C118.064 231.416 118.003 231.565 117.893 231.674C117.784 231.784 117.635 231.845 117.48 231.845ZM108.137 231.845H103.465C103.31 231.845 103.162 231.784 103.052 231.674C102.943 231.565 102.881 231.416 102.881 231.261C102.881 231.106 102.943 230.958 103.052 230.848C103.162 230.739 103.31 230.677 103.465 230.677H108.137C108.292 230.677 108.44 230.739 108.55 230.848C108.659 230.958 108.721 231.106 108.721 231.261C108.721 231.416 108.659 231.565 108.55 231.674C108.44 231.784 108.292 231.845 108.137 231.845ZM98.7936 231.845H94.1219C93.967 231.845 93.8185 231.784 93.709 231.674C93.5995 231.565 93.5379 231.416 93.5379 231.261C93.5379 231.106 93.5995 230.958 93.709 230.848C93.8185 230.739 93.967 230.677 94.1219 230.677H98.7936C98.9485 230.677 99.097 230.739 99.2065 230.848C99.316 230.958 99.3776 231.106 99.3776 231.261C99.3776 231.416 99.316 231.565 99.2065 231.674C99.097 231.784 98.9485 231.845 98.7936 231.845ZM89.4502 231.845H84.7785C84.6236 231.845 84.4751 231.784 84.3656 231.674C84.2561 231.565 84.1945 231.416 84.1945 231.261C84.1945 231.106 84.2561 230.958 84.3656 230.848C84.4751 230.739 84.6236 230.677 84.7785 230.677H89.4502C89.6051 230.677 89.7535 230.739 89.8631 230.848C89.9726 230.958 90.0341 231.106 90.0341 231.261C90.0341 231.416 89.9726 231.565 89.8631 231.674C89.7535 231.784 89.6051 231.845 89.4502 231.845ZM80.1068 231.845H75.435C75.2802 231.845 75.1317 231.784 75.0222 231.674C74.9126 231.565 74.8511 231.416 74.8511 231.261C74.8511 231.106 74.9126 230.958 75.0222 230.848C75.1317 230.739 75.2802 230.677 75.435 230.677H80.1068C80.2616 230.677 80.4101 230.739 80.5196 230.848C80.6291 230.958 80.6907 231.106 80.6907 231.261C80.6907 231.416 80.6291 231.565 80.5196 231.674C80.4101 231.784 80.2616 231.845 80.1068 231.845ZM70.7633 231.845H66.0916C65.9367 231.845 65.7882 231.784 65.6787 231.674C65.5692 231.565 65.5076 231.416 65.5076 231.261C65.5076 231.106 65.5692 230.958 65.6787 230.848C65.7882 230.739 65.9367 230.677 66.0916 230.677H70.7633C70.9182 230.677 71.0667 230.739 71.1762 230.848C71.2857 230.958 71.3473 231.106 71.3473 231.261C71.3473 231.416 71.2857 231.565 71.1762 231.674C71.0667 231.784 70.9182 231.845 70.7633 231.845ZM61.4199 231.845H56.7482C56.5933 231.845 56.4448 231.784 56.3353 231.674C56.2258 231.565 56.1642 231.416 56.1642 231.261C56.1642 231.106 56.2258 230.958 56.3353 230.848C56.4448 230.739 56.5933 230.677 56.7482 230.677H61.4199C61.5748 230.677 61.7233 230.739 61.8328 230.848C61.9423 230.958 62.0038 231.106 62.0038 231.261C62.0038 231.416 61.9423 231.565 61.8328 231.674C61.7233 231.784 61.5748 231.845 61.4199 231.845ZM52.0765 231.845H50.0676C49.1567 231.845 48.2456 231.845 47.358 231.845C47.2812 231.839 47.2065 231.818 47.1378 231.783C47.0692 231.748 47.0081 231.7 46.9582 231.642C46.9083 231.583 46.8704 231.515 46.8469 231.442C46.8233 231.368 46.8144 231.291 46.8208 231.215C46.8237 231.139 46.8419 231.064 46.8744 230.996C46.9068 230.927 46.9528 230.866 47.0095 230.816C47.0663 230.766 47.1326 230.728 47.2046 230.704C47.2765 230.68 47.3526 230.671 47.4281 230.677C48.3157 230.677 49.18 230.677 50.0676 230.677H52.0765C52.2313 230.677 52.3798 230.739 52.4893 230.848C52.5988 230.958 52.6604 231.106 52.6604 231.261C52.6604 231.416 52.5988 231.565 52.4893 231.674C52.3798 231.784 52.2313 231.845 52.0765 231.845ZM42.733 231.144H42.6163C41.0328 230.848 39.4718 230.442 37.9445 229.93C37.8693 229.912 37.7988 229.878 37.7378 229.83C37.6769 229.783 37.6269 229.722 37.5914 229.654C37.5559 229.585 37.5358 229.509 37.5322 229.432C37.5287 229.355 37.5417 229.277 37.5707 229.206C37.6189 229.061 37.7216 228.941 37.8569 228.872C37.9921 228.802 38.1494 228.788 38.295 228.832C39.7539 229.322 41.2445 229.712 42.7564 230C42.9036 230.033 43.0321 230.123 43.1148 230.249C43.1976 230.375 43.2282 230.529 43.2002 230.677C43.182 230.787 43.1327 230.889 43.0582 230.972C42.9837 231.055 42.8871 231.115 42.7798 231.144H42.733ZM407.968 230.42C407.841 230.42 407.719 230.379 407.617 230.304C407.516 230.228 407.443 230.121 407.407 230C407.364 229.851 407.381 229.691 407.456 229.556C407.53 229.42 407.656 229.319 407.804 229.276C409.287 228.875 410.739 228.367 412.149 227.757C412.292 227.701 412.451 227.701 412.594 227.757C412.737 227.814 412.854 227.922 412.92 228.061C412.95 228.133 412.966 228.21 412.966 228.288C412.965 228.367 412.95 228.444 412.919 228.516C412.889 228.587 412.844 228.652 412.788 228.707C412.732 228.761 412.666 228.804 412.593 228.832C411.14 229.447 409.65 229.97 408.131 230.397L407.968 230.42ZM33.8802 228.201H33.6233C32.1977 227.51 30.8168 226.73 29.4887 225.865C29.3584 225.779 29.2663 225.646 29.2315 225.494C29.1967 225.342 29.2219 225.182 29.3018 225.048C29.3915 224.921 29.5261 224.834 29.6781 224.804C29.8301 224.773 29.9881 224.802 30.1195 224.884C31.412 225.706 32.7537 226.447 34.1371 227.103C34.2733 227.178 34.3759 227.302 34.4236 227.449C34.4714 227.597 34.4608 227.757 34.394 227.898C34.3493 227.985 34.2828 228.058 34.2008 228.112C34.1189 228.165 34.0244 228.196 33.9268 228.201H33.8802ZM416.54 226.8C416.41 226.8 416.283 226.757 416.18 226.678C416.077 226.598 416.004 226.486 415.972 226.36C415.939 226.234 415.95 226.101 416.003 225.981C416.055 225.862 416.146 225.764 416.26 225.702C417.606 224.912 418.901 224.038 420.138 223.086C420.199 223.04 420.269 223.006 420.343 222.987C420.417 222.968 420.495 222.964 420.571 222.975C420.647 222.986 420.72 223.011 420.785 223.05C420.852 223.09 420.909 223.141 420.955 223.202C421.011 223.255 421.056 223.318 421.086 223.389C421.116 223.459 421.132 223.535 421.132 223.611C421.132 223.688 421.116 223.764 421.086 223.834C421.056 223.904 421.011 223.968 420.955 224.02C419.698 224.978 418.379 225.852 417.008 226.636C416.957 226.697 416.892 226.743 416.818 226.772C416.745 226.801 416.665 226.81 416.587 226.8H416.54ZM26.0783 223.086C25.9412 223.084 25.8089 223.035 25.7047 222.946C24.4909 221.931 23.3366 220.846 22.2475 219.699C22.1405 219.59 22.0807 219.443 22.0807 219.29C22.0807 219.137 22.1405 218.99 22.2475 218.881C22.302 218.825 22.3673 218.78 22.4395 218.749C22.5118 218.718 22.5896 218.702 22.6681 218.702C22.7466 218.702 22.8242 218.718 22.8965 218.749C22.9687 218.78 23.034 218.825 23.0885 218.881C24.1384 219.998 25.2538 221.051 26.4288 222.035C26.4846 222.087 26.5291 222.15 26.5595 222.221C26.5899 222.291 26.6057 222.367 26.6057 222.443C26.6057 222.52 26.5899 222.596 26.5595 222.666C26.5291 222.736 26.4846 222.8 26.4288 222.852C26.3451 222.971 26.2201 223.054 26.0783 223.086ZM424.015 221.054C423.902 221.052 423.792 221.018 423.698 220.955C423.604 220.892 423.531 220.804 423.486 220.7C423.442 220.596 423.428 220.481 423.447 220.37C423.467 220.259 423.518 220.155 423.595 220.072C424.695 219.004 425.725 217.865 426.678 216.662C426.723 216.595 426.781 216.537 426.849 216.494C426.917 216.45 426.994 216.421 427.074 216.409C427.153 216.396 427.235 216.4 427.313 216.421C427.391 216.441 427.464 216.478 427.528 216.528C427.591 216.579 427.643 216.641 427.681 216.713C427.719 216.785 427.741 216.863 427.747 216.944C427.753 217.024 427.742 217.105 427.714 217.182C427.687 217.258 427.645 217.327 427.589 217.386C426.605 218.62 425.544 219.79 424.412 220.89C424.37 220.96 424.312 221.02 424.244 221.065C424.175 221.109 424.097 221.137 424.015 221.147V221.054ZM19.7015 216.382C19.6111 216.38 19.5223 216.358 19.4414 216.318C19.3606 216.277 19.2899 216.219 19.2343 216.148C18.3017 214.864 17.4514 213.522 16.6883 212.131C16.6513 212.063 16.6278 211.989 16.6196 211.913C16.6113 211.836 16.6182 211.759 16.64 211.685C16.6617 211.611 16.6978 211.542 16.7462 211.482C16.7945 211.423 16.8542 211.373 16.9218 211.336C17.0592 211.268 17.2176 211.254 17.3649 211.297C17.5123 211.34 17.6376 211.438 17.7159 211.57C18.4101 212.911 19.1904 214.207 20.0518 215.447C20.1588 215.557 20.2187 215.703 20.2187 215.856C20.2187 216.009 20.1588 216.156 20.0518 216.265C19.9475 216.335 19.8266 216.375 19.7015 216.382ZM429.832 213.882C429.724 213.903 429.612 213.903 429.504 213.882C429.38 213.797 429.292 213.668 429.258 213.521C429.223 213.375 429.245 213.22 429.318 213.088C430.117 211.779 430.834 210.422 431.467 209.024C431.497 208.953 431.542 208.889 431.597 208.836C431.652 208.783 431.718 208.741 431.789 208.712C431.861 208.684 431.937 208.67 432.014 208.672C432.091 208.673 432.167 208.69 432.237 208.72C432.308 208.751 432.372 208.795 432.425 208.85C432.479 208.906 432.521 208.971 432.549 209.043C432.577 209.114 432.591 209.191 432.59 209.268C432.588 209.345 432.572 209.42 432.541 209.491C431.885 210.935 431.144 212.339 430.322 213.696C430.258 213.76 430.182 213.81 430.097 213.842C430.013 213.875 429.922 213.888 429.832 213.882ZM15.1933 208.23C15.0767 208.228 14.9631 208.192 14.8674 208.125C14.7716 208.059 14.6979 207.965 14.656 207.856C14.0711 206.386 13.5798 204.88 13.1845 203.348C13.1636 203.274 13.158 203.197 13.1681 203.121C13.1782 203.045 13.2037 202.972 13.2431 202.906C13.2825 202.841 13.3348 202.784 13.3971 202.739C13.4593 202.695 13.5301 202.663 13.6049 202.647C13.6786 202.626 13.7557 202.62 13.8316 202.631C13.9075 202.641 13.9805 202.666 14.0462 202.706C14.1118 202.745 14.1688 202.797 14.2134 202.86C14.258 202.922 14.2894 202.993 14.3057 203.067C14.6861 204.555 15.17 206.015 15.7539 207.435C15.8019 207.578 15.7951 207.734 15.7346 207.872C15.6742 208.01 15.5644 208.121 15.4268 208.183L15.1933 208.23ZM433.662 205.38H433.475C433.331 205.332 433.211 205.229 433.141 205.094C433.072 204.959 433.057 204.801 433.102 204.656C433.553 203.185 433.912 201.687 434.176 200.171C434.187 200.094 434.214 200.021 434.255 199.955C434.295 199.89 434.349 199.833 434.413 199.789C434.476 199.746 434.548 199.715 434.624 199.7C434.7 199.686 434.778 199.687 434.854 199.704C434.93 199.715 435.003 199.742 435.069 199.782C435.135 199.823 435.191 199.877 435.235 199.94C435.279 200.004 435.309 200.076 435.324 200.152C435.339 200.228 435.338 200.306 435.321 200.381C435.066 201.962 434.699 203.524 434.223 205.053C434.17 205.155 434.089 205.24 433.99 205.298C433.891 205.355 433.777 205.384 433.662 205.38ZM12.8574 199.213C12.714 199.214 12.5751 199.162 12.4674 199.068C12.3597 198.973 12.2907 198.842 12.2735 198.699C12.0718 197.15 11.9626 195.59 11.9464 194.028C11.9431 193.95 11.956 193.873 11.9842 193.8C12.0124 193.728 12.0552 193.662 12.1101 193.607C12.165 193.552 12.2308 193.51 12.3031 193.481C12.3755 193.453 12.4528 193.44 12.5304 193.444C12.6813 193.444 12.8264 193.502 12.9353 193.606C13.0442 193.711 13.1083 193.853 13.1144 194.004C13.13 195.566 13.2314 197.125 13.418 198.676C13.4381 198.828 13.398 198.981 13.3062 199.103C13.2145 199.225 13.0785 199.307 12.9274 199.33L12.8574 199.213ZM435.274 196.2C435.196 196.2 435.119 196.184 435.048 196.153C434.977 196.122 434.913 196.077 434.86 196.02C434.807 195.963 434.767 195.895 434.742 195.822C434.717 195.748 434.707 195.67 434.713 195.593C434.713 194.962 434.713 194.355 434.713 193.724V190.944C434.713 190.789 434.775 190.641 434.884 190.531C434.994 190.422 435.142 190.36 435.297 190.36C435.452 190.36 435.601 190.422 435.71 190.531C435.82 190.641 435.881 190.789 435.881 190.944V193.724C435.881 194.355 435.881 195.009 435.881 195.639C435.878 195.716 435.86 195.791 435.828 195.861C435.796 195.931 435.75 195.994 435.694 196.046C435.638 196.098 435.571 196.138 435.499 196.165C435.427 196.191 435.351 196.203 435.274 196.2ZM12.4836 189.893C12.3287 189.893 12.1803 189.832 12.0707 189.722C11.9612 189.613 11.8997 189.464 11.8997 189.309V184.638C11.8997 184.483 11.9612 184.334 12.0707 184.225C12.1803 184.115 12.3287 184.054 12.4836 184.054C12.6385 184.054 12.7871 184.115 12.8966 184.225C13.0062 184.334 13.0676 184.483 13.0676 184.638V189.309C13.0681 189.456 13.0131 189.598 12.9135 189.706C12.8139 189.815 12.677 189.881 12.5304 189.893H12.4836ZM435.274 186.857C435.119 186.857 434.971 186.795 434.861 186.686C434.752 186.576 434.69 186.427 434.69 186.273V181.601C434.69 181.446 434.752 181.298 434.861 181.188C434.971 181.078 435.119 181.017 435.274 181.017C435.429 181.017 435.577 181.078 435.687 181.188C435.797 181.298 435.858 181.446 435.858 181.601V186.273C435.858 186.42 435.803 186.562 435.704 186.67C435.604 186.778 435.467 186.845 435.321 186.857H435.274ZM12.4836 180.55C12.3287 180.55 12.1803 180.488 12.0707 180.379C11.9612 180.269 11.8997 180.121 11.8997 179.966V175.294C11.8997 175.139 11.9612 174.991 12.0707 174.881C12.1803 174.772 12.3287 174.71 12.4836 174.71C12.6385 174.71 12.7871 174.772 12.8966 174.881C13.0062 174.991 13.0676 175.139 13.0676 175.294V179.966C13.0681 180.113 13.0131 180.255 12.9135 180.363C12.8139 180.471 12.677 180.538 12.5304 180.55H12.4836ZM435.274 177.513C435.119 177.513 434.971 177.452 434.861 177.342C434.752 177.233 434.69 177.084 434.69 176.929V172.257C434.69 172.103 434.752 171.954 434.861 171.845C434.971 171.735 435.119 171.673 435.274 171.673C435.429 171.673 435.577 171.735 435.687 171.845C435.797 171.954 435.858 172.103 435.858 172.257V176.929C435.858 177.076 435.803 177.218 435.704 177.326C435.604 177.435 435.467 177.501 435.321 177.513H435.274ZM12.4836 171.206C12.3287 171.206 12.1803 171.145 12.0707 171.035C11.9612 170.926 11.8997 170.777 11.8997 170.622V165.951C11.8997 165.796 11.9612 165.647 12.0707 165.538C12.1803 165.428 12.3287 165.367 12.4836 165.367C12.6385 165.367 12.7871 165.428 12.8966 165.538C13.0062 165.647 13.0676 165.796 13.0676 165.951V170.622C13.0681 170.769 13.0131 170.911 12.9135 171.02C12.8139 171.128 12.677 171.195 12.5304 171.206H12.4836ZM435.274 168.17C435.119 168.17 434.971 168.108 434.861 167.999C434.752 167.889 434.69 167.741 434.69 167.586V162.914C434.69 162.759 434.752 162.611 434.861 162.501C434.971 162.392 435.119 162.33 435.274 162.33C435.429 162.33 435.577 162.392 435.687 162.501C435.797 162.611 435.858 162.759 435.858 162.914V167.586C435.858 167.733 435.803 167.875 435.704 167.983C435.604 168.091 435.467 168.158 435.321 168.17H435.274ZM12.4836 161.863C12.3287 161.863 12.1803 161.801 12.0707 161.692C11.9612 161.582 11.8997 161.434 11.8997 161.279V156.607C11.8997 156.452 11.9612 156.304 12.0707 156.194C12.1803 156.085 12.3287 156.023 12.4836 156.023C12.6385 156.023 12.7871 156.085 12.8966 156.194C13.0062 156.304 13.0676 156.452 13.0676 156.607V161.279C13.0681 161.426 13.0131 161.568 12.9135 161.676C12.8139 161.784 12.677 161.851 12.5304 161.863H12.4836ZM435.274 158.826C435.119 158.826 434.971 158.765 434.861 158.655C434.752 158.546 434.69 158.397 434.69 158.242V153.571C434.69 153.416 434.752 153.267 434.861 153.158C434.971 153.048 435.119 152.987 435.274 152.987C435.429 152.987 435.577 153.048 435.687 153.158C435.797 153.267 435.858 153.416 435.858 153.571V158.242C435.858 158.389 435.803 158.531 435.704 158.64C435.604 158.748 435.467 158.814 435.321 158.826H435.274ZM12.4836 152.519C12.3287 152.519 12.1803 152.458 12.0707 152.348C11.9612 152.239 11.8997 152.09 11.8997 151.936V147.264C11.8997 147.109 11.9612 146.96 12.0707 146.851C12.1803 146.741 12.3287 146.68 12.4836 146.68C12.6385 146.68 12.7871 146.741 12.8966 146.851C13.0062 146.96 13.0676 147.109 13.0676 147.264V151.936C13.0681 152.083 13.0131 152.224 12.9135 152.333C12.8139 152.441 12.677 152.508 12.5304 152.519H12.4836ZM435.274 149.483C435.119 149.483 434.971 149.421 434.861 149.312C434.752 149.202 434.69 149.054 434.69 148.899V144.227C434.69 144.072 434.752 143.924 434.861 143.814C434.971 143.705 435.119 143.643 435.274 143.643C435.429 143.643 435.577 143.705 435.687 143.814C435.797 143.924 435.858 144.072 435.858 144.227V148.899C435.858 149.046 435.803 149.188 435.704 149.296C435.604 149.404 435.467 149.471 435.321 149.483H435.274ZM12.4836 143.176C12.3287 143.176 12.1803 143.114 12.0707 143.005C11.9612 142.895 11.8997 142.747 11.8997 142.592V137.92C11.8997 137.765 11.9612 137.617 12.0707 137.507C12.1803 137.398 12.3287 137.336 12.4836 137.336C12.6385 137.336 12.7871 137.398 12.8966 137.507C13.0062 137.617 13.0676 137.765 13.0676 137.92V142.592C13.0681 142.739 13.0131 142.881 12.9135 142.989C12.8139 143.098 12.677 143.164 12.5304 143.176H12.4836ZM435.274 140.139C435.119 140.139 434.971 140.078 434.861 139.968C434.752 139.859 434.69 139.71 434.69 139.555V134.884C434.69 134.729 434.752 134.58 434.861 134.471C434.971 134.361 435.119 134.3 435.274 134.3C435.429 134.3 435.577 134.361 435.687 134.471C435.797 134.58 435.858 134.729 435.858 134.884V139.555C435.858 139.703 435.803 139.844 435.704 139.953C435.604 140.061 435.467 140.128 435.321 140.139H435.274ZM12.4836 133.833C12.3287 133.833 12.1803 133.771 12.0707 133.662C11.9612 133.552 11.8997 133.404 11.8997 133.249V128.577C11.8997 128.422 11.9612 128.273 12.0707 128.164C12.1803 128.054 12.3287 127.993 12.4836 127.993C12.6385 127.993 12.7871 128.054 12.8966 128.164C13.0062 128.273 13.0676 128.422 13.0676 128.577V133.249C13.0681 133.396 13.0131 133.538 12.9135 133.646C12.8139 133.754 12.677 133.821 12.5304 133.833H12.4836ZM435.274 130.796C435.119 130.796 434.971 130.734 434.861 130.625C434.752 130.515 434.69 130.367 434.69 130.212V125.54C434.69 125.385 434.752 125.237 434.861 125.127C434.971 125.018 435.119 124.956 435.274 124.956C435.429 124.956 435.577 125.018 435.687 125.127C435.797 125.237 435.858 125.385 435.858 125.54V130.212C435.858 130.359 435.803 130.501 435.704 130.609C435.604 130.718 435.467 130.784 435.321 130.796H435.274ZM12.4836 124.489C12.3287 124.489 12.1803 124.428 12.0707 124.318C11.9612 124.209 11.8997 124.06 11.8997 123.905V119.233C11.8997 119.079 11.9612 118.93 12.0707 118.821C12.1803 118.711 12.3287 118.65 12.4836 118.65C12.6385 118.65 12.7871 118.711 12.8966 118.821C13.0062 118.93 13.0676 119.079 13.0676 119.233V123.905C13.0681 124.052 13.0131 124.194 12.9135 124.302C12.8139 124.411 12.677 124.477 12.5304 124.489H12.4836ZM435.274 121.453C435.119 121.453 434.971 121.391 434.861 121.281C434.752 121.172 434.69 121.023 434.69 120.869V116.197C434.69 116.042 434.752 115.893 434.861 115.784C434.971 115.674 435.119 115.613 435.274 115.613C435.429 115.613 435.577 115.674 435.687 115.784C435.797 115.893 435.858 116.042 435.858 116.197V120.869C435.858 121.016 435.803 121.158 435.704 121.266C435.604 121.374 435.467 121.441 435.321 121.453H435.274ZM12.4836 115.146C12.3287 115.146 12.1803 115.084 12.0707 114.975C11.9612 114.865 11.8997 114.717 11.8997 114.562V109.89C11.8997 109.735 11.9612 109.587 12.0707 109.477C12.1803 109.368 12.3287 109.306 12.4836 109.306C12.6385 109.306 12.7871 109.368 12.8966 109.477C13.0062 109.587 13.0676 109.735 13.0676 109.89V114.562C13.0681 114.709 13.0131 114.851 12.9135 114.959C12.8139 115.067 12.677 115.134 12.5304 115.146H12.4836ZM435.274 112.109C435.119 112.109 434.971 112.048 434.861 111.938C434.752 111.829 434.69 111.68 434.69 111.525V106.853C434.69 106.699 434.752 106.55 434.861 106.441C434.971 106.331 435.119 106.269 435.274 106.269C435.429 106.269 435.577 106.331 435.687 106.441C435.797 106.55 435.858 106.699 435.858 106.853V111.525C435.858 111.672 435.803 111.814 435.704 111.922C435.604 112.031 435.467 112.097 435.321 112.109H435.274ZM12.4836 105.802C12.3287 105.802 12.1803 105.741 12.0707 105.631C11.9612 105.522 11.8997 105.373 11.8997 105.218V100.547C11.8997 100.392 11.9612 100.243 12.0707 100.134C12.1803 100.024 12.3287 99.9626 12.4836 99.9626C12.6385 99.9626 12.7871 100.024 12.8966 100.134C13.0062 100.243 13.0676 100.392 13.0676 100.547V105.218C13.0681 105.365 13.0131 105.507 12.9135 105.616C12.8139 105.724 12.677 105.791 12.5304 105.802H12.4836ZM435.274 102.766C435.119 102.766 434.971 102.704 434.861 102.595C434.752 102.485 434.69 102.337 434.69 102.182V97.51C434.69 97.3551 434.752 97.2066 434.861 97.0971C434.971 96.9876 435.119 96.926 435.274 96.926C435.429 96.926 435.577 96.9876 435.687 97.0971C435.797 97.2066 435.858 97.3551 435.858 97.51V102.182C435.858 102.329 435.803 102.471 435.704 102.579C435.604 102.687 435.467 102.754 435.321 102.766H435.274ZM12.4836 96.4589C12.3287 96.4589 12.1803 96.3973 12.0707 96.2878C11.9612 96.1783 11.8997 96.0298 11.8997 95.8749V91.2032C11.8997 91.0483 11.9612 90.8997 12.0707 90.7902C12.1803 90.6807 12.3287 90.6192 12.4836 90.6192C12.6385 90.6192 12.7871 90.6807 12.8966 90.7902C13.0062 90.8997 13.0676 91.0483 13.0676 91.2032V95.8749C13.0681 96.022 13.0131 96.1638 12.9135 96.2721C12.8139 96.3804 12.677 96.4471 12.5304 96.4589H12.4836ZM435.274 93.4222C435.119 93.4222 434.971 93.3607 434.861 93.2512C434.752 93.1417 434.69 92.9931 434.69 92.8382V88.1665C434.69 88.0116 434.752 87.8632 434.861 87.7536C434.971 87.6441 435.119 87.5826 435.274 87.5826C435.429 87.5826 435.577 87.6441 435.687 87.7536C435.797 87.8632 435.858 88.0116 435.858 88.1665V92.8382C435.858 92.9854 435.803 93.1272 435.704 93.2355C435.604 93.3438 435.467 93.4104 435.321 93.4222H435.274ZM12.4836 87.1154C12.3287 87.1154 12.1803 87.0539 12.0707 86.9443C11.9612 86.8348 11.8997 86.6863 11.8997 86.5315V81.8597C11.8997 81.7049 11.9612 81.5563 12.0707 81.4468C12.1803 81.3373 12.3287 81.2758 12.4836 81.2758C12.6385 81.2758 12.7871 81.3373 12.8966 81.4468C13.0062 81.5563 13.0676 81.7049 13.0676 81.8597V86.5315C13.0681 86.6786 13.0131 86.8204 12.9135 86.9287C12.8139 87.0369 12.677 87.1037 12.5304 87.1154H12.4836ZM435.274 84.0788C435.119 84.0788 434.971 84.0173 434.861 83.9078C434.752 83.7982 434.69 83.6497 434.69 83.4948V78.8231C434.69 78.6682 434.752 78.5197 434.861 78.4102C434.971 78.3007 435.119 78.2391 435.274 78.2391C435.429 78.2391 435.577 78.3007 435.687 78.4102C435.797 78.5197 435.858 78.6682 435.858 78.8231V83.4948C435.858 83.6419 435.803 83.7838 435.704 83.8921C435.604 84.0003 435.467 84.067 435.321 84.0788H435.274ZM12.4836 77.772C12.3287 77.772 12.1803 77.7104 12.0707 77.6009C11.9612 77.4914 11.8997 77.3429 11.8997 77.188V72.5163C11.8997 72.3614 11.9612 72.2129 12.0707 72.1034C12.1803 71.9938 12.3287 71.9323 12.4836 71.9323C12.6385 71.9323 12.7871 71.9938 12.8966 72.1034C13.0062 72.2129 13.0676 72.3614 13.0676 72.5163V77.188C13.0681 77.3351 13.0131 77.477 12.9135 77.5852C12.8139 77.6935 12.677 77.7602 12.5304 77.772H12.4836ZM435.274 74.7353C435.119 74.7353 434.971 74.6738 434.861 74.5643C434.752 74.4548 434.69 74.3062 434.69 74.1514V69.4797C434.69 69.3248 434.752 69.1763 434.861 69.0668C434.971 68.9573 435.119 68.8957 435.274 68.8957C435.429 68.8957 435.577 68.9573 435.687 69.0668C435.797 69.1763 435.858 69.3248 435.858 69.4797V74.1514C435.858 74.2985 435.803 74.4404 435.704 74.5486C435.604 74.6569 435.467 74.7236 435.321 74.7353H435.274ZM12.4836 68.4286C12.3287 68.4286 12.1803 68.367 12.0707 68.2575C11.9612 68.148 11.8997 67.9995 11.8997 67.8446V63.1729C11.8997 63.018 11.9612 62.8694 12.0707 62.7599C12.1803 62.6504 12.3287 62.5889 12.4836 62.5889C12.6385 62.5889 12.7871 62.6504 12.8966 62.7599C13.0062 62.8694 13.0676 63.018 13.0676 63.1729V67.8446C13.0681 67.9917 13.0131 68.1335 12.9135 68.2418C12.8139 68.3501 12.677 68.4168 12.5304 68.4286H12.4836ZM435.274 65.3919C435.119 65.3919 434.971 65.3304 434.861 65.2209C434.752 65.1114 434.69 64.9628 434.69 64.8079V60.1362C434.69 59.9813 434.752 59.8329 434.861 59.7233C434.971 59.6138 435.119 59.5522 435.274 59.5522C435.429 59.5522 435.577 59.6138 435.687 59.7233C435.797 59.8329 435.858 59.9813 435.858 60.1362V64.8079C435.858 64.955 435.803 65.0969 435.704 65.2052C435.604 65.3135 435.467 65.3801 435.321 65.3919H435.274ZM12.4836 59.0851C12.3287 59.0851 12.1803 59.0236 12.0707 58.914C11.9612 58.8045 11.8997 58.656 11.8997 58.5012V53.8294C11.8997 53.6746 11.9612 53.526 12.0707 53.4165C12.1803 53.307 12.3287 53.2455 12.4836 53.2455C12.6385 53.2455 12.7871 53.307 12.8966 53.4165C13.0062 53.526 13.0676 53.6746 13.0676 53.8294V58.5012C13.0681 58.6483 13.0131 58.7901 12.9135 58.8984C12.8139 59.0066 12.677 59.0734 12.5304 59.0851H12.4836ZM435.274 56.0485C435.119 56.0485 434.971 55.987 434.861 55.8775C434.752 55.7679 434.69 55.6194 434.69 55.4645V50.7928C434.69 50.6379 434.752 50.4894 434.861 50.3799C434.971 50.2704 435.119 50.2088 435.274 50.2088C435.429 50.2088 435.577 50.2704 435.687 50.3799C435.797 50.4894 435.858 50.6379 435.858 50.7928V55.4645C435.858 55.6116 435.803 55.7535 435.704 55.8618C435.604 55.97 435.467 56.0367 435.321 56.0485H435.274ZM12.4836 49.7417C12.3287 49.7417 12.1803 49.6801 12.0707 49.5706C11.9612 49.4611 11.8997 49.3126 11.8997 49.1577C11.9089 47.5959 12.0103 46.0359 12.2033 44.486C12.212 44.4091 12.2359 44.3347 12.2736 44.2671C12.3113 44.1995 12.362 44.14 12.4229 44.0922C12.4837 44.0444 12.5534 44.0091 12.628 43.9885C12.7026 43.9679 12.7807 43.9623 12.8574 43.9721C13.0102 43.9953 13.1485 44.0758 13.2439 44.1973C13.3394 44.3188 13.3849 44.4722 13.3713 44.6262C13.1615 46.1744 13.06 47.7355 13.0676 49.2979C13.0376 49.4198 12.9692 49.5287 12.8724 49.6087C12.7756 49.6886 12.6557 49.7353 12.5304 49.7417H12.4836ZM435.274 46.7284C435.127 46.7289 434.985 46.6738 434.877 46.5742C434.769 46.4746 434.702 46.3378 434.69 46.1911C434.558 44.6604 434.331 43.1393 434.013 41.6363C433.985 41.4817 434.018 41.3224 434.105 41.1917C434.192 41.0611 434.327 40.9692 434.48 40.9355C434.632 40.9082 434.788 40.942 434.915 41.0295C435.042 41.117 435.129 41.2511 435.157 41.4027C435.487 42.943 435.714 44.5037 435.835 46.0744C435.844 46.1499 435.839 46.2266 435.818 46.2998C435.797 46.373 435.761 46.4411 435.713 46.5002C435.665 46.5592 435.605 46.6078 435.538 46.643C435.471 46.6782 435.397 46.6993 435.321 46.705L435.274 46.7284ZM13.6983 40.4916H13.5582C13.4833 40.4754 13.4127 40.444 13.3504 40.3994C13.2882 40.3548 13.2357 40.2979 13.1963 40.2322C13.1569 40.1666 13.1314 40.0936 13.1213 40.0177C13.1113 39.9418 13.1168 39.8646 13.1377 39.7909C13.5144 38.2561 13.9983 36.7497 14.586 35.2827C14.6142 35.2099 14.6568 35.1435 14.7111 35.0875C14.7655 35.0314 14.8305 34.9869 14.9023 34.9564C14.9742 34.9259 15.0514 34.9101 15.1294 34.91C15.2075 34.9099 15.2849 34.9254 15.3568 34.9557C15.4981 35.0129 15.6114 35.1232 15.6725 35.2628C15.7336 35.4025 15.7376 35.5605 15.6837 35.7032C15.1179 37.1279 14.642 38.5868 14.2589 40.0712C14.2203 40.1906 14.1457 40.2952 14.0453 40.3705C13.9449 40.4457 13.8237 40.4881 13.6983 40.4916ZM433.289 37.5952C433.165 37.5967 433.044 37.5592 432.944 37.4878C432.843 37.4165 432.767 37.3151 432.728 37.1981C432.233 35.7537 431.647 34.3416 430.976 32.9702C430.909 32.83 430.899 32.6697 430.946 32.522C430.994 32.3743 431.097 32.2504 431.233 32.176C431.303 32.1406 431.38 32.1199 431.458 32.1149C431.537 32.1099 431.616 32.1208 431.69 32.147C431.764 32.1732 431.832 32.2141 431.89 32.2672C431.948 32.3204 431.995 32.3847 432.027 32.4563C432.714 33.8747 433.315 35.3334 433.826 36.8244C433.878 36.97 433.871 37.1305 433.805 37.2706C433.74 37.4108 433.621 37.5191 433.475 37.5718L433.289 37.5952ZM17.1087 31.8256C17.0165 31.8466 16.9207 31.8466 16.8284 31.8256C16.6963 31.7473 16.5986 31.6218 16.5553 31.4745C16.5119 31.3271 16.526 31.1688 16.5948 31.0314C17.3633 29.643 18.2135 28.3015 19.1409 27.0138C19.1793 26.9387 19.2335 26.873 19.2997 26.8209C19.366 26.7688 19.4426 26.7316 19.5246 26.7119C19.6065 26.6923 19.6918 26.6906 19.7745 26.707C19.8571 26.7234 19.9352 26.7576 20.0035 26.807C20.0717 26.8565 20.1284 26.9201 20.1697 26.9936C20.211 27.067 20.2359 27.1486 20.2427 27.2326C20.2495 27.3166 20.2381 27.4011 20.2092 27.4802C20.1803 27.5594 20.1345 27.6314 20.0752 27.6912C19.1818 28.9422 18.3628 30.2447 17.6225 31.592C17.5636 31.6712 17.4856 31.7342 17.3957 31.7751C17.3058 31.8159 17.2071 31.8333 17.1087 31.8256ZM429.177 29.2095C429.081 29.2086 428.986 29.1849 428.901 29.1402C428.816 29.0955 428.742 29.0312 428.687 28.9526C427.855 27.6671 426.934 26.4416 425.931 25.2852C425.822 25.1722 425.761 25.0215 425.761 24.8648C425.761 24.7081 425.822 24.5574 425.931 24.4443C426.04 24.3373 426.187 24.2774 426.339 24.2774C426.492 24.2774 426.639 24.3373 426.748 24.4443C427.777 25.6441 428.729 26.908 429.598 28.2284C429.68 28.3598 429.709 28.5177 429.679 28.6697C429.648 28.8217 429.561 28.9563 429.434 29.0459C429.366 29.1241 429.277 29.1809 429.177 29.2095ZM22.5745 24.2575C22.43 24.2576 22.2899 24.2081 22.1775 24.1173C22.121 24.0628 22.076 23.9975 22.0453 23.9253C22.0146 23.853 21.9987 23.7754 21.9987 23.6969C21.9987 23.6184 22.0146 23.5407 22.0453 23.4684C22.076 23.3962 22.121 23.3308 22.1775 23.2764C23.2529 22.1232 24.3996 21.0388 25.6111 20.0296C25.6636 19.9737 25.7269 19.9292 25.7972 19.8988C25.8675 19.8683 25.9434 19.8526 26.02 19.8526C26.0966 19.8526 26.1724 19.8683 26.2427 19.8988C26.313 19.9292 26.3763 19.9737 26.4288 20.0296C26.5358 20.1387 26.5957 20.2855 26.5957 20.4383C26.5957 20.5912 26.5358 20.738 26.4288 20.8471C25.2358 21.8523 24.1047 22.9287 23.0417 24.0706C22.9864 24.1391 22.9144 24.1924 22.8326 24.2251C22.7508 24.2578 22.6619 24.269 22.5745 24.2575ZM423.151 22.2019C423.006 22.2021 422.866 22.1526 422.754 22.0617C421.622 21.0249 420.429 20.0577 419.18 19.1653C419.117 19.1208 419.064 19.0644 419.022 18.9992C418.981 18.9341 418.954 18.8614 418.941 18.7855C418.927 18.7096 418.93 18.6319 418.947 18.5568C418.964 18.4816 418.995 18.4106 419.04 18.3477C419.084 18.2849 419.141 18.2314 419.206 18.1903C419.271 18.1492 419.344 18.1213 419.42 18.1083C419.495 18.0953 419.573 18.0974 419.648 18.1144C419.723 18.1315 419.794 18.1631 419.857 18.2076C421.149 19.1253 422.382 20.1239 423.548 21.1975C423.655 21.3067 423.715 21.4534 423.715 21.6062C423.715 21.7591 423.655 21.9059 423.548 22.0151C423.499 22.0724 423.438 22.1187 423.369 22.1509C423.301 22.1831 423.227 22.2005 423.151 22.2019ZM29.6989 18.3477C29.5739 18.345 29.4533 18.3022 29.3544 18.2257C29.2556 18.1492 29.184 18.043 29.15 17.9227C29.116 17.8025 29.1215 17.6745 29.1657 17.5576C29.2098 17.4406 29.2902 17.341 29.3952 17.2733C30.7258 16.4133 32.1065 15.6333 33.5297 14.9374C33.67 14.8793 33.827 14.8758 33.9697 14.9277C34.1124 14.9796 34.2304 15.0831 34.3006 15.2177C34.336 15.288 34.3568 15.3646 34.3618 15.4431C34.3667 15.5216 34.3557 15.6003 34.3295 15.6745C34.3034 15.7487 34.2625 15.8168 34.2094 15.8747C34.1562 15.9327 34.0919 15.9794 34.0203 16.0119C32.6395 16.7028 31.3052 17.4831 30.0259 18.3477C29.9123 18.3598 29.7977 18.3352 29.6989 18.2777V18.3477ZM415.466 16.736C415.374 16.7597 415.278 16.7597 415.186 16.736C413.835 16.0077 412.438 15.3679 411.005 14.8206C410.859 14.7648 410.741 14.6535 410.678 14.5111C410.614 14.3688 410.61 14.207 410.666 14.0615C410.722 13.9159 410.833 13.7984 410.975 13.7348C411.118 13.6713 411.279 13.667 411.425 13.7227C412.896 14.2988 414.331 14.9618 415.723 15.7082C415.793 15.7424 415.855 15.7908 415.905 15.8503C415.955 15.9098 415.993 15.9791 416.015 16.0538C416.037 16.1285 416.043 16.207 416.033 16.2843C416.023 16.3615 415.997 16.4358 415.957 16.5024C415.901 16.5797 415.827 16.6417 415.741 16.6826C415.656 16.7235 415.561 16.7418 415.466 16.736ZM38.0145 14.2366C37.8911 14.2382 37.7704 14.2006 37.6697 14.1293C37.5689 14.0579 37.4934 13.9565 37.454 13.8396C37.4249 13.7662 37.4116 13.6875 37.415 13.6087C37.4184 13.5299 37.4385 13.4527 37.4738 13.3822C37.509 13.3116 37.5588 13.2493 37.6198 13.1993C37.6808 13.1493 37.7517 13.1128 37.8278 13.0921C39.3561 12.5771 40.9167 12.1635 42.4995 11.8541C42.6512 11.8268 42.8076 11.8605 42.9345 11.948C43.0614 12.0355 43.1484 12.1697 43.1768 12.3212C43.1937 12.3966 43.1948 12.4747 43.1801 12.5506C43.1654 12.6264 43.1352 12.6984 43.0913 12.762C43.0474 12.8256 42.9909 12.8795 42.9252 12.9202C42.8595 12.9609 42.7861 12.9876 42.7096 12.9986C41.2164 13.3106 39.7425 13.7084 38.295 14.1899L38.0145 14.2366ZM406.753 13.3724H406.613C405.129 12.9978 403.624 12.7169 402.105 12.5314C402.027 12.526 401.951 12.5043 401.881 12.4676C401.812 12.4309 401.751 12.3802 401.703 12.3186C401.654 12.2569 401.619 12.1858 401.6 12.1098C401.581 12.0338 401.578 11.9546 401.591 11.8774C401.614 11.7263 401.695 11.5903 401.818 11.4986C401.94 11.4068 402.094 11.3668 402.245 11.3869C403.818 11.5714 405.378 11.8522 406.917 12.2278C406.992 12.2444 407.063 12.2756 407.126 12.3199C407.19 12.3642 407.243 12.4205 407.285 12.4856C407.326 12.5508 407.354 12.6235 407.367 12.6995C407.38 12.7755 407.378 12.8534 407.361 12.9285C407.329 13.0453 407.263 13.1499 407.171 13.229C407.08 13.3081 406.967 13.358 406.847 13.3724H406.753ZM47.0311 12.3913C46.8824 12.3913 46.7397 12.3322 46.6346 12.2271C46.5294 12.122 46.4705 11.9794 46.4705 11.8307C46.4641 11.7552 46.473 11.6791 46.4969 11.6072C46.5207 11.5353 46.559 11.4689 46.6092 11.4121C46.6594 11.3553 46.7206 11.3094 46.7891 11.2769C46.8576 11.2445 46.9319 11.2262 47.0077 11.2233C47.9654 11.2233 48.923 11.1066 49.8807 11.1066H51.7028C51.8577 11.1066 52.0061 11.1681 52.1157 11.2776C52.2252 11.3871 52.2867 11.5357 52.2867 11.6905C52.2867 11.8454 52.2252 11.994 52.1157 12.1035C52.0061 12.213 51.8577 12.2745 51.7028 12.2745H49.8807C48.9698 12.2745 48.012 12.2745 47.0777 12.2745L47.0311 12.3913ZM397.41 12.2745H392.738C392.583 12.2745 392.435 12.213 392.325 12.1035C392.216 11.994 392.154 11.8454 392.154 11.6905C392.154 11.5357 392.216 11.3871 392.325 11.2776C392.435 11.1681 392.583 11.1066 392.738 11.1066H397.41C397.565 11.1066 397.713 11.1681 397.823 11.2776C397.932 11.3871 397.994 11.5357 397.994 11.6905C397.994 11.8454 397.932 11.994 397.823 12.1035C397.713 12.213 397.565 12.2745 397.41 12.2745ZM388.066 12.2745H383.395C383.24 12.2745 383.091 12.213 382.982 12.1035C382.872 11.994 382.811 11.8454 382.811 11.6905C382.811 11.5357 382.872 11.3871 382.982 11.2776C383.091 11.1681 383.24 11.1066 383.395 11.1066H388.066C388.221 11.1066 388.37 11.1681 388.479 11.2776C388.589 11.3871 388.65 11.5357 388.65 11.6905C388.65 11.8454 388.589 11.994 388.479 12.1035C388.37 12.213 388.221 12.2745 388.066 12.2745ZM378.723 12.2745H374.051C373.896 12.2745 373.748 12.213 373.638 12.1035C373.529 11.994 373.467 11.8454 373.467 11.6905C373.467 11.5357 373.529 11.3871 373.638 11.2776C373.748 11.1681 373.896 11.1066 374.051 11.1066H378.723C378.878 11.1066 379.026 11.1681 379.136 11.2776C379.245 11.3871 379.307 11.5357 379.307 11.6905C379.307 11.8454 379.245 11.994 379.136 12.1035C379.026 12.213 378.878 12.2745 378.723 12.2745ZM369.38 12.2745H364.708C364.553 12.2745 364.404 12.213 364.295 12.1035C364.185 11.994 364.124 11.8454 364.124 11.6905C364.124 11.5357 364.185 11.3871 364.295 11.2776C364.404 11.1681 364.553 11.1066 364.708 11.1066H369.38C369.534 11.1066 369.683 11.1681 369.792 11.2776C369.902 11.3871 369.963 11.5357 369.963 11.6905C369.963 11.8454 369.902 11.994 369.792 12.1035C369.683 12.213 369.534 12.2745 369.38 12.2745ZM360.036 12.2745H355.364C355.209 12.2745 355.061 12.213 354.951 12.1035C354.842 11.994 354.78 11.8454 354.78 11.6905C354.78 11.5357 354.842 11.3871 354.951 11.2776C355.061 11.1681 355.209 11.1066 355.364 11.1066H360.036C360.191 11.1066 360.339 11.1681 360.449 11.2776C360.558 11.3871 360.62 11.5357 360.62 11.6905C360.62 11.8454 360.558 11.994 360.449 12.1035C360.339 12.213 360.191 12.2745 360.036 12.2745ZM350.693 12.2745H346.021C345.866 12.2745 345.717 12.213 345.608 12.1035C345.498 11.994 345.437 11.8454 345.437 11.6905C345.437 11.5357 345.498 11.3871 345.608 11.2776C345.717 11.1681 345.866 11.1066 346.021 11.1066H350.693C350.848 11.1066 350.996 11.1681 351.106 11.2776C351.215 11.3871 351.277 11.5357 351.277 11.6905C351.277 11.8454 351.215 11.994 351.106 12.1035C350.996 12.213 350.848 12.2745 350.693 12.2745ZM341.349 12.2745H336.677C336.523 12.2745 336.374 12.213 336.264 12.1035C336.155 11.994 336.094 11.8454 336.094 11.6905C336.094 11.5357 336.155 11.3871 336.264 11.2776C336.374 11.1681 336.523 11.1066 336.677 11.1066H341.349C341.504 11.1066 341.653 11.1681 341.762 11.2776C341.872 11.3871 341.933 11.5357 341.933 11.6905C341.933 11.8454 341.872 11.994 341.762 12.1035C341.653 12.213 341.504 12.2745 341.349 12.2745ZM332.006 12.2745H327.334C327.179 12.2745 327.031 12.213 326.921 12.1035C326.812 11.994 326.75 11.8454 326.75 11.6905C326.75 11.5357 326.812 11.3871 326.921 11.2776C327.031 11.1681 327.179 11.1066 327.334 11.1066H332.006C332.161 11.1066 332.309 11.1681 332.419 11.2776C332.528 11.3871 332.59 11.5357 332.59 11.6905C332.59 11.8454 332.528 11.994 332.419 12.1035C332.309 12.213 332.161 12.2745 332.006 12.2745ZM322.662 12.2745H317.991C317.836 12.2745 317.687 12.213 317.578 12.1035C317.468 11.994 317.407 11.8454 317.407 11.6905C317.407 11.5357 317.468 11.3871 317.578 11.2776C317.687 11.1681 317.836 11.1066 317.991 11.1066H322.662C322.817 11.1066 322.966 11.1681 323.075 11.2776C323.185 11.3871 323.246 11.5357 323.246 11.6905C323.246 11.8454 323.185 11.994 323.075 12.1035C322.966 12.213 322.817 12.2745 322.662 12.2745ZM313.319 12.2745H308.647C308.492 12.2745 308.344 12.213 308.234 12.1035C308.125 11.994 308.063 11.8454 308.063 11.6905C308.063 11.5357 308.125 11.3871 308.234 11.2776C308.344 11.1681 308.492 11.1066 308.647 11.1066H313.319C313.474 11.1066 313.622 11.1681 313.732 11.2776C313.841 11.3871 313.903 11.5357 313.903 11.6905C313.903 11.8454 313.841 11.994 313.732 12.1035C313.622 12.213 313.474 12.2745 313.319 12.2745ZM303.975 12.2745H299.304C299.149 12.2745 299 12.213 298.891 12.1035C298.781 11.994 298.72 11.8454 298.72 11.6905C298.72 11.5357 298.781 11.3871 298.891 11.2776C299 11.1681 299.149 11.1066 299.304 11.1066H303.975C304.13 11.1066 304.279 11.1681 304.388 11.2776C304.498 11.3871 304.559 11.5357 304.559 11.6905C304.559 11.8454 304.498 11.994 304.388 12.1035C304.279 12.213 304.13 12.2745 303.975 12.2745ZM294.632 12.2745H289.96C289.805 12.2745 289.657 12.213 289.547 12.1035C289.438 11.994 289.376 11.8454 289.376 11.6905C289.376 11.5357 289.438 11.3871 289.547 11.2776C289.657 11.1681 289.805 11.1066 289.96 11.1066H294.632C294.787 11.1066 294.935 11.1681 295.045 11.2776C295.154 11.3871 295.216 11.5357 295.216 11.6905C295.216 11.8454 295.154 11.994 295.045 12.1035C294.935 12.213 294.787 12.2745 294.632 12.2745ZM285.289 12.2745H280.617C280.462 12.2745 280.313 12.213 280.204 12.1035C280.094 11.994 280.033 11.8454 280.033 11.6905C280.033 11.5357 280.094 11.3871 280.204 11.2776C280.313 11.1681 280.462 11.1066 280.617 11.1066H285.289C285.443 11.1066 285.592 11.1681 285.701 11.2776C285.811 11.3871 285.873 11.5357 285.873 11.6905C285.873 11.8454 285.811 11.994 285.701 12.1035C285.592 12.213 285.443 12.2745 285.289 12.2745ZM275.945 12.2745H271.273C271.119 12.2745 270.97 12.213 270.86 12.1035C270.751 11.994 270.689 11.8454 270.689 11.6905C270.689 11.5357 270.751 11.3871 270.86 11.2776C270.97 11.1681 271.119 11.1066 271.273 11.1066H275.945C276.1 11.1066 276.249 11.1681 276.358 11.2776C276.468 11.3871 276.529 11.5357 276.529 11.6905C276.529 11.8454 276.468 11.994 276.358 12.1035C276.249 12.213 276.1 12.2745 275.945 12.2745ZM266.602 12.2745H261.93C261.775 12.2745 261.627 12.213 261.517 12.1035C261.407 11.994 261.346 11.8454 261.346 11.6905C261.346 11.5357 261.407 11.3871 261.517 11.2776C261.627 11.1681 261.775 11.1066 261.93 11.1066H266.602C266.757 11.1066 266.905 11.1681 267.015 11.2776C267.124 11.3871 267.186 11.5357 267.186 11.6905C267.186 11.8454 267.124 11.994 267.015 12.1035C266.905 12.213 266.757 12.2745 266.602 12.2745ZM257.258 12.2745H252.587C252.432 12.2745 252.283 12.213 252.174 12.1035C252.064 11.994 252.003 11.8454 252.003 11.6905C252.003 11.5357 252.064 11.3871 252.174 11.2776C252.283 11.1681 252.432 11.1066 252.587 11.1066H257.258C257.413 11.1066 257.562 11.1681 257.671 11.2776C257.781 11.3871 257.842 11.5357 257.842 11.6905C257.842 11.8454 257.781 11.994 257.671 12.1035C257.562 12.213 257.413 12.2745 257.258 12.2745ZM247.915 12.2745H243.243C243.088 12.2745 242.94 12.213 242.83 12.1035C242.721 11.994 242.659 11.8454 242.659 11.6905C242.659 11.5357 242.721 11.3871 242.83 11.2776C242.94 11.1681 243.088 11.1066 243.243 11.1066H247.915C248.07 11.1066 248.218 11.1681 248.328 11.2776C248.437 11.3871 248.499 11.5357 248.499 11.6905C248.499 11.8454 248.437 11.994 248.328 12.1035C248.218 12.213 248.07 12.2745 247.915 12.2745ZM238.571 12.2745H233.9C233.745 12.2745 233.596 12.213 233.487 12.1035C233.377 11.994 233.316 11.8454 233.316 11.6905C233.316 11.5357 233.377 11.3871 233.487 11.2776C233.596 11.1681 233.745 11.1066 233.9 11.1066H238.571C238.726 11.1066 238.875 11.1681 238.984 11.2776C239.094 11.3871 239.155 11.5357 239.155 11.6905C239.155 11.8454 239.094 11.994 238.984 12.1035C238.875 12.213 238.726 12.2745 238.571 12.2745ZM229.228 12.2745H224.556C224.401 12.2745 224.253 12.213 224.143 12.1035C224.034 11.994 223.972 11.8454 223.972 11.6905C223.972 11.5357 224.034 11.3871 224.143 11.2776C224.253 11.1681 224.401 11.1066 224.556 11.1066H229.228C229.383 11.1066 229.531 11.1681 229.641 11.2776C229.75 11.3871 229.812 11.5357 229.812 11.6905C229.812 11.8454 229.75 11.994 229.641 12.1035C229.531 12.213 229.383 12.2745 229.228 12.2745ZM219.885 12.2745H215.213C215.058 12.2745 214.909 12.213 214.8 12.1035C214.69 11.994 214.629 11.8454 214.629 11.6905C214.629 11.5357 214.69 11.3871 214.8 11.2776C214.909 11.1681 215.058 11.1066 215.213 11.1066H219.885C220.039 11.1066 220.188 11.1681 220.297 11.2776C220.407 11.3871 220.469 11.5357 220.469 11.6905C220.469 11.8454 220.407 11.994 220.297 12.1035C220.188 12.213 220.039 12.2745 219.885 12.2745ZM210.541 12.2745H205.869C205.715 12.2745 205.566 12.213 205.456 12.1035C205.347 11.994 205.285 11.8454 205.285 11.6905C205.285 11.5357 205.347 11.3871 205.456 11.2776C205.566 11.1681 205.715 11.1066 205.869 11.1066H210.541C210.696 11.1066 210.845 11.1681 210.954 11.2776C211.064 11.3871 211.125 11.5357 211.125 11.6905C211.125 11.8454 211.064 11.994 210.954 12.1035C210.845 12.213 210.696 12.2745 210.541 12.2745ZM201.198 12.2745H196.526C196.371 12.2745 196.222 12.213 196.113 12.1035C196.003 11.994 195.942 11.8454 195.942 11.6905C195.942 11.5357 196.003 11.3871 196.113 11.2776C196.222 11.1681 196.371 11.1066 196.526 11.1066H201.198C201.353 11.1066 201.501 11.1681 201.611 11.2776C201.72 11.3871 201.782 11.5357 201.782 11.6905C201.782 11.8454 201.72 11.994 201.611 12.1035C201.501 12.213 201.353 12.2745 201.198 12.2745ZM191.854 12.2745H187.183C187.028 12.2745 186.879 12.213 186.77 12.1035C186.66 11.994 186.599 11.8454 186.599 11.6905C186.599 11.5357 186.66 11.3871 186.77 11.2776C186.879 11.1681 187.028 11.1066 187.183 11.1066H191.854C192.009 11.1066 192.158 11.1681 192.267 11.2776C192.377 11.3871 192.438 11.5357 192.438 11.6905C192.438 11.8454 192.377 11.994 192.267 12.1035C192.158 12.213 192.009 12.2745 191.854 12.2745ZM182.511 12.2745H177.839C177.684 12.2745 177.536 12.213 177.426 12.1035C177.317 11.994 177.255 11.8454 177.255 11.6905C177.255 11.5357 177.317 11.3871 177.426 11.2776C177.536 11.1681 177.684 11.1066 177.839 11.1066H182.511C182.666 11.1066 182.814 11.1681 182.924 11.2776C183.033 11.3871 183.095 11.5357 183.095 11.6905C183.095 11.8454 183.033 11.994 182.924 12.1035C182.814 12.213 182.666 12.2745 182.511 12.2745ZM173.167 12.2745H168.496C168.341 12.2745 168.192 12.213 168.083 12.1035C167.973 11.994 167.912 11.8454 167.912 11.6905C167.912 11.5357 167.973 11.3871 168.083 11.2776C168.192 11.1681 168.341 11.1066 168.496 11.1066H173.167C173.322 11.1066 173.471 11.1681 173.58 11.2776C173.69 11.3871 173.751 11.5357 173.751 11.6905C173.751 11.8454 173.69 11.994 173.58 12.1035C173.471 12.213 173.322 12.2745 173.167 12.2745ZM163.824 12.2745H159.152C158.997 12.2745 158.849 12.213 158.739 12.1035C158.63 11.994 158.568 11.8454 158.568 11.6905C158.568 11.5357 158.63 11.3871 158.739 11.2776C158.849 11.1681 158.997 11.1066 159.152 11.1066H163.824C163.979 11.1066 164.127 11.1681 164.237 11.2776C164.346 11.3871 164.408 11.5357 164.408 11.6905C164.408 11.8454 164.346 11.994 164.237 12.1035C164.127 12.213 163.979 12.2745 163.824 12.2745ZM154.481 12.2745H149.809C149.654 12.2745 149.505 12.213 149.396 12.1035C149.286 11.994 149.225 11.8454 149.225 11.6905C149.225 11.5357 149.286 11.3871 149.396 11.2776C149.505 11.1681 149.654 11.1066 149.809 11.1066H154.481C154.635 11.1066 154.784 11.1681 154.893 11.2776C155.003 11.3871 155.065 11.5357 155.065 11.6905C155.065 11.8454 155.003 11.994 154.893 12.1035C154.784 12.213 154.635 12.2745 154.481 12.2745ZM145.137 12.2745H140.465C140.311 12.2745 140.162 12.213 140.052 12.1035C139.943 11.994 139.881 11.8454 139.881 11.6905C139.881 11.5357 139.943 11.3871 140.052 11.2776C140.162 11.1681 140.311 11.1066 140.465 11.1066H145.137C145.292 11.1066 145.44 11.1681 145.55 11.2776C145.66 11.3871 145.721 11.5357 145.721 11.6905C145.721 11.8454 145.66 11.994 145.55 12.1035C145.44 12.213 145.292 12.2745 145.137 12.2745ZM135.794 12.2745H131.122C130.967 12.2745 130.818 12.213 130.709 12.1035C130.599 11.994 130.538 11.8454 130.538 11.6905C130.538 11.5357 130.599 11.3871 130.709 11.2776C130.818 11.1681 130.967 11.1066 131.122 11.1066H135.794C135.949 11.1066 136.097 11.1681 136.207 11.2776C136.316 11.3871 136.378 11.5357 136.378 11.6905C136.378 11.8454 136.316 11.994 136.207 12.1035C136.097 12.213 135.949 12.2745 135.794 12.2745ZM126.45 12.2745H121.779C121.624 12.2745 121.475 12.213 121.366 12.1035C121.256 11.994 121.195 11.8454 121.195 11.6905C121.195 11.5357 121.256 11.3871 121.366 11.2776C121.475 11.1681 121.624 11.1066 121.779 11.1066H126.45C126.605 11.1066 126.754 11.1681 126.863 11.2776C126.973 11.3871 127.034 11.5357 127.034 11.6905C127.034 11.8454 126.973 11.994 126.863 12.1035C126.754 12.213 126.605 12.2745 126.45 12.2745ZM117.107 12.2745H112.435C112.28 12.2745 112.132 12.213 112.022 12.1035C111.913 11.994 111.851 11.8454 111.851 11.6905C111.851 11.5357 111.913 11.3871 112.022 11.2776C112.132 11.1681 112.28 11.1066 112.435 11.1066H117.107C117.262 11.1066 117.41 11.1681 117.52 11.2776C117.629 11.3871 117.691 11.5357 117.691 11.6905C117.691 11.8454 117.629 11.994 117.52 12.1035C117.41 12.213 117.262 12.2745 117.107 12.2745ZM107.763 12.2745H103.092C102.937 12.2745 102.788 12.213 102.679 12.1035C102.569 11.994 102.508 11.8454 102.508 11.6905C102.508 11.5357 102.569 11.3871 102.679 11.2776C102.788 11.1681 102.937 11.1066 103.092 11.1066H107.763C107.918 11.1066 108.067 11.1681 108.176 11.2776C108.286 11.3871 108.347 11.5357 108.347 11.6905C108.347 11.8454 108.286 11.994 108.176 12.1035C108.067 12.213 107.918 12.2745 107.763 12.2745ZM98.4199 12.2745H93.7482C93.5933 12.2745 93.4447 12.213 93.3352 12.1035C93.2257 11.994 93.1643 11.8454 93.1643 11.6905C93.1643 11.5357 93.2257 11.3871 93.3352 11.2776C93.4447 11.1681 93.5933 11.1066 93.7482 11.1066H98.4199C98.5748 11.1066 98.7233 11.1681 98.8328 11.2776C98.9423 11.3871 99.0039 11.5357 99.0039 11.6905C99.0039 11.8454 98.9423 11.994 98.8328 12.1035C98.7233 12.213 98.5748 12.2745 98.4199 12.2745ZM89.0765 12.2745H84.4048C84.2499 12.2745 84.1013 12.213 83.9918 12.1035C83.8823 11.994 83.8208 11.8454 83.8208 11.6905C83.8208 11.5357 83.8823 11.3871 83.9918 11.2776C84.1013 11.1681 84.2499 11.1066 84.4048 11.1066H89.0765C89.2314 11.1066 89.3799 11.1681 89.4894 11.2776C89.5989 11.3871 89.6605 11.5357 89.6605 11.6905C89.6605 11.8454 89.5989 11.994 89.4894 12.1035C89.3799 12.213 89.2314 12.2745 89.0765 12.2745ZM79.7331 12.2745H75.0614C74.9065 12.2745 74.7579 12.213 74.6483 12.1035C74.5388 11.994 74.4774 11.8454 74.4774 11.6905C74.4774 11.5357 74.5388 11.3871 74.6483 11.2776C74.7579 11.1681 74.9065 11.1066 75.0614 11.1066H79.7331C79.888 11.1066 80.0364 11.1681 80.146 11.2776C80.2555 11.3871 80.317 11.5357 80.317 11.6905C80.317 11.8454 80.2555 11.994 80.146 12.1035C80.0364 12.213 79.888 12.2745 79.7331 12.2745ZM70.3896 12.2745H65.7179C65.563 12.2745 65.4144 12.213 65.3049 12.1035C65.1954 11.994 65.134 11.8454 65.134 11.6905C65.134 11.5357 65.1954 11.3871 65.3049 11.2776C65.4144 11.1681 65.563 11.1066 65.7179 11.1066H70.3896C70.5445 11.1066 70.693 11.1681 70.8025 11.2776C70.912 11.3871 70.9736 11.5357 70.9736 11.6905C70.9736 11.8454 70.912 11.994 70.8025 12.1035C70.693 12.213 70.5445 12.2745 70.3896 12.2745ZM61.0462 12.2745H56.3745C56.2196 12.2745 56.071 12.213 55.9615 12.1035C55.852 11.994 55.7905 11.8454 55.7905 11.6905C55.7905 11.5357 55.852 11.3871 55.9615 11.2776C56.071 11.1681 56.2196 11.1066 56.3745 11.1066H61.0462C61.2011 11.1066 61.3496 11.1681 61.4591 11.2776C61.5686 11.3871 61.6302 11.5357 61.6302 11.6905C61.6302 11.8454 61.5686 11.994 61.4591 12.1035C61.3496 12.213 61.2011 12.2745 61.0462 12.2745Z" fill="white"/>
<path opacity="0.5" d="M287.841 238.853C287.686 238.853 287.537 238.791 287.428 238.682C287.318 238.572 287.257 238.424 287.257 238.269V233.597C287.257 233.442 287.318 233.294 287.428 233.184C287.537 233.075 287.686 233.013 287.841 233.013C287.996 233.013 288.144 233.075 288.254 233.184C288.363 233.294 288.425 233.442 288.425 233.597V238.269C288.425 238.424 288.363 238.572 288.254 238.682C288.144 238.791 287.996 238.853 287.841 238.853ZM287.841 229.509C287.686 229.509 287.537 229.448 287.428 229.338C287.318 229.229 287.257 229.08 287.257 228.925V224.254C287.257 224.099 287.318 223.95 287.428 223.841C287.537 223.731 287.686 223.67 287.841 223.67C287.996 223.67 288.144 223.731 288.254 223.841C288.363 223.95 288.425 224.099 288.425 224.254V228.925C288.425 229.08 288.363 229.229 288.254 229.338C288.144 229.448 287.996 229.509 287.841 229.509ZM287.841 220.166C287.686 220.166 287.537 220.104 287.428 219.995C287.318 219.885 287.257 219.737 287.257 219.582V214.91C287.257 214.755 287.318 214.607 287.428 214.497C287.537 214.388 287.686 214.326 287.841 214.326C287.996 214.326 288.144 214.388 288.254 214.497C288.363 214.607 288.425 214.755 288.425 214.91V219.582C288.425 219.737 288.363 219.885 288.254 219.995C288.144 220.104 287.996 220.166 287.841 220.166ZM287.841 210.822C287.686 210.822 287.537 210.761 287.428 210.651C287.318 210.542 287.257 210.393 287.257 210.239V205.567C287.257 205.412 287.318 205.263 287.428 205.154C287.537 205.044 287.686 204.983 287.841 204.983C287.996 204.983 288.144 205.044 288.254 205.154C288.363 205.263 288.425 205.412 288.425 205.567V210.239C288.425 210.393 288.363 210.542 288.254 210.651C288.144 210.761 287.996 210.822 287.841 210.822ZM287.841 201.479C287.686 201.479 287.537 201.418 287.428 201.308C287.318 201.199 287.257 201.05 287.257 200.895V196.223C287.257 196.068 287.318 195.92 287.428 195.81C287.537 195.701 287.686 195.639 287.841 195.639C287.996 195.639 288.144 195.701 288.254 195.81C288.363 195.92 288.425 196.068 288.425 196.223V200.895C288.425 201.05 288.363 201.199 288.254 201.308C288.144 201.418 287.996 201.479 287.841 201.479ZM287.841 192.136C287.686 192.136 287.537 192.074 287.428 191.965C287.318 191.855 287.257 191.707 287.257 191.552V186.88C287.257 186.725 287.318 186.576 287.428 186.467C287.537 186.357 287.686 186.296 287.841 186.296C287.996 186.296 288.144 186.357 288.254 186.467C288.363 186.576 288.425 186.725 288.425 186.88V191.552C288.425 191.707 288.363 191.855 288.254 191.965C288.144 192.074 287.996 192.136 287.841 192.136ZM287.841 182.792C287.686 182.792 287.537 182.731 287.428 182.621C287.318 182.512 287.257 182.363 287.257 182.208V177.536C287.257 177.382 287.318 177.233 287.428 177.124C287.537 177.014 287.686 176.953 287.841 176.953C287.996 176.953 288.144 177.014 288.254 177.124C288.363 177.233 288.425 177.382 288.425 177.536V182.208C288.425 182.363 288.363 182.512 288.254 182.621C288.144 182.731 287.996 182.792 287.841 182.792ZM287.841 173.449C287.686 173.449 287.537 173.387 287.428 173.278C287.318 173.168 287.257 173.02 287.257 172.865V168.193C287.257 168.038 287.318 167.89 287.428 167.78C287.537 167.671 287.686 167.609 287.841 167.609C287.996 167.609 288.144 167.671 288.254 167.78C288.363 167.89 288.425 168.038 288.425 168.193V172.865C288.425 173.02 288.363 173.168 288.254 173.278C288.144 173.387 287.996 173.449 287.841 173.449ZM287.841 164.105C287.686 164.105 287.537 164.044 287.428 163.934C287.318 163.825 287.257 163.676 287.257 163.521V158.85C287.257 158.695 287.318 158.546 287.428 158.437C287.537 158.327 287.686 158.266 287.841 158.266C287.996 158.266 288.144 158.327 288.254 158.437C288.363 158.546 288.425 158.695 288.425 158.85V163.521C288.425 163.676 288.363 163.825 288.254 163.934C288.144 164.044 287.996 164.105 287.841 164.105ZM287.841 154.762C287.686 154.762 287.537 154.7 287.428 154.591C287.318 154.481 287.257 154.333 287.257 154.178V149.506C287.257 149.351 287.318 149.203 287.428 149.093C287.537 148.984 287.686 148.922 287.841 148.922C287.996 148.922 288.144 148.984 288.254 149.093C288.363 149.203 288.425 149.351 288.425 149.506V154.178C288.425 154.333 288.363 154.481 288.254 154.591C288.144 154.7 287.996 154.762 287.841 154.762ZM287.841 145.418C287.686 145.418 287.537 145.357 287.428 145.247C287.318 145.138 287.257 144.989 287.257 144.834V140.163C287.257 140.008 287.318 139.859 287.428 139.75C287.537 139.64 287.686 139.579 287.841 139.579C287.996 139.579 288.144 139.64 288.254 139.75C288.363 139.859 288.425 140.008 288.425 140.163V144.834C288.425 144.989 288.363 145.138 288.254 145.247C288.144 145.357 287.996 145.418 287.841 145.418ZM287.841 136.075C287.686 136.075 287.537 136.014 287.428 135.904C287.318 135.794 287.257 135.646 287.257 135.491V130.819C287.257 130.664 287.318 130.516 287.428 130.406C287.537 130.297 287.686 130.235 287.841 130.235C287.996 130.235 288.144 130.297 288.254 130.406C288.363 130.516 288.425 130.664 288.425 130.819V135.491C288.425 135.646 288.363 135.794 288.254 135.904C288.144 136.014 287.996 136.075 287.841 136.075ZM287.841 126.732C287.686 126.732 287.537 126.67 287.428 126.561C287.318 126.451 287.257 126.302 287.257 126.148V121.476C287.257 121.321 287.318 121.172 287.428 121.063C287.537 120.953 287.686 120.892 287.841 120.892C287.996 120.892 288.144 120.953 288.254 121.063C288.363 121.172 288.425 121.321 288.425 121.476V126.148C288.425 126.302 288.363 126.451 288.254 126.561C288.144 126.67 287.996 126.732 287.841 126.732ZM287.841 117.388C287.686 117.388 287.537 117.327 287.428 117.217C287.318 117.108 287.257 116.959 287.257 116.804V112.132C287.257 111.978 287.318 111.829 287.428 111.72C287.537 111.61 287.686 111.549 287.841 111.549C287.996 111.549 288.144 111.61 288.254 111.72C288.363 111.829 288.425 111.978 288.425 112.132V116.804C288.425 116.959 288.363 117.108 288.254 117.217C288.144 117.327 287.996 117.388 287.841 117.388ZM287.841 108.045C287.686 108.045 287.537 107.983 287.428 107.874C287.318 107.764 287.257 107.616 287.257 107.461V102.789C287.257 102.634 287.318 102.486 287.428 102.376C287.537 102.267 287.686 102.205 287.841 102.205C287.996 102.205 288.144 102.267 288.254 102.376C288.363 102.486 288.425 102.634 288.425 102.789V107.461C288.425 107.616 288.363 107.764 288.254 107.874C288.144 107.983 287.996 108.045 287.841 108.045ZM287.841 98.7013C287.686 98.7013 287.537 98.6398 287.428 98.5303C287.318 98.4208 287.257 98.2722 287.257 98.1173V93.4456C287.257 93.2907 287.318 93.1422 287.428 93.0327C287.537 92.9231 287.686 92.8616 287.841 92.8616C287.996 92.8616 288.144 92.9231 288.254 93.0327C288.363 93.1422 288.425 93.2907 288.425 93.4456V98.1173C288.425 98.2722 288.363 98.4208 288.254 98.5303C288.144 98.6398 287.996 98.7013 287.841 98.7013ZM287.841 89.3579C287.686 89.3579 287.537 89.2964 287.428 89.1868C287.318 89.0773 287.257 88.9288 287.257 88.7739V84.1022C287.257 83.9473 287.318 83.7987 287.428 83.6892C287.537 83.5797 287.686 83.5182 287.841 83.5182C287.996 83.5182 288.144 83.5797 288.254 83.6892C288.363 83.7987 288.425 83.9473 288.425 84.1022V88.7739C288.425 88.9288 288.363 89.0773 288.254 89.1868C288.144 89.2964 287.996 89.3579 287.841 89.3579ZM287.841 80.0144C287.686 80.0144 287.537 79.9529 287.428 79.8434C287.318 79.7339 287.257 79.5853 287.257 79.4305V74.7587C287.257 74.6039 287.318 74.4553 287.428 74.3458C287.537 74.2363 287.686 74.1748 287.841 74.1748C287.996 74.1748 288.144 74.2363 288.254 74.3458C288.363 74.4553 288.425 74.6039 288.425 74.7587V79.4305C288.425 79.5853 288.363 79.7339 288.254 79.8434C288.144 79.9529 287.996 80.0144 287.841 80.0144ZM287.841 70.671C287.686 70.671 287.537 70.6095 287.428 70.5C287.318 70.3905 287.257 70.2419 287.257 70.087V65.4153C287.257 65.2604 287.318 65.1119 287.428 65.0023C287.537 64.8928 287.686 64.8313 287.841 64.8313C287.996 64.8313 288.144 64.8928 288.254 65.0023C288.363 65.1119 288.425 65.2604 288.425 65.4153V70.087C288.425 70.2419 288.363 70.3905 288.254 70.5C288.144 70.6095 287.996 70.671 287.841 70.671ZM287.841 61.3276C287.686 61.3276 287.537 61.2661 287.428 61.1565C287.318 61.047 287.257 60.8985 287.257 60.7436V56.0719C287.257 55.917 287.318 55.7684 287.428 55.6589C287.537 55.5494 287.686 55.4879 287.841 55.4879C287.996 55.4879 288.144 55.5494 288.254 55.6589C288.363 55.7684 288.425 55.917 288.425 56.0719V60.7436C288.425 60.8985 288.363 61.047 288.254 61.1565C288.144 61.2661 287.996 61.3276 287.841 61.3276ZM287.841 51.9841C287.686 51.9841 287.537 51.9226 287.428 51.8131C287.318 51.7036 287.257 51.555 287.257 51.4002V46.7284C287.257 46.5736 287.318 46.425 287.428 46.3155C287.537 46.206 287.686 46.1445 287.841 46.1445C287.996 46.1445 288.144 46.206 288.254 46.3155C288.363 46.425 288.425 46.5736 288.425 46.7284V51.4002C288.425 51.555 288.363 51.7036 288.254 51.8131C288.144 51.9226 287.996 51.9841 287.841 51.9841ZM287.841 42.6407C287.686 42.6407 287.537 42.5792 287.428 42.4697C287.318 42.3602 287.257 42.2116 287.257 42.0567V37.385C287.257 37.2301 287.318 37.0816 287.428 36.9721C287.537 36.8625 287.686 36.801 287.841 36.801C287.996 36.801 288.144 36.8625 288.254 36.9721C288.363 37.0816 288.425 37.2301 288.425 37.385V42.0567C288.425 42.2116 288.363 42.3602 288.254 42.4697C288.144 42.5792 287.996 42.6407 287.841 42.6407ZM287.841 33.2973C287.686 33.2973 287.537 33.2358 287.428 33.1262C287.318 33.0167 287.257 32.8682 287.257 32.7133V28.0416C287.257 27.8867 287.318 27.7381 287.428 27.6286C287.537 27.5191 287.686 27.4576 287.841 27.4576C287.996 27.4576 288.144 27.5191 288.254 27.6286C288.363 27.7381 288.425 27.8867 288.425 28.0416V32.7133C288.425 32.8682 288.363 33.0167 288.254 33.1262C288.144 33.2358 287.996 33.2973 287.841 33.2973ZM287.841 23.9538C287.686 23.9538 287.537 23.8923 287.428 23.7828C287.318 23.6733 287.257 23.5247 287.257 23.3699V18.6981C287.257 18.5433 287.318 18.3947 287.428 18.2852C287.537 18.1757 287.686 18.1142 287.841 18.1142C287.996 18.1142 288.144 18.1757 288.254 18.2852C288.363 18.3947 288.425 18.5433 288.425 18.6981V23.3699C288.425 23.5247 288.363 23.6733 288.254 23.7828C288.144 23.8923 287.996 23.9538 287.841 23.9538ZM287.841 14.6104C287.686 14.6104 287.537 14.5489 287.428 14.4394C287.318 14.3299 287.257 14.1813 287.257 14.0264V9.3547C287.257 9.19983 287.318 9.05127 287.428 8.94175C287.537 8.83224 287.686 8.77074 287.841 8.77074C287.996 8.77074 288.144 8.83224 288.254 8.94175C288.363 9.05127 288.425 9.19983 288.425 9.3547V14.0264C288.425 14.1813 288.363 14.3299 288.254 14.4394C288.144 14.5489 287.996 14.6104 287.841 14.6104ZM287.841 5.26695C287.686 5.26695 287.537 5.20546 287.428 5.09594C287.318 4.98643 287.257 4.83787 287.257 4.68299V1.01127C287.257 0.856395 287.318 0.707834 287.428 0.598319C287.537 0.488805 287.686 0.427307 287.841 0.427307C287.996 0.427307 288.144 0.488805 288.254 0.598319C288.363 0.707834 288.425 0.856395 288.425 1.01127V4.68299C288.425 4.83787 288.363 4.98643 288.254 5.09594C288.144 5.20546 287.996 5.26695 287.841 5.26695Z" fill="white"/>
<path d="M395.025 191.926H312.032V195.242H395.025V191.926Z" fill="white"/>
<path d="M395.025 188.609H312.032V190.267H395.025V188.609Z" fill="white"/>
<path d="M395.025 183.61H312.032V185.268H395.025V183.61Z" fill="white"/>
<path d="M395.025 175.317H312.032V176.976H395.025V175.317Z" fill="white"/>
<path d="M395.025 170.342H312.032V173.659H395.025V170.342Z" fill="white"/>
<path d="M395.025 163.708H312.032V168.684H395.025V163.708Z" fill="white"/>
<path d="M395.025 155.393H312.032V158.71H395.025V155.393Z" fill="white"/>
<path d="M395.025 148.759H312.032V153.734H395.025V148.759Z" fill="white"/>
<path d="M395.025 142.125H312.032V147.1H395.025V142.125Z" fill="white"/>
<path d="M395.025 137.126H312.032V140.443H395.025V137.126Z" fill="white"/>
<path d="M395.025 133.809H312.032V135.468H395.025V133.809Z" fill="white"/>
<path d="M395.025 127.175H312.032V128.834H395.025V127.175Z" fill="white"/>
<path d="M395.025 120.542H312.032V122.2H395.025V120.542Z" fill="white"/>
<path d="M395.025 113.884H312.032V115.543H395.025V113.884Z" fill="white"/>
<path d="M395.025 108.909H312.032V112.226H395.025V108.909Z" fill="white"/>
<path d="M395.025 102.275H312.032V103.934H395.025V102.275Z" fill="white"/>
<path d="M395.025 97.2999H312.032V100.617H395.025V97.2999Z" fill="white"/>
<path d="M395.025 90.6659H312.032V92.3244H395.025V90.6659Z" fill="white"/>
<path d="M395.025 84.0088H312.032V85.6672H395.025V84.0088Z" fill="white"/>
<path d="M395.025 75.7164H312.032V77.3748H395.025V75.7164Z" fill="white"/>
<path d="M395.025 70.7411H312.032V74.0581H395.025V70.7411Z" fill="white"/>
<path d="M395.025 64.0839H312.032V67.4008H395.025V64.0839Z" fill="white"/>
<path d="M395.025 54.1331H312.032V59.1085H395.025V54.1331Z" fill="white"/>
<path d="M395.025 50.8162H312.032V52.4747H395.025V50.8162Z" fill="white"/>
<path d="M395.025 45.8408H312.032V49.1577H395.025V45.8408Z" fill="white"/>
<path d="M407.288 142.662L407.125 141.517C407.652 141.547 408.176 141.408 408.619 141.12C408.751 140.989 408.854 140.832 408.922 140.659C408.991 140.487 409.023 140.302 409.017 140.116C409.025 139.829 408.952 139.546 408.806 139.298C408.662 139.074 408.449 138.902 408.199 138.808C407.809 138.717 407.408 138.677 407.008 138.691H400.467V137.43H406.938C407.573 137.404 408.207 137.499 408.806 137.71C409.218 137.918 409.56 138.243 409.787 138.644C410.032 139.087 410.153 139.587 410.138 140.093C410.17 140.446 410.122 140.802 409.997 141.134C409.871 141.466 409.672 141.765 409.414 142.008C409.12 142.252 408.781 142.435 408.416 142.547C408.051 142.659 407.668 142.699 407.288 142.662Z" fill="white"/>
<path d="M400.467 129.137V127.876H405.957C406.748 127.846 407.539 127.957 408.292 128.203C408.862 128.429 409.339 128.841 409.647 129.371C410.03 130.046 410.216 130.815 410.185 131.59C410.21 132.349 410.049 133.103 409.717 133.786C409.427 134.332 408.956 134.761 408.386 135C407.635 135.257 406.843 135.376 406.05 135.351H400.561V134.089H406.05C406.665 134.115 407.28 134.044 407.872 133.879C408.259 133.729 408.582 133.448 408.783 133.085C409 132.659 409.105 132.185 409.087 131.707C409.122 131.35 409.084 130.991 408.975 130.649C408.867 130.308 408.69 129.992 408.456 129.721C407.77 129.259 406.943 129.052 406.12 129.137H400.467Z" fill="white"/>
<path d="M406.237 121.336H405.139V117.318H408.666C409.148 117.887 409.528 118.535 409.787 119.233C410.07 119.967 410.195 120.751 410.155 121.536C410.115 122.32 409.91 123.088 409.554 123.788C409.172 124.531 408.568 125.136 407.825 125.517C407.045 125.915 406.179 126.116 405.303 126.101C404.404 126.113 403.516 125.913 402.71 125.517C401.943 125.178 401.311 124.595 400.911 123.858C400.505 123.081 400.304 122.213 400.327 121.336C400.321 120.706 400.432 120.08 400.654 119.49C400.845 118.979 401.167 118.528 401.589 118.182C402.052 117.831 402.586 117.584 403.154 117.458L403.457 118.579C403.048 118.692 402.661 118.874 402.313 119.117C402.024 119.363 401.799 119.675 401.659 120.028C401.488 120.443 401.401 120.887 401.402 121.336C401.393 121.846 401.48 122.353 401.659 122.831C401.82 123.21 402.058 123.553 402.359 123.835C402.635 124.088 402.951 124.293 403.294 124.442C403.903 124.687 404.553 124.814 405.209 124.816C405.943 124.837 406.671 124.685 407.335 124.372C407.892 124.096 408.343 123.645 408.619 123.088C408.85 122.557 408.968 121.984 408.968 121.406C408.968 120.827 408.85 120.255 408.619 119.724C408.453 119.296 408.225 118.894 407.942 118.533H406.167L406.237 121.336Z" fill="white"/>
<path d="M409.974 115.496H400.467V111.946C400.448 111.349 400.543 110.755 400.748 110.194C400.935 109.771 401.244 109.413 401.635 109.166C402.011 108.923 402.449 108.793 402.897 108.792C403.301 108.793 403.698 108.906 404.041 109.119C404.429 109.36 404.737 109.709 404.929 110.124C405.047 109.596 405.344 109.125 405.77 108.792C406.187 108.479 406.697 108.315 407.218 108.325C407.647 108.321 408.071 108.417 408.456 108.605C408.805 108.763 409.11 109.003 409.344 109.306C409.573 109.619 409.732 109.978 409.811 110.357C409.933 110.854 409.988 111.365 409.974 111.876V115.496ZM404.462 114.258V112.203C404.486 111.794 404.447 111.384 404.345 110.988C404.283 110.7 404.119 110.443 403.883 110.267C403.646 110.091 403.354 110.007 403.06 110.03C402.762 110.018 402.468 110.1 402.219 110.264C401.984 110.407 401.809 110.631 401.729 110.895C401.614 111.368 401.567 111.856 401.589 112.343V114.258H404.462ZM408.853 114.258V111.922C408.872 111.642 408.872 111.361 408.853 111.081C408.819 110.825 408.731 110.578 408.596 110.357C408.471 110.143 408.284 109.972 408.059 109.867C407.813 109.742 407.541 109.678 407.265 109.68C406.939 109.673 406.619 109.771 406.354 109.96C406.216 110.042 406.095 110.15 405.999 110.278C405.902 110.406 405.833 110.552 405.793 110.708C405.664 111.163 405.609 111.636 405.63 112.109V114.305L408.853 114.258Z" fill="white"/>
<path d="M409.974 106.596H400.467V103.326C400.452 102.755 400.499 102.183 400.607 101.621C400.712 101.112 400.946 100.637 401.285 100.243C401.712 99.7215 402.279 99.3326 402.92 99.1217C403.667 98.8458 404.46 98.7189 405.256 98.748C405.91 98.735 406.562 98.8136 407.195 98.9816C407.681 99.1381 408.144 99.358 408.573 99.6356C408.906 99.875 409.198 100.167 409.437 100.5C409.662 100.849 409.821 101.237 409.904 101.644C410.023 102.142 410.077 102.652 410.068 103.163L409.974 106.596ZM408.853 105.335V103.303C408.873 102.807 408.818 102.311 408.69 101.831C408.586 101.515 408.41 101.227 408.176 100.99C407.843 100.662 407.433 100.421 406.984 100.29C406.394 100.111 405.779 100.024 405.162 100.033C404.354 99.9823 403.547 100.152 402.827 100.523C402.351 100.797 401.975 101.214 401.752 101.715C401.606 102.247 401.543 102.798 401.565 103.35V105.335H408.853Z" fill="white"/>
<path d="M44.4222 63.0168L46.0426 65.2778V89.0182C46.0426 93.3141 45.0252 95.6882 43.0279 98.2506L43.2164 98.439C51.0168 97.4216 54.6721 94.0301 54.7097 86.6442V63.0168H44.4222ZM54.7474 63.0168V65.2778L56.3678 63.0168H54.7474ZM84.0055 87.4356L70.741 60.982H70.5149L56.7605 89.3951H63.6942L60.868 86.2297L62.8275 82.1599H72.0976L74.4339 87.1341L72.8136 89.3951H85.965L84.0055 87.4356ZM63.8826 79.9743L67.5002 72.4376L71.0425 79.9743H63.8826ZM109.44 63.0168H101.187L104.013 66.1822L98.361 78.58L91.7664 65.2778L93.3868 63.0168H79.5571L81.7427 65.2025L95.0826 90.827H95.3087L107.179 65.2778L109.44 63.0168ZM132.213 87.4356L118.949 60.982H118.723L104.969 89.3951H111.902L109.076 86.2297L111.036 82.1599H120.306L122.642 87.1341L121.022 89.3951H134.173L132.213 87.4356ZM112.091 79.9743L115.708 72.4376L119.25 79.9743H112.091ZM50.8605 108.017H36.2771L37.8974 110.278V132.134L36.2771 134.395H50.8605C58.8116 134.395 65.4815 129.044 65.4815 120.49C65.4815 111.559 58.8116 108.017 50.8605 108.017ZM49.843 132.209H46.5646V110.202H49.843C53.9505 110.202 56.4376 113.594 56.4376 121.168C56.4376 128.366 53.9505 132.209 49.843 132.209ZM81.4192 129.119C77.9146 129.119 75.616 127.235 75.2391 122.902H88.1268C87.976 117.4 84.773 114.385 78.7813 114.385C72.0361 114.385 67.5518 118.267 67.5518 124.409C67.5518 130.099 71.3954 134.772 78.3291 134.772C83.5294 134.772 86.6571 132.172 88.0514 127.235L87.863 127.047C85.8281 128.667 83.1149 129.119 81.4192 129.119ZM78.0654 116.194C79.6481 116.194 80.3264 117.852 80.3264 121.281H75.2014C75.2768 118.078 76.3319 116.194 78.0654 116.194ZM104.531 114.762L106.34 117.023L102.609 124.447L99.029 117.023L100.649 114.762H87.1588L89.269 116.948L99.5189 135.526H99.745L108.864 117.023L111.125 114.762H104.531ZM123.776 129.119C120.271 129.119 117.973 127.235 117.596 122.902H130.484C130.333 117.4 127.13 114.385 121.138 114.385C114.393 114.385 109.909 118.267 109.909 124.409C109.909 130.099 113.752 134.772 120.686 134.772C125.886 134.772 129.014 132.172 130.408 127.235L130.22 127.047C128.185 128.667 125.472 129.119 123.776 129.119ZM120.422 116.194C122.005 116.194 122.683 117.852 122.683 121.281H117.558C117.634 118.078 118.689 116.194 120.422 116.194ZM141.896 132.134V104.399L132.06 108.695L133.605 110.918V132.134L131.985 134.395H143.554L141.896 132.134ZM156.62 134.772C162.122 134.772 168.151 131.795 168.151 124.597C168.151 117.362 162.122 114.385 156.62 114.385C151.081 114.385 145.089 117.362 145.089 124.597C145.089 131.795 151.081 134.772 156.62 134.772ZM156.846 132.963C154.699 132.963 153.794 129.421 153.794 123.806C153.794 119.209 154.284 116.194 156.357 116.194C158.542 116.194 159.409 119.736 159.409 125.351C159.409 129.986 158.919 132.963 156.846 132.963ZM169.287 143.439H182.062L179.198 140.274V134.621C179.914 134.697 180.63 134.772 181.195 134.772C186.923 134.772 193.442 131.418 193.442 123.655C193.442 117.174 188.92 114.385 184.963 114.385C182.514 114.385 180.253 115.478 178.821 117.136L178.632 116.948L179.198 114.084L169.362 118.417L170.907 120.603V141.178L169.287 143.439ZM181.496 132.963C180.177 132.963 179.198 131.795 179.198 130.476V118.757C179.838 118.191 180.743 118.003 181.383 118.003C183.38 118.003 185.076 120.189 185.076 125.351C185.076 130.175 183.531 132.963 181.496 132.963ZM209.152 129.119C205.647 129.119 203.349 127.235 202.972 122.902H215.86C215.709 117.4 212.506 114.385 206.514 114.385C199.769 114.385 195.285 118.267 195.285 124.409C195.285 130.099 199.128 134.772 206.062 134.772C211.262 134.772 214.39 132.172 215.784 127.235L215.596 127.047C213.561 128.667 210.848 129.119 209.152 129.119ZM205.798 116.194C207.381 116.194 208.059 117.852 208.059 121.281H202.934C203.01 118.078 204.065 116.194 205.798 116.194ZM232.321 122.939L235.034 114.762C230.399 113.707 227.611 116.646 226.405 121.583L226.217 121.507L227.272 114.084L217.399 118.417L218.981 120.603V132.134L217.361 134.395H230.098L227.272 131.23V123.128C228.402 121.583 230.739 122.148 232.321 122.939ZM243.427 118.53C243.427 117.475 244.519 116.533 246.592 116.533C246.893 116.533 247.195 116.571 247.496 116.609L252.018 121.658V114.084L249.644 115.101C248.363 114.687 246.818 114.385 244.972 114.385C239.319 114.385 235.626 117.061 235.626 121.018C235.626 127.273 245.085 127.386 245.085 130.627C245.085 131.644 244.18 132.662 242.032 132.662C241.467 132.662 240.902 132.586 240.337 132.398L235.626 126.595V135.073L238.113 133.83C239.583 134.357 241.467 134.772 243.766 134.772C250.134 134.772 253.073 131.682 253.073 128.027C253.073 121.432 243.427 121.62 243.427 118.53ZM259.563 117.588H259.751L263.557 103.759H255.757L259.563 117.588ZM61.0726 171.293C58.284 173.479 55.5709 174.006 53.536 174.006C48.9009 174.006 45.3964 171.029 45.3964 164.661C45.3964 158.33 48.5618 154.826 52.8954 154.826C53.6113 154.826 54.4027 154.939 55.3071 155.165L60.1682 163.229V157.539C60.1682 157.577 60.2059 157.577 60.2059 157.577V152.941L58.284 153.695C56.2115 152.979 53.8751 152.64 51.8402 152.64C43.8514 152.64 36.2394 157.652 36.2394 166.62C36.2394 174.459 42.5325 179.772 49.6923 179.772C54.8926 179.772 59.1884 177.172 61.261 171.482L61.0726 171.293ZM74.4828 179.772C79.9846 179.772 86.0139 176.795 86.0139 169.597C86.0139 162.362 79.9846 159.385 74.4828 159.385C68.9434 159.385 62.9518 162.362 62.9518 169.597C62.9518 176.795 68.9434 179.772 74.4828 179.772ZM74.7089 177.963C72.561 177.963 71.6566 174.421 71.6566 168.806C71.6566 164.209 72.1465 161.194 74.219 161.194C76.4047 161.194 77.2714 164.736 77.2714 170.351C77.2714 174.986 76.7815 177.963 74.7089 177.963ZM100.866 179.395H112.435L110.777 177.134V165.264C110.777 160.704 108.064 159.385 105.049 159.385C101.243 159.385 99.0573 161.119 97.2485 163.041L97.06 162.852L97.6253 159.084L87.7523 163.417L89.335 165.603V177.134L87.7146 179.395H99.2457L97.6253 177.134V164.359C98.7181 163.644 99.5848 163.455 100.376 163.455C101.733 163.455 102.486 164.096 102.486 165.904V177.134L100.866 179.395ZM124.771 159.235C124.771 155.127 125.411 152.452 127.032 151.51L129.707 155.579L134.983 152.866C132.571 149.889 129.783 149.399 127.182 149.399C122.736 149.399 116.48 151.472 116.48 159.008V159.197L113.127 162.664H116.48V177.172L114.898 179.395H127.597L124.771 176.23V162.664H129.67L130.8 159.762H124.771V159.235ZM144.384 174.119C140.879 174.119 138.581 172.235 138.204 167.902H151.092C150.941 162.4 147.738 159.385 141.746 159.385C135.001 159.385 130.517 163.267 130.517 169.409C130.517 175.099 134.36 179.772 141.294 179.772C146.494 179.772 149.622 177.172 151.016 172.235L150.828 172.047C148.793 173.667 146.08 174.119 144.384 174.119ZM141.03 161.194C142.613 161.194 143.291 162.852 143.291 166.281H138.166C138.242 163.078 139.297 161.194 141.03 161.194ZM167.553 167.939L170.266 159.762C165.631 158.707 162.843 161.646 161.637 166.583L161.449 166.507L162.504 159.084L152.631 163.417L154.213 165.603V177.134L152.593 179.395H165.33L162.504 176.23V168.128C163.634 166.583 165.971 167.148 167.553 167.939ZM184.349 174.119C180.844 174.119 178.546 172.235 178.169 167.902H191.056C190.906 162.4 187.703 159.385 181.711 159.385C174.966 159.385 170.481 163.267 170.481 169.409C170.481 175.099 174.325 179.772 181.259 179.772C186.459 179.772 189.587 177.172 190.981 172.235L190.793 172.047C188.758 173.667 186.044 174.119 184.349 174.119ZM180.995 161.194C182.578 161.194 183.256 162.852 183.256 166.281H178.131C178.206 163.078 179.261 161.194 180.995 161.194ZM205.709 179.395H217.278L215.62 177.134V165.264C215.62 160.704 212.907 159.385 209.892 159.385C206.086 159.385 203.9 161.119 202.092 163.041L201.903 162.852L202.468 159.084L192.595 163.417L194.178 165.603V177.134L192.558 179.395H204.089L202.468 177.134V164.359C203.561 163.644 204.428 163.455 205.219 163.455C206.576 163.455 207.33 164.096 207.33 165.904V177.134L205.709 179.395ZM232.666 174.119C229.388 174.119 227.278 171.858 227.278 167.713C227.278 163.87 228.973 161.533 230.631 161.194L233.42 166.394L238.545 163.719C237.037 160.78 233.985 159.385 230.141 159.385C223.999 159.385 218.837 163.041 218.837 169.56C218.837 175.099 222.567 179.772 229.124 179.772C234.136 179.772 237.188 177.134 238.545 172.235L238.356 172.047C236.322 173.667 234.098 174.119 232.666 174.119ZM253.937 174.119C250.433 174.119 248.134 172.235 247.757 167.902H260.645C260.494 162.4 257.291 159.385 251.3 159.385C244.554 159.385 240.07 163.267 240.07 169.409C240.07 175.099 243.914 179.772 250.847 179.772C256.048 179.772 259.175 177.172 260.57 172.235L260.381 172.047C258.346 173.667 255.633 174.119 253.937 174.119ZM250.584 161.194C252.166 161.194 252.845 162.852 252.845 166.281H247.72C247.795 163.078 248.85 161.194 250.584 161.194Z" fill="white"/>
</svg>
